<svg width="151" height="151" viewBox="0 0 151 151" fill="none" xmlns="http://www.w3.org/2000/svg">
<g clip-path="url(#clip0_16_2)">
<rect x="150.764" y="150.764" width="150.764" height="150.764" transform="rotate(-180 150.764 150.764)" fill="#181318"/>
<path d="M147.201 44.7148C154.139 44.7148 159.764 50.3398 159.764 57.2785L159.764 165.201C159.764 172.139 154.139 177.764 147.201 177.764C140.262 177.764 134.637 172.139 134.637 165.201L134.637 141.707C134.637 140.319 133.512 139.194 132.124 139.194L131.119 139.194C129.731 139.194 128.606 140.319 128.606 141.707L128.606 146.983C128.606 152.534 124.106 157.034 118.556 157.034C113.004 157.034 108.505 152.534 108.505 146.983L108.505 118.527C108.505 117.877 108.246 117.254 107.787 116.794C107.328 116.335 106.704 116.077 106.055 116.077C105.405 116.077 104.782 116.335 104.322 116.794C103.863 117.254 103.605 117.877 103.605 118.527L103.605 160.301C103.605 164.811 99.9484 168.467 95.4383 168.467C90.9282 168.467 87.2719 164.811 87.2719 160.301L87.2719 40.9457C87.2719 36.4353 90.9282 32.7793 95.4383 32.7793C99.9484 32.7793 103.605 36.4353 103.605 40.9457L103.605 105.083C103.605 105.733 103.863 106.356 104.322 106.816C104.782 107.275 105.405 107.533 106.055 107.533C106.704 107.533 107.328 107.275 107.787 106.816C108.246 106.356 108.505 105.733 108.505 105.083L108.505 93.9645C108.505 88.4136 113.004 83.9136 118.556 83.9136C124.106 83.9136 128.606 88.4136 128.606 93.9645L128.606 127.887C128.606 129.274 129.731 130.399 131.119 130.399L132.124 130.399C133.512 130.399 134.637 129.274 134.637 127.887L134.637 57.2785C134.637 50.3398 140.262 44.7148 147.201 44.7148Z" fill="#574F6F" fill-opacity="0.37"/>
<path d="M68.2008 79.7148C75.1395 79.7148 80.7645 85.3398 80.7645 92.2785L80.7645 200.201C80.7645 207.139 75.1395 212.764 68.2008 212.764C61.2621 212.764 55.6371 207.139 55.6371 200.201L55.6371 176.707C55.6371 175.319 54.5121 174.194 53.1243 174.194L52.1192 174.194C50.7314 174.194 49.6065 175.319 49.6065 176.707L49.6065 181.983C49.6065 187.534 45.1064 192.034 39.5555 192.034C34.0044 192.034 29.5046 187.534 29.5046 181.983L29.5046 153.527C29.5046 152.877 29.2464 152.254 28.787 151.794C28.3275 151.335 27.7044 151.077 27.0546 151.077C26.4049 151.077 25.7817 151.335 25.3223 151.794C24.8628 152.254 24.6047 152.877 24.6047 153.527L24.6047 195.301C24.6047 199.811 20.9484 203.467 16.4383 203.467C11.9282 203.467 8.27189 199.811 8.27189 195.301L8.27189 75.9457C8.27189 71.4353 11.9282 67.7793 16.4383 67.7793C20.9484 67.7793 24.6047 71.4353 24.6047 75.9457L24.6047 140.083C24.6047 140.733 24.8628 141.356 25.3223 141.816C25.7817 142.275 26.4049 142.533 27.0546 142.533C27.7044 142.533 28.3275 142.275 28.787 141.816C29.2464 141.356 29.5046 140.733 29.5046 140.083L29.5046 128.965C29.5046 123.414 34.0044 118.914 39.5555 118.914C45.1064 118.914 49.6065 123.414 49.6065 128.965L49.6065 162.887C49.6065 164.274 50.7314 165.399 52.1192 165.399L53.1243 165.399C54.5121 165.399 55.6371 164.274 55.6371 162.887L55.6371 92.2785C55.6371 85.3398 61.2621 79.7148 68.2008 79.7148Z" fill="#574F6F" fill-opacity="0.37"/>
<path d="M193.201 -93.2852C200.139 -93.2852 205.764 -87.6602 205.764 -80.7215L205.764 27.2008C205.764 34.1395 200.139 39.7645 193.201 39.7645C186.262 39.7645 180.637 34.1395 180.637 27.2008L180.637 3.70663C180.637 2.31884 179.512 1.19389 178.124 1.19389L177.119 1.19389C175.731 1.19389 174.606 2.31884 174.606 3.70663L174.606 8.98338C174.606 14.5343 170.106 19.0344 164.556 19.0344C159.004 19.0344 154.505 14.5343 154.505 8.98338L154.505 -19.4734C154.505 -20.1232 154.246 -20.7463 153.787 -21.2058C153.328 -21.6652 152.704 -21.9233 152.055 -21.9233C151.405 -21.9233 150.782 -21.6652 150.322 -21.2058C149.863 -20.7463 149.605 -20.1232 149.605 -19.4734L149.605 22.3009C149.605 26.811 145.948 30.4673 141.438 30.4673C136.928 30.4673 133.272 26.811 133.272 22.3009L133.272 -97.0543C133.272 -101.565 136.928 -105.221 141.438 -105.221C145.948 -105.221 149.605 -101.565 149.605 -97.0543L149.605 -32.9166C149.605 -32.2668 149.863 -31.6437 150.322 -31.1842C150.782 -30.7248 151.405 -30.4667 152.055 -30.4667C152.704 -30.4667 153.328 -30.7248 153.787 -31.1842C154.246 -31.6437 154.505 -32.2668 154.505 -32.9166L154.505 -44.0355C154.505 -49.5864 159.004 -54.0864 164.556 -54.0864C170.106 -54.0864 174.606 -49.5864 174.606 -44.0355L174.606 -10.1135C174.606 -8.72567 175.731 -7.60071 177.119 -7.60071L178.124 -7.60071C179.512 -7.60071 180.637 -8.72567 180.637 -10.1135L180.637 -80.7215C180.637 -87.6602 186.262 -93.2852 193.201 -93.2852Z" fill="#574F6F"/>
<path d="M67.8356 62.829C60.8969 62.829 55.2719 57.2039 55.2719 50.2653L55.2719 -57.657C55.2719 -64.5957 60.8969 -70.2207 67.8356 -70.2207C74.7743 -70.2207 80.3993 -64.5957 80.3993 -57.657L80.3993 -34.1629C80.3993 -32.7751 81.5243 -31.6501 82.912 -31.6501L83.9171 -31.6501C85.3049 -31.6501 86.4299 -32.7751 86.4299 -34.1629L86.4299 -39.4396C86.4299 -44.9905 90.93 -49.4906 96.4809 -49.4906C102.032 -49.4906 106.532 -44.9905 106.532 -39.4396L106.532 -10.9828C106.532 -10.3331 106.79 -9.70991 107.249 -9.25046C107.709 -8.79101 108.332 -8.5329 108.982 -8.5329C109.632 -8.5329 110.255 -8.79101 110.714 -9.25046C111.174 -9.70991 111.432 -10.3331 111.432 -10.9828L111.432 -52.7572C111.432 -57.2673 115.088 -60.9236 119.598 -60.9236C124.108 -60.9236 127.764 -57.2673 127.764 -52.7572L127.764 66.5981C127.764 71.1085 124.108 74.7645 119.598 74.7645C115.088 74.7645 111.432 71.1085 111.432 66.5981L111.432 2.46035C111.432 1.81059 111.174 1.18745 110.714 0.727996C110.255 0.268546 109.632 0.0104291 108.982 0.0104291C108.332 0.010429 107.709 0.268546 107.249 0.727996C106.79 1.18745 106.532 1.81059 106.532 2.46035L106.532 13.5792C106.532 19.1301 102.032 23.6302 96.4809 23.6302C90.93 23.6302 86.4299 19.1301 86.4299 13.5792L86.4299 -20.3428C86.4299 -21.7306 85.3049 -22.8555 83.9171 -22.8555L82.912 -22.8555C81.5243 -22.8555 80.3993 -21.7306 80.3993 -20.3428L80.3993 50.2653C80.3993 57.2039 74.7743 62.829 67.8356 62.829Z" fill="#574F6F"/>
<path d="M-10.1644 99.829C-17.1031 99.829 -22.7281 94.2039 -22.7281 87.2652L-22.7281 -20.657C-22.7281 -27.5957 -17.1031 -33.2207 -10.1644 -33.2207C-3.22575 -33.2207 2.39928 -27.5957 2.39928 -20.657L2.39928 2.83712C2.39928 4.22491 3.52423 5.34986 4.91202 5.34986L5.91711 5.34986C7.3049 5.34986 8.42986 4.22491 8.42986 2.83712L8.42986 -2.43964C8.42986 -7.99053 12.9299 -12.4906 18.4808 -12.4906C24.032 -12.4906 28.5318 -7.99053 28.5318 -2.43964L28.5318 26.0172C28.5318 26.6669 28.7899 27.2901 29.2493 27.7495C29.7088 28.209 30.332 28.4671 30.9817 28.4671C31.6315 28.4671 32.2546 28.209 32.7141 27.7495C33.1735 27.2901 33.4316 26.6669 33.4316 26.0172L33.4316 -15.7572C33.4316 -20.2673 37.0879 -23.9236 41.598 -23.9236C46.1082 -23.9236 49.7645 -20.2673 49.7645 -15.7572L49.7645 103.598C49.7645 108.108 46.1082 111.764 41.598 111.764C37.0879 111.764 33.4316 108.108 33.4316 103.598L33.4316 39.4603C33.4316 38.8106 33.1735 38.1874 32.7141 37.728C32.2546 37.2685 31.6315 37.0104 30.9817 37.0104C30.332 37.0104 29.7088 37.2685 29.2493 37.728C28.7899 38.1874 28.5318 38.8106 28.5318 39.4603L28.5318 50.5792C28.5318 56.1301 24.032 60.6302 18.4808 60.6302C12.9299 60.6302 8.42985 56.1301 8.42985 50.5792L8.42986 16.6572C8.42986 15.2694 7.3049 14.1445 5.91711 14.1445L4.91202 14.1445C3.52423 14.1445 2.39928 15.2694 2.39928 16.6572L2.39927 87.2652C2.39927 94.2039 -3.22575 99.829 -10.1644 99.829Z" fill="#574F6F"/>
<ellipse cx="18" cy="18.5" rx="18" ry="18.5" transform="matrix(1 8.74228e-08 8.74228e-08 -1 103 134)" fill="#E55733"/>
<ellipse cx="14" cy="14" rx="14" ry="14" transform="matrix(1 8.74228e-08 8.74228e-08 -1 72 89)" fill="#E58833"/>
</g>
<rect x="149.764" y="149.764" width="148.764" height="148.764" transform="rotate(-180 149.764 149.764)" stroke="#FFEAE4" stroke-width="2"/>
<defs>
<clipPath id="clip0_16_2">
<rect x="150.764" y="150.764" width="150.764" height="150.764" transform="rotate(-180 150.764 150.764)" fill="white"/>
</clipPath>
</defs>
</svg>
