<svg width="151" height="151" viewBox="0 0 151 151" fill="none" xmlns="http://www.w3.org/2000/svg">
<g clip-path="url(#clip0_12_53)">
<rect width="150.764" height="150.764" fill="#181318"/>
<path d="M3.56371 106.05C-3.37498 106.05 -9 100.425 -9 93.486L-9.00001 -14.4362C-9.00001 -21.3749 -3.37498 -27 3.5637 -27C10.5024 -27 16.1274 -21.3749 16.1274 -14.4362L16.1274 9.05788C16.1274 10.4457 17.2524 11.5706 18.6402 11.5706L19.6453 11.5706C21.033 11.5706 22.158 10.4457 22.158 9.05788L22.158 3.78113C22.158 -1.76978 26.6581 -6.26985 32.209 -6.26985C37.7601 -6.26985 42.2599 -1.76978 42.2599 3.78113L42.2599 32.2379C42.2599 32.8877 42.518 33.5108 42.9775 33.9703C43.4369 34.4297 44.0601 34.6878 44.7099 34.6878C45.3596 34.6878 45.9828 34.4297 46.4422 33.9703C46.9017 33.5108 47.1598 32.8877 47.1598 32.2379L47.1598 -9.53641C47.1598 -14.0465 50.8161 -17.7028 55.3262 -17.7028C59.8363 -17.7028 63.4926 -14.0465 63.4926 -9.53641L63.4926 109.819C63.4926 114.329 59.8363 117.985 55.3262 117.985C50.8161 117.985 47.1598 114.329 47.1598 109.819L47.1598 45.6811C47.1598 45.0313 46.9017 44.4082 46.4422 43.9487C45.9828 43.4893 45.3596 43.2312 44.7099 43.2312C44.0601 43.2312 43.4369 43.4893 42.9775 43.9487C42.518 44.4082 42.2599 45.0313 42.2599 45.6811L42.2599 56.8C42.2599 62.3509 37.7601 66.851 32.209 66.851C26.6581 66.851 22.158 62.3509 22.158 56.8L22.158 22.878C22.158 21.4902 21.033 20.3652 19.6453 20.3652L18.6402 20.3652C17.2524 20.3652 16.1274 21.4902 16.1274 22.878L16.1274 93.486C16.1274 100.425 10.5024 106.05 3.56371 106.05Z" fill="#574F6F"/>
<path d="M-42.4363 244.05C-49.375 244.05 -55 238.425 -55 231.486L-55 123.564C-55 116.625 -49.375 111 -42.4363 111C-35.4976 111 -29.8726 116.625 -29.8726 123.564L-29.8726 147.058C-29.8726 148.446 -28.7476 149.571 -27.3598 149.571L-26.3547 149.571C-24.967 149.571 -23.842 148.446 -23.842 147.058L-23.842 141.781C-23.842 136.23 -19.3419 131.73 -13.791 131.73C-8.23989 131.73 -3.74007 136.23 -3.74007 141.781L-3.74007 170.238C-3.74007 170.888 -3.48196 171.511 -3.02251 171.97C-2.56306 172.43 -1.93991 172.688 -1.29015 172.688C-0.640385 172.688 -0.0172385 172.43 0.442211 171.97C0.901661 171.511 1.15978 170.888 1.15978 170.238L1.15978 128.464C1.15978 123.953 4.81606 120.297 9.32618 120.297C13.8363 120.297 17.4926 123.953 17.4926 128.464L17.4926 247.819C17.4926 252.329 13.8363 255.985 9.32619 255.985C4.81607 255.985 1.15978 252.329 1.15978 247.819L1.15978 183.681C1.15978 183.031 0.901662 182.408 0.442212 181.949C-0.0172381 181.489 -0.640384 181.231 -1.29015 181.231C-1.93991 181.231 -2.56306 181.489 -3.02251 181.949C-3.48196 182.408 -3.74007 183.031 -3.74007 183.681L-3.74007 194.8C-3.74007 200.351 -8.23989 204.851 -13.791 204.851C-19.3419 204.851 -23.842 200.351 -23.842 194.8L-23.842 160.878C-23.842 159.49 -24.967 158.365 -26.3547 158.365L-27.3598 158.365C-28.7476 158.365 -29.8726 159.49 -29.8726 160.878L-29.8726 231.486C-29.8726 238.425 -35.4976 244.05 -42.4363 244.05Z" fill="#574F6F"/>
<path d="M82.5637 71.0497C75.625 71.0497 70 65.4247 70 58.486L70 -49.4362C70 -56.3749 75.625 -62 82.5637 -62C89.5024 -62 95.1274 -56.3749 95.1274 -49.4362L95.1274 -25.9421C95.1274 -24.5543 96.2524 -23.4294 97.6402 -23.4294L98.6453 -23.4294C100.033 -23.4294 101.158 -24.5543 101.158 -25.9421L101.158 -31.2189C101.158 -36.7698 105.658 -41.2699 111.209 -41.2699C116.76 -41.2699 121.26 -36.7698 121.26 -31.2189L121.26 -2.76207C121.26 -2.11231 121.518 -1.48916 121.977 -1.02971C122.437 -0.570261 123.06 -0.312151 123.71 -0.312151C124.36 -0.312151 124.983 -0.570261 125.442 -1.02971C125.902 -1.48916 126.16 -2.11231 126.16 -2.76207L126.16 -44.5364C126.16 -49.0465 129.816 -52.7028 134.326 -52.7028C138.836 -52.7028 142.493 -49.0465 142.493 -44.5364L142.493 74.8188C142.493 79.3292 138.836 82.9852 134.326 82.9852C129.816 82.9852 126.16 79.3292 126.16 74.8188L126.16 10.6811C126.16 10.0313 125.902 9.40819 125.442 8.94874C124.983 8.48929 124.36 8.23118 123.71 8.23118C123.06 8.23118 122.437 8.48929 121.977 8.94874C121.518 9.40819 121.26 10.0313 121.26 10.6811L121.26 21.8C121.26 27.3509 116.76 31.851 111.209 31.851C105.658 31.851 101.158 27.3509 101.158 21.8L101.158 -12.122C101.158 -13.5098 100.033 -14.6348 98.6453 -14.6348L97.6402 -14.6348C96.2524 -14.6348 95.1274 -13.5098 95.1274 -12.122L95.1274 58.486C95.1274 65.4247 89.5024 71.0497 82.5637 71.0497Z" fill="#574F6F"/>
<path d="M82.9289 87.9355C89.8676 87.9355 95.4926 93.5606 95.4926 100.499L95.4926 208.422C95.4926 215.36 89.8676 220.985 82.9289 220.985C75.9902 220.985 70.3652 215.36 70.3652 208.422L70.3652 184.927C70.3652 183.54 69.2402 182.415 67.8525 182.415L66.8474 182.415C65.4596 182.415 64.3346 183.54 64.3346 184.927L64.3346 190.204C64.3346 195.755 59.8346 200.255 54.2837 200.255C48.7325 200.255 44.2327 195.755 44.2327 190.204L44.2327 161.747C44.2327 161.098 43.9746 160.474 43.5151 160.015C43.0557 159.556 42.4325 159.297 41.7828 159.297C41.133 159.297 40.5099 159.556 40.0504 160.015C39.591 160.474 39.3328 161.098 39.3328 161.747L39.3328 203.522C39.3328 208.032 35.6766 211.688 31.1664 211.688C26.6563 211.688 23 208.032 23 203.522L23 84.1664C23 79.6561 26.6563 76 31.1664 76C35.6765 76 39.3328 79.6561 39.3328 84.1664L39.3328 148.304C39.3328 148.954 39.591 149.577 40.0504 150.037C40.5099 150.496 41.133 150.754 41.7828 150.754C42.4325 150.754 43.0557 150.496 43.5151 150.037C43.9746 149.577 44.2327 148.954 44.2327 148.304L44.2327 137.185C44.2327 131.634 48.7325 127.134 54.2836 127.134C59.8345 127.134 64.3346 131.634 64.3346 137.185L64.3346 171.107C64.3346 172.495 65.4596 173.62 66.8474 173.62L67.8525 173.62C69.2402 173.62 70.3652 172.495 70.3652 171.107L70.3652 100.499C70.3652 93.5606 75.9902 87.9355 82.9289 87.9355Z" fill="#574F6F"/>
<path d="M160.929 50.9355C167.868 50.9355 173.493 56.5605 173.493 63.4992L173.493 171.421C173.493 178.36 167.868 183.985 160.929 183.985C153.99 183.985 148.365 178.36 148.365 171.421L148.365 147.927C148.365 146.54 147.24 145.415 145.852 145.415L144.847 145.415C143.46 145.415 142.335 146.54 142.335 147.927L142.335 153.204C142.335 158.755 137.835 163.255 132.284 163.255C126.733 163.255 122.233 158.755 122.233 153.204L122.233 124.747C122.233 124.098 121.975 123.474 121.515 123.015C121.056 122.556 120.433 122.297 119.783 122.297C119.133 122.297 118.51 122.556 118.05 123.015C117.591 123.474 117.333 124.098 117.333 124.747L117.333 166.522C117.333 171.032 113.677 174.688 109.166 174.688C104.656 174.688 101 171.032 101 166.522L101 47.1664C101 42.656 104.656 39 109.166 39C113.677 39 117.333 42.656 117.333 47.1664L117.333 111.304C117.333 111.954 117.591 112.577 118.05 113.037C118.51 113.496 119.133 113.754 119.783 113.754C120.433 113.754 121.056 113.496 121.515 113.037C121.975 112.577 122.233 111.954 122.233 111.304L122.233 100.185C122.233 94.6344 126.733 90.1343 132.284 90.1343C137.835 90.1343 142.335 94.6344 142.335 100.185L142.335 134.107C142.335 135.495 143.46 136.62 144.847 136.62L145.852 136.62C147.24 136.62 148.365 135.495 148.365 134.107L148.365 63.4992C148.365 56.5605 153.99 50.9355 160.929 50.9355Z" fill="#574F6F"/>
</g>
<rect x="1" y="1" width="148.764" height="148.764" stroke="white" stroke-width="2"/>
<defs>
<clipPath id="clip0_12_53">
<rect width="150.764" height="150.764" fill="white"/>
</clipPath>
</defs>
</svg>
