<svg width="151" height="151" viewBox="0 0 151 151" fill="none" xmlns="http://www.w3.org/2000/svg">
<g clip-path="url(#clip0_9_2)">
<rect width="150.764" height="150.764" fill="#090609"/>
<g style="mix-blend-mode:screen">
<path d="M61.9355 4.56371C61.9355 -2.37498 67.5605 -8 74.4992 -8H182.421C189.36 -8 194.985 -2.37498 194.985 4.56371C194.985 11.5024 189.36 17.1274 182.421 17.1274H158.927C157.54 17.1274 156.415 18.2524 156.415 19.6402V20.6453C156.415 22.033 157.54 23.158 158.927 23.158H164.204C169.755 23.158 174.255 27.6581 174.255 33.209C174.255 38.7601 169.755 43.2599 164.204 43.2599H135.747C135.098 43.2599 134.474 43.518 134.015 43.9775C133.556 44.4369 133.297 45.0601 133.297 45.7099C133.297 46.3596 133.556 46.9828 134.015 47.4422C134.474 47.9017 135.098 48.1598 135.747 48.1598H177.522C182.032 48.1598 185.688 51.8161 185.688 56.3262C185.688 60.8363 182.032 64.4926 177.522 64.4926H58.1664C53.656 64.4926 50 60.8363 50 56.3262C50 51.8161 53.656 48.1598 58.1664 48.1598H122.304C122.954 48.1598 123.577 47.9017 124.036 47.4422C124.496 46.9828 124.754 46.3596 124.754 45.7099C124.754 45.0601 124.496 44.4369 124.036 43.9775C123.577 43.518 122.954 43.2599 122.304 43.2599H111.185C105.634 43.2599 101.134 38.7601 101.134 33.209C101.134 27.6581 105.634 23.158 111.185 23.158H145.107C146.495 23.158 147.62 22.033 147.62 20.6453V19.6402C147.62 18.2524 146.495 17.1274 145.107 17.1274H74.4992C67.5605 17.1274 61.9355 11.5024 61.9355 4.56371Z" fill="#43A363"/>
</g>
<g style="mix-blend-mode:screen">
<path d="M-76.0645 -41.4363C-76.0645 -48.375 -70.4395 -54 -63.5008 -54H44.4215C51.3602 -54 56.9852 -48.375 56.9852 -41.4363C56.9852 -34.4976 51.3602 -28.8726 44.4215 -28.8726H20.9274C19.5396 -28.8726 18.4146 -27.7476 18.4146 -26.3598V-25.3547C18.4146 -23.967 19.5396 -22.842 20.9274 -22.842H26.2041C31.755 -22.842 36.2551 -18.3419 36.2551 -12.791C36.2551 -7.23988 31.755 -2.74007 26.2041 -2.74007H-2.25268C-2.90244 -2.74007 -3.5256 -2.48195 -3.98505 -2.0225C-4.4445 -1.56305 -4.70261 -0.939902 -4.70261 -0.290142C-4.70261 0.359618 -4.4445 0.982764 -3.98505 1.44221C-3.5256 1.90166 -2.90244 2.15978 -2.25268 2.15978H39.5217C44.0318 2.15978 47.6881 5.81607 47.6881 10.3262C47.6881 14.8363 44.0318 18.4926 39.5217 18.4926H-79.8336C-84.344 18.4926 -88 14.8363 -88 10.3262C-88 5.81607 -84.344 2.15978 -79.8336 2.15978H-15.6959C-15.0461 2.15978 -14.4229 1.90166 -13.9635 1.44221C-13.504 0.982764 -13.2459 0.359618 -13.2459 -0.290142C-13.2459 -0.939902 -13.504 -1.56305 -13.9635 -2.0225C-14.4229 -2.48195 -15.0461 -2.74007 -15.6959 -2.74007H-26.8147C-32.3656 -2.74007 -36.8657 -7.23988 -36.8657 -12.791C-36.8657 -18.3419 -32.3656 -22.842 -26.8147 -22.842H7.10728C8.49507 -22.842 9.62002 -23.967 9.62002 -25.3547V-26.3598C9.62002 -27.7476 8.49507 -28.8726 7.10728 -28.8726H-63.5008C-70.4395 -28.8726 -76.0645 -34.4976 -76.0645 -41.4363Z" fill="#43A363"/>
</g>
<g style="mix-blend-mode:screen">
<path d="M96.9355 83.5637C96.9355 76.625 102.561 71 109.499 71H217.421C224.36 71 229.985 76.625 229.985 83.5637C229.985 90.5024 224.36 96.1274 217.421 96.1274H193.927C192.54 96.1274 191.415 97.2524 191.415 98.6402V99.6453C191.415 101.033 192.54 102.158 193.927 102.158H199.204C204.755 102.158 209.255 106.658 209.255 112.209C209.255 117.76 204.755 122.26 199.204 122.26H170.747C170.098 122.26 169.474 122.518 169.015 122.977C168.556 123.437 168.297 124.06 168.297 124.71C168.297 125.36 168.556 125.983 169.015 126.442C169.474 126.902 170.098 127.16 170.747 127.16H212.522C217.032 127.16 220.688 130.816 220.688 135.326C220.688 139.836 217.032 143.493 212.522 143.493H93.1664C88.656 143.493 85 139.836 85 135.326C85 130.816 88.656 127.16 93.1664 127.16H157.304C157.954 127.16 158.577 126.902 159.036 126.442C159.496 125.983 159.754 125.36 159.754 124.71C159.754 124.06 159.496 123.437 159.036 122.977C158.577 122.518 157.954 122.26 157.304 122.26H146.185C140.634 122.26 136.134 117.76 136.134 112.209C136.134 106.658 140.634 102.158 146.185 102.158H180.107C181.495 102.158 182.62 101.033 182.62 99.6453V98.6402C182.62 97.2524 181.495 96.1274 180.107 96.1274H109.499C102.561 96.1274 96.9355 90.5024 96.9355 83.5637Z" fill="#43A363"/>
</g>
<g style="mix-blend-mode:screen">
<path d="M80.0497 83.9289C80.0497 90.8676 74.4247 96.4926 67.486 96.4926H-40.4363C-47.375 96.4926 -53 90.8676 -53 83.9289C-53 76.9902 -47.375 71.3652 -40.4363 71.3652H-16.9421C-15.5543 71.3652 -14.4294 70.2402 -14.4294 68.8525V67.8474C-14.4294 66.4596 -15.5543 65.3346 -16.9421 65.3346H-22.2189C-27.7698 65.3346 -32.2699 60.8345 -32.2699 55.2836C-32.2699 49.7325 -27.7698 45.2327 -22.2189 45.2327H6.23792C6.88767 45.2327 7.51083 44.9746 7.97028 44.5151C8.42973 44.0557 8.68784 43.4325 8.68784 42.7828C8.68784 42.133 8.42973 41.5098 7.97028 41.0504C7.51083 40.591 6.88767 40.3328 6.23792 40.3328H-35.5364C-40.0465 40.3328 -43.7028 36.6765 -43.7028 32.1664C-43.7028 27.6563 -40.0465 24 -35.5364 24H83.8188C88.3292 24 91.9852 27.6563 91.9852 32.1664C91.9852 36.6765 88.3292 40.3328 83.8188 40.3328H19.6811C19.0313 40.3328 18.4082 40.591 17.9487 41.0504C17.4893 41.5098 17.2312 42.133 17.2312 42.7828C17.2312 43.4325 17.4893 44.0557 17.9487 44.5151C18.4082 44.9746 19.0313 45.2327 19.6811 45.2327H30.8C36.3509 45.2327 40.8509 49.7325 40.8509 55.2836C40.8509 60.8345 36.3509 65.3346 30.8 65.3346H-3.12205C-4.50983 65.3346 -5.6348 66.4596 -5.6348 67.8474V68.8525C-5.6348 70.2402 -4.50983 71.3652 -3.12205 71.3652H67.486C74.4247 71.3652 80.0497 76.9902 80.0497 83.9289Z" fill="#43A363"/>
</g>
<g style="mix-blend-mode:screen">
<path d="M117.05 161.929C117.05 168.868 111.425 174.493 104.486 174.493H-3.43626C-10.375 174.493 -16 168.868 -16 161.929C-16 154.99 -10.375 149.365 -3.43626 149.365H20.0579C21.4457 149.365 22.5706 148.24 22.5706 146.852V145.847C22.5706 144.46 21.4457 143.335 20.0579 143.335H14.7811C9.23021 143.335 4.73013 138.835 4.73013 133.284C4.73013 127.732 9.23021 123.233 14.7811 123.233H43.2379C43.8877 123.233 44.5108 122.975 44.9703 122.515C45.4297 122.056 45.6878 121.433 45.6878 120.783C45.6878 120.133 45.4297 119.51 44.9703 119.05C44.5108 118.591 43.8877 118.333 43.2379 118.333H1.46358C-3.04654 118.333 -6.70284 114.677 -6.70284 110.166C-6.70284 105.656 -3.04654 102 1.46358 102H120.819C125.329 102 128.985 105.656 128.985 110.166C128.985 114.677 125.329 118.333 120.819 118.333H56.6811C56.0313 118.333 55.4082 118.591 54.9487 119.05C54.4893 119.51 54.2312 120.133 54.2312 120.783C54.2312 121.433 54.4893 122.056 54.9487 122.515C55.4082 122.975 56.0313 123.233 56.6811 123.233H67.8C73.3509 123.233 77.8509 127.732 77.8509 133.284C77.8509 138.835 73.3509 143.335 67.8 143.335H33.878C32.4902 143.335 31.3652 144.46 31.3652 145.847V146.852C31.3652 148.24 32.4902 149.365 33.878 149.365H104.486C111.425 149.365 117.05 154.99 117.05 161.929Z" fill="#43A363"/>
</g>
</g>
<rect x="1.5" y="1.5" width="147.764" height="147.764" stroke="#B0E8E6" stroke-width="3"/>
<defs>
<clipPath id="clip0_9_2">
<rect width="150.764" height="150.764" fill="white"/>
</clipPath>
</defs>
</svg>
