<svg width="152" height="152" viewBox="0 0 152 152" fill="none" xmlns="http://www.w3.org/2000/svg">
<path d="M116.581 89.6307L138.074 77.2221L134.269 70.6319L112.305 83.3127C111.461 82.2605 110.573 81.245 109.642 80.269L127.761 62.1501L122.38 56.7694L103.953 75.1963C102.924 74.4185 101.863 73.6832 100.774 72.9924L113.898 50.2611L107.308 46.4563L94.032 69.4507C92.8824 68.9616 91.7136 68.519 90.5285 68.1239L97.4305 42.3651L90.0802 40.3953L83.135 66.3148C81.923 66.1212 80.7039 65.9752 79.4804 65.877V39H71.8709V65.877C70.6386 65.976 69.4197 66.1225 68.2163 66.3148L61.2711 40.3953L53.9208 42.3651L60.8228 68.1239C59.6377 68.519 58.4689 68.9616 57.3193 69.4507L44.0435 46.4563L37.4533 50.2611L50.5774 72.9926C49.4881 73.6833 48.4276 74.4185 47.3988 75.1963L28.9716 56.7694L23.5908 62.1501L41.7097 80.269C40.7787 81.245 39.8899 82.2605 39.0459 83.3127L17.0825 70.6319L13.2778 77.2221L34.77 89.6307C34.0708 90.8702 33.4285 92.1409 32.845 93.4388L9.18651 87.0994L7.21677 94.4497L30.2966 100.634C29.9117 102.09 29.5977 103.563 29.3555 105.049H5.82144V112.659H145.53V105.049H121.996C121.754 103.563 121.44 102.09 121.055 100.634L144.135 94.4497L142.165 87.0994L118.506 93.4388C117.923 92.1409 117.28 90.8702 116.581 89.6307Z" fill="#E55733"/>
</svg>
