<svg width="152" height="152" viewBox="0 0 152 152" fill="none" xmlns="http://www.w3.org/2000/svg">
<g clip-path="url(#clip0_1_67)">
<path d="M58.3224 18.3535C58.3224 20.6634 58.7774 22.9506 59.6613 25.0846C60.5453 27.2187 61.8409 29.1577 63.4742 30.791C65.1075 32.4243 67.0465 33.7199 69.1805 34.6038C71.3146 35.4878 73.6018 35.9427 75.9116 35.9427C78.2215 35.9427 80.5087 35.4878 82.6427 34.6038C84.7768 33.7199 86.7158 32.4243 88.3491 30.791C89.9824 29.1577 91.278 27.2187 92.1619 25.0846C93.0459 22.9506 93.5008 20.6634 93.5008 18.3535C93.5008 16.0437 93.0459 13.7565 92.1619 11.6225C91.278 9.48843 89.9824 7.54942 88.3491 5.91611C86.7158 4.2828 84.7768 2.98719 82.6427 2.10325C80.5087 1.21931 78.2215 0.764355 75.9116 0.764355C73.6018 0.764355 71.3146 1.21931 69.1805 2.10325C67.0465 2.98719 65.1075 4.2828 63.4742 5.91611C61.8409 7.54942 60.5453 9.48843 59.6613 11.6225C58.7774 13.7565 58.3224 16.0437 58.3224 18.3535Z" fill="#43A363"/>
<path d="M121.397 112.393C120.792 111.781 120.071 111.294 119.277 110.962C118.483 110.629 117.631 110.456 116.77 110.454C115.909 110.452 115.056 110.619 114.261 110.948C113.465 111.276 112.742 111.759 112.133 112.367C111.524 112.976 111.042 113.699 110.713 114.495C110.385 115.291 110.217 116.144 110.219 117.005C110.222 117.866 110.394 118.718 110.727 119.512C111.059 120.306 111.546 121.026 112.158 121.632C112.763 122.248 113.483 122.738 114.278 123.073C115.073 123.409 115.927 123.584 116.79 123.588C117.653 123.592 118.508 123.425 119.306 123.096C120.104 122.768 120.829 122.285 121.439 121.675C122.05 121.064 122.533 120.339 122.861 119.541C123.19 118.743 123.357 117.888 123.353 117.025C123.349 116.162 123.174 115.308 122.838 114.513C122.503 113.718 122.013 112.998 121.397 112.393Z" fill="#43A363"/>
<path d="M58.3224 133.94C58.3224 136.25 58.7774 138.537 59.6613 140.671C60.5453 142.805 61.8409 144.744 63.4742 146.377C65.1075 148.011 67.0465 149.306 69.1805 150.19C71.3146 151.074 73.6018 151.529 75.9116 151.529C78.2215 151.529 80.5087 151.074 82.6427 150.19C84.7768 149.306 86.7158 148.011 88.3491 146.377C89.9824 144.744 91.278 142.805 92.1619 140.671C93.0459 138.537 93.5008 136.25 93.5008 133.94C93.5008 131.63 93.0459 129.343 92.1619 127.209C91.278 125.075 89.9824 123.136 88.3491 121.502C86.7158 119.869 84.7768 118.573 82.6427 117.689C80.5087 116.806 78.2215 116.351 75.9116 116.351C73.6018 116.351 71.3146 116.806 69.1805 117.689C67.0465 118.573 65.1075 119.869 63.4742 121.502C61.8409 123.136 60.5453 125.075 59.6613 127.209C58.7774 129.343 58.3224 131.63 58.3224 133.94Z" fill="#43A363"/>
<path d="M133.705 58.5575C131.395 58.5575 129.108 59.0124 126.974 59.8964C124.84 60.7803 122.901 62.0759 121.267 63.7092C119.634 65.3425 118.338 67.2815 117.454 69.4156C116.57 71.5496 116.115 73.8368 116.115 76.1467C116.115 78.4565 116.57 80.7437 117.454 82.8778C118.338 85.0118 119.634 86.9508 121.267 88.5841C122.901 90.2174 124.84 91.513 126.974 92.397C129.108 93.2809 131.395 93.7359 133.705 93.7359C136.014 93.7359 138.302 93.2809 140.436 92.397C142.57 91.513 144.509 90.2174 146.142 88.5841C147.775 86.9508 149.071 85.0118 149.955 82.8778C150.839 80.7437 151.294 78.4565 151.294 76.1467C151.294 73.8368 150.839 71.5496 149.955 69.4156C149.071 67.2815 147.775 65.3425 146.142 63.7092C144.509 62.0759 142.57 60.7803 140.436 59.8964C138.302 59.0124 136.014 58.5575 133.705 58.5575Z" fill="#43A363"/>
<path d="M18.1185 58.5575C15.8087 58.5575 13.5215 59.0124 11.3874 59.8964C9.25342 60.7803 7.3144 62.0759 5.68109 63.7092C4.04778 65.3425 2.75217 67.2815 1.86823 69.4156C0.984293 71.5496 0.529335 73.8368 0.529335 76.1467C0.529335 78.4565 0.984293 80.7437 1.86823 82.8778C2.75217 85.0118 4.04778 86.9508 5.68109 88.5841C7.3144 90.2174 9.25342 91.513 11.3874 92.397C13.5215 93.2809 15.8087 93.7359 18.1185 93.7359C20.4284 93.7359 22.7156 93.2809 24.8496 92.397C26.9836 91.513 28.9227 90.2174 30.556 88.5841C32.1893 86.9508 33.4849 85.0118 34.3688 82.8778C35.2528 80.7437 35.7077 78.4565 35.7077 76.1467C35.7077 73.8368 35.2528 71.5496 34.3688 69.4156C33.4849 67.2815 32.1893 65.3425 30.556 63.7092C28.9227 62.0759 26.9836 60.7803 24.8496 59.8964C22.7156 59.0124 20.4284 58.5575 18.1185 58.5575Z" fill="#43A363"/>
<path d="M39.6653 30.6611C39.0598 30.049 38.3394 29.5626 37.5453 29.2299C36.7512 28.8972 35.8992 28.7247 35.0383 28.7223C34.1773 28.72 33.3244 28.8879 32.5285 29.2163C31.7327 29.5447 31.0096 30.0271 30.4008 30.6359C29.792 31.2447 29.3096 31.9679 28.9812 32.7638C28.6529 33.5596 28.4851 34.4126 28.4874 35.2735C28.4898 36.1345 28.6624 36.9865 28.9951 37.7805C29.3279 38.5746 29.8143 39.295 30.4264 39.9004C31.031 40.5162 31.7517 41.0062 32.5467 41.3419C33.3417 41.6777 34.1953 41.8526 35.0583 41.8565C35.9213 41.8605 36.7765 41.6934 37.5746 41.365C38.3726 41.0366 39.0977 40.5533 39.7079 39.9431C40.3182 39.3329 40.8015 38.6078 41.1299 37.8097C41.4583 37.0117 41.6253 36.1564 41.6214 35.2934C41.6174 34.4305 41.4425 33.5768 41.1068 32.7818C40.771 31.9868 40.2811 31.2657 39.6653 30.6611Z" fill="#43A363"/>
<path d="M30.4259 112.393C31.0314 111.781 31.7518 111.294 32.5459 110.962C33.3399 110.629 34.1919 110.456 35.0529 110.454C35.9138 110.452 36.7667 110.619 37.5626 110.948C38.3585 111.276 39.0816 111.759 39.6904 112.367C40.2992 112.976 40.7817 113.699 41.1101 114.495C41.4385 115.291 41.6064 116.144 41.6041 117.005C41.6017 117.866 41.4292 118.718 41.0965 119.512C40.7638 120.306 40.2774 121.026 39.6653 121.632C39.0599 122.244 38.3394 122.73 37.5454 123.063C36.7513 123.396 35.8993 123.569 35.0384 123.571C34.1774 123.573 33.3245 123.405 32.5286 123.077C31.7327 122.749 31.0096 122.266 30.4008 121.658C29.792 121.049 29.3095 120.326 28.9811 119.53C28.6527 118.734 28.4849 117.881 28.4872 117.02C28.4895 116.159 28.662 115.307 28.9947 114.513C29.3275 113.719 29.8138 112.999 30.4259 112.393Z" fill="#43A363"/>
<path d="M112.158 30.6612C112.765 30.0546 113.485 29.5733 114.277 29.245C115.07 28.9167 115.92 28.7477 116.778 28.7477C117.636 28.7477 118.485 28.9167 119.278 29.245C120.07 29.5733 120.791 30.0546 121.397 30.6612C122.004 31.2679 122.485 31.9881 122.814 32.7808C123.142 33.5734 123.311 34.4229 123.311 35.2809C123.311 36.1389 123.142 36.9884 122.814 37.7811C122.485 38.5737 122.004 39.2939 121.397 39.9006C120.792 40.5127 120.071 40.9991 119.277 41.3319C118.483 41.6647 117.631 41.8372 116.77 41.8396C115.909 41.842 115.056 41.6742 114.261 41.3458C113.465 41.0174 112.742 40.535 112.133 39.9262C111.524 39.3175 111.042 38.5944 110.713 37.7985C110.385 37.0026 110.217 36.1497 110.219 35.2887C110.222 34.4278 110.394 33.5758 110.727 32.7817C111.059 31.9877 111.546 31.2667 112.158 30.6612Z" fill="#43A363"/>
<path fill-rule="evenodd" clip-rule="evenodd" d="M107.577 15.8615C110.034 17.1521 110.979 20.1905 109.689 22.6474L104.781 31.9908C103.49 34.4478 100.453 35.3931 97.9951 34.1025C95.5382 32.812 94.5924 29.7741 95.8829 27.3166L100.791 17.9737C102.081 15.5163 105.119 14.571 107.577 15.8615Z" fill="#43A363"/>
<path fill-rule="evenodd" clip-rule="evenodd" d="M53.8282 118.19C56.2851 119.481 57.2309 122.519 55.9404 124.977L51.0325 134.319C49.7419 136.776 46.704 137.722 44.2466 136.432C41.7891 135.141 40.8443 132.103 42.1344 129.646L47.0423 120.302C48.3328 117.845 51.3707 116.9 53.8282 118.19Z" fill="#43A363"/>
<path fill-rule="evenodd" clip-rule="evenodd" d="M44.2466 15.8615C41.7891 17.1521 40.8443 20.1905 42.1344 22.6474L47.0423 31.9908C48.3328 34.4478 51.3707 35.3931 53.8282 34.1025C56.2851 32.812 57.2309 29.7741 55.9404 27.3166L51.0325 17.9737C49.7419 15.5163 46.704 14.571 44.2466 15.8615Z" fill="#43A363"/>
<path fill-rule="evenodd" clip-rule="evenodd" d="M97.9951 118.19C95.5382 119.481 94.5924 122.519 95.8829 124.977L100.791 134.319C102.081 136.776 105.119 137.722 107.577 136.432C110.034 135.141 110.979 132.103 109.689 129.646L104.781 120.302C103.49 117.845 100.453 116.9 97.9951 118.19Z" fill="#43A363"/>
<path fill-rule="evenodd" clip-rule="evenodd" d="M33.7116 54.3633C32.4382 56.8299 29.4068 57.7973 26.9408 56.5238L17.5627 51.6833C15.0967 50.4103 14.1293 47.3789 15.4018 44.9124C16.6752 42.4459 19.7066 41.479 22.1731 42.7515L31.5507 47.5925C34.0172 48.866 34.9846 51.8973 33.7116 54.3633Z" fill="#43A363"/>
<path fill-rule="evenodd" clip-rule="evenodd" d="M135.97 44.0528C134.662 41.6049 131.617 40.6807 129.169 41.9888L119.861 46.963C117.413 48.2712 116.489 51.3156 117.797 53.7635C119.105 56.2114 122.15 57.1356 124.598 55.8275L133.906 50.8538C136.354 49.5456 137.278 46.5007 135.97 44.0528Z" fill="#43A363"/>
<path fill-rule="evenodd" clip-rule="evenodd" d="M33.7116 97.9299C32.4382 95.4634 29.4068 94.496 26.9408 95.7695L17.5627 100.61C15.0967 101.883 14.1293 104.914 15.4018 107.381C16.6752 109.847 19.7066 110.814 22.1731 109.541L31.5507 104.701C34.0172 103.427 34.9846 100.396 33.7116 97.9299Z" fill="#43A363"/>
<path fill-rule="evenodd" clip-rule="evenodd" d="M135.97 108.241C134.662 110.688 131.617 111.613 129.169 110.304L119.861 105.33C117.413 104.022 116.489 100.977 117.797 98.5293C119.105 96.0814 122.15 95.1577 124.598 96.4658L133.906 101.44C136.354 102.748 137.278 105.793 135.97 108.241Z" fill="#43A363"/>
</g>
<defs>
<clipPath id="clip0_1_67">
<rect width="150.764" height="150.764" fill="white" transform="translate(0.529297 0.764404)"/>
</clipPath>
</defs>
</svg>
