<svg width="152" height="152" viewBox="0 0 152 152" fill="none" xmlns="http://www.w3.org/2000/svg">
<path d="M59.1103 40C62.4497 40 65.4474 41.4639 67.4963 43.7852C69.545 41.4639 72.5427 40 75.8821 40C79.2215 40 82.2192 41.4639 84.2679 43.7852C86.3168 41.4639 89.3142 40 92.6539 40C96.2469 40 99.4441 41.6948 101.49 44.3287C103.474 42.7299 105.946 41.8598 108.494 41.8637C112.846 41.8637 116.617 44.3498 118.465 47.9792C120 47.2226 121.69 46.8304 123.402 46.8329C129.05 46.8329 133.721 51.0211 134.476 56.4617L134.583 56.461C140.758 56.461 145.764 61.4671 145.764 67.6422C145.764 71.0673 144.224 74.1323 141.799 76.1835C144.224 78.2344 145.764 81.2997 145.764 84.7245C145.764 90.8999 140.758 95.9057 134.583 95.9057L134.476 95.9052C133.721 101.346 129.05 105.534 123.402 105.534C121.69 105.537 120 105.144 118.465 104.387C116.617 108.017 112.846 110.503 108.494 110.503C105.946 110.507 103.474 109.637 101.49 108.038C99.4441 110.672 96.2469 112.367 92.6539 112.367C89.3142 112.367 86.3168 110.903 84.2679 108.582C82.2192 110.903 79.2215 112.367 75.8821 112.367C72.5427 112.367 69.545 110.903 67.4963 108.582C65.4474 110.903 62.4497 112.367 59.1103 112.367C55.5173 112.367 52.3201 110.672 50.2745 108.038C48.2906 109.637 45.8184 110.507 43.2705 110.503C38.9184 110.503 35.1473 108.017 33.2997 104.387C31.7639 105.144 30.0742 105.536 28.3621 105.534C22.7138 105.534 18.0436 101.346 17.288 95.9052L17.1809 95.9057C11.0059 95.9057 6 90.8999 6 84.7245C6 81.2997 7.53981 78.2344 9.96511 76.1835C7.53981 74.1323 6 71.0673 6 67.6422C6 61.4671 11.0059 56.461 17.1809 56.461L17.288 56.4615C18.0436 51.0214 22.7138 46.8329 28.3621 46.8329C30.0743 46.8304 31.7639 47.2228 33.2997 47.9795C35.1473 44.3498 38.9184 41.8634 43.2705 41.8634C45.8184 41.8595 48.2907 42.7296 50.2745 44.3284C52.3201 41.6951 55.5173 40 59.1103 40Z" fill="#43A363"/>
</svg>
