<svg width="151" height="152" viewBox="0 0 151 152" fill="none" xmlns="http://www.w3.org/2000/svg">
<path fill-rule="evenodd" clip-rule="evenodd" d="M75.8746 62.0428C103.948 62.0428 126.706 84.801 126.706 112.875H113.723C113.723 91.9714 96.7779 75.0262 75.8746 75.0262C54.9714 75.0262 38.0262 91.9714 38.0262 112.875H25.0429C25.0429 84.801 47.801 62.0428 75.8746 62.0428Z" fill="#43A363"/>
<path fill-rule="evenodd" clip-rule="evenodd" d="M75.8746 39C116.674 39 149.749 72.0747 149.749 112.875H136.766C136.766 79.2453 109.504 51.9833 75.8746 51.9833C42.2453 51.9833 14.9833 79.2453 14.9833 112.875H2C2 72.0747 35.0747 39 75.8746 39Z" fill="#43A363"/>
<path fill-rule="evenodd" clip-rule="evenodd" d="M75.8748 84.0385C91.8006 84.0385 104.711 96.949 104.711 112.875H91.7279C91.7279 104.119 84.6302 97.0219 75.8748 97.0219C67.1194 97.0219 60.0219 104.119 60.0219 112.875H47.0386C47.0386 96.949 59.949 84.0385 75.8748 84.0385Z" fill="#43A363"/>
</svg>
