<svg width="152" height="152" viewBox="0 0 152 152" fill="none" xmlns="http://www.w3.org/2000/svg">
<g clip-path="url(#clip0_1_107)">
<path d="M103.507 52.5857C99.0819 47.7412 97.7135 39.5823 97.7135 33.0215C97.7135 22.3017 87.9525 13.6111 75.9115 13.6111C63.8704 13.6111 54.1094 22.3017 54.1094 33.0215C54.1094 39.5823 52.741 47.7412 48.316 52.5857C43.3418 58.0308 40.3607 64.976 40.3607 72.5419C40.3597 75.9517 40.9711 79.3339 42.1658 82.5275C44.6308 89.133 43.4735 97.9508 38.246 102.682C28.8639 111.172 23.076 122.819 23.076 135.67C23.076 143.005 24.9616 149.948 28.3257 156.136C31.4792 161.937 30.4273 169.794 25.343 174.006C10.7772 186.075 1.66648 203.292 1.66648 222.404C1.66648 258.911 34.907 288.505 75.9115 288.505C116.916 288.505 150.156 258.911 150.156 222.404C150.156 203.292 141.046 186.075 126.48 174.006C121.396 169.794 120.344 161.937 123.497 156.136C126.861 149.948 128.747 143.005 128.747 135.67C128.747 122.819 122.959 111.172 113.577 102.682C108.349 97.9508 107.192 89.133 109.657 82.5275C110.852 79.334 111.464 75.9517 111.463 72.5419C111.463 64.976 108.481 58.0308 103.507 52.5857Z" fill="#F4ADB3"/>
</g>
<defs>
<clipPath id="clip0_1_107">
<rect width="150.764" height="150.764" fill="white" transform="translate(0.529297 0.293457)"/>
</clipPath>
</defs>
</svg>
