<svg width="152" height="151" viewBox="0 0 152 151" fill="none" xmlns="http://www.w3.org/2000/svg">
<path d="M15.9355 51.5637C15.9355 44.625 21.5605 39 28.4992 39H136.422C143.36 39 148.985 44.625 148.985 51.5637C148.985 58.5024 143.36 64.1274 136.422 64.1274H112.927C111.54 64.1274 110.415 65.2524 110.415 66.6402V67.6453C110.415 69.033 111.54 70.158 112.927 70.158H118.204C123.755 70.158 128.255 74.6581 128.255 80.209C128.255 85.7601 123.755 90.2599 118.204 90.2599H89.7473C89.0976 90.2599 88.4744 90.518 88.015 90.9775C87.5555 91.4369 87.2974 92.0601 87.2974 92.7099C87.2974 93.3596 87.5555 93.9828 88.015 94.4422C88.4744 94.9017 89.0976 95.1598 89.7473 95.1598H131.522C136.032 95.1598 139.688 98.8161 139.688 103.326C139.688 107.836 136.032 111.493 131.522 111.493H12.1664C7.65604 111.493 4 107.836 4 103.326C4 98.8161 7.65604 95.1598 12.1664 95.1598H76.3041C76.9539 95.1598 77.5771 94.9017 78.0365 94.4422C78.496 93.9828 78.7541 93.3596 78.7541 92.7099C78.7541 92.0601 78.496 91.4369 78.0365 90.9775C77.5771 90.518 76.9539 90.2599 76.3041 90.2599H65.1853C59.6344 90.2599 55.1343 85.7601 55.1343 80.209C55.1343 74.6581 59.6344 70.158 65.1853 70.158H99.1073C100.495 70.158 101.62 69.033 101.62 67.6453V66.6402C101.62 65.2524 100.495 64.1274 99.1073 64.1274H28.4992C21.5605 64.1274 15.9355 58.5024 15.9355 51.5637Z" fill="#F5BD33"/>
</svg>
