<svg width="151" height="152" viewBox="0 0 151 152" fill="none" xmlns="http://www.w3.org/2000/svg">
<g clip-path="url(#clip0_1_96)">
<path fill-rule="evenodd" clip-rule="evenodd" d="M56.2707 15.753C62.5908 -2.4192 88.2901 -2.4192 94.6101 15.753L96.2339 20.4226L100.48 17.8893C117.002 8.0318 136.688 24.5506 129.849 42.5332L128.092 47.1542L132.973 47.9432C151.965 51.0112 156.428 76.3201 139.63 85.6991L135.313 88.1099L138.545 91.8513C151.122 106.41 138.273 128.666 119.376 125.054L114.52 124.125L114.59 129.069C114.867 148.306 90.7179 157.096 78.5638 142.182L75.4404 138.349L72.3171 142.182C60.1629 157.096 36.014 148.306 36.2904 129.069L36.3608 124.125L31.5051 125.054C12.6078 128.666 -0.241351 106.41 12.3354 91.8513L15.5678 88.1099L11.2509 85.6991C-5.54726 76.3201 -1.08463 51.0112 17.9082 47.9427L22.7889 47.1542L21.0315 42.5332C14.1928 24.5506 33.8797 8.0313 50.4009 17.8893L54.647 20.4221L56.2707 15.753ZM75.4404 38.4827C70.5763 47.3647 59.7619 51.3007 50.3271 47.6231C52.3101 57.5539 46.5559 67.5204 36.9643 70.7679C44.8669 77.1005 46.865 88.434 41.6048 97.0874C51.7292 96.8587 60.5449 104.256 62.0777 114.266C69.6862 107.583 81.1946 107.583 88.8032 114.266C90.336 104.256 99.1517 96.8587 109.276 97.0874C104.016 88.434 106.014 77.1005 113.917 70.7679C104.325 67.5204 98.5707 57.5539 100.554 47.6236C91.1184 51.3012 80.3046 47.3647 75.4404 38.4827Z" fill="#336BB7"/>
</g>
<defs>
<clipPath id="clip0_1_96">
<rect width="150.764" height="150.764" fill="white" transform="translate(0.0581055 0.529053)"/>
</clipPath>
</defs>
</svg>
