<svg width="152" height="152" viewBox="0 0 152 152" fill="none" xmlns="http://www.w3.org/2000/svg">
<path fill-rule="evenodd" clip-rule="evenodd" d="M76.1467 11.7174C40.8236 11.7174 12.1879 40.3526 12.1879 75.6757C12.1879 110.999 40.8231 139.634 76.1467 139.634C111.47 139.634 140.105 110.999 140.105 75.6757C140.105 40.3526 111.47 11.7174 76.1467 11.7174ZM2.27208 75.6757C2.27208 34.8758 35.3468 1.80112 76.1467 1.80112C116.947 1.80112 150.021 34.8758 150.021 75.6757C150.021 116.476 116.947 149.55 76.1467 149.55C35.3468 149.55 2.27208 116.476 2.27208 75.6757Z" fill="#292524"/>
<path fill-rule="evenodd" clip-rule="evenodd" d="M76.1468 28.0785C49.8595 28.0785 28.55 49.3885 28.55 75.6758C28.55 101.963 49.8595 123.273 76.1468 123.273C102.434 123.273 123.744 101.963 123.744 75.6758C123.744 49.3885 102.434 28.0785 76.1468 28.0785ZM18.6337 75.6758C18.6337 43.9118 44.3832 18.1627 76.1468 18.1627C107.91 18.1627 133.66 43.9118 133.66 75.6758C133.66 107.439 107.91 133.189 76.1468 133.189C44.3832 133.189 18.6337 107.439 18.6337 75.6758Z" fill="#292524"/>
<path fill-rule="evenodd" clip-rule="evenodd" d="M76.1469 46.4233C59.9915 46.4233 46.8946 59.5202 46.8946 75.6757C46.8946 91.8316 59.9915 104.928 76.1469 104.928C92.3023 104.928 105.399 91.8316 105.399 75.6757C105.399 59.5202 92.3023 46.4233 76.1469 46.4233ZM36.9783 75.6757C36.9783 54.0435 54.5147 36.507 76.1469 36.507C97.7791 36.507 115.316 54.0435 115.316 75.6757C115.316 97.3079 97.7791 114.844 76.1469 114.844C54.5147 114.844 36.9783 97.3079 36.9783 75.6757Z" fill="#292524"/>
<path fill-rule="evenodd" clip-rule="evenodd" d="M76.1467 64.7682C70.1227 64.7682 65.2389 69.6519 65.2389 75.676C65.2389 81.7 70.1227 86.5833 76.1467 86.5833C82.1708 86.5833 87.0545 81.7 87.0545 75.676C87.0545 69.6519 82.1708 64.7682 76.1467 64.7682ZM55.3231 75.676C55.3231 64.1752 64.6459 54.8519 76.1467 54.8519C87.6475 54.8519 96.9703 64.1752 96.9703 75.676C96.9703 87.1763 87.6475 96.4996 76.1467 96.4996C64.6459 96.4996 55.3231 87.1763 55.3231 75.676Z" fill="#292524"/>
</svg>
