<svg width="151" height="151" viewBox="0 0 151 151" fill="none" xmlns="http://www.w3.org/2000/svg">
<path d="M75.3822 69.4921L79.8454 1.75868H70.9191L75.3822 69.4921Z" fill="#E55733"/>
<path d="M75.3822 81.2721L79.8454 149.006H70.9191L75.3822 81.2721Z" fill="#E55733"/>
<path d="M75.3822 81.2721L70.9191 149.006H79.8454L75.3822 81.2721Z" fill="#E55733"/>
<path d="M75.3822 69.4921L70.9191 1.75868H79.8454L75.3822 69.4921Z" fill="#E55733"/>
<path d="M81.2721 75.3822L149.006 79.8454V70.9191L81.2721 75.3822Z" fill="#E55733"/>
<path d="M69.4924 75.3822L1.75891 79.8454V70.9191L69.4924 75.3822Z" fill="#E55733"/>
<path d="M69.4924 75.3822L1.75891 70.9191V79.8454L69.4924 75.3822Z" fill="#E55733"/>
<path d="M81.2721 75.3822L149.006 70.9191V79.8454L81.2721 75.3822Z" fill="#E55733"/>
<path d="M71.2176 71.2177L26.4788 20.1668L20.1667 26.4788L71.2176 71.2177Z" fill="#E55733"/>
<path d="M79.5469 79.5468L130.598 124.286L124.286 130.598L79.5469 79.5468Z" fill="#E55733"/>
<path d="M79.5469 79.5468L124.286 130.598L130.598 124.286L79.5469 79.5468Z" fill="#E55733"/>
<path d="M71.2176 71.2177L20.1667 26.4788L26.4788 20.1668L71.2176 71.2177Z" fill="#E55733"/>
<path d="M79.5469 71.2177L130.598 26.4788L124.286 20.1668L79.5469 71.2177Z" fill="#E55733"/>
<path d="M71.2176 79.5468L26.4788 130.598L20.1667 124.286L71.2176 79.5468Z" fill="#E55733"/>
<path d="M71.2176 79.5468L20.1667 124.286L26.4788 130.598L71.2176 79.5468Z" fill="#E55733"/>
<path d="M79.5469 71.2177L124.286 20.1668L130.598 26.4788L79.5469 71.2177Z" fill="#E55733"/>
<path d="M76.9065 69.6932L98.7482 5.42278L90.1265 3.11256L76.9065 69.6932Z" fill="#E55733"/>
<path d="M73.8579 81.0715L60.6379 147.652L52.0162 145.342L73.8579 81.0715Z" fill="#E55733"/>
<path d="M73.8579 81.0715L52.0162 145.342L60.6379 147.652L73.8579 81.0715Z" fill="#E55733"/>
<path d="M76.9065 69.6932L90.1265 3.11256L98.7482 5.42278L76.9065 69.6932Z" fill="#E55733"/>
<path d="M81.0716 76.9068L145.342 98.7485L147.652 90.1268L81.0716 76.9068Z" fill="#E55733"/>
<path d="M69.6929 73.8583L3.11227 60.6383L5.42299 52.0166L69.6929 73.8583Z" fill="#E55733"/>
<path d="M69.6929 73.8583L5.42249 52.0166L3.11227 60.6383L69.6929 73.8583Z" fill="#E55733"/>
<path d="M81.0716 76.9068L147.652 90.1268L145.342 98.7485L81.0716 76.9068Z" fill="#E55733"/>
<path d="M72.4372 70.2813L42.4356 9.39101L34.7054 13.8536L72.4372 70.2813Z" fill="#E55733"/>
<path d="M78.3272 80.4829L116.059 136.91L108.329 141.373L78.3272 80.4829Z" fill="#E55733"/>
<path d="M78.3272 80.4829L108.329 141.373L116.059 136.91L78.3272 80.4829Z" fill="#E55733"/>
<path d="M72.4372 70.2813L34.7054 13.8541L42.4356 9.39101L72.4372 70.2813Z" fill="#E55733"/>
<path d="M80.4831 72.4373L141.373 42.4356L136.91 34.7054L80.4831 72.4373Z" fill="#E55733"/>
<path d="M70.2814 78.3274L13.8542 116.059L9.39111 108.329L70.2814 78.3274Z" fill="#E55733"/>
<path d="M70.2814 78.3274L9.39111 108.329L13.8537 116.059L70.2814 78.3274Z" fill="#E55733"/>
<path d="M80.4831 72.4373L136.91 34.7054L141.373 42.4356L80.4831 72.4373Z" fill="#E55733"/>
<path d="M78.3272 70.2813L116.059 13.8541L108.329 9.39101L78.3272 70.2813Z" fill="#E55733"/>
<path d="M72.4372 80.4829L42.4356 141.373L34.7054 136.91L72.4372 80.4829Z" fill="#E55733"/>
<path d="M72.4372 80.4829L34.7054 136.91L42.4356 141.373L72.4372 80.4829Z" fill="#E55733"/>
<path d="M78.3272 70.2813L108.329 9.39101L116.059 13.8536L78.3272 70.2813Z" fill="#E55733"/>
<path d="M80.4831 78.3274L136.91 116.059L141.373 108.329L80.4831 78.3274Z" fill="#E55733"/>
<path d="M70.2814 72.4373L9.39111 42.4356L13.8537 34.7054L70.2814 72.4373Z" fill="#E55733"/>
<path d="M70.2814 72.4373L13.8542 34.7054L9.39111 42.4351L70.2814 72.4373Z" fill="#E55733"/>
<path d="M80.4831 78.3274L141.373 108.329L136.91 116.059L80.4831 78.3274Z" fill="#E55733"/>
<path d="M73.8579 69.6932L60.6379 3.11256L52.0162 5.42328L73.8579 69.6932Z" fill="#E55733"/>
<path d="M76.9065 81.0715L98.7482 145.341L90.1265 147.652L76.9065 81.0715Z" fill="#E55733"/>
<path d="M76.9065 81.0715L90.1265 147.652L98.7482 145.341L76.9065 81.0715Z" fill="#E55733"/>
<path d="M73.8579 69.6932L52.0162 5.42278L60.6379 3.11256L73.8579 69.6932Z" fill="#E55733"/>
<path d="M81.0716 73.8583L147.652 60.6383L145.342 52.0166L81.0716 73.8583Z" fill="#E55733"/>
<path d="M69.6929 76.9068L5.42249 98.7485L3.11227 90.1263L69.6929 76.9068Z" fill="#E55733"/>
<path d="M69.6929 76.9068L3.11227 90.1263L5.42299 98.7485L69.6929 76.9068Z" fill="#E55733"/>
<path d="M81.0716 73.8583L145.342 52.0166L147.652 60.6383L81.0716 73.8583Z" fill="#E55733"/>
</svg>
