<svg width="151" height="152" viewBox="0 0 151 152" fill="none" xmlns="http://www.w3.org/2000/svg">
<g clip-path="url(#clip0_1_111)">
<path fill-rule="evenodd" clip-rule="evenodd" d="M150.528 83.6785C150.53 83.6795 150.531 83.6803 148.034 87.3825C145.538 91.0848 145.539 91.0853 145.539 91.0858L145.531 91.08C145.432 91.0142 145.332 90.9489 145.232 90.8843C144.893 90.6649 144.551 90.4489 144.207 90.2362C143.293 89.6694 141.924 88.8475 140.15 87.8549C136.599 85.8691 131.438 83.2084 125.053 80.5451C112.249 75.2048 94.7042 69.9308 75.4405 69.9308C56.1768 69.9308 38.6316 75.2048 25.8277 80.5451C19.4425 83.2084 14.2816 85.8691 10.7311 87.8549C8.95711 88.8475 7.58842 89.6694 6.67378 90.2362C6.33 90.4489 5.98833 90.6649 5.64883 90.8843C5.53701 90.9567 5.4551 91.0104 5.40384 91.0444L5.35007 91.08L5.34152 91.0858C5.34228 91.0853 5.34303 91.0848 2.84637 87.3825C0.349961 83.6803 0.351217 83.6795 0.352473 83.6785L0.364283 83.6707L0.390416 83.6531L0.478362 83.5948C0.552488 83.5458 0.658023 83.4765 0.793711 83.3885C1.18304 83.1369 1.57488 82.8891 1.96917 82.6453C2.98834 82.0136 4.47211 81.1233 6.37149 80.0607C10.1682 77.9371 15.6385 75.1186 22.39 72.3026C35.8598 66.6843 54.6116 61 75.4405 61C96.2694 61 115.021 66.6843 128.491 72.3026C135.243 75.1186 140.713 77.9371 144.509 80.0609C146.409 81.1233 147.893 82.0136 148.912 82.6453C149.306 82.8891 149.698 83.1368 150.087 83.3885C150.223 83.4765 150.328 83.5458 150.403 83.5948L150.491 83.6531L150.517 83.6707L150.528 83.6785Z" fill="#336BB7"/>
</g>
<defs>
<clipPath id="clip0_1_111">
<rect width="150.764" height="150.764" fill="white" transform="translate(0.0581055 0.293457)"/>
</clipPath>
</defs>
</svg>
