<svg width="151" height="151" viewBox="0 0 151 151" fill="none" xmlns="http://www.w3.org/2000/svg">
<path fill-rule="evenodd" clip-rule="evenodd" d="M40.3005 55.0759C37.6163 50.067 36.1047 44.4093 36.1047 38.4199C36.1047 17.927 53.7979 1.31427 75.6236 1.31427V34.7217C78.6052 29.8676 82.7442 25.7034 87.934 22.6841C105.648 12.3809 128.905 19.3226 139.878 38.1893L110.839 55.0794C116.55 55.2277 122.242 56.7298 127.467 59.7234C145.247 69.9126 150.863 93.5238 140.011 112.46L110.947 95.8044C113.631 100.813 115.142 106.471 115.142 112.46C115.142 132.953 97.4492 149.566 75.6236 149.566V116.159C72.642 121.013 68.5035 125.177 63.3132 128.196C45.5988 138.499 22.3429 131.558 11.3698 112.691L40.4085 95.8009C34.698 95.6526 29.0047 94.1505 23.7807 91.1568C6.00053 80.9677 0.384047 57.3564 11.2361 38.4194L40.3005 55.0759ZM75.6447 75.3552L75.6236 75.319V75.3552H75.6447ZM75.6236 75.5251V75.5613L75.603 75.5251H75.6236Z" fill="#43A363"/>
</svg>
