<svg width="151" height="152" viewBox="0 0 151 152" fill="none" xmlns="http://www.w3.org/2000/svg">
<path d="M79.7555 3.17134C76.4071 2.04966 74.3577 2.04966 71.0092 3.17134C62.8403 5.90722 63.1946 23.2205 65.7189 40.3026C59.328 24.2613 50.9439 9.10946 42.5057 10.8432C39.0466 11.5544 37.2741 12.5826 34.9408 15.2335C29.3298 21.6083 37.9938 36.0787 48.5468 49.4279C35.174 38.9045 20.685 30.2718 14.3228 35.8973C11.6773 38.2362 10.6526 40.0107 9.94957 43.4712C8.24594 51.8562 23.1988 60.1508 39.1321 66.4899C22.1635 64.0129 5.06682 63.7184 2.34954 71.8315C1.22785 75.18 1.22785 77.2294 2.34954 80.5779C5.06682 88.691 22.1635 88.3965 39.1321 85.9194C23.1988 92.2586 8.24543 100.553 9.94907 108.938C10.6526 112.399 11.6773 114.173 14.3228 116.512C20.685 122.137 35.1745 113.505 48.5468 102.981C37.9938 116.331 29.3298 130.801 34.9413 137.176C37.2746 139.827 39.0471 140.855 42.5057 141.566C50.9445 143.3 59.3285 128.148 65.7199 112.106C63.1951 129.188 62.8408 146.502 71.0097 149.238C74.3582 150.36 76.4076 150.36 79.7561 149.238C87.925 146.502 87.5707 129.188 85.0459 112.105C91.4373 128.147 99.8213 143.3 108.26 141.566C111.719 140.855 113.492 139.827 115.825 137.176C121.436 130.801 112.772 116.331 102.219 102.981C115.592 113.505 130.081 122.137 136.443 116.512C139.089 114.173 140.114 112.399 140.817 108.938C142.521 100.553 127.567 92.2586 111.634 85.9194C128.602 88.3965 145.699 88.691 148.416 80.5779C149.538 77.2294 149.538 75.18 148.416 71.8315C145.699 63.7184 128.602 64.0129 111.634 66.4899C127.567 60.1508 142.52 51.8562 140.817 43.4712C140.113 40.0107 139.089 38.2362 136.443 35.8973C130.081 30.2718 115.591 38.904 102.218 49.4279C112.771 36.0787 121.436 21.6083 115.824 15.2335C113.491 12.5826 111.719 11.5544 108.26 10.8432C99.8213 9.10946 91.4373 24.2618 85.0459 40.3036C87.5707 23.221 87.9245 5.90722 79.7555 3.17134Z" fill="#43A363"/>
</svg>
