<svg width="152" height="152" viewBox="0 0 152 152" fill="none" xmlns="http://www.w3.org/2000/svg">
<g clip-path="url(#clip0_1_98)">
<path d="M43.7766 51.515C35.4077 60.1719 27.1036 68.7625 27.1036 81.0523C27.1036 93.0969 35.0077 101.112 43.1726 109.391C50.5937 116.916 58.2304 124.659 60.3441 135.845C62.5729 147.644 62.6121 154.602 60.3441 166.395C58.1621 177.741 50.2128 185.475 42.476 193.003C33.9493 201.299 25.6824 209.343 25.6824 221.69C25.6824 234.265 34.3584 242.865 43.0891 251.52C59.3265 267.615 60.3441 280.951 60.3441 302.058H91.9494C91.9494 280.951 92.9671 267.615 109.204 251.52C117.935 242.865 126.611 234.265 126.611 221.69C126.611 209.343 118.344 201.299 109.818 193.003C102.082 185.475 94.1315 177.741 91.9494 166.395C89.6814 154.602 89.7206 147.644 91.9494 135.845C94.0631 124.659 101.7 116.916 109.121 109.391C117.286 101.112 125.19 93.0969 125.19 81.0523C125.19 68.7625 116.886 60.1719 108.517 51.515C92.6721 35.1239 91.9494 21.6667 91.9494 0.529007H60.3441C60.3441 21.6662 59.6215 35.1239 43.7766 51.515Z" fill="#F5BD33"/>
</g>
<defs>
<clipPath id="clip0_1_98">
<rect width="150.764" height="150.764" fill="white" transform="translate(0.764648 0.529053)"/>
</clipPath>
</defs>
</svg>
