<svg width="152" height="152" viewBox="0 0 152 152" fill="none" xmlns="http://www.w3.org/2000/svg">
<path d="M95.3088 67.5433C126.298 68.5303 149.048 71.7974 149.048 75.6756C149.048 79.5537 126.298 82.8208 95.3088 83.8078C116.523 106.418 130.3 124.815 127.558 127.558C124.815 130.3 106.419 116.523 83.808 95.3086C82.821 126.298 79.5539 149.048 75.6757 149.048C71.7976 149.048 68.5305 126.298 67.5435 95.3086C44.9328 116.523 26.5361 130.3 23.7937 127.558C21.0517 124.815 34.8281 106.418 56.0427 83.8078C25.0535 82.8208 2.30368 79.5537 2.30368 75.6756C2.30368 71.7974 25.0535 68.5303 56.0427 67.5433C34.8281 44.9327 21.0517 26.5359 23.7942 23.7935C26.5361 21.0516 44.9328 34.8279 67.5435 56.0425C68.5305 25.0534 71.7976 2.3035 75.6757 2.3035C79.5539 2.3035 82.821 25.0534 83.808 56.0425C106.419 34.8279 124.815 21.0516 127.558 23.794C130.3 26.5359 116.523 44.9327 95.3088 67.5433Z" fill="#E55733"/>
</svg>
