<svg width="151" height="151" viewBox="0 0 151 151" fill="none" xmlns="http://www.w3.org/2000/svg">
<g clip-path="url(#clip0_1_58)">
<path d="M96.8213 11.1179C108.459 22.7554 108.627 41.5195 97.3253 53.3631L85.3868 65.3082V77.1718C85.3868 82.6652 80.9337 87.1183 75.4408 87.1183C69.9475 87.1183 65.4944 82.6652 65.4944 77.1718V65.3082L53.5559 53.3631C42.2536 41.5195 42.4219 22.7554 54.0599 11.1179C65.8683 -0.690498 85.0129 -0.690498 96.8213 11.1179Z" fill="#F5BD33"/>
<path d="M7.90277 111.788C14.9058 126.667 32.4894 133.175 47.4483 126.559L58.4043 121.406C61.7031 119.855 65.4943 122.262 65.4943 125.906V144.303C65.4943 149.796 69.9474 154.25 75.4407 154.25C80.9336 154.25 85.3867 149.796 85.3867 144.303V125.906C85.3867 122.262 89.1784 119.855 92.4766 121.406L103.432 126.559C118.392 133.175 135.975 126.667 142.978 111.788C150.083 96.6901 143.604 78.6919 128.506 71.5869C113.627 64.5843 95.9291 70.7767 88.6196 85.4099L79.9395 103.841C78.1475 107.647 72.7335 107.647 70.9414 103.841L62.2614 85.4099C54.9518 70.7767 37.2546 64.5843 22.3747 71.5869C7.2771 78.6919 0.797743 96.6901 7.90277 111.788Z" fill="#F5BD33"/>
<path d="M47.4482 200.659C32.4894 207.276 14.9057 200.768 7.90272 185.888C0.798192 170.791 7.27705 152.792 22.3746 145.687C37.2541 138.684 54.9518 144.877 62.2614 159.51L70.9414 177.941C72.7335 181.747 78.1474 181.747 79.9395 177.941L88.6195 159.51C95.9291 144.877 113.627 138.684 128.506 145.687C143.604 152.792 150.083 170.791 142.978 185.888C135.975 200.768 118.391 207.276 103.432 200.659L92.4766 195.506C89.1783 193.955 85.3866 196.362 85.3866 200.007V218.403C85.3866 223.897 80.9335 228.35 75.4407 228.35C69.9473 228.35 65.4943 223.897 65.4943 218.403V200.007C65.4943 196.362 61.703 193.955 58.4043 195.506L47.4482 200.659Z" fill="#F5BD33"/>
</g>
<defs>
<clipPath id="clip0_1_58">
<rect width="150.764" height="150.764" fill="white" transform="translate(0.0581055)"/>
</clipPath>
</defs>
</svg>
