<svg width="21" height="20" viewBox="0 0 21 20" fill="none" xmlns="http://www.w3.org/2000/svg">
<path fill-rule="evenodd" clip-rule="evenodd" d="M10.2562 1.74023L9.76738 2.66593L8.27483 2.91214L8.76367 1.98645L10.2562 1.74023Z" fill="#C2340C" stroke="#0B0505" stroke-width="0.116363"/>
<path fill-rule="evenodd" clip-rule="evenodd" d="M8.01562 3.30308L7.04609 2.9082L5.55353 3.15442L6.52307 3.54929L8.01562 3.30308Z" fill="#C2340C" stroke="#0B0505" stroke-width="0.116363"/>
<path fill-rule="evenodd" clip-rule="evenodd" d="M5.16462 4.48633L5.38513 5.50971L3.89258 5.75592L3.67207 4.73254L5.16462 4.48633Z" fill="#C2340C" stroke="#0B0505" stroke-width="0.116363"/>
<path fill-rule="evenodd" clip-rule="evenodd" d="M4.45276 7.12598L3.45622 7.44669L1.96367 7.6929L2.9602 7.37219L4.45276 7.12598Z" fill="#C2340C" stroke="#0B0505" stroke-width="0.116363"/>
<path fill-rule="evenodd" clip-rule="evenodd" d="M3.02993 9.86426L3.85669 10.5065L2.36413 10.7527L1.53737 10.1105L3.02993 9.86426Z" fill="#C2340C" stroke="#0B0505" stroke-width="0.116363"/>
<path fill-rule="evenodd" clip-rule="evenodd" d="M4.18042 12.3428L3.62316 13.229L2.1306 13.4752L2.68786 12.589L4.18042 12.3428Z" fill="#C2340C" stroke="#0B0505" stroke-width="0.116363"/>
<path fill-rule="evenodd" clip-rule="evenodd" d="M4.85111 15.3568L5.89722 15.3174L4.40466 15.5636L3.35856 15.603L4.85111 15.3568Z" fill="#C2340C" stroke="#0B0505" stroke-width="0.116363"/>
<path fill-rule="evenodd" clip-rule="evenodd" d="M7.32561 16.5156L7.46838 17.5528L5.97583 17.799L5.83305 16.7618L7.32561 16.5156Z" fill="#C2340C" stroke="#0B0505" stroke-width="0.116363"/>
<path fill-rule="evenodd" clip-rule="evenodd" d="M9.77621 18.3912L10.5522 17.6885L9.05969 17.9347L8.28365 18.6374L9.77621 18.3912Z" fill="#C2340C" stroke="#0B0505" stroke-width="0.116363"/>
<path fill-rule="evenodd" clip-rule="evenodd" d="M12.4165 17.6885L13.1925 18.3912L11.6999 18.6374L10.9239 17.9347L12.4165 17.6885Z" fill="#C2340C" stroke="#0B0505" stroke-width="0.116363"/>
<path fill-rule="evenodd" clip-rule="evenodd" d="M15.5004 17.5528L15.6432 16.5156L14.1506 16.7618L14.0078 17.799L15.5004 17.5528Z" fill="#C2340C" stroke="#0B0505" stroke-width="0.116363"/>
<path fill-rule="evenodd" clip-rule="evenodd" d="M17.0714 15.3174L18.1176 15.3568L16.625 15.603L15.5789 15.5636L17.0714 15.3174Z" fill="#C2340C" stroke="#0B0505" stroke-width="0.116363"/>
<path fill-rule="evenodd" clip-rule="evenodd" d="M19.3456 13.229L18.7883 12.3428L17.2958 12.589L17.853 13.4752L19.3456 13.229Z" fill="#C2340C" stroke="#0B0505" stroke-width="0.116363"/>
<path fill-rule="evenodd" clip-rule="evenodd" d="M19.1121 10.5065L19.9388 9.86426L18.4463 10.1105L17.6196 10.7527L19.1121 10.5065Z" fill="#C2340C" stroke="#0B0505" stroke-width="0.116363"/>
<path fill-rule="evenodd" clip-rule="evenodd" d="M19.5125 7.44669L18.5159 7.12598L17.0234 7.37219L18.0199 7.6929L19.5125 7.44669Z" fill="#C2340C" stroke="#0B0505" stroke-width="0.116363"/>
<path fill-rule="evenodd" clip-rule="evenodd" d="M17.5837 5.50971L17.8042 4.48633L16.3116 4.73254L16.0911 5.75592L17.5837 5.50971Z" fill="#C2340C" stroke="#0B0505" stroke-width="0.116363"/>
<path fill-rule="evenodd" clip-rule="evenodd" d="M15.9227 2.9082L14.9532 3.30308L13.4606 3.54929L14.4302 3.15442L15.9227 2.9082Z" fill="#C2340C" stroke="#0B0505" stroke-width="0.116363"/>
<path fill-rule="evenodd" clip-rule="evenodd" d="M13.2013 2.66593L12.7124 1.74023L11.2199 1.98645L11.7087 2.91214L13.2013 2.66593Z" fill="#C2340C" stroke="#0B0505" stroke-width="0.116363"/>
<path fill-rule="evenodd" clip-rule="evenodd" d="M12.7124 1.74023V1.74023L11.2198 1.98645V1.98645L12.7124 1.74023Z" fill="#C2340C"/>
<path d="M12.7124 1.74023V1.74023ZM12.7124 1.74023L11.2198 1.98645M11.2198 1.98645V1.98645Z" stroke="#0B0505" stroke-width="0.116363"/>
<path fill-rule="evenodd" clip-rule="evenodd" d="M12.7124 1.74023C12.4153 1.17765 11.8283 0.935748 11.2818 1.01451L9.78925 1.26072C10.3357 1.18196 10.9227 1.42387 11.2198 1.98644L12.7124 1.74023Z" fill="#C2340C" stroke="#0B0505" stroke-width="0.116363"/>
<path fill-rule="evenodd" clip-rule="evenodd" d="M11.282 1.01465C10.8697 1.07406 10.4806 1.31597 10.2564 1.74037L8.76389 1.98658C8.98804 1.56218 9.37719 1.32028 9.78943 1.26086L11.282 1.01465Z" fill="#C2340C" stroke="#0B0505" stroke-width="0.116363"/>
<path fill-rule="evenodd" clip-rule="evenodd" d="M9.76746 2.66699C9.56076 3.05831 9.19107 3.313 8.7824 3.38589L7.28985 3.6321C7.69851 3.55921 8.0682 3.30453 8.2749 2.91321L9.76746 2.66699Z" fill="#C2340C" stroke="#0B0505" stroke-width="0.116363"/>
<path fill-rule="evenodd" clip-rule="evenodd" d="M8.78235 3.38497C8.53187 3.42964 8.26676 3.40602 8.01556 3.30371L6.523 3.54992C6.7742 3.65224 7.03932 3.67586 7.28979 3.63118L8.78235 3.38497Z" fill="#C2340C" stroke="#0B0505" stroke-width="0.116363"/>
<path fill-rule="evenodd" clip-rule="evenodd" d="M7.04602 2.90878C6.79792 2.80774 6.54698 2.78329 6.31212 2.81956L4.81956 3.06578C5.05443 3.0295 5.30536 3.05395 5.55347 3.15499L7.04602 2.90878Z" fill="#C2340C" stroke="#0B0505" stroke-width="0.116363"/>
<path fill-rule="evenodd" clip-rule="evenodd" d="M6.31213 2.82031C5.5684 2.93519 4.98583 3.65904 5.16456 4.48828L3.672 4.73449C3.49327 3.90525 4.07585 3.1814 4.81958 3.06653L6.31213 2.82031Z" fill="#C2340C" stroke="#0B0505" stroke-width="0.116363"/>
<path fill-rule="evenodd" clip-rule="evenodd" d="M5.38502 5.51172C5.53536 6.20948 5.13228 6.9076 4.45283 7.12627L2.96028 7.37248C3.63972 7.15381 4.0428 6.45569 3.89246 5.75793L5.38502 5.51172Z" fill="#C2340C" stroke="#0B0505" stroke-width="0.116363"/>
<path fill-rule="evenodd" clip-rule="evenodd" d="M3.4563 7.44629C2.39379 7.78823 2.14838 9.18036 3.02983 9.86507L1.53727 10.1113C0.655822 9.42657 0.901231 8.03445 1.96374 7.6925L3.4563 7.44629Z" fill="#C2340C" stroke="#0B0505" stroke-width="0.116363"/>
<path fill-rule="evenodd" clip-rule="evenodd" d="M3.85666 10.5078C4.42032 10.9457 4.56031 11.7395 4.18038 12.3438L2.68783 12.59C3.06775 11.9857 2.92777 11.1919 2.3641 10.754L3.85666 10.5078Z" fill="#C2340C" stroke="#0B0505" stroke-width="0.116363"/>
<path fill-rule="evenodd" clip-rule="evenodd" d="M3.6231 13.2295C3.02895 14.1745 3.73574 15.3986 4.8512 15.3566L3.35864 15.6028C2.24318 15.6448 1.53639 14.4207 2.13054 13.4757L3.6231 13.2295Z" fill="#C2340C" stroke="#0B0505" stroke-width="0.116363"/>
<path fill-rule="evenodd" clip-rule="evenodd" d="M5.89744 15.3164C6.61063 15.2894 7.22817 15.8076 7.32556 16.5147L5.83301 16.761C5.73561 16.0538 5.11807 15.5357 4.40488 15.5627L5.89744 15.3164Z" fill="#C2340C" stroke="#0B0505" stroke-width="0.116363"/>
<path fill-rule="evenodd" clip-rule="evenodd" d="M7.46823 17.5518C7.58086 18.37 8.33758 18.8475 9.05872 18.7369L7.56616 18.9831C6.84502 19.0937 6.08831 18.6162 5.97568 17.798L7.46823 17.5518Z" fill="#C2340C" stroke="#0B0505" stroke-width="0.116363"/>
<path fill-rule="evenodd" clip-rule="evenodd" d="M9.05866 18.7377C9.31203 18.6988 9.56101 18.5874 9.77612 18.3926L8.28357 18.6388C8.06846 18.8336 7.81948 18.945 7.56611 18.9839L9.05866 18.7377Z" fill="#C2340C" stroke="#0B0505" stroke-width="0.116363"/>
<path fill-rule="evenodd" clip-rule="evenodd" d="M10.5521 17.6911C10.7531 17.5091 10.9942 17.3962 11.2449 17.3525L9.75232 17.5988C9.50166 17.6424 9.26059 17.7553 9.05953 17.9374L10.5521 17.6911Z" fill="#C2340C" stroke="#0B0505" stroke-width="0.116363"/>
<path fill-rule="evenodd" clip-rule="evenodd" d="M11.2451 17.3518C11.6541 17.2805 12.0886 17.3933 12.4166 17.6904L10.9241 17.9366C10.596 17.6395 10.1615 17.5267 9.75252 17.598L11.2451 17.3518Z" fill="#C2340C" stroke="#0B0505" stroke-width="0.116363"/>
<path fill-rule="evenodd" clip-rule="evenodd" d="M13.1926 18.3926C13.5236 18.6922 13.9347 18.7947 14.3186 18.739L12.826 18.9852C12.4421 19.0409 12.031 18.9384 11.7001 18.6388L13.1926 18.3926Z" fill="#C2340C" stroke="#0B0505" stroke-width="0.116363"/>
<path fill-rule="evenodd" clip-rule="evenodd" d="M14.3185 18.7382C14.8944 18.6546 15.4091 18.2152 15.5005 17.5518L14.0079 17.798C13.9166 18.4614 13.4018 18.9008 12.8259 18.9844L14.3185 18.7382Z" fill="#C2340C" stroke="#0B0505" stroke-width="0.116363"/>
<path fill-rule="evenodd" clip-rule="evenodd" d="M15.6433 16.5155C15.727 15.9073 16.1955 15.439 16.7787 15.3369L15.2861 15.5831C14.7029 15.6852 14.2345 16.1536 14.1508 16.7617L15.6433 16.5155Z" fill="#C2340C" stroke="#0B0505" stroke-width="0.116363"/>
<path fill-rule="evenodd" clip-rule="evenodd" d="M16.7788 15.3362C16.8737 15.3196 16.9717 15.3127 17.0715 15.3164L15.579 15.5627C15.4791 15.5589 15.3811 15.5658 15.2862 15.5824L16.7788 15.3362Z" fill="#C2340C" stroke="#0B0505" stroke-width="0.116363"/>
<path fill-rule="evenodd" clip-rule="evenodd" d="M18.1174 15.3562C18.2067 15.3596 18.2933 15.3548 18.3768 15.3428L16.8843 15.589C16.8007 15.601 16.7141 15.6058 16.6249 15.6024L18.1174 15.3562Z" fill="#C2340C" stroke="#0B0505" stroke-width="0.116363"/>
<path fill-rule="evenodd" clip-rule="evenodd" d="M18.3769 15.3432C19.3376 15.2045 19.8921 14.0989 19.3455 13.2295L17.853 13.4757C18.3996 14.3451 17.8451 15.4508 16.8843 15.5894L18.3769 15.3432Z" fill="#C2340C" stroke="#0B0505" stroke-width="0.116363"/>
<path fill-rule="evenodd" clip-rule="evenodd" d="M18.7883 12.3438C18.4084 11.7395 18.5484 10.9457 19.1121 10.5078L17.6195 10.754C17.0558 11.1919 16.9158 11.9857 17.2958 12.59L18.7883 12.3438Z" fill="#C2340C" stroke="#0B0505" stroke-width="0.116363"/>
<path fill-rule="evenodd" clip-rule="evenodd" d="M19.9389 9.86507C20.8203 9.18036 20.5749 7.78823 19.5124 7.44629L18.0198 7.6925C19.0823 8.03445 19.3278 9.42657 18.4463 10.1113L19.9389 9.86507Z" fill="#C2340C" stroke="#0B0505" stroke-width="0.116363"/>
<path fill-rule="evenodd" clip-rule="evenodd" d="M18.5159 7.12627C17.8364 6.9076 17.4334 6.20948 17.5837 5.51172L16.0912 5.75793C15.9408 6.45569 16.3439 7.15381 17.0233 7.37248L18.5159 7.12627Z" fill="#C2340C" stroke="#0B0505" stroke-width="0.116363"/>
<path fill-rule="evenodd" clip-rule="evenodd" d="M17.8043 4.48753C18.0159 3.50553 17.1599 2.67133 16.233 2.82122L14.7405 3.06743C15.6674 2.91754 16.5233 3.75175 16.3117 4.73374L17.8043 4.48753Z" fill="#C2340C" stroke="#0B0505" stroke-width="0.116363"/>
<path fill-rule="evenodd" clip-rule="evenodd" d="M16.233 2.82129C16.13 2.83794 16.0262 2.86675 15.9228 2.90885L14.4303 3.15506C14.5336 3.11296 14.6375 3.08416 14.7405 3.0675L16.233 2.82129Z" fill="#C2340C" stroke="#0B0505" stroke-width="0.116363"/>
<path fill-rule="evenodd" clip-rule="evenodd" d="M14.9531 3.30371C14.8606 3.3414 14.7661 3.36842 14.6712 3.38527L13.1787 3.63148C13.2736 3.61463 13.368 3.58762 13.4606 3.54992L14.9531 3.30371Z" fill="#C2340C" stroke="#0B0505" stroke-width="0.116363"/>
<path fill-rule="evenodd" clip-rule="evenodd" d="M14.6713 3.38619C14.0883 3.4897 13.4879 3.20979 13.2013 2.66699L11.7087 2.9132C11.9954 3.45601 12.5958 3.73592 13.1787 3.6324L14.6713 3.38619Z" fill="#C2340C" stroke="#0B0505" stroke-width="0.116363"/>
<path d="M12.692 1.75104C12.1794 0.780517 10.7894 0.780516 10.2768 1.75104L9.78793 2.67673C9.44899 3.31841 8.67896 3.59872 8.00688 3.32499L7.03734 2.93011C6.0208 2.51613 4.95597 3.40963 5.18722 4.48254L5.40773 5.50592C5.56058 6.21531 5.15078 6.92507 4.46001 7.14738L3.46348 7.46809C2.41867 7.80434 2.17735 9.17326 3.04411 9.84656L3.87087 10.4888C4.44393 10.9339 4.58625 11.741 4.19999 12.3553L3.64273 13.2415C3.05848 14.1708 3.75349 15.3745 4.85036 15.3332L5.89646 15.2938C6.62154 15.2663 7.24937 15.7931 7.34839 16.512L7.49117 17.5492C7.64083 18.6364 8.9471 19.1119 9.76065 18.3752L10.5367 17.6725C11.0746 17.1854 11.8942 17.1854 12.4321 17.6725L13.2081 18.3752C14.0217 19.1119 15.3279 18.6364 15.4776 17.5492L15.6204 16.512C15.7194 15.7931 16.3472 15.2663 17.0724 15.2938L18.1185 15.3332C19.2152 15.3745 19.9103 14.1708 19.3261 13.2415L18.7688 12.3553C18.3825 11.741 18.5249 10.9339 19.098 10.4888L19.9247 9.84656C20.7915 9.17326 20.5501 7.80434 19.5053 7.46809L18.5088 7.14738C17.818 6.92507 17.4082 6.21531 17.5611 5.50592L17.7816 4.48255C18.0128 3.40963 16.9479 2.51613 15.9315 2.93011L14.9619 3.32499C14.2899 3.59872 13.5197 3.31841 13.1809 2.67673L12.692 1.75104Z" fill="#FA6F28" stroke="#0B0505" stroke-width="0.0462929"/>
<path d="M7.2031 10.2593C7.29609 10.5464 7.55497 10.7568 7.9112 10.8592C8.26702 10.9615 8.71364 10.9534 9.16548 10.807C9.61732 10.6606 9.98388 10.4053 10.2121 10.1138C10.4407 9.82201 10.5269 9.49971 10.4339 9.21265C10.3409 8.92559 10.0821 8.7151 9.72584 8.61271C9.37001 8.51044 8.9234 8.51859 8.47155 8.66497C8.01971 8.81134 7.65316 9.06663 7.4249 9.35812C7.19638 9.64994 7.1101 9.97224 7.2031 10.2593Z" fill="#FEF8EE" stroke="#0B0505" stroke-width="0.116363"/>
<circle cx="0.591995" cy="0.591995" r="0.533813" transform="matrix(-0.951325 0.308188 0.308188 0.951325 9.18054 8.99707)" fill="#0B0505" stroke="#0B0505" stroke-width="0.116363"/>
<path d="M12.0088 8.70266C12.1018 8.98972 12.3606 9.20021 12.7169 9.3026C13.0727 9.40487 13.5193 9.39672 13.9711 9.25034C14.423 9.10397 14.7895 8.84868 15.0178 8.55719C15.2463 8.26537 15.3326 7.94307 15.2396 7.65601C15.1466 7.36895 14.8877 7.15846 14.5315 7.05607C14.1757 6.9538 13.7291 6.96195 13.2772 7.10832C12.8254 7.2547 12.4588 7.50998 12.2306 7.80147C12.002 8.0933 11.9158 8.4156 12.0088 8.70266Z" fill="#FEF8EE" stroke="#0B0505" stroke-width="0.116363"/>
<circle cx="0.591995" cy="0.591995" r="0.533813" transform="matrix(-0.951325 0.308188 0.308188 0.951325 13.9862 7.44043)" fill="#0B0505" stroke="#0B0505" stroke-width="0.116363"/>
<path d="M13.6079 11.3535C13.5634 12.299 12.4734 12.8551 11.3388 12.1544" stroke="#0B0505" stroke-width="0.200213" stroke-linecap="round"/>
</svg>
