<svg width="50" height="51" viewBox="0 0 50 51" fill="none" xmlns="http://www.w3.org/2000/svg">
<path d="M32.4583 7.82422V17.9078H42.5418" stroke="#050303" stroke-width="14.2603" stroke-linecap="round"/>
<path d="M7.45825 32.8242H17.5418V42.9078" stroke="#050303" stroke-width="14.2603" stroke-linecap="round"/>
<path d="M42.5419 32.8242L32.4583 32.8242L32.4583 42.9078" stroke="#050303" stroke-width="14.2603" stroke-linecap="round"/>
<path d="M17.5419 7.82422L17.5419 17.9078L7.45832 17.9078" stroke="#050303" stroke-width="14.2603" stroke-linecap="round"/>
<path d="M12.2711 23.2783C12.1583 23.2783 12.061 23.2373 11.979 23.1553C11.897 23.0733 11.856 22.976 11.856 22.8632V12.9314C11.856 12.8187 11.897 12.7213 11.979 12.6393C12.061 12.5573 12.1583 12.5163 12.2711 12.5163H14.7002C14.9052 12.5163 15.0589 12.5727 15.1614 12.6854C15.2639 12.7982 15.3306 12.8802 15.3613 12.9314L17.5906 16.6212L19.8199 12.9314C19.8506 12.8802 19.9172 12.7982 20.0197 12.6854C20.1222 12.5727 20.276 12.5163 20.481 12.5163H22.9101C23.0228 12.5163 23.1202 12.5573 23.2022 12.6393C23.2842 12.7213 23.3252 12.8187 23.3252 12.9314V22.8632C23.3252 22.976 23.2842 23.0733 23.2022 23.1553C23.1202 23.2373 23.0228 23.2783 22.9101 23.2783H20.1273C20.0146 23.2783 19.9172 23.2373 19.8352 23.1553C19.7532 23.0733 19.7122 22.976 19.7122 22.8632V18.6506L18.6975 20.3111C18.6463 20.3931 18.5745 20.4802 18.4823 20.5724C18.4003 20.6544 18.2824 20.6954 18.1287 20.6954H17.0525C16.8987 20.6954 16.7757 20.6544 16.6835 20.5724C16.6015 20.4802 16.5349 20.3931 16.4836 20.3111L15.4689 18.6506V22.8632C15.4689 22.976 15.4279 23.0733 15.3459 23.1553C15.2639 23.2373 15.1666 23.2783 15.0538 23.2783H12.2711Z" fill="#FCF0DA"/>
<path d="M17.5265 38.3237C16.522 38.3237 15.6406 38.1699 14.8821 37.8624C14.1339 37.5549 13.5394 37.0937 13.0987 36.4787C12.6682 35.8535 12.4325 35.0848 12.3915 34.1726C12.3812 33.7524 12.3761 33.3065 12.3761 32.835C12.3761 32.3636 12.3812 31.9074 12.3915 31.4667C12.4325 30.5648 12.6682 29.8012 13.0987 29.1759C13.5292 28.5507 14.1237 28.0741 14.8821 27.7461C15.6406 27.4181 16.522 27.2542 17.5265 27.2542C18.531 27.2542 19.4124 27.4181 20.1709 27.7461C20.9294 28.0741 21.5238 28.5507 21.9543 29.1759C22.395 29.8012 22.6308 30.5648 22.6615 31.4667C22.682 31.9074 22.6923 32.3636 22.6923 32.835C22.6923 33.3065 22.682 33.7524 22.6615 34.1726C22.6205 35.0848 22.3797 35.8535 21.9389 36.4787C21.5085 37.0937 20.914 37.5549 20.1555 37.8624C19.4073 38.1699 18.531 38.3237 17.5265 38.3237ZM17.5265 35.3257C17.8647 35.3257 18.1364 35.2283 18.3413 35.0336C18.5463 34.8286 18.654 34.5108 18.6642 34.0804C18.6847 33.6396 18.695 33.204 18.695 32.7735C18.695 32.3431 18.6847 31.9177 18.6642 31.4975C18.654 31.2105 18.5976 30.9747 18.4951 30.7902C18.4028 30.6058 18.2747 30.4725 18.1107 30.3905C17.9467 30.2983 17.752 30.2521 17.5265 30.2521C17.3113 30.2521 17.1165 30.2983 16.9423 30.3905C16.7783 30.4725 16.645 30.6058 16.5425 30.7902C16.4503 30.9747 16.3991 31.2105 16.3888 31.4975C16.3786 31.9177 16.3734 32.3431 16.3734 32.7735C16.3734 33.204 16.3786 33.6396 16.3888 34.0804C16.4093 34.5108 16.5169 34.8286 16.7117 35.0336C16.9167 35.2283 17.1883 35.3257 17.5265 35.3257Z" fill="#FCF0DA"/>
<path d="M30.9357 23.2783C30.823 23.2783 30.7256 23.2373 30.6436 23.1553C30.5616 23.0733 30.5206 22.976 30.5206 22.8632V19.8345L27.0614 12.9929C27.0511 12.9724 27.0409 12.9519 27.0306 12.9314C27.0306 12.9007 27.0306 12.875 27.0306 12.8545C27.0306 12.7623 27.0614 12.6854 27.1229 12.6239C27.1946 12.5522 27.2766 12.5163 27.3689 12.5163H30.2592C30.4642 12.5163 30.618 12.5675 30.7205 12.67C30.823 12.7725 30.8844 12.8494 30.9049 12.9007L32.4424 15.9909L33.9798 12.9007C34.0003 12.8494 34.0618 12.7725 34.1643 12.67C34.2668 12.5675 34.4205 12.5163 34.6255 12.5163H37.5159C37.6082 12.5163 37.685 12.5522 37.7465 12.6239C37.8183 12.6854 37.8541 12.7623 37.8541 12.8545C37.8541 12.875 37.849 12.9007 37.8388 12.9314C37.8388 12.9519 37.8336 12.9724 37.8234 12.9929L34.3642 19.8345V22.8632C34.3642 22.976 34.3232 23.0733 34.2412 23.1553C34.1592 23.2373 34.0618 23.2783 33.9491 23.2783H30.9357Z" fill="#FCF0DA"/>
<path d="M28.8769 38.1699C28.7642 38.1699 28.6668 38.1289 28.5848 38.0469C28.5028 37.9649 28.4618 37.8676 28.4618 37.7548V27.823C28.4618 27.7103 28.5028 27.6129 28.5848 27.5309C28.6668 27.4489 28.7642 27.4079 28.8769 27.4079H31.9518C32.0645 27.4079 32.1619 27.4489 32.2439 27.5309C32.3259 27.6129 32.3669 27.7103 32.3669 27.823V35.0182H36.6256C36.7383 35.0182 36.8357 35.0592 36.9177 35.1412C36.9997 35.2232 37.0407 35.3205 37.0407 35.4333V37.7548C37.0407 37.8676 36.9997 37.9649 36.9177 38.0469C36.8357 38.1289 36.7383 38.1699 36.6256 38.1699H28.8769Z" fill="#FCF0DA"/>
</svg>
