<svg width="50" height="50" viewBox="0 0 50 50" fill="none" xmlns="http://www.w3.org/2000/svg">
<path d="M32.4583 7.45801V17.5416H42.5418" stroke="#FCF0DA" stroke-width="14.2603" stroke-linecap="round"/>
<path d="M7.45825 32.458H17.5418V42.5416" stroke="#FCF0DA" stroke-width="14.2603" stroke-linecap="round"/>
<path d="M42.5419 32.458L32.4583 32.458L32.4583 42.5416" stroke="#FCF0DA" stroke-width="14.2603" stroke-linecap="round"/>
<path d="M17.5419 7.45801L17.5419 17.5416L7.45832 17.5416" stroke="#FCF0DA" stroke-width="14.2603" stroke-linecap="round"/>
<path d="M12.2711 22.9121C12.1583 22.9121 12.061 22.8711 11.979 22.7891C11.897 22.7071 11.856 22.6097 11.856 22.497V12.5652C11.856 12.4524 11.897 12.3551 11.979 12.2731C12.061 12.1911 12.1583 12.1501 12.2711 12.1501H14.7002C14.9052 12.1501 15.0589 12.2065 15.1614 12.3192C15.2639 12.4319 15.3306 12.5139 15.3613 12.5652L17.5906 16.255L19.8199 12.5652C19.8506 12.5139 19.9172 12.4319 20.0197 12.3192C20.1222 12.2065 20.276 12.1501 20.481 12.1501H22.9101C23.0228 12.1501 23.1202 12.1911 23.2022 12.2731C23.2842 12.3551 23.3252 12.4524 23.3252 12.5652V22.497C23.3252 22.6097 23.2842 22.7071 23.2022 22.7891C23.1202 22.8711 23.0228 22.9121 22.9101 22.9121H20.1273C20.0146 22.9121 19.9172 22.8711 19.8352 22.7891C19.7532 22.7071 19.7122 22.6097 19.7122 22.497V18.2844L18.6975 19.9449C18.6463 20.0269 18.5745 20.114 18.4823 20.2062C18.4003 20.2882 18.2824 20.3292 18.1287 20.3292H17.0525C16.8987 20.3292 16.7757 20.2882 16.6835 20.2062C16.6015 20.114 16.5349 20.0269 16.4836 19.9449L15.4689 18.2844V22.497C15.4689 22.6097 15.4279 22.7071 15.3459 22.7891C15.2639 22.8711 15.1666 22.9121 15.0538 22.9121H12.2711Z" fill="#050303"/>
<path d="M17.5265 37.9575C16.522 37.9575 15.6406 37.8037 14.8821 37.4962C14.1339 37.1887 13.5394 36.7275 13.0987 36.1125C12.6682 35.4873 12.4325 34.7186 12.3915 33.8064C12.3812 33.3862 12.3761 32.9403 12.3761 32.4688C12.3761 31.9973 12.3812 31.5412 12.3915 31.1005C12.4325 30.1985 12.6682 29.435 13.0987 28.8097C13.5292 28.1845 14.1237 27.7079 14.8821 27.3799C15.6406 27.0519 16.522 26.8879 17.5265 26.8879C18.531 26.8879 19.4124 27.0519 20.1709 27.3799C20.9294 27.7079 21.5238 28.1845 21.9543 28.8097C22.395 29.435 22.6308 30.1985 22.6615 31.1005C22.682 31.5412 22.6923 31.9973 22.6923 32.4688C22.6923 32.9403 22.682 33.3862 22.6615 33.8064C22.6205 34.7186 22.3797 35.4873 21.9389 36.1125C21.5085 36.7275 20.914 37.1887 20.1555 37.4962C19.4073 37.8037 18.531 37.9575 17.5265 37.9575ZM17.5265 34.9595C17.8647 34.9595 18.1364 34.8621 18.3413 34.6673C18.5463 34.4624 18.654 34.1446 18.6642 33.7141C18.6847 33.2734 18.695 32.8378 18.695 32.4073C18.695 31.9768 18.6847 31.5515 18.6642 31.1313C18.654 30.8443 18.5976 30.6085 18.4951 30.424C18.4028 30.2395 18.2747 30.1063 18.1107 30.0243C17.9467 29.9321 17.752 29.8859 17.5265 29.8859C17.3113 29.8859 17.1165 29.9321 16.9423 30.0243C16.7783 30.1063 16.645 30.2395 16.5425 30.424C16.4503 30.6085 16.3991 30.8443 16.3888 31.1313C16.3786 31.5515 16.3734 31.9768 16.3734 32.4073C16.3734 32.8378 16.3786 33.2734 16.3888 33.7141C16.4093 34.1446 16.5169 34.4624 16.7117 34.6673C16.9167 34.8621 17.1883 34.9595 17.5265 34.9595Z" fill="#050303"/>
<path d="M30.9357 22.9121C30.823 22.9121 30.7256 22.8711 30.6436 22.7891C30.5616 22.7071 30.5206 22.6097 30.5206 22.497V19.4683L27.0614 12.6267C27.0511 12.6062 27.0409 12.5857 27.0306 12.5652C27.0306 12.5344 27.0306 12.5088 27.0306 12.4883C27.0306 12.3961 27.0614 12.3192 27.1229 12.2577C27.1946 12.186 27.2766 12.1501 27.3689 12.1501H30.2592C30.4642 12.1501 30.618 12.2013 30.7205 12.3038C30.823 12.4063 30.8844 12.4832 30.9049 12.5344L32.4424 15.6247L33.9798 12.5344C34.0003 12.4832 34.0618 12.4063 34.1643 12.3038C34.2668 12.2013 34.4205 12.1501 34.6255 12.1501H37.5159C37.6082 12.1501 37.685 12.186 37.7465 12.2577C37.8183 12.3192 37.8541 12.3961 37.8541 12.4883C37.8541 12.5088 37.849 12.5344 37.8388 12.5652C37.8388 12.5857 37.8336 12.6062 37.8234 12.6267L34.3642 19.4683V22.497C34.3642 22.6097 34.3232 22.7071 34.2412 22.7891C34.1592 22.8711 34.0618 22.9121 33.9491 22.9121H30.9357Z" fill="#050303"/>
<path d="M28.8769 37.8037C28.7642 37.8037 28.6668 37.7627 28.5848 37.6807C28.5028 37.5987 28.4618 37.5013 28.4618 37.3886V27.4568C28.4618 27.344 28.5028 27.2467 28.5848 27.1647C28.6668 27.0827 28.7642 27.0417 28.8769 27.0417H31.9518C32.0645 27.0417 32.1619 27.0827 32.2439 27.1647C32.3259 27.2467 32.3669 27.344 32.3669 27.4568V34.652H36.6256C36.7383 34.652 36.8357 34.693 36.9177 34.775C36.9997 34.857 37.0407 34.9543 37.0407 35.0671V37.3886C37.0407 37.5013 36.9997 37.5987 36.9177 37.6807C36.8357 37.7627 36.7383 37.8037 36.6256 37.8037H28.8769Z" fill="#050303"/>
</svg>
