<svg width="143" height="88" viewBox="0 0 143 88" fill="none" xmlns="http://www.w3.org/2000/svg">
<rect x="1.6145" y="0.228516" width="139.483" height="1.93727" fill="#FCF0DA"/>
<rect x="1.61426" y="70.6162" width="139.483" height="1.93727" fill="#FCF0DA"/>
<path d="M3.37196 30.165V5.23907H14.1797C16.0784 5.23907 17.6727 5.49466 18.9629 6.00584C20.2611 6.51701 21.2388 7.23915 21.896 8.17225C22.5614 9.10535 22.8941 10.2048 22.8941 11.4706C22.8941 12.3874 22.6912 13.2232 22.2855 13.9778C21.8879 14.7324 21.3281 15.3652 20.6059 15.8764C19.8838 16.3795 19.0399 16.7284 18.0744 16.9231V17.1665C19.1454 17.2071 20.1191 17.4789 20.9954 17.982C21.8717 18.4769 22.5695 19.1626 23.0888 20.0389C23.6081 20.9071 23.8677 21.9294 23.8677 23.1059C23.8677 24.4691 23.5107 25.6821 22.7967 26.745C22.0908 27.8079 21.0847 28.6437 19.7783 29.2522C18.472 29.8608 16.9141 30.165 15.1047 30.165H3.37196ZM10.139 24.7612H13.3034C14.4394 24.7612 15.2913 24.5502 15.8593 24.1283C16.4273 23.6982 16.7112 23.0654 16.7112 22.2296C16.7112 21.6454 16.5774 21.1505 16.3096 20.7448C16.0419 20.3391 15.6605 20.0307 15.1655 19.8198C14.6787 19.6088 14.0905 19.5033 13.4008 19.5033H10.139V24.7612ZM10.139 15.3166H12.9139C13.5063 15.3166 14.0296 15.2233 14.484 15.0366C14.9384 14.85 15.2913 14.5823 15.5428 14.2334C15.8025 13.8763 15.9323 13.4422 15.9323 12.9311C15.9323 12.1602 15.6564 11.572 15.1047 11.1663C14.5529 10.7525 13.8551 10.5456 13.0113 10.5456H10.139V15.3166ZM33.0324 5.23907V30.165H26.2654V5.23907H33.0324ZM52.4267 13.4666C52.3212 13.0365 52.1549 12.6593 51.9277 12.3347C51.7005 12.002 51.4165 11.7221 51.0757 11.4949C50.7431 11.2596 50.3536 11.0851 49.9073 10.9716C49.4692 10.8498 48.9864 10.789 48.459 10.789C47.323 10.789 46.3534 11.0608 45.5502 11.6044C44.755 12.1481 44.1464 12.9311 43.7245 13.9534C43.3107 14.9758 43.1038 16.2091 43.1038 17.6534C43.1038 19.1139 43.3026 20.3634 43.7002 21.402C44.0978 22.4406 44.6901 23.2357 45.4771 23.7875C46.2642 24.3392 47.2419 24.6151 48.4103 24.6151C49.4408 24.6151 50.2968 24.465 50.9784 24.1648C51.6681 23.8646 52.1833 23.4386 52.5241 22.8869C52.8649 22.3351 53.0352 21.686 53.0352 20.9395L54.2037 21.0612H48.5077V16.2415H59.5588V19.6981C59.5588 21.97 59.0761 23.9133 58.1105 25.5279C57.1531 27.1345 55.8305 28.3678 54.1428 29.2279C52.4632 30.0798 50.5362 30.5058 48.3616 30.5058C45.9356 30.5058 43.8057 29.9906 41.9719 28.9601C40.1382 27.9297 38.7061 26.461 37.6756 24.5543C36.6532 22.6475 36.1421 20.3796 36.1421 17.7507C36.1421 15.6898 36.4544 13.8642 37.0792 12.2738C37.7121 10.6835 38.5884 9.34066 39.7081 8.24528C40.8279 7.14178 42.122 6.31011 43.5906 5.75024C45.0593 5.18227 46.6334 4.89828 48.3129 4.89828C49.7897 4.89828 51.1609 5.10925 52.4267 5.53117C53.7006 5.94498 54.8244 6.5373 55.798 7.30812C56.7798 8.07083 57.5709 8.97553 58.1714 10.0222C58.7718 11.0689 59.1369 12.217 59.2667 13.4666H52.4267ZM62.7141 30.165V5.23907H69.4812V15.3166H69.8219L77.3192 5.23907H85.2059L76.7837 16.3389L85.4007 30.165H77.3192L71.7206 20.8178L69.4812 23.7388V30.165H62.7141ZM93.9812 5.23907V30.165H87.2141V5.23907H93.9812ZM110.625 13.0284C110.56 12.217 110.256 11.5842 109.712 11.1298C109.176 10.6754 108.361 10.4482 107.266 10.4482C106.568 10.4482 105.996 10.5334 105.55 10.7038C105.111 10.8661 104.787 11.0892 104.576 11.3732C104.365 11.6572 104.255 11.9817 104.247 12.3469C104.231 12.6471 104.284 12.9189 104.406 13.1623C104.535 13.3976 104.738 13.6126 105.014 13.8074C105.29 13.994 105.643 14.1644 106.073 14.3185C106.503 14.4727 107.014 14.6106 107.606 14.7324L109.651 15.1705C111.031 15.4626 112.211 15.848 113.193 16.3267C114.175 16.8055 114.978 17.3694 115.603 18.0185C116.227 18.6595 116.686 19.3816 116.978 20.1849C117.278 20.9882 117.432 21.8645 117.441 22.8138C117.432 24.4528 117.023 25.8403 116.211 26.9763C115.4 28.1122 114.24 28.9763 112.73 29.5687C111.229 30.161 109.424 30.4571 107.314 30.4571C105.148 30.4571 103.257 30.1366 101.643 29.4956C100.036 28.8546 98.7866 27.8688 97.8941 26.5381C97.0097 25.1993 96.5634 23.4873 96.5553 21.402H102.982C103.022 22.1647 103.213 22.8057 103.554 23.325C103.894 23.8443 104.373 24.2378 104.99 24.5056C105.614 24.7733 106.357 24.9072 107.217 24.9072C107.939 24.9072 108.544 24.818 109.03 24.6395C109.517 24.461 109.886 24.2135 110.138 23.897C110.39 23.5806 110.519 23.2195 110.527 22.8138C110.519 22.4325 110.394 22.0998 110.15 21.8158C109.915 21.5237 109.525 21.2641 108.982 21.0369C108.438 20.8016 107.704 20.5825 106.779 20.3796L104.296 19.8441C102.089 19.3654 100.349 18.5662 99.0747 17.4465C97.8089 16.3186 97.1801 14.781 97.1882 12.8337C97.1801 11.2515 97.602 9.86806 98.4539 8.68343C99.314 7.49068 100.503 6.56164 102.02 5.8963C103.545 5.23095 105.294 4.89828 107.266 4.89828C109.278 4.89828 111.018 5.23501 112.487 5.90847C113.956 6.58192 115.087 7.53125 115.883 8.75645C116.686 9.97354 117.092 11.3975 117.1 13.0284H110.625ZM133.451 13.0284C133.386 12.217 133.082 11.5842 132.539 11.1298C132.003 10.6754 131.188 10.4482 130.092 10.4482C129.394 10.4482 128.822 10.5334 128.376 10.7038C127.938 10.8661 127.613 11.0892 127.402 11.3732C127.191 11.6572 127.082 11.9817 127.074 12.3469C127.058 12.6471 127.11 12.9189 127.232 13.1623C127.362 13.3976 127.565 13.6126 127.841 13.8074C128.116 13.994 128.469 14.1644 128.899 14.3185C129.329 14.4727 129.841 14.6106 130.433 14.7324L132.478 15.1705C133.857 15.4626 135.038 15.848 136.019 16.3267C137.001 16.8055 137.804 17.3694 138.429 18.0185C139.054 18.6595 139.512 19.3816 139.805 20.1849C140.105 20.9882 140.259 21.8645 140.267 22.8138C140.259 24.4528 139.849 25.8403 139.038 26.9763C138.226 28.1122 137.066 28.9763 135.557 29.5687C134.056 30.161 132.25 30.4571 130.141 30.4571C127.974 30.4571 126.084 30.1366 124.469 29.4956C122.863 28.8546 121.613 27.8688 120.721 26.5381C119.836 25.1993 119.39 23.4873 119.382 21.402H125.808C125.849 22.1647 126.039 22.8057 126.38 23.325C126.721 23.8443 127.2 24.2378 127.816 24.5056C128.441 24.7733 129.183 24.9072 130.043 24.9072C130.766 24.9072 131.37 24.818 131.857 24.6395C132.344 24.461 132.713 24.2135 132.964 23.897C133.216 23.5806 133.346 23.2195 133.354 22.8138C133.346 22.4325 133.22 22.0998 132.977 21.8158C132.741 21.5237 132.352 21.2641 131.808 21.0369C131.265 20.8016 130.53 20.5825 129.605 20.3796L127.122 19.8441C124.915 19.3654 123.175 18.5662 121.901 17.4465C120.635 16.3186 120.007 14.781 120.015 12.8337C120.007 11.2515 120.428 9.86806 121.28 8.68343C122.141 7.49068 123.329 6.56164 124.847 5.8963C126.372 5.23095 128.12 4.89828 130.092 4.89828C132.104 4.89828 133.845 5.23501 135.313 5.90847C136.782 6.58192 137.914 7.53125 138.709 8.75645C139.512 9.97354 139.918 11.3975 139.926 13.0284H133.451ZM5.31655 38.1862V66.165H3.64984V38.1862H5.31655ZM12.2976 66.165V45.1809H13.9507V66.165H12.2976ZM13.131 41.4649C12.7667 41.4649 12.4479 41.3374 12.1747 41.0824C11.9105 40.8274 11.7785 40.5177 11.7785 40.1534C11.7785 39.7891 11.9105 39.4795 12.1747 39.2244C12.4388 38.9694 12.7576 38.8419 13.131 38.8419C13.4953 38.8419 13.8095 38.9694 14.0736 39.2244C14.3468 39.4795 14.4835 39.7891 14.4835 40.1534C14.4835 40.5177 14.3514 40.8274 14.0873 41.0824C13.8232 41.3374 13.5044 41.4649 13.131 41.4649ZM28.35 45.1809V46.67H19.183V45.1809H28.35ZM22.2842 40.1534H23.9373V61.2059C23.9373 62.062 24.1012 62.7633 24.4291 63.3098C24.7661 63.8471 25.2032 64.2479 25.7406 64.512C26.2871 64.767 26.8699 64.8945 27.4893 64.8945C27.7898 64.8945 28.0494 64.8717 28.268 64.8262C28.4957 64.7807 28.7097 64.7215 28.9101 64.6486L29.3199 66.165C29.0649 66.2561 28.7826 66.3335 28.4729 66.3973C28.1632 66.4701 27.7989 66.5066 27.38 66.5066C26.5056 66.5066 25.6768 66.3108 24.8936 65.9191C24.1194 65.5275 23.491 64.9583 23.0083 64.2114C22.5256 63.4646 22.2842 62.5629 22.2842 61.5064V40.1534ZM41.95 45.1809V46.67H32.7831V45.1809H41.95ZM35.8843 40.1534H37.5374V61.2059C37.5374 62.062 37.7013 62.7633 38.0292 63.3098C38.3662 63.8471 38.8033 64.2479 39.3407 64.512C39.8871 64.767 40.47 64.8945 41.0894 64.8945C41.3899 64.8945 41.6495 64.8717 41.8681 64.8262C42.0958 64.7807 42.3098 64.7215 42.5102 64.6486L42.92 66.165C42.665 66.2561 42.3827 66.3335 42.073 66.3973C41.7633 66.4701 41.399 66.5066 40.9801 66.5066C40.1057 66.5066 39.2769 66.3108 38.4937 65.9191C37.7195 65.5275 37.0911 64.9583 36.6084 64.2114C36.1257 63.4646 35.8843 62.5629 35.8843 61.5064V40.1534ZM50.2494 38.1862V66.165H48.5827V38.1862H50.2494ZM65.3318 66.6022C63.4374 66.6022 61.7889 66.1332 60.3863 65.1951C58.9837 64.257 57.8999 62.9728 57.1349 61.3425C56.3698 59.7122 55.9873 57.8543 55.9873 55.7686C55.9873 53.6738 56.3698 51.8067 57.1349 50.1673C57.909 48.528 58.9701 47.2347 60.318 46.2875C61.6659 45.3403 63.2052 44.8667 64.9356 44.8667C66.1105 44.8667 67.2217 45.1035 68.269 45.5771C69.3255 46.0416 70.2545 46.7155 71.056 47.599C71.8666 48.4824 72.4996 49.548 72.955 50.7958C73.4194 52.0435 73.6517 53.4461 73.6517 55.0035V56.0418H57.0392V54.5254H71.985C71.985 53.0044 71.6753 51.6337 71.056 50.4133C70.4367 49.1928 69.5942 48.2229 68.5286 47.5033C67.463 46.7838 66.2653 46.4241 64.9356 46.4241C63.5421 46.4241 62.2989 46.8157 61.206 47.599C60.1222 48.3731 59.2615 49.4205 58.624 50.7411C57.9955 52.0618 57.6677 53.5372 57.6403 55.1675V55.8506C57.6403 57.5992 57.9455 59.1703 58.5557 60.5638C59.175 61.9482 60.0584 63.0456 61.206 63.8562C62.3536 64.6577 63.7288 65.0585 65.3318 65.0585C66.4794 65.0585 67.4585 64.8672 68.269 64.4847C69.0887 64.093 69.7581 63.6194 70.2773 63.0639C70.7964 62.5083 71.1881 61.9709 71.4522 61.4518L72.9686 62.0666C72.6498 62.7679 72.1535 63.4692 71.4795 64.1705C70.8146 64.8626 69.9676 65.441 68.9385 65.9055C67.9184 66.37 66.7162 66.6022 65.3318 66.6022ZM80.8377 57.9681L80.8104 55.5773H81.2475L91.7396 45.1809H93.9118L84.2804 54.744L84.1165 54.8123L80.8377 57.9681ZM79.3895 66.165V38.1862H81.0563V66.165H79.3895ZM92.2178 66.165L83.3651 54.9762L84.5673 53.8696L94.349 66.165H92.2178ZM98.9324 66.165V45.1809H100.585V66.165H98.9324ZM99.7658 41.4649C99.4015 41.4649 99.0827 41.3374 98.8095 41.0824C98.5453 40.8274 98.4133 40.5177 98.4133 40.1534C98.4133 39.7891 98.5453 39.4795 98.8095 39.2244C99.0736 38.9694 99.3924 38.8419 99.7658 38.8419C100.13 38.8419 100.444 38.9694 100.708 39.2244C100.982 39.4795 101.118 39.7891 101.118 40.1534C101.118 40.5177 100.986 40.8274 100.722 41.0824C100.458 41.3374 100.139 41.4649 99.7658 41.4649ZM120.9 49.7029L119.356 50.1127C119.111 49.3477 118.76 48.6873 118.305 48.1318C117.849 47.5762 117.275 47.1481 116.583 46.8476C115.9 46.5379 115.08 46.3831 114.124 46.3831C112.585 46.3831 111.323 46.7656 110.34 47.5307C109.365 48.2957 108.878 49.293 108.878 50.5225C108.878 51.5244 109.21 52.3532 109.875 53.009C110.54 53.6556 111.556 54.1474 112.922 54.4844L116.146 55.2904C117.804 55.7003 119.051 56.3651 119.889 57.285C120.727 58.1958 121.146 59.3297 121.146 60.6868C121.146 61.8434 120.832 62.868 120.203 63.7606C119.575 64.6532 118.705 65.3499 117.594 65.8508C116.492 66.3517 115.208 66.6022 113.742 66.6022C111.783 66.6022 110.176 66.1468 108.919 65.2361C107.662 64.3162 106.856 63.0001 106.501 61.2879L108.099 60.878C108.4 62.2442 109.024 63.287 109.971 64.0065C110.927 64.7169 112.18 65.0721 113.728 65.0721C115.44 65.0721 116.82 64.6668 117.867 63.8562C118.924 63.0456 119.452 62.0074 119.452 60.7414C119.452 59.776 119.142 58.9608 118.523 58.296C117.904 57.6311 116.966 57.1439 115.709 56.8342L112.362 56.0145C110.649 55.5955 109.365 54.9261 108.509 54.0062C107.653 53.0773 107.225 51.9342 107.225 50.5772C107.225 49.4478 107.521 48.4551 108.113 47.599C108.705 46.7428 109.52 46.0734 110.558 45.5907C111.597 45.108 112.785 44.8667 114.124 44.8667C115.9 44.8667 117.348 45.2856 118.468 46.1235C119.589 46.9614 120.399 48.1545 120.9 49.7029ZM140.248 49.7029L138.705 50.1127C138.459 49.3477 138.108 48.6873 137.653 48.1318C137.197 47.5762 136.624 47.1481 135.931 46.8476C135.248 46.5379 134.429 46.3831 133.472 46.3831C131.933 46.3831 130.672 46.7656 129.688 47.5307C128.713 48.2957 128.226 49.293 128.226 50.5225C128.226 51.5244 128.559 52.3532 129.224 53.009C129.888 53.6556 130.904 54.1474 132.27 54.4844L135.494 55.2904C137.152 55.7003 138.4 56.3651 139.237 57.285C140.075 58.1958 140.494 59.3297 140.494 60.6868C140.494 61.8434 140.18 62.868 139.552 63.7606C138.923 64.6532 138.053 65.3499 136.942 65.8508C135.84 66.3517 134.556 66.6022 133.09 66.6022C131.132 66.6022 129.524 66.1468 128.267 65.2361C127.01 64.3162 126.204 63.0001 125.849 61.2879L127.448 60.878C127.748 62.2442 128.372 63.287 129.319 64.0065C130.275 64.7169 131.528 65.0721 133.076 65.0721C134.788 65.0721 136.168 64.6668 137.216 63.8562C138.272 63.0456 138.8 62.0074 138.8 60.7414C138.8 59.776 138.491 58.9608 137.871 58.296C137.252 57.6311 136.314 57.1439 135.057 56.8342L131.71 56.0145C129.998 55.5955 128.713 54.9261 127.857 54.0062C127.001 53.0773 126.573 51.9342 126.573 50.5772C126.573 49.4478 126.869 48.4551 127.461 47.599C128.053 46.7428 128.868 46.0734 129.907 45.5907C130.945 45.108 132.133 44.8667 133.472 44.8667C135.248 44.8667 136.696 45.2856 137.817 46.1235C138.937 46.9614 139.747 48.1545 140.248 49.7029Z" fill="#FCF0DA"/>
<path d="M43.8088 77.7005L42.3599 86.4277H41.8272L43.2761 77.7005H43.8088ZM45.9256 82.1834L45.2225 86.4277H44.7026L45.7935 79.8823H46.3006L46.1301 80.9178H46.1813C46.3858 80.5797 46.6756 80.3084 47.0506 80.1039C47.4256 79.8993 47.8461 79.7971 48.312 79.7971C48.7495 79.7971 49.1202 79.8908 49.4242 80.0783C49.7282 80.2658 49.9455 80.5328 50.0762 80.8794C50.2069 81.2232 50.2324 81.6337 50.1529 82.111L49.4327 86.4277H48.9128L49.6287 82.1323C49.7196 81.5755 49.6316 81.128 49.3645 80.79C49.1003 80.449 48.6969 80.2786 48.1543 80.2786C47.7878 80.2786 47.4469 80.3581 47.1316 80.5172C46.8191 80.6763 46.5563 80.8993 46.3432 81.1863C46.1301 81.4703 45.9909 81.8027 45.9256 82.1834ZM53.8262 86.5641C53.2978 86.5641 52.8617 86.4192 52.5179 86.1294C52.1742 85.8397 51.937 85.4405 51.8063 84.932C51.6756 84.4206 51.6642 83.834 51.7722 83.1721C51.883 82.5158 52.089 81.9334 52.3901 81.4249C52.6912 80.9135 53.062 80.513 53.5023 80.2232C53.9426 79.9306 54.4242 79.7843 54.9469 79.7843C55.3219 79.7843 55.6358 79.8567 55.8887 80.0016C56.1444 80.1436 56.3461 80.3326 56.4938 80.5684C56.6444 80.8042 56.7466 81.0627 56.8006 81.3439H56.8517L57.4569 77.7005H57.9725L56.5236 86.4277H56.0165L56.2551 85.0002H56.1955C56.0449 85.2814 55.856 85.5414 55.6287 85.78C55.4015 86.0158 55.1373 86.2061 54.8361 86.351C54.535 86.4931 54.1983 86.5641 53.8262 86.5641ZM53.9071 86.0826C54.3503 86.0826 54.7551 85.9561 55.1216 85.7033C55.4881 85.4476 55.7949 85.101 56.0421 84.6635C56.2892 84.2232 56.4597 83.7246 56.5534 83.1678C56.6472 82.611 56.6458 82.1152 56.5492 81.6806C56.4554 81.2431 56.2722 80.8993 55.9995 80.6493C55.7267 80.3965 55.3688 80.2701 54.9256 80.2701C54.4767 80.2701 54.0705 80.3979 53.7069 80.6536C53.3432 80.9064 53.0392 81.2516 52.7949 81.6891C52.5506 82.1266 52.383 82.6195 52.2921 83.1678C52.2012 83.7161 52.1998 84.2104 52.2878 84.6507C52.3787 85.0911 52.5591 85.4405 52.829 85.699C53.0989 85.9547 53.4583 86.0826 53.9071 86.0826ZM58.8844 86.4277L59.9753 79.8823H60.4909L59.4 86.4277H58.8844ZM60.4782 78.7189C60.356 78.7189 60.2537 78.6777 60.1713 78.5953C60.0918 78.5101 60.0577 78.4064 60.0691 78.2843C60.0748 78.182 60.1202 78.0925 60.2054 78.0158C60.2907 77.9391 60.3887 77.9007 60.4995 77.9007C60.6216 77.9007 60.7225 77.9434 60.802 78.0286C60.8816 78.111 60.9171 78.2118 60.9086 78.3311C60.9 78.4363 60.8532 78.5272 60.7679 78.6039C60.6855 78.6806 60.589 78.7189 60.4782 78.7189ZM64.1131 86.5641C63.5222 86.5641 63.0321 86.4178 62.6429 86.1252C62.2537 85.8326 61.9824 85.432 61.829 84.9235C61.6756 84.415 61.6529 83.8354 61.7608 83.1848C61.8688 82.5314 62.0847 81.949 62.4086 81.4377C62.7324 80.9263 63.1287 80.5229 63.5975 80.2274C64.0662 79.932 64.5719 79.7843 65.1145 79.7843C65.481 79.7843 65.8148 79.8581 66.1159 80.0059C66.4199 80.1536 66.6756 80.3652 66.883 80.6408C67.0904 80.9135 67.2338 81.2445 67.3134 81.6337C67.3929 82.0229 67.3929 82.4604 67.3134 82.9462L67.2537 83.2701H62.0719L62.1529 82.7971H66.8105C66.8901 82.3255 66.8674 81.8993 66.7424 81.5186C66.6174 81.1351 66.41 80.8311 66.1202 80.6067C65.8333 80.3823 65.481 80.2701 65.0634 80.2701C64.6373 80.2701 64.231 80.3936 63.8446 80.6408C63.4611 80.8851 63.1316 81.2118 62.856 81.6209C62.5833 82.03 62.4015 82.4803 62.3105 82.9718L62.2594 83.236C62.1685 83.7985 62.1799 84.2942 62.2935 84.7232C62.41 85.1493 62.6259 85.4831 62.9412 85.7246C63.2566 85.9632 63.6685 86.0826 64.177 86.0826C64.5321 86.0826 64.8475 86.0229 65.123 85.9036C65.4015 85.7814 65.6373 85.6337 65.8304 85.4604C66.0265 85.2871 66.1799 85.1195 66.2907 84.9576L66.7211 85.1493C66.5904 85.3681 66.4029 85.5868 66.1586 85.8056C65.9142 86.0215 65.6202 86.2019 65.2765 86.3468C64.9327 86.4917 64.5449 86.5641 64.1131 86.5641ZM79.176 80.4277C79.1618 80.1266 79.1035 79.8368 79.0012 79.5584C78.899 79.28 78.7484 79.0314 78.5495 78.8127C78.3507 78.5911 78.0993 78.4164 77.7953 78.2885C77.4941 78.1578 77.1362 78.0925 76.7214 78.0925C76.1561 78.0925 75.6064 78.2459 75.0723 78.5527C74.541 78.8596 74.0794 79.3084 73.6873 79.8993C73.2981 80.4902 73.0311 81.2118 72.8862 82.0641C72.7498 82.8794 72.7612 83.584 72.9203 84.1777C73.0822 84.7715 73.3748 85.2303 73.7981 85.5542C74.2214 85.8752 74.7569 86.0357 75.4047 86.0357C75.97 86.0357 76.497 85.9022 76.9856 85.6351C77.4771 85.3681 77.8904 84.9888 78.2257 84.4973C78.5609 84.003 78.7811 83.4178 78.8862 82.7417L79.0566 82.8311H76.0907L76.1802 82.3368H79.4828L79.3933 82.8311C79.2683 83.601 79.0112 84.2644 78.622 84.8212C78.2356 85.3752 77.7583 85.8013 77.1902 86.0996C76.6248 86.3979 76.0083 86.5471 75.3407 86.5471C74.5907 86.5471 73.9672 86.3624 73.47 85.9931C72.9728 85.6209 72.6262 85.0982 72.4302 84.4249C72.2342 83.7516 72.2115 82.9647 72.362 82.0641C72.4728 81.388 72.6618 80.7757 72.9288 80.2274C73.1987 79.6763 73.5282 79.2033 73.9174 78.8084C74.3095 78.4135 74.7484 78.111 75.2342 77.9007C75.72 77.6877 76.2342 77.5811 76.7768 77.5811C77.2768 77.5811 77.7101 77.6635 78.0765 77.8283C78.4458 77.9902 78.7512 78.209 78.9927 78.4846C79.237 78.7573 79.4189 79.0627 79.5382 79.4007C79.6603 79.736 79.7214 80.0783 79.7214 80.4277H79.176ZM82.502 86.5684C82.1241 86.5684 81.7903 86.4931 81.5005 86.3425C81.2136 86.1919 80.9991 85.9718 80.8571 85.682C80.715 85.3922 80.6767 85.04 80.742 84.6252C80.7903 84.3525 80.8798 84.1124 81.0105 83.905C81.1412 83.6976 81.3201 83.5186 81.5474 83.3681C81.7747 83.2175 82.0531 83.0939 82.3826 82.9973C82.715 82.8979 83.1028 82.8212 83.546 82.7672C83.8869 82.7275 84.1909 82.6877 84.4579 82.6479C84.725 82.6081 84.9409 82.5471 85.1056 82.4647C85.2704 82.3823 85.367 82.2587 85.3954 82.0939L85.438 81.8212C85.5176 81.3468 85.4366 80.9689 85.1951 80.6877C84.9537 80.4036 84.5687 80.2615 84.0403 80.2615C83.5744 80.2615 83.1568 80.3667 82.7875 80.5769C82.4181 80.7843 82.1426 81.0471 81.9608 81.3652L81.5091 81.182C81.6852 80.8695 81.9082 80.6096 82.1781 80.4022C82.4508 80.1948 82.7491 80.04 83.073 79.9377C83.3997 79.8354 83.7321 79.7843 84.0701 79.7843C84.3627 79.7843 84.6355 79.8255 84.8883 79.9078C85.1412 79.9902 85.3571 80.1152 85.536 80.2828C85.7179 80.4505 85.8471 80.665 85.9238 80.9263C86.0034 81.1848 86.0119 81.4945 85.9494 81.8553L85.1909 86.4277H84.671L84.8713 85.2473H84.8329C84.6795 85.4917 84.4863 85.7147 84.2534 85.9164C84.0233 86.1152 83.7605 86.2743 83.465 86.3936C83.1696 86.5101 82.8485 86.5684 82.502 86.5684ZM82.6 86.0868C83.0091 86.0868 83.3897 85.9874 83.742 85.7885C84.0971 85.5868 84.3954 85.3113 84.6369 84.9618C84.8812 84.6124 85.0389 84.2161 85.1099 83.7729L85.2761 82.8098C85.1994 82.8667 85.0957 82.9178 84.965 82.9632C84.8343 83.0059 84.688 83.0442 84.5261 83.0783C84.367 83.1096 84.2008 83.138 84.0275 83.1635C83.8571 83.1863 83.6909 83.2076 83.5289 83.2275C83.0431 83.2843 82.6412 83.3723 82.323 83.4917C82.0048 83.6081 81.7591 83.7615 81.5858 83.9519C81.4153 84.1422 81.3059 84.3723 81.2576 84.6422C81.1866 85.0882 81.2775 85.4405 81.5304 85.699C81.786 85.9576 82.1426 86.0868 82.6 86.0868ZM87.3706 86.4277L88.4615 79.8823H88.9686L88.7981 80.8709H88.8493C89.0339 80.5442 89.2953 80.2843 89.6333 80.0911C89.9743 79.8951 90.3606 79.7971 90.7924 79.7971C91.264 79.7971 91.6262 79.9107 91.8791 80.138C92.1319 80.3652 92.2924 80.6735 92.3606 81.0627H92.4075C92.595 80.6763 92.8734 80.3695 93.2427 80.1422C93.6149 79.9121 94.0439 79.7971 94.5297 79.7971C95.1603 79.7971 95.6092 79.9973 95.8762 80.3979C96.1461 80.7956 96.2228 81.3411 96.1064 82.0343L95.3734 86.4277H94.8535L95.5865 82.0343C95.6745 81.486 95.6177 81.057 95.416 80.7473C95.2143 80.4348 94.8606 80.2786 94.3549 80.2786C93.8152 80.2786 93.3691 80.4476 93.0169 80.7857C92.6646 81.1238 92.4458 81.5542 92.3606 82.0769L91.6319 86.4277H91.112L91.8493 82.0002C91.9316 81.4888 91.8762 81.074 91.6831 80.7559C91.4899 80.4377 91.1362 80.2786 90.622 80.2786C90.2782 80.2786 89.9643 80.3581 89.6802 80.5172C89.3961 80.6763 89.1603 80.8951 88.9728 81.1735C88.7853 81.4519 88.6632 81.7715 88.6064 82.1323L87.8904 86.4277H87.3706ZM100.066 86.5641C99.4753 86.5641 98.9853 86.4178 98.5961 86.1252C98.2069 85.8326 97.9355 85.432 97.7821 84.9235C97.6287 84.415 97.606 83.8354 97.714 83.1848C97.8219 82.5314 98.0378 81.949 98.3617 81.4377C98.6855 80.9263 99.0819 80.5229 99.5506 80.2274C100.019 79.932 100.525 79.7843 101.068 79.7843C101.434 79.7843 101.768 79.8581 102.069 80.0059C102.373 80.1536 102.629 80.3652 102.836 80.6408C103.044 80.9135 103.187 81.2445 103.267 81.6337C103.346 82.0229 103.346 82.4604 103.267 82.9462L103.207 83.2701H98.025L98.106 82.7971H102.764C102.843 82.3255 102.82 81.8993 102.695 81.5186C102.57 81.1351 102.363 80.8311 102.073 80.6067C101.786 80.3823 101.434 80.2701 101.017 80.2701C100.59 80.2701 100.184 80.3936 99.7978 80.6408C99.4142 80.8851 99.0847 81.2118 98.8091 81.6209C98.5364 82.03 98.3546 82.4803 98.2637 82.9718L98.2125 83.236C98.1216 83.7985 98.133 84.2942 98.2466 84.7232C98.3631 85.1493 98.579 85.4831 98.8944 85.7246C99.2097 85.9632 99.6216 86.0826 100.13 86.0826C100.485 86.0826 100.801 86.0229 101.076 85.9036C101.355 85.7814 101.59 85.6337 101.784 85.4604C101.98 85.2871 102.133 85.1195 102.244 84.9576L102.674 85.1493C102.544 85.3681 102.356 85.5868 102.112 85.8056C101.867 86.0215 101.573 86.2019 101.23 86.3468C100.886 86.4917 100.498 86.5641 100.066 86.5641ZM113.829 79.9036C113.863 79.3496 113.713 78.905 113.378 78.5698C113.045 78.2317 112.565 78.0627 111.937 78.0627C111.511 78.0627 111.121 78.1408 110.765 78.2971C110.41 78.4533 110.115 78.6678 109.879 78.9405C109.646 79.2104 109.5 79.5186 109.44 79.8652C109.403 80.0897 109.413 80.2928 109.47 80.4746C109.53 80.6536 109.628 80.8127 109.764 80.9519C109.9 81.0911 110.069 81.2147 110.271 81.3226C110.473 81.4277 110.699 81.5201 110.949 81.5996L111.856 81.8809C112.166 81.9803 112.449 82.0953 112.704 82.226C112.963 82.3567 113.18 82.513 113.356 82.6948C113.532 82.8738 113.657 83.084 113.731 83.3255C113.808 83.5669 113.819 83.8453 113.765 84.1607C113.689 84.6294 113.504 85.0456 113.211 85.4093C112.919 85.7729 112.54 86.057 112.074 86.2615C111.608 86.4661 111.071 86.5684 110.463 86.5684C109.903 86.5684 109.429 86.4732 109.04 86.2828C108.653 86.0925 108.368 85.8283 108.183 85.4902C107.998 85.1493 107.927 84.7573 107.97 84.3141H108.515C108.484 84.6749 108.548 84.9874 108.707 85.2516C108.866 85.513 109.104 85.7147 109.419 85.8567C109.737 85.9988 110.113 86.0698 110.548 86.0698C111.02 86.0698 111.446 85.9888 111.827 85.8269C112.21 85.665 112.525 85.4405 112.773 85.1536C113.023 84.8667 113.179 84.5343 113.241 84.1564C113.292 83.8496 113.264 83.5854 113.156 83.3638C113.048 83.1422 112.865 82.9519 112.606 82.7928C112.351 82.6309 112.025 82.4888 111.631 82.3667L110.65 82.0598C110.003 81.8525 109.53 81.5712 109.231 81.2161C108.933 80.8581 108.827 80.4135 108.912 79.8823C108.991 79.4249 109.177 79.0229 109.47 78.6763C109.763 78.3297 110.131 78.0584 110.574 77.8624C111.017 77.6664 111.5 77.5684 112.023 77.5684C112.542 77.5684 112.984 77.6692 113.348 77.8709C113.714 78.0698 113.984 78.3453 114.157 78.6976C114.334 79.0499 114.398 79.4519 114.349 79.9036H113.829ZM118.713 79.8823L118.632 80.3468H115.777L115.854 79.8823H118.713ZM117.077 78.3141H117.592L116.51 84.8809C116.464 85.1479 116.479 85.3667 116.552 85.5371C116.629 85.7047 116.744 85.8297 116.898 85.9121C117.054 85.9917 117.231 86.0314 117.43 86.0314C117.518 86.0314 117.598 86.0243 117.669 86.0101C117.74 85.9931 117.811 85.9746 117.882 85.9547L117.929 86.4277C117.841 86.459 117.747 86.4846 117.648 86.5044C117.548 86.5243 117.433 86.5343 117.302 86.5343C117.03 86.5343 116.782 86.4732 116.561 86.351C116.342 86.2289 116.176 86.0513 116.062 85.8184C115.952 85.5854 115.925 85.3042 115.981 84.9746L117.077 78.3141ZM124.131 84.1053L124.834 79.8823H125.354L124.263 86.4277H123.743L123.922 85.3667H123.876C123.671 85.7047 123.378 85.9803 122.998 86.1934C122.617 86.4064 122.194 86.513 121.728 86.513C121.299 86.513 120.935 86.4192 120.637 86.2317C120.339 86.0442 120.124 85.7786 119.993 85.4348C119.866 85.0882 119.841 84.6763 119.921 84.199L120.641 79.8823H121.161L120.445 84.1777C120.357 84.7232 120.451 85.165 120.726 85.503C121.002 85.8382 121.403 86.0059 121.928 86.0059C122.269 86.0059 122.594 85.9292 122.904 85.7757C123.216 85.6223 123.482 85.4036 123.701 85.1195C123.922 84.8326 124.066 84.4945 124.131 84.1053ZM128.65 86.5641C128.122 86.5641 127.686 86.4192 127.342 86.1294C126.998 85.8397 126.761 85.4405 126.631 84.932C126.5 84.4206 126.488 83.834 126.596 83.1721C126.707 82.5158 126.913 81.9334 127.214 81.4249C127.515 80.9135 127.886 80.513 128.327 80.2232C128.767 79.9306 129.248 79.7843 129.771 79.7843C130.146 79.7843 130.46 79.8567 130.713 80.0016C130.969 80.1436 131.17 80.3326 131.318 80.5684C131.469 80.8042 131.571 81.0627 131.625 81.3439H131.676L132.281 77.7005H132.797L131.348 86.4277H130.841L131.079 85.0002H131.02C130.869 85.2814 130.68 85.5414 130.453 85.78C130.226 86.0158 129.961 86.2061 129.66 86.351C129.359 86.4931 129.023 86.5641 128.65 86.5641ZM128.731 86.0826C129.175 86.0826 129.579 85.9561 129.946 85.7033C130.312 85.4476 130.619 85.101 130.866 84.6635C131.113 84.2232 131.284 83.7246 131.378 83.1678C131.471 82.611 131.47 82.1152 131.373 81.6806C131.28 81.2431 131.096 80.8993 130.824 80.6493C130.551 80.3965 130.193 80.2701 129.75 80.2701C129.301 80.2701 128.895 80.3979 128.531 80.6536C128.167 80.9064 127.863 81.2516 127.619 81.6891C127.375 82.1266 127.207 82.6195 127.116 83.1678C127.025 83.7161 127.024 84.2104 127.112 84.6507C127.203 85.0911 127.383 85.4405 127.653 85.699C127.923 85.9547 128.282 86.0826 128.731 86.0826ZM133.709 86.4277L134.8 79.8823H135.315L134.224 86.4277H133.709ZM135.302 78.7189C135.18 78.7189 135.078 78.6777 134.996 78.5953C134.916 78.5101 134.882 78.4064 134.893 78.2843C134.899 78.182 134.944 78.0925 135.03 78.0158C135.115 77.9391 135.213 77.9007 135.324 77.9007C135.446 77.9007 135.547 77.9434 135.626 78.0286C135.706 78.111 135.741 78.2118 135.733 78.3311C135.724 78.4363 135.677 78.5272 135.592 78.6039C135.51 78.6806 135.413 78.7189 135.302 78.7189ZM138.848 86.5641C138.302 86.5641 137.841 86.4178 137.463 86.1252C137.088 85.8297 136.821 85.4235 136.662 84.9064C136.503 84.3894 136.479 83.7985 136.589 83.1337C136.697 82.486 136.91 81.9107 137.229 81.4078C137.55 80.9022 137.942 80.5059 138.405 80.2189C138.868 79.9292 139.365 79.7843 139.896 79.7843C140.444 79.7843 140.906 79.9334 141.281 80.2317C141.659 80.5272 141.927 80.9348 142.086 81.4547C142.246 81.9718 142.273 82.5613 142.167 83.2232C142.059 83.8681 141.844 84.4434 141.52 84.949C141.199 85.4519 140.807 85.8468 140.344 86.1337C139.881 86.4206 139.382 86.5641 138.848 86.5641ZM138.856 86.0826C139.322 86.0826 139.751 85.9519 140.143 85.6905C140.535 85.4292 140.863 85.0755 141.128 84.6294C141.395 84.1834 141.572 83.6848 141.66 83.1337C141.748 82.5996 141.736 82.1167 141.622 81.6848C141.508 81.2502 141.305 80.9064 141.013 80.6536C140.72 80.3979 140.349 80.2701 139.9 80.2701C139.437 80.2701 139.008 80.4022 138.613 80.6664C138.221 80.9306 137.892 81.2857 137.625 81.7317C137.358 82.1777 137.18 82.6749 137.092 83.2232C137.001 83.7544 137.013 84.2374 137.126 84.6721C137.243 85.1039 137.447 85.4476 137.74 85.7033C138.035 85.9561 138.407 86.0826 138.856 86.0826Z" fill="#FCF0DA"/>
</svg>
