<svg width="150" height="150" viewBox="0 0 150 150" fill="none" xmlns="http://www.w3.org/2000/svg">
<path d="M45.736 68.588L42.232 58.22H32.728L29.032 68.588H32.632V69.5H25.288V68.588H27.544L39.784 35.612H43.72L55.816 68.588H58.024V69.5H42.328V68.588H45.736ZM37.672 44.588L33.16 57.164H41.848L37.672 44.588ZM59.3361 35.9H73.6881C78.1361 35.9 81.4641 36.508 83.6721 37.724C85.9121 38.908 87.0321 40.924 87.0321 43.772C87.0321 48.156 84.3921 50.78 79.1121 51.644V51.74C85.5121 52.54 88.7121 55.324 88.7121 60.092C88.7121 63.58 87.4001 66.028 84.7761 67.436C82.1521 68.812 78.3761 69.5 73.4481 69.5H59.3361V68.588H62.4561V36.812H59.3361V35.9ZM71.8161 52.508V68.588H74.0721C75.8321 68.588 77.0641 67.98 77.7681 66.764C78.4721 65.548 78.8241 63.756 78.8241 61.388V58.844C78.8241 56.732 78.3921 55.148 77.5281 54.092C76.6641 53.036 75.1281 52.508 72.9201 52.508H71.8161ZM71.8161 36.812V51.596H73.0641C74.7281 51.596 75.8801 51.1 76.5201 50.108C77.1921 49.084 77.5281 47.532 77.5281 45.452V43.196C77.5281 40.828 77.2401 39.18 76.6641 38.252C76.0881 37.292 74.9841 36.812 73.3521 36.812H71.8161ZM109.169 36.332C104.209 36.332 101.729 41.116 101.729 50.684V54.476C101.729 59.02 102.385 62.588 103.697 65.18C105.009 67.74 106.945 69.02 109.505 69.02C113.025 69.02 116.257 65.596 119.201 58.748H120.065L119.729 69.452H119.201C119.009 69.1 118.833 68.86 118.673 68.732C118.513 68.572 118.273 68.492 117.953 68.492C117.665 68.492 116.513 68.748 114.497 69.26C112.481 69.74 110.433 69.98 108.353 69.98C103.137 69.98 99.0888 68.572 96.2088 65.756C93.3608 62.94 91.9368 58.716 91.9368 53.084C91.9368 47.42 93.4248 43.052 96.4008 39.98C99.4088 36.908 103.441 35.372 108.497 35.372C110.449 35.372 112.353 35.628 114.209 36.14C116.097 36.62 117.201 36.86 117.521 36.86C117.841 36.86 118.081 36.796 118.241 36.668C118.401 36.508 118.577 36.252 118.769 35.9H119.297L119.681 46.316H118.817C117.377 43.084 115.889 40.62 114.353 38.924C112.849 37.196 111.121 36.332 109.169 36.332Z" fill="#B0E8E6"/>
<path d="M49.5521 107.564C49.5521 110.924 49.7281 113.164 50.0801 114.284C50.4321 115.372 51.0721 115.916 52.0001 115.916C52.9601 115.916 53.7761 115.5 54.4481 114.668C55.1521 113.836 55.5041 112.604 55.5041 110.972V100.508C55.5041 99.132 55.2321 97.964 54.6881 97.004C54.1441 96.044 53.3441 95.564 52.2881 95.564C51.2321 95.564 50.5121 96.268 50.1281 97.676C49.7441 99.084 49.5521 101.548 49.5521 105.068V107.564ZM56.1281 117.5L55.6001 114.14C54.5121 116.7 52.3041 117.98 48.9761 117.98C46.2241 117.98 44.0801 116.988 42.5441 115.004C41.0401 113.02 40.2881 110.06 40.2881 106.124C40.2881 98.156 43.4561 94.172 49.7921 94.172C52.6081 94.172 54.4641 94.956 55.3601 96.524V82.364H52.4321V81.5H64.4321V116.636H66.7841V117.5H56.1281ZM80.6509 117.98C76.5229 117.98 73.4189 116.924 71.3389 114.812C69.2909 112.668 68.2669 109.708 68.2669 105.932C68.2669 102.124 69.4189 99.212 71.7229 97.196C74.0589 95.18 77.0189 94.172 80.6029 94.172C87.8669 94.172 91.3549 97.82 91.0669 105.116H77.5309V106.988C77.5309 110.124 77.9309 112.492 78.7309 114.092C79.5309 115.692 80.9229 116.492 82.9069 116.492C86.6189 116.492 89.0509 114.508 90.2029 110.54L91.0669 110.684C90.4589 112.988 89.3549 114.78 87.7549 116.06C86.1869 117.34 83.8189 117.98 80.6509 117.98ZM77.5789 104.156H82.5229V101.804C82.5229 99.212 82.3629 97.452 82.0429 96.524C81.7549 95.564 81.1469 95.084 80.2189 95.084C79.3229 95.084 78.6509 95.596 78.2029 96.62C77.7869 97.612 77.5789 99.34 77.5789 101.804V104.156ZM107.321 81.212C106.105 81.212 105.305 81.676 104.921 82.604C104.537 83.5 104.345 84.956 104.345 86.972V94.652H110.681V95.516H104.345V116.636H110.201V117.5H92.7769V116.636H95.4169V95.516H92.6329V94.652H95.4169V94.46C95.4169 89.852 96.2969 86.364 98.0569 83.996C99.8169 81.596 102.761 80.396 106.889 80.396C109.609 80.396 111.561 80.94 112.745 82.028C113.929 83.084 114.521 84.316 114.521 85.724C114.521 87.132 114.153 88.188 113.417 88.892C112.681 89.596 111.705 89.948 110.489 89.948C109.273 89.948 108.329 89.644 107.657 89.036C107.017 88.396 106.697 87.676 106.697 86.876C106.697 86.044 106.793 85.244 106.985 84.476H108.809C109.449 82.3 108.953 81.212 107.321 81.212Z" fill="#B0E8E6"/>
</svg>
