<svg width="150" height="150" viewBox="0 0 150 150" fill="none" xmlns="http://www.w3.org/2000/svg">
<path d="M62.624 70.5C62.368 70.5 62.144 70.42 61.952 70.26C61.792 70.1 61.712 69.908 61.712 69.684V63.396C61.712 63.012 60.896 62.66 59.264 62.34C57.632 62.02 56.288 61.86 55.232 61.86C55.168 61.86 55.056 62.1 54.896 62.58C54.768 63.06 54.672 63.412 54.608 63.636C54.192 65.3 53.776 67.076 53.36 68.964L53.12 70.02C53.056 70.276 52.896 70.404 52.64 70.404C52.384 70.404 52.144 70.324 51.92 70.164C51.728 70.004 51.632 69.812 51.632 69.588L51.68 69.492V69.444L52.208 67.044C52.592 65.54 52.928 64.068 53.216 62.628C53.536 60.996 53.776 59.94 53.936 59.46C54.192 58.404 54.704 55.764 55.472 51.54L55.76 49.956C56.592 45.028 57.168 41.924 57.488 40.644C57.648 39.876 57.936 38.74 58.352 37.236C58.512 36.596 58.736 35.956 59.024 35.316C59.312 34.772 59.552 34.5 59.744 34.5C60.256 34.5 60.624 34.66 60.848 34.98C61.008 35.268 61.248 36.852 61.568 39.732C61.92 42.612 62.224 45.524 62.48 48.468L63.104 56.436C63.104 57.812 63.2 59.892 63.392 62.676C63.584 65.492 63.68 67.588 63.68 68.964V69.156C63.68 69.508 63.632 69.828 63.536 70.116C63.408 70.372 63.104 70.5 62.624 70.5ZM60.704 61.236C61.344 61.236 61.664 61.076 61.664 60.756C61.664 58.772 61.552 56.068 61.328 52.644C61.104 49.188 60.864 46.148 60.608 43.524C60.544 42.404 60.416 41.172 60.224 39.828L60.032 37.956C60.032 37.988 60 37.812 59.936 37.428L59.84 36.852C59.584 37.556 59.328 38.532 59.072 39.78C58.848 41.028 58.608 42.5 58.352 44.196C57.584 48.964 56.928 52.548 56.384 54.948L55.952 56.58C55.472 58.18 55.232 59.396 55.232 60.228V60.516C56.64 60.964 58.256 61.188 60.08 61.188H60.368C60.464 61.22 60.576 61.236 60.704 61.236ZM72.2979 70.788C71.1139 70.788 70.5219 70.564 70.5219 70.116C70.5219 68.772 70.5699 66.74 70.6659 64.02L70.7619 57.972C70.7619 55.732 70.7139 52.388 70.6179 47.94C70.4899 44.004 70.4259 40.676 70.4259 37.956C70.4259 35.652 70.8419 34.5 71.6739 34.5C73.8179 34.5 75.4659 35.188 76.6179 36.564C77.8019 37.94 78.3939 39.764 78.3939 42.036C78.3939 44.596 77.3699 47.252 75.3219 50.004C77.0179 51.7 78.2019 53.316 78.8739 54.852C79.5779 56.388 79.9299 58.228 79.9299 60.372C79.9299 61.684 79.8819 62.74 79.7859 63.54C79.7219 64.308 79.5779 65.028 79.3539 65.7C79.1299 66.404 78.8099 67.012 78.3939 67.524C78.0099 68.036 77.4819 68.516 76.8099 68.964C76.1699 69.412 75.3379 69.86 74.3139 70.308C73.9299 70.404 73.6099 70.484 73.3539 70.548C72.9379 70.708 72.6179 70.788 72.3939 70.788H72.2979ZM72.2499 49.764C72.9539 49.764 73.6259 49.46 74.2659 48.852C74.9059 48.244 75.4339 47.444 75.8499 46.452C76.2659 45.524 76.5859 44.564 76.8099 43.572C77.0339 42.548 77.1459 41.62 77.1459 40.788C77.1459 39.668 76.7299 38.612 75.8979 37.62C75.0979 36.628 74.1859 36.132 73.1619 36.132C72.3299 36.132 71.9139 36.82 71.9139 38.196C71.9139 40.34 71.9459 42.26 72.0099 43.956L72.1059 49.716L72.2499 49.764ZM72.6339 68.916C73.7219 68.916 74.7139 68.596 75.6099 67.956C76.5379 67.284 77.2579 66.404 77.7699 65.316C78.3139 64.228 78.5859 63.06 78.5859 61.812C78.5859 56.084 77.2099 52.644 74.4579 51.492C74.2019 51.492 73.7859 51.572 73.2099 51.732C72.6659 51.924 72.2979 52.02 72.1059 52.02C72.2659 57.236 72.3459 62.852 72.3459 68.868H72.4899L72.6339 68.916ZM92.0866 71.268C91.1906 71.268 90.2466 70.916 89.2546 70.212C88.2626 69.508 87.5586 68.708 87.1426 67.812C86.7586 66.98 86.3586 64.34 85.9426 59.892C85.5586 55.444 85.3666 52.132 85.3666 49.956V47.412C85.3346 46.676 85.3186 45.86 85.3186 44.964C85.3186 43.3 85.4146 41.652 85.6066 40.02C85.7346 39.22 85.8946 38.532 86.0866 37.956C86.3106 37.38 86.6146 36.82 86.9986 36.276C87.7026 35.188 88.7586 34.468 90.1666 34.116C90.9026 33.924 91.7186 33.828 92.6146 33.828C93.2226 33.828 93.8306 34.004 94.4386 34.356C95.0786 34.708 95.3986 35.124 95.3986 35.604C95.3986 35.956 95.1426 36.132 94.6306 36.132C94.4386 36.132 94.0706 36.02 93.5266 35.796C93.0466 35.572 92.6146 35.46 92.2306 35.46C91.3346 35.46 90.5186 35.652 89.7826 36.036C89.0786 36.388 88.5186 36.868 88.1026 37.476C87.7506 37.988 87.4466 38.692 87.1906 39.588C86.9346 40.484 86.7746 41.38 86.7106 42.276C86.6146 43.076 86.5666 44.036 86.5666 45.156L86.6146 47.844C86.6466 48.612 86.6626 49.444 86.6626 50.34C86.6626 52.548 86.8866 55.796 87.3346 60.084C87.7826 64.372 88.2146 66.852 88.6306 67.524C89.0146 68.132 89.5746 68.596 90.3106 68.916C91.0786 69.236 91.8786 69.396 92.7106 69.396C94.1826 69.396 95.3026 68.932 96.0706 68.004C96.3586 67.62 96.6626 67.428 96.9826 67.428C97.2706 67.428 97.4146 67.652 97.4146 68.1C97.4146 68.676 97.2386 69.188 96.8866 69.636C96.5346 70.052 96.0546 70.372 95.4466 70.596C94.4226 71.044 93.3026 71.268 92.0866 71.268Z" fill="#B0E8E6"/>
<path d="M58.3446 116.74C58.0886 116.74 57.9606 116.308 57.9606 115.444C57.8326 113.236 57.7686 110.452 57.7686 107.092C57.7686 104.98 57.7846 103.092 57.8166 101.428L57.8646 95.764C57.8646 93.332 57.8006 90.324 57.6726 86.74C57.3846 86.484 57.2406 86.164 57.2406 85.78C57.2406 85.556 57.3686 85.332 57.6246 85.108C57.9126 84.852 58.1686 84.724 58.3926 84.724C58.6486 84.724 58.8886 84.852 59.1126 85.108L59.6406 85.54C59.8326 85.636 60.2006 85.732 60.7446 85.828C61.2886 85.924 61.6726 86.02 61.8966 86.116C62.3766 86.372 63.0166 86.868 63.8166 87.604C64.5846 88.372 65.1126 88.852 65.4006 89.044L65.3526 89.14C65.3846 89.332 65.6246 89.748 66.0726 90.388C66.4246 90.868 66.7126 91.316 66.9366 91.732C67.4486 93.204 67.7046 95.108 67.7046 97.444C67.7046 97.86 67.6886 98.228 67.6566 98.548V99.7V100.084L67.6086 100.564C67.6086 101.172 67.7046 101.652 67.8966 102.004C67.7046 103.028 67.4646 104.964 67.1766 107.812C67.0806 108.644 66.9206 109.524 66.6966 110.452C66.4726 111.38 66.2006 112.148 65.8806 112.756C65.0486 114.324 63.6566 115.652 61.7046 116.74H58.3446ZM61.5126 115.348C61.7366 115.092 61.9446 114.884 62.1366 114.724C62.1366 114.724 62.2486 114.644 62.4726 114.484L62.8566 114.148C65.0966 112.132 66.2166 108.292 66.2166 102.628V101.716C66.1846 101.46 66.1686 101.188 66.1686 100.9L65.9766 96.052C65.8806 94.196 65.3206 92.276 64.2966 90.292C63.8166 89.3 63.1606 88.5 62.3286 87.892C61.5286 87.252 60.6806 86.932 59.7846 86.932C59.4006 86.932 59.2086 89.892 59.2086 95.812C59.2086 102.66 59.4006 108.628 59.7846 113.716L59.7366 114.628L59.9286 114.724L60.0246 115.348H61.5126ZM75.0321 117.124C74.4561 117.124 74.1361 116.788 74.0721 116.116V115.492C74.1041 115.332 74.1201 115.14 74.1201 114.916L73.9281 114.724C74.1841 114.052 74.3121 113.396 74.3121 112.756C74.3121 112.02 74.2641 110.964 74.1681 109.588L74.0721 106.42C74.0721 104.82 74.1201 102.42 74.2161 99.22C74.3441 96.372 74.4081 93.956 74.4081 91.972L74.3121 89.092C74.2481 88.228 74.2161 87.268 74.2161 86.212C74.2161 85.732 74.3281 85.396 74.5521 85.204C74.7761 84.98 75.1281 84.868 75.6081 84.868C75.9281 84.868 76.1841 84.964 76.3761 85.156C76.4401 85.188 76.9041 85.252 77.7681 85.348C78.5681 85.444 79.2561 85.588 79.8321 85.78C80.4401 85.972 80.7441 86.212 80.7441 86.5C80.7441 86.82 80.4401 87.14 79.8321 87.46C78.0081 86.852 76.7121 86.548 75.9441 86.548L75.7041 86.836C75.7361 87.124 75.7521 87.812 75.7521 88.9C75.7521 90.276 75.7201 91.508 75.6561 92.596C75.6241 93.716 75.6081 94.964 75.6081 96.34C75.6081 97.236 75.8321 97.684 76.2801 97.684L77.0481 97.636C77.3041 97.604 77.5761 97.588 77.8641 97.588C79.1121 97.588 79.7361 97.876 79.7361 98.452C79.7361 98.804 79.6561 99.108 79.4961 99.364C79.3361 99.588 79.0961 99.7 78.7761 99.7C78.2961 99.7 77.9281 99.572 77.6721 99.316L76.1361 99.076H75.8961L75.6561 99.316V99.46C75.7201 100.004 75.7521 101.268 75.7521 103.252C75.7521 104.5 75.7361 105.636 75.7041 106.66L75.6561 110.068C75.6561 111.316 75.7041 112.596 75.8001 113.908C75.8321 114.644 75.9921 115.14 76.2801 115.396C76.5681 115.62 77.0961 115.732 77.8641 115.732L78.7281 115.684C79.0161 115.652 79.3361 115.636 79.6881 115.636C80.6161 115.636 81.0801 115.844 81.0801 116.26C81.0801 116.836 80.3761 117.124 78.9681 117.124H75.0321ZM86.4493 116.452C86.7693 113.54 86.9293 109.652 86.9293 104.788C86.9293 102.644 87.0253 99.412 87.2173 95.092C87.4413 91.092 87.5533 87.876 87.5533 85.444C87.5533 85.156 87.6813 84.932 87.9373 84.772C88.2253 84.612 88.5453 84.532 88.8973 84.532C90.0173 84.532 91.2493 84.66 92.5933 84.916C93.9373 85.172 94.6093 85.508 94.6093 85.924C94.6093 86.468 94.0493 86.74 92.9293 86.74C92.2253 86.42 91.3293 86.26 90.2413 86.26L89.6653 86.308C89.5693 86.34 89.4893 86.388 89.4253 86.452C89.3933 86.516 89.3613 86.612 89.3293 86.74C89.2653 86.996 89.2013 87.172 89.1373 87.268C89.1373 88.708 89.0733 90.404 88.9453 92.356C88.7853 94.244 88.7053 95.924 88.7053 97.396V99.076C88.7053 99.204 88.9613 99.252 89.4733 99.22C91.1053 99.22 91.9213 99.476 91.9213 99.988C91.9213 100.244 91.7933 100.468 91.5373 100.66C91.3133 100.82 91.0573 100.9 90.7693 100.9C90.5773 100.9 90.3053 100.852 89.9533 100.756C89.6333 100.66 89.3613 100.612 89.1373 100.612C88.5613 100.612 88.2733 101.396 88.2733 102.964V108.388C88.2733 109.156 88.3213 110.292 88.4173 111.796C88.5133 113.332 88.5613 114.484 88.5613 115.252C88.5613 116.532 88.1773 117.172 87.4093 117.172L86.4493 116.452Z" fill="#B0E8E6"/>
</svg>
