<svg width="150" height="150" viewBox="0 0 150 150" fill="none" xmlns="http://www.w3.org/2000/svg">
<path d="M50.7344 45.8438H52.0469C52.5781 45.8438 53.0781 45.8906 53.5469 45.9844C54.0469 46.0781 54.2969 46.4219 54.2969 47.0156C54.5156 48.2656 53.7812 48.875 52.0938 48.8438C51.625 48.8125 51.1875 48.7812 50.7812 48.75C50.4062 48.7188 50.0938 48.7188 49.8438 48.75C49.5938 48.75 49.4844 48.8281 49.5156 48.9844C49.8281 49.8906 50.1562 50.9062 50.5 52.0312C50.875 53.1562 51.2812 54.2812 51.7188 55.4062C52.8438 58.1875 53.9062 60.1875 54.9062 61.4062C54.375 62.0625 53.75 62.6094 53.0312 63.0469C52.3438 63.4844 51.9688 63.7031 51.9062 63.7031C51.875 63.7031 51.8438 63.6875 51.8125 63.6562L45.2031 49.7344L32.4062 52.875L31.9375 54.8438C31.0312 58.4375 30.0156 60.9375 28.8906 62.3438C28.7031 62.6562 28.3125 62.6875 27.7188 62.4375C26.7188 62.0625 26.2188 61.75 26.2188 61.5C26.2188 61.4375 26.5469 60.5312 27.2031 58.7812C27.8594 57.0312 28.5156 55.2656 29.1719 53.4844C29.8594 51.6719 30.5625 49.7812 31.2812 47.8125C32.0312 45.8438 32.7344 43.9688 33.3906 42.1875C34.0469 40.4062 34.6406 38.8125 35.1719 37.4062C35.7031 35.9688 36.0781 34.9375 36.2969 34.3125C36.5156 33.6562 36.6562 33.0938 36.7188 32.625C36.8125 32.125 36.9375 31.7031 37.0938 31.3594C37.4062 30.6406 38.1875 30.2812 39.4375 30.2812C40.7812 31.0312 41.8125 32.0156 42.5312 33.2344C43.2812 34.4219 43.9062 35.7031 44.4062 37.0781C44.9375 38.4531 45.4531 39.8438 45.9531 41.25C46.4531 42.6562 47.125 43.9375 47.9688 45.0938C48.25 45.5312 48.6719 45.7656 49.2344 45.7969C49.7969 45.8281 50.2969 45.8438 50.7344 45.8438ZM39.0156 35.7188C38.7656 37.625 38.2031 39.5781 37.3281 41.5781C36.4531 43.5781 35.75 45.1406 35.2188 46.2656C34.6875 47.3594 34.2344 48.375 33.8594 49.3125C35.9844 49.3125 38.5938 48.6875 41.6875 47.4375C42.4688 47.0938 43.2188 46.7812 43.9375 46.5C42.4688 40.2188 40.8281 36.625 39.0156 35.7188ZM58.7969 31.875C61.1094 31.375 63.2969 31.125 65.3594 31.125C67.4219 31.125 69.25 31.2031 70.8438 31.3594C72.4688 31.5156 74.0938 31.8125 75.7188 32.25C79.1562 33.2188 81.2812 34.5312 82.0938 36.1875C82.3125 36.5312 82.4219 36.9375 82.4219 37.4062C82.4219 38.7812 81.2188 40.2656 78.8125 41.8594C77.2188 42.9219 74.9375 44 71.9688 45.0938C79.25 45.5 84.1875 46.5625 86.7812 48.2812C88.2188 49.1875 88.9375 50.25 88.9375 51.4688C88.9375 53.1562 87.75 54.9062 85.375 56.7188C82.7812 58.6562 79.4688 60.2656 75.4375 61.5469C71.7188 62.7344 68.2656 63.3281 65.0781 63.3281C62.6406 63.3281 60.5469 62.9688 58.7969 62.25C58.7344 60.25 58.6562 58.1875 58.5625 56.0625C58.3125 51.3438 58.1875 47.375 58.1875 44.1562C58.1875 40.9062 58.2969 37.5312 58.5156 34.0312C58.1719 34.0312 57.8594 34 57.5781 33.9375C57.2969 33.8438 57.1562 33.5312 57.1562 33C57.1562 32.25 57.7031 31.875 58.7969 31.875ZM63.0156 59.9062C68.0469 59.625 72.1719 59.0312 75.3906 58.125C78.6094 57.1875 80.9219 56.1875 82.3281 55.125C83.7656 54.0312 84.4844 52.9844 84.4844 51.9844C84.4844 50.6719 83.5469 49.625 81.6719 48.8438C79.6406 48.0312 76.9375 47.625 73.5625 47.625C70.2188 47.625 66.3281 48.0781 61.8906 48.9844L63.0156 59.9062ZM67.375 34.1719H66.2031C63.6406 34.1719 62.2031 34.4375 61.8906 34.9688L61.4219 44.3906C64.2344 44.3906 67.6562 43.7188 71.6875 42.375C74.3125 41.4688 76.2344 40.4688 77.4531 39.375C78.0781 38.8125 78.3906 38.2344 78.3906 37.6406C78.3906 37.0469 78.1562 36.5625 77.6875 36.1875C77.25 35.7812 76.6719 35.4531 75.9531 35.2031C75.2656 34.9531 74.4844 34.7656 73.6094 34.6406C72.7656 34.4844 71.9375 34.375 71.125 34.3125C69.875 34.2188 68.625 34.1719 67.375 34.1719ZM114.344 36.9844C112.312 34.9844 110.062 33.9844 107.594 33.9844C105.25 33.9844 103 34.875 100.844 36.6562C98.125 38.9062 96.25 41.8125 95.2188 45.375C94.8438 46.6562 94.6562 47.7188 94.6562 48.5625C94.6562 49.4062 94.6875 50.0625 94.75 50.5312C94.75 53.625 95.7969 56 97.8906 57.6562C99.8594 59.1875 102.375 59.9531 105.438 59.9531C109.625 59.6094 113.641 58 117.484 55.125C118.547 54.3125 119.672 53.5312 120.859 52.7812C121.297 52.7812 121.734 52.8438 122.172 52.9688C122.641 53.0938 122.875 53.4531 122.875 54.0469C119.781 56.7344 117.172 58.6719 115.047 59.8594C111.109 61.9844 107.547 63.0469 104.359 63.0469C104.141 63.0469 103.938 63.0469 103.75 63.0469C100.281 63.0469 97.3125 61.9688 94.8438 59.8125C92.2188 57.5312 90.9062 54.6875 90.9062 51.2812C90.9062 48.7188 91.3594 46.2656 92.2656 43.9219C93.2031 41.5781 94.4688 39.5156 96.0625 37.7344C97.6875 35.9219 99.5938 34.4844 101.781 33.4219C104 32.3594 106.375 31.8281 108.906 31.8281C111.062 31.8281 112.469 32.125 113.125 32.7188C113.938 33.4375 114.344 34.8594 114.344 36.9844Z" fill="#B0E8E6"/>
<path d="M58.8984 76.3594C58.8984 79.3594 58.8047 82.2969 58.6172 85.1719C58.4609 88.0156 58.3047 90.8125 58.1484 93.5625C58.0234 96.2812 57.9609 99.1875 57.9609 102.281C57.9609 105.344 58.1797 108.594 58.6172 112.031C58.6172 112.75 58.4766 113.266 58.1953 113.578C57.9453 113.891 57.5078 114.047 56.8828 114.047C55.4141 114.047 54.6797 112.828 54.6797 110.391V108.844C50.2422 112.156 46.4922 113.812 43.4297 113.812C42.2109 113.812 40.9609 113.516 39.6797 112.922C38.4297 112.328 37.2422 111.125 36.1172 109.312C35.9609 108.562 35.8828 107.797 35.8828 107.016C35.8828 106.234 36.0234 105.297 36.3047 104.203C36.6172 103.078 37.2266 101.922 38.1328 100.734C39.0703 99.5469 40.1953 98.5 41.5078 97.5938C44.3828 95.6562 47.4922 94.6875 50.8359 94.6875C52.2734 94.6875 53.6484 94.9062 54.9609 95.3438C54.9609 94.7812 54.9922 93.7969 55.0547 92.3906C55.1484 90.9844 55.2422 89.5 55.3359 87.9375C55.5234 83.875 55.6484 81.4844 55.7109 80.7656C55.7734 80.0156 55.8516 79.3906 55.9453 78.8906C56.0703 78.3594 56.2422 77.9062 56.4609 77.5312C56.9297 76.75 57.7422 76.3594 58.8984 76.3594ZM39.3047 106.641C39.3047 109.109 40.1953 110.344 41.9766 110.344C42.2578 110.344 42.5703 110.312 42.9141 110.25C44.1953 110.25 45.7734 109.875 47.6484 109.125C51.2109 107.719 53.3828 106.5 54.1641 105.469V99.2344C54.1641 98.1406 53.2734 97.5938 51.4922 97.5938C51.2734 97.5625 50.9766 97.5469 50.6016 97.5469C50.2578 97.5469 49.7109 97.625 48.9609 97.7812C48.2109 97.9375 47.3672 98.2188 46.4297 98.625C45.4922 99.0312 44.5703 99.5312 43.6641 100.125C41.7578 101.406 40.4453 102.906 39.7266 104.625C39.4453 105.281 39.3047 105.953 39.3047 106.641ZM70.8984 110.719C73.6484 110.719 77.7891 109.469 83.3203 106.969C83.6641 106.969 83.9453 107.094 84.1641 107.344C84.3828 107.562 84.4922 107.828 84.4922 108.141C83.2422 110.266 80.8516 111.922 77.3203 113.109C73.7891 114.297 70.4922 114.5 67.4297 113.719C63.9609 112.812 61.8516 110.859 61.1016 107.859C61.0391 107.266 61.0078 106.469 61.0078 105.469C61.0078 104.469 61.2578 103.156 61.7578 101.531C62.2891 99.875 63.1797 98.3125 64.4297 96.8438C65.6797 95.375 67.1484 94.2188 68.8359 93.375C70.5234 92.5312 72.3203 92.1094 74.2266 92.1094C76.0391 92.1094 78.0703 92.7344 80.3203 93.9844C81.3828 94.5781 82.2266 95.25 82.8516 96C83.4766 96.75 83.7891 97.5156 83.7891 98.2969C83.7891 98.5156 83.7734 98.7344 83.7422 98.9531C83.6797 100.859 82.7578 102.062 80.9766 102.562C80.1953 102.781 79.2891 102.891 78.2578 102.891L71.5078 102.609C69.2578 102.609 67.5391 103.094 66.3516 104.062C65.6641 104.594 65.1797 105.391 64.8984 106.453C65.6797 109.297 67.6797 110.719 70.8984 110.719ZM79.2422 96.2344C78.5547 95.7344 77.8359 95.375 77.0859 95.1562C76.3359 94.9375 75.7109 94.8281 75.2109 94.8281C74.7109 94.8281 73.8984 95 72.7734 95.3438C71.6484 95.6562 70.6484 96.0156 69.7734 96.4219C67.6172 97.4219 66.5391 98.4688 66.5391 99.5625C69.0391 99.7812 70.9141 99.8906 72.1641 99.8906C75.6328 99.8906 77.9766 99.5938 79.1953 99C79.9453 98.6875 80.3203 98.2969 80.3203 97.8281C80.3203 97.2656 79.9609 96.7344 79.2422 96.2344ZM114.211 98.3438C114.367 98.3438 114.445 98.7656 114.445 99.6094C114.445 100.453 114.477 101.031 114.539 101.344L98.4609 103.312L99.3047 113.719L95.5078 113.531C95.5078 110.719 95.1953 107.5 94.5703 103.875L88.4766 106.219C88.0703 106.219 87.7266 105.984 87.4453 105.516C86.9453 104.703 86.6953 103.969 86.6953 103.312L93.8203 100.781C93.1953 95.4062 92.8828 91.0469 92.8828 87.7031C92.8828 84.3281 93.1641 81.7031 93.7266 79.8281C94.2891 77.9531 95.1016 76.7031 96.1641 76.0781C97.2578 75.4219 98.4141 75.0938 99.6328 75.0938C100.852 75.0938 102.086 75.3594 103.336 75.8906C104.617 76.4219 105.836 77.0938 106.992 77.9062C108.148 78.7188 109.133 79.6406 109.945 80.6719C110.758 81.6719 111.164 82.6562 111.164 83.625C111.164 84.375 111.086 84.9062 110.93 85.2188C109.68 83.4688 108.164 81.9062 106.383 80.5312C104.258 78.9062 102.258 78.0938 100.383 78.0938C98.6016 78.0938 97.4141 79.3594 96.8203 81.8906C96.5391 83.2031 96.3984 85.0625 96.3984 87.4688C96.3984 89.8438 96.4609 92.0312 96.5859 94.0312C96.7109 96 97.0859 97.9844 97.7109 99.9844C99.6484 99.9844 101.82 99.8125 104.227 99.4688C108.852 98.75 112.18 98.375 114.211 98.3438Z" fill="#B0E8E6"/>
</svg>
