<svg width="150" height="150" viewBox="0 0 150 150" fill="none" xmlns="http://www.w3.org/2000/svg">
<path d="M47.375 63.4688H50.3281L47.5156 55.4062H33.8516L31.1094 63.4688H34.7656V67.5H23.2344V63.4688H26.3281L37.3906 31.9688H44.3047L55.3438 63.4688H58.9062V67.5H47.375V63.4688ZM35.1875 51.5156H46.1562L40.625 35.625L35.1875 51.5156ZM62.4922 63.4688H65.8672V36.0234H62.4922V31.9219L78.4766 31.9688C79.9141 31.9688 81.2656 32.2422 82.5312 32.7891C83.7969 33.3203 84.8984 34.0547 85.8359 34.9922C86.7734 35.9141 87.5078 37.0078 88.0391 38.2734C88.5859 39.5391 88.8594 40.8984 88.8594 42.3516C88.8594 43.8672 88.4375 45.25 87.5938 46.5C86.75 47.75 85.5469 48.75 83.9844 49.5C84.75 49.9062 85.4453 50.3828 86.0703 50.9297C86.6953 51.4609 87.2266 52.0469 87.6641 52.6875C88.1016 53.3281 88.4375 54.0078 88.6719 54.7266C88.9219 55.4453 89.0469 56.1797 89.0469 56.9297C89.0469 58.4141 88.7734 59.7969 88.2266 61.0781C87.6953 62.3594 86.9609 63.4766 86.0234 64.4297C85.0859 65.3828 83.9844 66.1328 82.7188 66.6797C81.4688 67.2266 80.125 67.5 78.6875 67.5H62.4922V63.4688ZM70.4609 51.7031V63.4688H78.7344C79.4844 63.4688 80.1797 63.2812 80.8203 62.9062C81.4609 62.5312 82.0234 62.0469 82.5078 61.4531C82.9922 60.8438 83.3672 60.1562 83.6328 59.3906C83.9141 58.625 84.0547 57.8438 84.0547 57.0469C84.0547 56.3594 83.9141 55.6953 83.6328 55.0547C83.3516 54.4141 82.9688 53.8438 82.4844 53.3438C82.0156 52.8438 81.4531 52.4453 80.7969 52.1484C80.1562 51.8516 79.4688 51.7031 78.7344 51.7031H70.4609ZM70.4609 36.0234V47.625H78.5234C79.2734 47.625 79.9688 47.4766 80.6094 47.1797C81.2656 46.8828 81.8281 46.4844 82.2969 45.9844C82.7812 45.4844 83.1641 44.9062 83.4453 44.25C83.7266 43.5938 83.8672 42.9141 83.8672 42.2109C83.8672 41.4453 83.7266 40.6953 83.4453 39.9609C83.1641 39.2109 82.7812 38.5469 82.2969 37.9688C81.8125 37.3906 81.2422 36.9219 80.5859 36.5625C79.9453 36.2031 79.2578 36.0234 78.5234 36.0234H70.4609ZM119.398 41.3438C118.352 39.5625 116.961 38.1641 115.227 37.1484C113.508 36.1328 111.586 35.625 109.461 35.625C107.648 35.625 105.992 36.0078 104.492 36.7734C102.992 37.5391 101.703 38.5703 100.625 39.8672C99.5625 41.1484 98.7344 42.6406 98.1406 44.3438C97.5469 46.0312 97.25 47.8125 97.25 49.6875C97.25 51.9062 97.5781 53.875 98.2344 55.5938C98.8906 57.2969 99.7422 58.7188 100.789 59.8594C101.852 60.9844 103.109 61.9297 104.562 62.6953C106.016 63.4453 107.648 63.8203 109.461 63.8203C111.93 63.8203 114.078 63.2266 115.906 62.0391C117.734 60.8359 119.297 58.8672 120.594 56.1328L124.719 58.0781C124.125 59.7656 123.117 61.3984 121.695 62.9766C120.273 64.5391 118.516 65.8047 116.422 66.7734C114.344 67.7266 112.039 68.2031 109.508 68.2031C107.086 68.2031 104.859 67.75 102.828 66.8438C100.797 65.9219 98.9844 64.6172 97.3906 62.9297C95.8125 61.2422 94.6016 59.2422 93.7578 56.9297C92.9297 54.6172 92.5156 52.2031 92.5156 49.6875C92.5156 47.1562 92.9297 44.7656 93.7578 42.5156C94.6016 40.2656 95.7734 38.3125 97.2734 36.6562C98.7891 34.9844 100.586 33.6719 102.664 32.7188C104.758 31.75 107.023 31.2656 109.461 31.2656C111.633 31.2656 113.508 31.5781 115.086 32.2031C116.664 32.8125 118 33.5469 119.094 34.4062C120.203 35.25 121.156 36.1719 121.953 37.1719H124.438V41.3438H119.398Z" fill="#B0E8E6"/>
<path d="M54.2812 81.0312H61.9453V113.469H65.5078V117.5H57.5859V115.508C56.8047 116.305 55.8984 116.93 54.8672 117.383C53.8359 117.82 52.6641 118.039 51.3516 118.039C49.7109 118.039 48.1797 117.758 46.7578 117.195C45.3516 116.617 44.125 115.781 43.0781 114.688C42.0469 113.578 41.2344 112.227 40.6406 110.633C40.0625 109.023 39.7734 107.188 39.7734 105.125C39.7734 103.25 40.0547 101.547 40.6172 100.016C41.1797 98.4688 41.9766 97.1562 43.0078 96.0781C44.0391 94.9844 45.2812 94.1406 46.7344 93.5469C48.1875 92.9375 49.8047 92.6328 51.5859 92.6328C52.7578 92.6328 53.8281 92.7656 54.7969 93.0312C55.7656 93.2812 56.6953 93.7266 57.5859 94.3672V85.0625H54.2812V81.0312ZM51.9141 114.242C53.2109 114.242 54.2969 114.055 55.1719 113.68C56.0469 113.289 56.8516 112.711 57.5859 111.945V98.3516C56.8047 97.6953 55.9062 97.2188 54.8906 96.9219C53.875 96.625 52.8359 96.4766 51.7734 96.4766C50.7422 96.4766 49.7734 96.6719 48.8672 97.0625C47.9609 97.4375 47.1641 97.9922 46.4766 98.7266C45.8047 99.4609 45.2734 100.359 44.8828 101.422C44.4922 102.484 44.2969 103.703 44.2969 105.078C44.2969 106.578 44.4844 107.898 44.8594 109.039C45.2344 110.18 45.7578 111.141 46.4297 111.922C47.1016 112.688 47.9062 113.266 48.8438 113.656C49.7812 114.047 50.8047 114.242 51.9141 114.242ZM73.8047 105.922C73.8047 106.609 73.8516 107.242 73.9453 107.82C74.0547 108.383 74.2031 108.922 74.3906 109.438C74.9688 111 75.8906 112.18 77.1562 112.977C78.4375 113.758 79.8828 114.148 81.4922 114.148C82.7578 114.148 83.9844 113.977 85.1719 113.633C86.375 113.273 87.6328 112.719 88.9453 111.969L90.7031 114.945C89.1094 116.039 87.5078 116.852 85.8984 117.383C84.2891 117.914 82.6172 118.18 80.8828 118.18C79.2422 118.18 77.7188 117.906 76.3125 117.359C74.9219 116.812 73.7188 116 72.7031 114.922C71.7031 113.844 70.9141 112.5 70.3359 110.891C69.7734 109.281 69.4922 107.406 69.4922 105.266C69.4922 103.531 69.7344 101.898 70.2188 100.367C70.7031 98.8203 71.4219 97.4766 72.375 96.3359C73.3438 95.1797 74.5391 94.2656 75.9609 93.5938C77.3828 92.9219 79.0391 92.5859 80.9297 92.5859C82.7578 92.5859 84.2812 92.8672 85.5 93.4297C86.7344 93.9766 87.7344 94.7109 88.5 95.6328C89.2812 96.5391 89.8672 97.5781 90.2578 98.75C90.6641 99.9219 90.9453 101.117 91.1016 102.336C91.1797 102.93 91.2266 103.531 91.2422 104.141C91.2734 104.75 91.2891 105.344 91.2891 105.922H73.8047ZM80.625 96.2422C79.6094 96.2422 78.7188 96.3906 77.9531 96.6875C77.2031 96.9688 76.5625 97.3828 76.0312 97.9297C75.5 98.4609 75.0703 99.1172 74.7422 99.8984C74.4297 100.68 74.1953 101.555 74.0391 102.523H86.625C86.5625 101.617 86.4141 100.781 86.1797 100.016C85.9609 99.25 85.6172 98.5859 85.1484 98.0234C84.6797 97.4609 84.0781 97.0234 83.3438 96.7109C82.6094 96.3984 81.7031 96.2422 80.625 96.2422ZM105.258 93.2188H110.883V96.7578H105.258V113.469H109.055V117.5H97.2422V113.469H100.898V96.7578H96.8906V93.2188H100.898V89.4219C100.93 88.0156 101.133 86.7891 101.508 85.7422C101.883 84.6953 102.414 83.8203 103.102 83.1172C103.789 82.4141 104.617 81.8906 105.586 81.5469C106.555 81.2031 107.633 81.0312 108.82 81.0312C109.648 81.0312 110.391 81.0703 111.047 81.1484C111.703 81.2266 112.289 81.3359 112.805 81.4766C113.32 81.6016 113.773 81.7422 114.164 81.8984C114.57 82.0547 114.93 82.2109 115.242 82.3672L113.906 85.4844C113.406 85.2188 112.75 84.9922 111.938 84.8047C111.141 84.6172 110.305 84.5234 109.43 84.5234C108.133 84.5234 107.109 84.9297 106.359 85.7422C105.625 86.5391 105.258 87.7188 105.258 89.2812V93.2188Z" fill="#B0E8E6"/>
</svg>
