<svg width="150" height="150" viewBox="0 0 150 150" fill="none" xmlns="http://www.w3.org/2000/svg">
<path d="M46.304 39.34H46.112C45.632 40.684 45.056 42.284 44.384 44.14C43.744 45.996 43.072 47.916 42.368 49.9C41.696 51.852 41.056 53.676 40.448 55.372L40.208 56.092C40.016 56.668 39.776 57.388 39.488 58.252C39.2 59.116 38.896 60.028 38.576 60.988C38.256 61.916 37.952 62.796 37.664 63.628C37.376 64.428 37.152 65.084 36.992 65.596C36.768 65.692 36.528 65.756 36.272 65.788C36.048 65.852 35.76 65.884 35.408 65.884C34.896 65.884 34.432 65.756 34.016 65.5C33.632 65.212 33.44 64.764 33.44 64.156C33.44 63.868 33.488 63.58 33.584 63.292C33.68 62.972 33.792 62.636 33.92 62.284C34.304 61.196 34.768 59.868 35.312 58.3C35.888 56.732 36.512 55.02 37.184 53.164C37.856 51.308 38.56 49.404 39.296 47.452C40.032 45.5 40.752 43.596 41.456 41.74C42.16 39.884 42.816 38.188 43.424 36.652C43.68 36.524 44.064 36.396 44.576 36.268C45.088 36.14 45.616 36.076 46.16 36.076C46.8 36.076 47.408 36.172 47.984 36.364C48.592 36.556 48.976 36.876 49.136 37.324C49.904 39.18 50.72 41.292 51.584 43.66C52.48 45.996 53.376 48.444 54.272 51.004C55.168 53.532 56.016 55.996 56.816 58.396C57.648 60.796 58.384 62.972 59.024 64.924C58.8 65.212 58.496 65.436 58.112 65.596C57.76 65.788 57.36 65.884 56.912 65.884C56.304 65.884 55.84 65.756 55.52 65.5C55.2 65.212 54.928 64.748 54.704 64.108L52.064 56.284L51.68 54.94C51.04 52.988 50.368 51.02 49.664 49.036C48.992 47.052 48.352 45.212 47.744 43.516C47.168 41.82 46.688 40.428 46.304 39.34ZM38.336 57.724L39.584 54.508H52.976L53.744 57.724H38.336ZM80.5663 48.748V51.916H67.3663V48.748H80.5663ZM75.0463 51.916L76.5823 49.516C78.7583 49.516 80.5663 49.884 82.0063 50.62C83.4463 51.324 84.5183 52.268 85.2223 53.452C85.9583 54.636 86.3263 55.964 86.3263 57.436C86.3263 60.348 85.2703 62.508 83.1583 63.916C81.0783 65.324 78.1023 66.028 74.2303 66.028C73.3663 66.028 72.5023 65.996 71.6383 65.932C70.7743 65.9 69.9263 65.82 69.0943 65.692C68.2623 65.564 67.4623 65.404 66.6943 65.212C65.3503 64.828 64.6783 64.092 64.6783 63.004V38.428C64.6783 37.916 64.8063 37.516 65.0623 37.228C65.3503 36.94 65.7503 36.732 66.2623 36.604C67.3503 36.284 68.5023 36.076 69.7183 35.98C70.9663 35.852 72.2943 35.788 73.7023 35.788C77.3183 35.788 80.1343 36.444 82.1503 37.756C84.1663 39.036 85.1743 41.004 85.1743 43.66C85.1743 45.004 84.8383 46.252 84.1663 47.404C83.5263 48.524 82.4703 49.436 80.9983 50.14C79.5583 50.812 77.6223 51.148 75.1903 51.148L74.7583 48.748C76.8703 48.748 78.4703 48.316 79.5583 47.452C80.6463 46.556 81.1903 45.324 81.1903 43.756C81.1903 42.156 80.5503 40.972 79.2703 40.204C78.0223 39.404 76.1663 39.004 73.7023 39.004C72.6143 39.004 71.6543 39.052 70.8223 39.148C69.9903 39.212 69.2223 39.308 68.5183 39.436V62.284C69.2863 62.444 70.1663 62.572 71.1583 62.668C72.1823 62.764 73.2063 62.812 74.2303 62.812C76.8863 62.812 78.9023 62.364 80.2783 61.468C81.6543 60.572 82.3423 59.196 82.3423 57.34C82.3423 55.676 81.7183 54.364 80.4703 53.404C79.2543 52.412 77.4463 51.916 75.0463 51.916ZM114.725 39.532C114.725 39.948 114.581 40.332 114.293 40.684C114.037 41.004 113.733 41.244 113.381 41.404C112.581 40.828 111.605 40.284 110.453 39.772C109.333 39.26 107.877 39.004 106.085 39.004C104.133 39.004 102.373 39.452 100.805 40.348C99.2686 41.244 98.0366 42.588 97.1086 44.38C96.2126 46.14 95.7646 48.332 95.7646 50.956C95.7646 54.892 96.7246 57.852 98.6446 59.836C100.597 61.82 103.125 62.812 106.229 62.812C107.893 62.812 109.349 62.572 110.597 62.092C111.845 61.612 112.869 61.068 113.669 60.46C113.989 60.588 114.293 60.828 114.581 61.18C114.869 61.5 115.013 61.884 115.013 62.332C115.013 62.652 114.917 62.972 114.725 63.292C114.565 63.58 114.277 63.868 113.861 64.156C113.125 64.668 112.117 65.116 110.837 65.5C109.557 65.916 107.925 66.124 105.941 66.124C103.285 66.124 100.869 65.564 98.6926 64.444C96.5486 63.292 94.8526 61.596 93.6046 59.356C92.3566 57.116 91.7326 54.316 91.7326 50.956C91.7326 47.596 92.3726 44.78 93.6526 42.508C94.9646 40.236 96.6766 38.54 98.7886 37.42C100.933 36.268 103.269 35.692 105.797 35.692C107.557 35.692 109.109 35.884 110.453 36.268C111.797 36.652 112.837 37.148 113.573 37.756C114.341 38.332 114.725 38.924 114.725 39.532Z" fill="#B0E8E6"/>
<path d="M58.5638 107.708V91.58L62.4038 91.532V107.852C62.4038 108.46 62.2598 108.956 61.9718 109.34C61.7158 109.692 61.2998 110.044 60.7238 110.396C60.0838 110.812 59.1718 111.196 57.9878 111.548C56.8038 111.932 55.4438 112.124 53.9078 112.124C51.6038 112.124 49.5718 111.724 47.8118 110.924C46.0518 110.124 44.6758 108.876 43.6838 107.18C42.6918 105.452 42.1958 103.228 42.1958 100.508C42.1958 97.724 42.6758 95.468 43.6358 93.74C44.6278 92.012 45.9558 90.748 47.6198 89.948C49.2838 89.116 51.1078 88.7 53.0918 88.7C54.3398 88.7 55.5238 88.876 56.6438 89.228C57.7638 89.58 58.6438 90.012 59.2838 90.524V94.076C58.6758 93.468 57.8758 92.956 56.8838 92.54C55.9238 92.092 54.7878 91.868 53.4758 91.868C52.1638 91.868 50.9478 92.156 49.8278 92.732C48.7078 93.276 47.8118 94.188 47.1398 95.468C46.4678 96.748 46.1318 98.46 46.1318 100.604C46.1318 103.516 46.8358 105.644 48.2438 106.988C49.6518 108.3 51.5238 108.956 53.8598 108.956C54.9798 108.956 55.8918 108.844 56.5958 108.62C57.3318 108.364 57.9878 108.06 58.5638 107.708ZM62.4038 92.492L58.5638 92.54V80.396C58.7238 80.332 58.9638 80.268 59.2838 80.204C59.6358 80.108 59.9878 80.06 60.3398 80.06C61.0438 80.06 61.5558 80.204 61.8758 80.492C62.2278 80.748 62.4038 81.18 62.4038 81.788V92.492ZM71.0858 102.86L70.8938 99.836L85.3898 97.868C85.2618 96.108 84.6538 94.668 83.5658 93.548C82.4778 92.396 80.9738 91.82 79.0538 91.82C77.0698 91.82 75.4218 92.54 74.1098 93.98C72.8298 95.388 72.1898 97.42 72.1898 100.076V101.132C72.4138 103.692 73.2458 105.644 74.6858 106.988C76.1578 108.3 78.1578 108.956 80.6858 108.956C82.0298 108.956 83.2458 108.732 84.3338 108.284C85.4218 107.836 86.2858 107.356 86.9258 106.844C87.2778 107.068 87.5498 107.34 87.7418 107.66C87.9658 107.948 88.0778 108.284 88.0778 108.668C88.0778 109.276 87.7258 109.852 87.0218 110.396C86.3498 110.908 85.4378 111.324 84.2858 111.644C83.1658 111.964 81.9018 112.124 80.4938 112.124C78.0298 112.124 75.8858 111.676 74.0618 110.78C72.2698 109.884 70.8778 108.556 69.8858 106.796C68.9258 105.004 68.4458 102.828 68.4458 100.268C68.4458 98.444 68.7018 96.828 69.2138 95.42C69.7578 93.98 70.4938 92.764 71.4218 91.772C72.3818 90.78 73.5178 90.028 74.8298 89.516C76.1418 88.972 77.5658 88.7 79.1018 88.7C81.0538 88.7 82.7658 89.116 84.2378 89.948C85.7418 90.78 86.9098 91.948 87.7418 93.452C88.6058 94.924 89.0378 96.62 89.0378 98.54C89.0378 99.244 88.8778 99.756 88.5578 100.076C88.2378 100.364 87.7898 100.54 87.2138 100.604L71.0858 102.86ZM97.8004 93.692V90.572H107.976C108.072 90.7 108.168 90.908 108.264 91.196C108.36 91.452 108.408 91.756 108.408 92.108C108.408 92.62 108.28 93.02 108.024 93.308C107.768 93.564 107.4 93.692 106.92 93.692H97.8004ZM98.4724 87.548V93.164H94.6804V87.356C94.6804 85.468 95.0164 83.948 95.6884 82.796C96.3924 81.612 97.3844 80.748 98.6644 80.204C99.9764 79.628 101.528 79.34 103.32 79.34C105.144 79.34 106.568 79.58 107.592 80.06C108.648 80.54 109.176 81.132 109.176 81.836C109.176 82.188 109.096 82.508 108.936 82.796C108.808 83.084 108.616 83.356 108.36 83.612C107.784 83.292 107.064 83.036 106.2 82.844C105.336 82.62 104.504 82.508 103.704 82.508C101.752 82.508 100.392 82.908 99.6244 83.708C98.8564 84.508 98.4724 85.788 98.4724 87.548ZM94.6804 91.052H98.5204V111.404C98.3604 111.468 98.1204 111.532 97.8004 111.596C97.4804 111.692 97.1284 111.74 96.7444 111.74C96.0724 111.74 95.5604 111.612 95.2084 111.356C94.8564 111.068 94.6804 110.62 94.6804 110.012V91.052Z" fill="#B0E8E6"/>
</svg>
