<svg width="150" height="150" viewBox="0 0 150 150" fill="none" xmlns="http://www.w3.org/2000/svg">
<path d="M61.664 68.04C60.864 68.168 59.984 68.312 59.024 68.472C58.064 68.632 57.2 68.776 56.432 68.904C56.56 67.848 56.688 66.808 56.816 65.784C56.912 64.888 56.992 63.992 57.056 63.096C57.152 62.2 57.232 61.432 57.296 60.792H53.12L51.2 67.704C50.496 67.8 49.664 67.912 48.704 68.04C47.744 68.136 46.848 68.232 46.016 68.328C44.992 68.456 43.984 68.584 42.992 68.712C44.272 64.456 45.536 60.264 46.784 56.136C47.296 54.408 47.824 52.6 48.368 50.712C48.944 48.824 49.504 46.952 50.048 45.096C50.624 43.208 51.168 41.4 51.68 39.672C52.192 37.944 52.64 36.36 53.024 34.92C55.2 34.76 57.408 34.568 59.648 34.344C61.92 34.12 64.128 33.816 66.272 33.432C66.176 34.456 66.064 35.736 65.936 37.272C65.84 38.776 65.744 40.424 65.648 42.216C65.552 44.008 65.456 45.88 65.36 47.832C65.264 49.784 65.168 51.704 65.072 53.592C64.912 58.008 64.736 62.696 64.544 67.656C63.584 67.816 62.624 67.944 61.664 68.04ZM54.272 55.992C54.4 55.992 54.624 55.992 54.944 55.992C55.296 55.96 55.648 55.944 56 55.944C56.384 55.912 56.736 55.896 57.056 55.896C57.376 55.864 57.6 55.832 57.728 55.8C57.728 55.608 57.744 55.288 57.776 54.84C57.84 54.36 57.888 53.832 57.92 53.256C57.984 52.648 58.048 51.992 58.112 51.288C58.176 50.584 58.24 49.896 58.304 49.224C58.432 47.592 58.592 45.832 58.784 43.944L59.072 39.768L58.352 39.816L57.248 43.944L54.272 55.992ZM86.4616 56.952C86.4616 58.264 86.1896 59.48 85.6456 60.6C85.1016 61.72 84.3656 62.744 83.4376 63.672C82.5096 64.568 81.4216 65.368 80.1736 66.072C78.9576 66.744 77.6616 67.32 76.2856 67.8C74.9416 68.248 73.5496 68.6 72.1096 68.856C70.7016 69.08 69.3416 69.192 68.0296 69.192C66.8456 69.192 65.7416 69.096 64.7176 68.904C66.2536 63.304 67.4696 57.672 68.3656 52.008C69.2936 46.312 70.1736 40.584 71.0056 34.824C72.6696 34.472 74.3976 34.168 76.1896 33.912C77.9816 33.624 79.8376 33.48 81.7576 33.48C82.5576 33.48 83.4056 33.576 84.3016 33.768C85.1976 33.96 86.0136 34.312 86.7496 34.824C87.4856 35.336 88.0936 36.008 88.5736 36.84C89.0856 37.672 89.3416 38.728 89.3416 40.008C89.3416 41.224 89.1336 42.36 88.7176 43.416C88.3336 44.472 87.8216 45.432 87.1816 46.296C86.5736 47.16 85.8696 47.912 85.0696 48.552C84.2696 49.16 83.4536 49.624 82.6216 49.944C83.0376 50.168 83.4696 50.488 83.9176 50.904C84.3656 51.32 84.7816 51.816 85.1656 52.392C85.5496 52.936 85.8536 53.592 86.0776 54.36C86.3336 55.128 86.4616 55.992 86.4616 56.952ZM75.4696 51.96C75.3416 52.728 75.2136 53.416 75.0856 54.024C74.9896 54.6 74.8936 55.16 74.7976 55.704C74.7016 56.248 74.5896 56.824 74.4616 57.432C74.3656 58.008 74.2536 58.696 74.1256 59.496C74.7336 59.432 75.4216 59.32 76.1896 59.16C76.9576 59 77.6936 58.76 78.3976 58.44C79.1016 58.088 79.6936 57.64 80.1736 57.096C80.6536 56.52 80.8936 55.832 80.8936 55.032C80.8936 54.456 80.7336 53.976 80.4136 53.592C80.1256 53.208 79.7416 52.888 79.2616 52.632C78.8136 52.376 78.3176 52.2 77.7736 52.104C77.2296 51.976 76.7176 51.912 76.2376 51.912C76.0776 51.912 75.9336 51.912 75.8056 51.912C75.7096 51.912 75.5976 51.928 75.4696 51.96ZM77.6296 40.344C77.5656 40.696 77.4856 41.112 77.3896 41.592C77.3256 42.072 77.2456 42.584 77.1496 43.128C77.0536 43.64 76.9416 44.152 76.8136 44.664C76.7176 45.176 76.6376 45.624 76.5736 46.008C77.2776 45.88 77.9816 45.704 78.6856 45.48C79.3896 45.256 80.0136 45.016 80.5576 44.76C81.1336 44.472 81.5816 44.168 81.9016 43.848C82.2536 43.528 82.4296 43.176 82.4296 42.792C82.4296 42.312 82.2856 41.928 81.9976 41.64C81.7096 41.32 81.3256 41.064 80.8456 40.872C80.3976 40.68 79.9176 40.552 79.4056 40.488C78.9256 40.392 78.4936 40.344 78.1096 40.344H77.6296ZM105.793 58.68C105.025 60.44 104.161 61.976 103.201 63.288C102.273 64.568 101.281 65.656 100.225 66.552C99.2009 67.416 98.1609 68.056 97.1049 68.472C96.0489 68.888 95.0249 69.096 94.0329 69.096C93.0409 69.096 92.1289 68.872 91.2969 68.424C90.4969 67.976 89.7929 67.304 89.1849 66.408C88.5769 65.512 88.0809 64.408 87.6969 63.096C87.3449 61.784 87.1689 60.248 87.1689 58.488C87.1689 55.48 87.5849 52.52 88.4169 49.608C89.2489 46.664 90.4169 44.024 91.9209 41.688C93.4249 39.352 95.2009 37.48 97.2489 36.072C99.3289 34.632 101.617 33.912 104.113 33.912C104.881 33.912 105.617 34.072 106.321 34.392C107.025 34.712 107.633 35.16 108.145 35.736C108.657 36.312 109.057 37.016 109.345 37.848C109.665 38.68 109.825 39.608 109.825 40.632C109.825 40.824 109.825 41.032 109.825 41.256C109.825 41.448 109.809 41.656 109.777 41.88L103.489 43.56C103.105 42.76 102.657 42.36 102.145 42.36C101.633 42.36 101.089 42.664 100.513 43.272C99.9689 43.848 99.4249 44.616 98.8809 45.576C98.3369 46.504 97.8089 47.56 97.2969 48.744C96.7849 49.896 96.3369 51.064 95.9529 52.248C95.5689 53.432 95.2489 54.568 94.9929 55.656C94.7689 56.712 94.6569 57.576 94.6569 58.248C94.6569 59.272 94.7849 59.992 95.0409 60.408C95.3289 60.824 95.6969 61.032 96.1449 61.032C96.4969 61.032 96.8969 60.904 97.3449 60.648C97.7929 60.36 98.2089 60.008 98.5929 59.592C98.9769 59.144 99.3289 58.648 99.6489 58.104C99.9689 57.56 100.193 57.016 100.321 56.472L105.793 58.68Z" fill="#B0E8E6"/>
<path d="M72.4789 89.472C72.4789 91.136 72.2389 92.912 71.7589 94.8C71.2789 96.656 70.6069 98.512 69.7429 100.368C68.8789 102.192 67.8069 103.952 66.5269 105.648C65.2789 107.312 63.8549 108.784 62.2549 110.064C60.6549 111.312 58.8949 112.32 56.9749 113.088C55.0869 113.856 53.0709 114.24 50.9269 114.24C50.4789 114.24 50.0309 114.208 49.5829 114.144C49.1349 114.112 48.6869 114.064 48.2389 114C49.1029 109.584 49.9509 105.28 50.7829 101.088C51.1029 99.328 51.4389 97.504 51.7909 95.616C52.1429 93.696 52.4789 91.808 52.7989 89.952C53.1189 88.096 53.4229 86.32 53.7109 84.624C54.0309 82.928 54.2869 81.392 54.4789 80.016C55.8549 79.76 57.2469 79.52 58.6549 79.296C60.0629 79.072 61.5029 78.96 62.9749 78.96C64.7029 78.96 66.1589 79.232 67.3429 79.776C68.5589 80.32 69.5349 81.072 70.2709 82.032C71.0389 82.992 71.5989 84.112 71.9509 85.392C72.3029 86.672 72.4789 88.032 72.4789 89.472ZM61.1509 85.728C60.7989 87.616 60.4309 89.424 60.0469 91.152C59.6629 92.88 59.2789 94.624 58.8949 96.384C58.5109 98.144 58.1269 99.984 57.7429 101.904C57.3589 103.824 56.9909 105.92 56.6389 108.192C57.4069 107.68 58.1429 106.992 58.8469 106.128C59.5829 105.232 60.2709 104.208 60.9109 103.056C61.5509 101.904 62.1269 100.688 62.6389 99.408C63.1829 98.128 63.6469 96.88 64.0309 95.664C64.4149 94.448 64.7029 93.312 64.8949 92.256C65.1189 91.2 65.2309 90.288 65.2309 89.52C65.2309 88.336 64.8949 87.408 64.2229 86.736C63.5829 86.064 62.5589 85.728 61.1509 85.728ZM69.6184 114.048L75.9064 79.92L91.0744 78.624C90.8504 79.328 90.6584 80.048 90.4984 80.784C90.3384 81.392 90.1784 82.032 90.0184 82.704C89.8904 83.344 89.7784 83.92 89.6824 84.432C89.3624 84.464 88.8984 84.496 88.2904 84.528C87.7144 84.528 87.0904 84.544 86.4184 84.576C85.7464 84.576 85.0584 84.576 84.3544 84.576C83.6824 84.576 83.0904 84.576 82.5784 84.576L80.8984 93.168C81.8904 93.104 82.8184 93.056 83.6824 93.024C84.3864 92.992 85.1064 92.976 85.8424 92.976C86.5784 92.976 87.1224 92.96 87.4744 92.928C87.3464 93.824 87.2184 94.704 87.0904 95.568C86.9944 96.432 86.8664 97.312 86.7064 98.208C86.3864 98.24 85.8584 98.272 85.1224 98.304C84.4184 98.304 83.6984 98.32 82.9624 98.352C82.1304 98.384 81.2184 98.416 80.2264 98.448L78.5944 107.28L85.6024 106.176L85.1224 111.648L69.6184 114.048ZM91.4978 112.848C90.6018 113.008 89.6258 113.2 88.5698 113.424C87.5138 113.648 86.5858 113.856 85.7858 114.048C86.1698 112.672 86.5378 111.136 86.8898 109.44C87.2738 107.712 87.6418 105.904 87.9938 104.016C88.3778 102.128 88.7298 100.224 89.0498 98.304C89.4018 96.352 89.7378 94.48 90.0578 92.688C90.7298 88.432 91.4018 84.032 92.0738 79.488L108.154 78.672L106.762 84.576H99.2258L97.7378 93.12C98.7298 93.088 99.6738 93.072 100.57 93.072C101.306 93.072 102.058 93.072 102.826 93.072C103.594 93.072 104.186 93.056 104.602 93.024C104.506 93.92 104.378 94.8 104.218 95.664C104.09 96.528 103.962 97.392 103.834 98.256C103.418 98.256 102.826 98.256 102.058 98.256C101.29 98.224 100.49 98.192 99.6578 98.16C98.8578 98.128 97.9458 98.096 96.9218 98.064L94.7138 112.224C93.6258 112.416 92.5538 112.624 91.4978 112.848Z" fill="#B0E8E6"/>
</svg>
