<svg width="150" height="150" viewBox="0 0 150 150" fill="none" xmlns="http://www.w3.org/2000/svg">
<path d="M52.048 30.9H59.2L64.672 64.5H59.392L58.432 57.828V57.924H52.432L51.472 64.5H46.576L52.048 30.9ZM57.808 53.364L55.456 36.756H55.36L53.056 53.364H57.808ZM67.2336 30.9H75.2016C77.9216 30.9 79.9056 31.54 81.1536 32.82C82.4016 34.068 83.0256 36.004 83.0256 38.628V39.972C83.0256 41.7 82.7376 43.108 82.1616 44.196C81.6176 45.284 80.7696 46.068 79.6176 46.548V46.644C82.2416 47.54 83.5536 49.876 83.5536 53.652V56.532C83.5536 59.124 82.8656 61.108 81.4896 62.484C80.1456 63.828 78.1616 64.5 75.5376 64.5H67.2336V30.9ZM74.5776 44.58C75.6336 44.58 76.4176 44.308 76.9296 43.764C77.4736 43.22 77.7456 42.308 77.7456 41.028V39.156C77.7456 37.94 77.5216 37.06 77.0736 36.516C76.6576 35.972 75.9856 35.7 75.0576 35.7H72.5136V44.58H74.5776ZM75.5376 59.7C76.4656 59.7 77.1536 59.46 77.6016 58.98C78.0496 58.468 78.2736 57.604 78.2736 56.388V53.46C78.2736 51.924 78.0016 50.868 77.4576 50.292C76.9456 49.684 76.0816 49.38 74.8656 49.38H72.5136V59.7H75.5376ZM94.0799 64.98C91.5519 64.98 89.6159 64.26 88.2719 62.82C86.9599 61.38 86.3039 59.348 86.3039 56.724V38.676C86.3039 36.052 86.9599 34.02 88.2719 32.58C89.6159 31.14 91.5519 30.42 94.0799 30.42C96.6079 30.42 98.5279 31.14 99.8399 32.58C101.184 34.02 101.856 36.052 101.856 38.676V42.228H96.8639V38.34C96.8639 36.26 95.9839 35.22 94.2239 35.22C92.4639 35.22 91.5839 36.26 91.5839 38.34V57.108C91.5839 59.156 92.4639 60.18 94.2239 60.18C95.9839 60.18 96.8639 59.156 96.8639 57.108V51.972H101.856V56.724C101.856 59.348 101.184 61.38 99.8399 62.82C98.5279 64.26 96.6079 64.98 94.0799 64.98Z" fill="#B0E8E6"/>
<path d="M50.2493 79.9H58.3133C60.9373 79.9 62.9053 80.604 64.2173 82.012C65.5293 83.42 66.1853 85.484 66.1853 88.204V105.196C66.1853 107.916 65.5293 109.98 64.2173 111.388C62.9053 112.796 60.9373 113.5 58.3133 113.5H50.2493V79.9ZM58.2173 108.7C59.0813 108.7 59.7373 108.444 60.1853 107.932C60.6653 107.42 60.9053 106.588 60.9053 105.436V87.964C60.9053 86.812 60.6653 85.98 60.1853 85.468C59.7373 84.956 59.0813 84.7 58.2173 84.7H55.5293V108.7H58.2173ZM69.7493 79.9H84.1493V84.7H75.0293V93.58H82.2773V98.38H75.0293V108.7H84.1493V113.5H69.7493V79.9ZM87.1868 79.9H101.155V84.7H92.4668V94.06H99.2828V98.86H92.4668V113.5H87.1868V79.9Z" fill="#B0E8E6"/>
</svg>
