<svg width="150" height="150" viewBox="0 0 150 150" fill="none" xmlns="http://www.w3.org/2000/svg">
<path d="M46 35.6797C46.625 35.6797 47.125 35.8047 47.5 36.0547C47.8906 36.2891 48.1797 36.6719 48.3672 37.2031L56.6406 60.3125H58.0703C58.6016 60.3125 58.9766 60.4375 59.1953 60.6875C59.4297 60.9219 59.5469 61.3281 59.5469 61.9062C59.5469 62.4844 59.4297 62.8984 59.1953 63.1484C58.9766 63.3828 58.6016 63.5 58.0703 63.5H49.7734C49.2422 63.5 48.8594 63.3828 48.625 63.1484C48.4062 62.8984 48.2969 62.4844 48.2969 61.9062C48.2969 61.3281 48.4062 60.9219 48.625 60.6875C48.8594 60.4375 49.2422 60.3125 49.7734 60.3125H52.9375L51.0156 54.7344H39.6484L37.7031 60.3125H40.5391C41.0703 60.3125 41.4453 60.4375 41.6641 60.6875C41.8984 60.9219 42.0156 61.3281 42.0156 61.9062C42.0156 62.4844 41.8984 62.8984 41.6641 63.1484C41.4453 63.3828 41.0703 63.5 40.5391 63.5H32.7109C32.1797 63.5 31.7969 63.3828 31.5625 63.1484C31.3438 62.8984 31.2344 62.4844 31.2344 61.9062C31.2344 61.3281 31.3438 60.9219 31.5625 60.6875C31.7969 60.4375 32.1797 60.3125 32.7109 60.3125H34.0234L41.7812 38.8672H37.3984C36.8672 38.8672 36.4844 38.75 36.25 38.5156C36.0312 38.2656 35.9219 37.8516 35.9219 37.2734C35.9219 36.6953 36.0312 36.2891 36.25 36.0547C36.4844 35.8047 36.8672 35.6797 37.3984 35.6797H46ZM45.1328 38.8672L40.75 51.5469H49.9375L45.5781 38.8672H45.1328ZM74.875 35.6797C76.7031 35.6797 78.2578 35.9922 79.5391 36.6172C80.8203 37.2422 81.7812 38.125 82.4219 39.2656C83.0781 40.3906 83.4062 41.7109 83.4062 43.2266C83.4062 44.4141 83.1328 45.4688 82.5859 46.3906C82.0547 47.2969 81.2891 48.0391 80.2891 48.6172C81.9453 49.1484 83.2109 50.0078 84.0859 51.1953C84.9766 52.3672 85.4219 53.8203 85.4219 55.5547C85.4219 57.1953 85.0703 58.6094 84.3672 59.7969C83.6641 60.9844 82.6406 61.8984 81.2969 62.5391C79.9531 63.1797 78.3281 63.5 76.4219 63.5H63.1328C62.6016 63.5 62.2188 63.3828 61.9844 63.1484C61.7656 62.8984 61.6562 62.4844 61.6562 61.9062C61.6562 61.3281 61.7656 60.9219 61.9844 60.6875C62.2188 60.4375 62.6016 60.3125 63.1328 60.3125H65.9922V38.8672H63.1328C62.6016 38.8672 62.2188 38.75 61.9844 38.5156C61.7656 38.2656 61.6562 37.8516 61.6562 37.2734C61.6562 36.6953 61.7656 36.2891 61.9844 36.0547C62.2188 35.8047 62.6016 35.6797 63.1328 35.6797H74.875ZM69.5078 47.5391H74.3594C76.1562 47.5391 77.5156 47.1641 78.4375 46.4141C79.3594 45.6641 79.8203 44.6016 79.8203 43.2266C79.8203 41.7891 79.3672 40.7031 78.4609 39.9688C77.5547 39.2344 76.1875 38.8672 74.3594 38.8672H69.5078V47.5391ZM69.5078 60.3125H75.7188C77.6406 60.3125 79.1172 59.8984 80.1484 59.0703C81.1953 58.2422 81.7188 57.0703 81.7188 55.5547C81.7188 52.3359 79.7578 50.7266 75.8359 50.7266H69.5078V60.3125ZM111.977 35.1641C112.617 35.1641 113.07 35.2812 113.336 35.5156C113.602 35.75 113.734 36.1406 113.734 36.6875V44.4219C113.734 44.9688 113.602 45.3594 113.336 45.5938C113.07 45.8281 112.617 45.9453 111.977 45.9453C111.336 45.9453 110.883 45.8281 110.617 45.5938C110.352 45.3594 110.219 44.9688 110.219 44.4219C110.219 43.3594 109.977 42.3906 109.492 41.5156C109.023 40.6406 108.297 39.9453 107.312 39.4297C106.328 38.8984 105.109 38.6328 103.656 38.6328C101.969 38.6328 100.469 39.0781 99.1562 39.9688C97.8594 40.8594 96.8438 42.1328 96.1094 43.7891C95.3906 45.4453 95.0312 47.3828 95.0312 49.6016C95.0312 51.8203 95.375 53.7578 96.0625 55.4141C96.75 57.0547 97.7266 58.3203 98.9922 59.2109C100.258 60.1016 101.734 60.5469 103.422 60.5469C104.969 60.5469 106.445 60.3203 107.852 59.8672C109.258 59.4141 110.523 58.7578 111.648 57.8984C111.914 57.6797 112.203 57.5703 112.516 57.5703C112.984 57.5703 113.398 57.875 113.758 58.4844C114.039 58.9531 114.18 59.3672 114.18 59.7266C114.18 60.1953 113.938 60.6016 113.453 60.9453C112 61.9609 110.414 62.7266 108.695 63.2422C106.992 63.7578 105.234 64.0156 103.422 64.0156C100.984 64.0156 98.8516 63.4219 97.0234 62.2344C95.2109 61.0312 93.8047 59.3438 92.8047 57.1719C91.8203 55 91.3281 52.4766 91.3281 49.6016C91.3281 46.7422 91.8359 44.2266 92.8516 42.0547C93.8672 39.8672 95.2891 38.1719 97.1172 36.9688C98.9609 35.7656 101.062 35.1641 103.422 35.1641C104.891 35.1641 106.195 35.4141 107.336 35.9141C108.477 36.4141 109.438 37.125 110.219 38.0469V36.6875C110.219 36.1406 110.352 35.75 110.617 35.5156C110.883 35.2812 111.336 35.1641 111.977 35.1641Z" fill="#B0E8E6"/>
<path d="M54.3984 77.75C54.9297 77.75 55.3047 77.875 55.5234 78.125C55.7578 78.3594 55.875 78.7656 55.875 79.3438V105.312H57.7969C58.3281 105.312 58.7031 105.438 58.9219 105.688C59.1562 105.922 59.2734 106.328 59.2734 106.906C59.2734 107.484 59.1562 107.898 58.9219 108.148C58.7031 108.383 58.3281 108.5 57.7969 108.5H54.0703C53.5391 108.5 53.1562 108.383 52.9219 108.148C52.7031 107.898 52.5938 107.484 52.5938 106.906V105.031C51.6094 106.312 50.4688 107.297 49.1719 107.984C47.875 108.672 46.4609 109.016 44.9297 109.016C42.9922 109.016 41.2578 108.562 39.7266 107.656C38.1953 106.734 36.9922 105.422 36.1172 103.719C35.2422 102 34.8047 99.9844 34.8047 97.6719C34.8047 95.3594 35.2422 93.3516 36.1172 91.6484C36.9922 89.9297 38.1953 88.6172 39.7266 87.7109C41.2578 86.7891 42.9922 86.3281 44.9297 86.3281C47.8672 86.3281 50.3438 87.6172 52.3594 90.1953V80.9375H48.5625C48.0312 80.9375 47.6484 80.8203 47.4141 80.5859C47.1953 80.3359 47.0859 79.9219 47.0859 79.3438C47.0859 78.7656 47.1953 78.3594 47.4141 78.125C47.6484 77.875 48.0312 77.75 48.5625 77.75H54.3984ZM45.1641 89.7969C43.7734 89.7969 42.5781 90.1328 41.5781 90.8047C40.5781 91.4609 39.8125 92.3828 39.2812 93.5703C38.7656 94.7578 38.5078 96.125 38.5078 97.6719C38.5078 99.2188 38.7656 100.586 39.2812 101.773C39.8125 102.961 40.5781 103.891 41.5781 104.562C42.5781 105.219 43.7734 105.547 45.1641 105.547C46.5547 105.547 47.7891 105.234 48.8672 104.609C49.9609 103.984 50.8125 103.078 51.4219 101.891C52.0469 100.703 52.3594 99.2969 52.3594 97.6719C52.3594 96.0469 52.0469 94.6406 51.4219 93.4531C50.8125 92.2656 49.9609 91.3594 48.8672 90.7344C47.7891 90.1094 46.5547 89.7969 45.1641 89.7969ZM75.2109 86.3281C77.4766 86.3281 79.4062 86.7891 81 87.7109C82.6094 88.6172 83.8438 89.8828 84.7031 91.5078C85.5625 93.1172 86.0547 94.9766 86.1797 97.0859C86.1797 97.6172 86.0625 97.9922 85.8281 98.2109C85.6094 98.4297 85.2344 98.5391 84.7031 98.5391H67.7344C67.8438 100.867 68.5312 102.633 69.7969 103.836C71.0781 105.023 72.8828 105.617 75.2109 105.617C76.6484 105.617 78.0703 105.438 79.4766 105.078C80.8828 104.703 82.1172 104.211 83.1797 103.602C83.4453 103.461 83.6875 103.391 83.9062 103.391C84.4531 103.391 84.8984 103.805 85.2422 104.633C85.3828 104.961 85.4531 105.258 85.4531 105.523C85.4531 106.148 85.1094 106.633 84.4219 106.977C83.2188 107.586 81.7969 108.078 80.1562 108.453C78.5156 108.828 76.8672 109.016 75.2109 109.016C72.8516 109.016 70.8359 108.562 69.1641 107.656C67.4922 106.75 66.2188 105.445 65.3438 103.742C64.4688 102.039 64.0312 100.016 64.0312 97.6719C64.0312 95.4375 64.5078 93.4609 65.4609 91.7422C66.4141 90.0234 67.7344 88.6953 69.4219 87.7578C71.1094 86.8047 73.0391 86.3281 75.2109 86.3281ZM75.2109 89.7266C73.2891 89.7266 71.6953 90.2188 70.4297 91.2031C69.1797 92.1719 68.3594 93.5234 67.9688 95.2578H82.2891C81.9609 93.4609 81.2031 92.0938 80.0156 91.1562C78.8438 90.2031 77.2422 89.7266 75.2109 89.7266ZM108.141 77.6328C110.234 77.6328 112.312 78.0312 114.375 78.8281C115.125 79.1094 115.5 79.625 115.5 80.375C115.5 80.5469 115.477 80.75 115.43 80.9844C115.211 81.875 114.82 82.3203 114.258 82.3203C114.086 82.3203 113.898 82.2812 113.695 82.2031C111.711 81.4375 109.859 81.0547 108.141 81.0547C104.984 81.0547 103.406 82.75 103.406 86.1406V88.7188H111.516C112.047 88.7188 112.422 88.8438 112.641 89.0938C112.875 89.3281 112.992 89.7344 112.992 90.3125C112.992 90.8906 112.875 91.3047 112.641 91.5547C112.422 91.7891 112.047 91.9062 111.516 91.9062H103.406V105.312H111.516C112.047 105.312 112.422 105.438 112.641 105.688C112.875 105.922 112.992 106.328 112.992 106.906C112.992 107.484 112.875 107.898 112.641 108.148C112.422 108.383 112.047 108.5 111.516 108.5H95.25C94.7188 108.5 94.3359 108.383 94.1016 108.148C93.8828 107.898 93.7734 107.484 93.7734 106.906C93.7734 106.328 93.8828 105.922 94.1016 105.688C94.3359 105.438 94.7188 105.312 95.25 105.312H99.8906V91.9062H95.25C94.7188 91.9062 94.3359 91.7891 94.1016 91.5547C93.8828 91.3047 93.7734 90.8906 93.7734 90.3125C93.7734 89.7344 93.8828 89.3281 94.1016 89.0938C94.3359 88.8438 94.7188 88.7188 95.25 88.7188H99.8906V85.8359C99.8906 83.2578 100.609 81.25 102.047 79.8125C103.5 78.3594 105.531 77.6328 108.141 77.6328Z" fill="#B0E8E6"/>
</svg>
