<svg width="150" height="150" viewBox="0 0 150 150" fill="none" xmlns="http://www.w3.org/2000/svg">
<path d="M30.125 66.6406C30 66.5156 29.9375 66.2812 29.9375 65.9375C29.9375 65.5 30 65.2812 30.125 65.2812C30.5 65.2812 30.9844 65.2031 31.5781 65.0469C32.1719 64.8906 32.5781 64.6719 32.7969 64.3906C33.1406 63.9531 33.4844 63.375 33.8281 62.6562C34.2031 61.9375 34.5938 61.0469 35 59.9844L43.1562 39.0312C43.3438 38.5625 43.4531 38.2344 43.4844 38.0469C43.5469 37.8594 43.5938 37.7031 43.625 37.5781C43.6875 37.4219 43.7969 37.1719 43.9531 36.8281C44.1719 36.3906 44.3906 36.0469 44.6094 35.7969C44.8281 35.5469 45.1875 35.4219 45.6875 35.4219L46.1094 35.5625L55.4844 60.3125C55.7656 61.0312 56.0156 61.6719 56.2344 62.2344C56.4844 62.7969 56.6875 63.2812 56.8438 63.6875C56.9688 64 57.2344 64.2812 57.6406 64.5312C58.0781 64.75 58.5156 64.9375 58.9531 65.0938C59.4219 65.2188 59.7812 65.2812 60.0312 65.2812C60.1562 65.2812 60.2188 65.5781 60.2188 66.1719C60.2188 66.2344 60.2031 66.3125 60.1719 66.4062C60.1719 66.4688 60.1562 66.5469 60.125 66.6406C58.5625 66.5781 57.3438 66.5312 56.4688 66.5C55.625 66.4375 55.125 66.4062 54.9688 66.4062L49.5312 66.6406C49.4062 66.5156 49.3438 66.2656 49.3438 65.8906C49.375 65.4844 49.4531 65.2812 49.5781 65.2812C49.9531 65.2812 50.4219 65.2031 50.9844 65.0469C51.5469 64.8906 51.875 64.6875 51.9688 64.4375C52 64.3125 52.0156 64.1875 52.0156 64.0625C52.0469 63.9375 52.0625 63.8125 52.0625 63.6875C52.0625 63.2812 52.0156 62.8125 51.9219 62.2812C51.8281 61.7188 51.7188 61.2812 51.5938 60.9688L49.4844 55.1562C49.3906 55.0312 49.2969 54.9688 49.2031 54.9688C47.9844 54.875 46.7969 54.8281 45.6406 54.8281C44.8281 54.8281 43.9219 54.8594 42.9219 54.9219C41.9531 54.9531 40.875 55 39.6875 55.0625L39.4531 55.2031L37.4375 60.3594C37.125 61.1406 36.9062 61.7969 36.7812 62.3281C36.6875 62.8594 36.6406 63.2812 36.6406 63.5938C36.6406 64.0312 36.7656 64.3438 37.0156 64.5312C37.2969 64.75 37.75 64.9375 38.375 65.0938C39 65.2188 39.4531 65.2812 39.7344 65.2812C39.8281 65.2812 39.875 65.4688 39.875 65.8438C39.9062 66.2188 39.8906 66.4844 39.8281 66.6406L35 66.4062C34.125 66.3438 33.2656 66.3594 32.4219 66.4531C31.6094 66.5156 30.8438 66.5781 30.125 66.6406ZM44 52.5781C45.4062 52.5781 46.8281 52.5312 48.2656 52.4375L48.4062 52.2031L44.6094 41.8438L40.5781 52.2969C40.5781 52.4219 40.6094 52.4844 40.6719 52.4844C41.4844 52.5156 42.1562 52.5469 42.6875 52.5781C43.25 52.5781 43.6875 52.5781 44 52.5781ZM62.9375 66.6406C62.8438 66.5469 62.7969 66.2969 62.7969 65.8906C62.7969 65.4844 62.8438 65.2812 62.9375 65.2812C63.2188 65.2812 63.5938 65.2344 64.0625 65.1406C64.5312 65.0156 64.9688 64.875 65.375 64.7188C65.8125 64.5625 66.0781 64.3906 66.1719 64.2031C66.3906 63.8594 66.5 62.3906 66.5 59.7969V42.0781C66.5 41.1719 66.4688 40.375 66.4062 39.6875C66.375 39 66.2969 38.4531 66.1719 38.0469C66.1094 37.8594 65.8594 37.6875 65.4219 37.5312C65.0156 37.375 64.5625 37.25 64.0625 37.1562C63.5938 37.0625 63.2188 37.0156 62.9375 37.0156C62.8125 37.0156 62.75 36.8281 62.75 36.4531C62.75 36.0469 62.8125 35.7812 62.9375 35.6562C63.75 35.6875 64.6094 35.7188 65.5156 35.75C66.4531 35.75 67.4531 35.75 68.5156 35.75L72.4531 35.7031H75.125C75.5312 35.7031 75.9375 35.7188 76.3438 35.75C76.7812 35.7812 77.2031 35.8281 77.6094 35.8906C78.8594 36.1094 80.0312 36.5312 81.125 37.1562C82.25 37.75 83.1562 38.5625 83.8438 39.5938C84.5625 40.625 84.9219 41.8906 84.9219 43.3906C84.9219 44.4844 84.5625 45.5312 83.8438 46.5312C83.125 47.5 82.4531 48.1719 81.8281 48.5469C81.2344 48.9219 80.7188 49.1875 80.2812 49.3438C80.0312 49.4375 79.9531 49.5312 80.0469 49.625C80.6719 49.7188 81.375 50 82.1562 50.4688C82.9375 50.9375 83.6875 51.5469 84.4062 52.2969C85.125 53.0156 85.7188 53.8438 86.1875 54.7812C86.6875 55.7188 86.9375 56.7031 86.9375 57.7344C86.9375 59.5156 86.4375 61.0625 85.4375 62.375C84.4688 63.6875 83.0938 64.7031 81.3125 65.4219C79.5312 66.1406 77.4375 66.5 75.0312 66.5H68.6094L62.9375 66.6406ZM73.6719 49.0156C74.6719 49.0156 75.5469 48.9688 76.2969 48.875C77.5781 48.75 78.6406 48.3125 79.4844 47.5625C80.3594 46.7812 80.7969 45.75 80.7969 44.4688C80.7969 42.3125 80.25 40.6406 79.1562 39.4531C78.0938 38.2344 76.5 37.625 74.375 37.625C72.9062 37.625 71.7969 37.7344 71.0469 37.9531C70.8594 37.9844 70.7656 38.125 70.7656 38.375L70.5781 43.1094V48.6875C70.5781 48.9062 71.6094 49.0156 73.6719 49.0156ZM73.8594 64.3906C74.6406 64.3906 75.4062 64.3281 76.1562 64.2031C76.9375 64.0781 77.8594 63.8281 78.9219 63.4531C79.9844 63.1094 80.8438 62.5 81.5 61.625C82.1562 60.7188 82.4844 59.5938 82.4844 58.25C82.4844 56.9062 82.1875 55.6875 81.5938 54.5938C81 53.5 80.0938 52.625 78.875 51.9688C77.6562 51.3125 76.0781 50.9844 74.1406 50.9844C73.7969 50.9844 73.3438 51 72.7812 51.0312C72.2188 51.0625 71.5469 51.1094 70.7656 51.1719C70.6406 51.5156 70.5781 52.0312 70.5781 52.7188V59.5625C70.5781 61.9375 70.8281 63.3281 71.3281 63.7344C71.8281 64.1719 72.6719 64.3906 73.8594 64.3906ZM105.734 66.7812C103.672 66.7812 101.734 66.375 99.9219 65.5625C98.1406 64.75 96.5625 63.6406 95.1875 62.2344C93.8438 60.8281 92.7812 59.2031 92 57.3594C91.25 55.4844 90.875 53.5 90.875 51.4062C90.875 49.1875 91.2656 47.1094 92.0469 45.1719C92.8281 43.2031 93.9219 41.4844 95.3281 40.0156C96.7344 38.5156 98.3594 37.3438 100.203 36.5C102.078 35.6562 104.094 35.2344 106.25 35.2344C108.094 35.2344 109.969 35.3281 111.875 35.5156C113.781 35.7031 115.703 36 117.641 36.4062L117.547 43.1562C117.547 43.625 117.219 43.8594 116.562 43.8594C116.25 43.8594 116.047 43.7812 115.953 43.625C115.859 43.2188 115.734 42.8125 115.578 42.4062C115.453 41.9688 115.172 41.4062 114.734 40.7188C113.984 39.625 112.906 38.7656 111.5 38.1406C110.125 37.5156 108.422 37.2031 106.391 37.2031C104.859 37.2031 103.422 37.5781 102.078 38.3281C100.734 39.0469 99.5469 40.0312 98.5156 41.2812C97.5156 42.5312 96.7344 43.9531 96.1719 45.5469C95.6094 47.1094 95.3281 48.7344 95.3281 50.4219C95.3281 53.0156 95.7656 55.3438 96.6406 57.4062C97.5156 59.5312 98.8906 61.2969 100.766 62.7031C102.672 64.0781 104.922 64.7656 107.516 64.7656C110.609 64.7656 113 63.8594 114.688 62.0469C115.188 61.5156 115.578 60.8906 115.859 60.1719C116.141 59.4531 116.359 58.8281 116.516 58.2969C116.672 57.7656 116.828 57.5 116.984 57.5C117.172 57.5 117.391 57.5312 117.641 57.5938C117.922 57.625 118.141 57.6875 118.297 57.7812L118.531 57.9219C118.531 58.1094 118.469 58.5469 118.344 59.2344C118.219 59.9219 118.062 60.6875 117.875 61.5312C117.688 62.3438 117.5 63.0625 117.312 63.6875C117.156 64.3125 117.031 64.6562 116.938 64.7188C114.625 66.0938 110.891 66.7812 105.734 66.7812Z" fill="#B0E8E6"/>
<path d="M62.5781 111.781C62.3906 111.781 62.2969 111.516 62.2969 110.984V110.422C62.2969 110.266 62.2344 110.203 62.1094 110.234C60.3906 111.203 58.7344 111.688 57.1406 111.688C55.4219 111.688 53.8594 111.266 52.4531 110.422C51.0781 109.547 49.9844 108.406 49.1719 107C48.3906 105.562 48 104 48 102.312C48 100.812 48.2812 99.375 48.8438 98C49.4375 96.625 50.2188 95.4062 51.1875 94.3438C52.1875 93.25 53.3125 92.4062 54.5625 91.8125C55.8125 91.1875 57.1094 90.875 58.4531 90.875C59.7969 90.875 60.9688 91.1406 61.9688 91.6719C62.1875 91.6719 62.2969 91.3906 62.2969 90.8281V85.7656C62.2969 84.7031 62.2031 83.7031 62.0156 82.7656C61.8906 82.2656 61.0938 82.0156 59.625 82.0156H59.2031C59.0156 82.0156 58.9219 81.8438 58.9219 81.5C58.9219 81 59.0156 80.75 59.2031 80.75C60.9531 80.5938 62.3281 80.3594 63.3281 80.0469C64.3594 79.7344 65.0938 79.4219 65.5312 79.1094L65.7188 78.9688H65.8125C65.9375 78.9688 66.0625 79.0625 66.1875 79.25C66.3125 79.4062 66.3906 79.5625 66.4219 79.7188C66.0781 80.75 65.9062 82.1094 65.9062 83.7969V104.891C65.9062 106.359 66 107.547 66.1875 108.453C66.2812 108.766 66.5469 108.969 66.9844 109.062C67.4531 109.125 67.9375 109.188 68.4375 109.25L68.8594 109.297C68.9531 109.328 69 109.516 69 109.859C69 110.328 68.9062 110.562 68.7188 110.562C67.6875 110.625 66.625 110.797 65.5312 111.078C64.4375 111.328 63.5938 111.531 63 111.688L62.5781 111.781ZM58.9219 109.391C59.9844 109.391 60.8125 109.156 61.4062 108.688C62 108.188 62.2969 107.531 62.2969 106.719V95.5625C62.2969 94.9062 61.9375 94.2969 61.2188 93.7344C60.5312 93.1406 59.4062 92.8438 57.8438 92.8438C56.6562 92.8438 55.625 93.2188 54.75 93.9688C53.875 94.7188 53.2031 95.7188 52.7344 96.9688C52.2656 98.1875 52.0312 99.5156 52.0312 100.953C52.0312 102.453 52.2969 103.844 52.8281 105.125C53.3906 106.406 54.1875 107.438 55.2188 108.219C56.25 109 57.4844 109.391 58.9219 109.391ZM80.7188 111.781C79 111.781 77.4219 111.328 75.9844 110.422C74.5469 109.516 73.3906 108.312 72.5156 106.812C71.6719 105.281 71.25 103.578 71.25 101.703C71.25 99.5156 71.6562 97.625 72.4688 96.0312C73.2812 94.4375 74.3906 93.2188 75.7969 92.375C77.2031 91.5 78.7812 91.0625 80.5312 91.0625C81.9688 91.0625 83.2344 91.3438 84.3281 91.9062C85.4219 92.4375 86.2656 93.125 86.8594 93.9688C87.4219 94.8438 87.8281 95.7344 88.0781 96.6406C88.3594 97.5156 88.5 98.3906 88.5 99.2656C88.5 99.8906 88.4062 100.281 88.2188 100.438C88.0312 100.562 87.6719 100.625 87.1406 100.625H75.3281C75.0781 100.625 74.9531 100.703 74.9531 100.859C74.9531 102.172 75.2188 103.438 75.75 104.656C76.2812 105.844 77.0625 106.828 78.0938 107.609C79.125 108.391 80.3906 108.781 81.8906 108.781C83.2031 108.781 84.2969 108.594 85.1719 108.219C86.0781 107.812 86.7344 107.453 87.1406 107.141L87.4688 106.906C87.6562 106.906 87.75 107.109 87.75 107.516C87.75 107.734 87.6562 108.016 87.4688 108.359C86.8438 109.234 85.9219 110.031 84.7031 110.75C83.4844 111.438 82.1562 111.781 80.7188 111.781ZM75.3281 98.6562H84.4688C84.625 98.6562 84.7031 98.5 84.7031 98.1875C84.7031 97.5 84.5156 96.75 84.1406 95.9375C83.7969 95.0938 83.2656 94.3594 82.5469 93.7344C81.8281 93.1094 80.9219 92.7969 79.8281 92.7969C78.8281 92.7969 77.9688 93.1406 77.25 93.8281C76.5312 94.4844 75.9844 95.25 75.6094 96.125C75.2344 96.9688 75.0469 97.7031 75.0469 98.3281C75.0469 98.5469 75.1406 98.6562 75.3281 98.6562ZM91.0781 111.641C90.9844 111.547 90.9219 111.297 90.8906 110.891C90.8906 110.484 90.9531 110.281 91.0781 110.281C91.3281 110.281 91.6562 110.234 92.0625 110.141C92.4688 110.047 92.8438 109.922 93.1875 109.766C93.5625 109.609 93.7656 109.469 93.7969 109.344C93.9531 108.719 94.0625 108.062 94.125 107.375C94.2188 106.688 94.2656 105.953 94.2656 105.172V94.3906C94.2656 94.1719 94.1875 94.0625 94.0312 94.0625H91.5469C91.4531 94.0625 91.4062 93.9688 91.4062 93.7812C91.4062 93.5 91.6406 93.1094 92.1094 92.6094C92.6094 92.1094 93.1562 91.8594 93.75 91.8594H94.0312C94.1875 91.8594 94.2656 91.7656 94.2656 91.5781V90.9688C94.2656 89.3125 94.5312 87.7656 95.0625 86.3281C95.5938 84.8906 96.2969 83.6094 97.1719 82.4844C98.0781 81.3594 99.0781 80.4844 100.172 79.8594C101.297 79.2344 102.438 78.9219 103.594 78.9219C105.875 78.9219 107.359 79.5312 108.047 80.75C108.047 82.7188 107.484 83.7031 106.359 83.7031C106.016 83.7031 105.703 83.5625 105.422 83.2812C105.141 82.9688 104.844 82.625 104.531 82.25C104.25 81.8438 103.906 81.5 103.5 81.2188C103.125 80.9062 102.672 80.75 102.141 80.75C101.234 80.75 100.453 81.1406 99.7969 81.9219C99.1406 82.7031 98.6406 83.7344 98.2969 85.0156C97.9844 86.2969 97.8281 87.7031 97.8281 89.2344V91.625C97.8281 91.7812 97.9062 91.8594 98.0625 91.8594H103.266C103.422 91.8594 103.5 91.9688 103.5 92.1875C103.5 92.6875 103.312 93.3125 102.938 94.0625H98.1094C97.9219 94.0625 97.8281 94.1562 97.8281 94.3438V105.172C97.8281 106.859 97.9688 108.25 98.25 109.344C98.3125 109.469 98.5156 109.609 98.8594 109.766C99.2031 109.922 99.5781 110.047 99.9844 110.141C100.391 110.234 100.688 110.281 100.875 110.281C100.969 110.281 101.031 110.469 101.062 110.844C101.094 111.219 101.078 111.484 101.016 111.641L96 111.406L91.0781 111.641Z" fill="#B0E8E6"/>
</svg>
