<svg width="150" height="150" viewBox="0 0 150 150" fill="none" xmlns="http://www.w3.org/2000/svg">
<path d="M33.816 69.676C33.112 69.26 32.664 68.812 32.472 68.332C32.28 67.884 32.184 67.5 32.184 67.18C32.184 66.284 32.504 65.068 33.144 63.532C33.816 61.996 34.696 60.252 35.784 58.3C36.904 56.316 38.136 54.268 39.48 52.156C38.296 52.06 37.288 51.996 36.456 51.964C35.624 51.932 34.904 51.916 34.296 51.916H32.616C32.968 50.988 33.576 50.348 34.44 49.996C35.336 49.612 36.392 49.42 37.608 49.42C38.152 49.42 38.712 49.452 39.288 49.516C39.864 49.58 40.456 49.66 41.064 49.756C42.696 47.292 44.36 44.908 46.056 42.604C47.784 40.268 49.384 38.204 50.856 36.412C52.36 34.588 53.608 33.212 54.6 32.284C55.528 31.388 56.296 30.94 56.904 30.94C57.256 30.94 57.64 31.084 58.056 31.372C58.504 31.628 58.968 31.996 59.448 32.476C59.128 32.732 58.712 33.42 58.2 34.54C57.72 35.628 57.192 37.004 56.616 38.668C56.072 40.332 55.528 42.156 54.984 44.14C54.44 46.124 53.928 48.156 53.448 50.236C53 52.284 52.632 54.236 52.344 56.092C52.088 57.948 51.96 59.58 51.96 60.988C51.96 62.204 52.088 63.148 52.344 63.82C52.632 64.492 53.096 64.828 53.736 64.828C54.568 64.828 55.512 64.252 56.568 63.1C57.624 61.948 58.776 60.156 60.024 57.724L60.504 58.204C59.544 60.764 58.312 62.86 56.808 64.492C55.336 66.124 53.8 66.94 52.2 66.94C50.888 66.94 49.928 66.364 49.32 65.212C48.744 64.028 48.456 62.46 48.456 60.508C48.456 59.484 48.52 58.364 48.648 57.148C48.808 55.932 49.016 54.668 49.272 53.356C47.864 53.132 46.568 52.956 45.384 52.828C44.232 52.668 43.16 52.524 42.168 52.396C40.664 55.18 39.192 58.044 37.752 60.988C36.344 63.932 35.032 66.828 33.816 69.676ZM49.608 51.676C50.088 49.564 50.648 47.436 51.288 45.292C51.928 43.116 52.6 41.052 53.304 39.1C54.04 37.148 54.728 35.436 55.368 33.964C54.376 34.572 53.224 35.66 51.912 37.228C50.632 38.764 49.272 40.652 47.832 42.892C46.392 45.1 44.92 47.532 43.416 50.188C44.504 50.412 45.576 50.668 46.632 50.956C47.72 51.212 48.712 51.452 49.608 51.676ZM67.6463 69.676C65.8863 69.676 64.5583 69.372 63.6623 68.764C62.7663 68.188 62.3183 67.212 62.3183 65.836C62.3183 65.74 62.3983 65.692 62.5583 65.692C62.7823 65.692 63.1823 65.772 63.7583 65.932C64.3343 66.092 65.4383 66.172 67.0703 66.172C69.8223 66.172 72.3663 65.868 74.7023 65.26C77.0383 64.62 79.0543 63.756 80.7503 62.668C82.4783 61.58 83.8063 60.364 84.7343 59.02C85.6943 57.644 86.1743 56.236 86.1743 54.796C86.1743 53.484 85.8063 52.428 85.0703 51.628C84.3343 50.828 83.3583 50.22 82.1423 49.804C80.9583 49.388 79.6623 49.116 78.2543 48.988C76.8463 48.828 75.4543 48.748 74.0782 48.748C73.4703 48.748 72.8463 48.764 72.2063 48.796C71.5983 48.796 71.0223 48.796 70.4783 48.796C69.7423 51.388 69.0223 53.996 68.3183 56.62C67.6143 59.244 66.8943 61.788 66.1583 64.252C65.3583 64.252 64.6863 64.028 64.1423 63.58C63.5983 63.132 63.3263 62.588 63.3263 61.948C63.3263 61.564 63.4063 61.116 63.5663 60.604C63.7263 60.092 63.8703 59.628 63.9983 59.212C64.1903 58.572 64.5263 57.5 65.0063 55.996C65.4863 54.492 66.0623 52.732 66.7343 50.716C67.4383 48.7 68.2063 46.588 69.0383 44.38C69.8703 42.172 70.7183 40.012 71.5823 37.9C72.4783 35.788 73.3423 33.916 74.1743 32.284C72.8303 32.508 71.6943 32.828 70.7663 33.244C69.8703 33.66 69.1663 34.044 68.6543 34.396C68.1423 34.716 67.7743 34.876 67.5503 34.876C67.3903 34.876 67.1823 34.812 66.9263 34.684C66.7023 34.524 66.4943 34.348 66.3023 34.156C66.1103 33.932 66.0143 33.74 66.0143 33.58C67.6143 32.908 69.2783 32.3 71.0063 31.756C72.7663 31.212 74.8943 30.94 77.3903 30.94C78.4463 30.94 79.6143 31.036 80.8943 31.228C82.1743 31.388 83.3903 31.74 84.5423 32.284C85.6943 32.796 86.6383 33.564 87.3743 34.588C88.1103 35.58 88.4783 36.908 88.4783 38.572C88.4783 40.14 88.1423 41.484 87.4703 42.604C86.7983 43.692 85.9183 44.604 84.8303 45.34C83.7423 46.044 82.5583 46.604 81.2783 47.02C79.9983 47.436 78.7343 47.74 77.4863 47.932C79.8543 48.06 81.7583 48.396 83.1983 48.94C84.6703 49.484 85.7743 50.14 86.5103 50.908C87.2783 51.644 87.7903 52.428 88.0463 53.26C88.3023 54.092 88.4303 54.892 88.4303 55.66C88.4303 57.516 87.9503 59.196 86.9903 60.7C86.0303 62.204 84.7663 63.516 83.1983 64.636C81.6303 65.756 79.9183 66.684 78.0623 67.42C76.2063 68.188 74.3663 68.748 72.5423 69.1C70.7183 69.484 69.0863 69.676 67.6463 69.676ZM70.7663 47.692C72.5263 47.628 74.2703 47.436 75.9983 47.116C77.7583 46.764 79.3583 46.22 80.7983 45.484C82.2383 44.748 83.3903 43.788 84.2543 42.604C85.1503 41.42 85.5983 39.948 85.5983 38.188C85.5983 36.524 85.1983 35.244 84.3983 34.348C83.6303 33.452 82.6223 32.828 81.3743 32.476C80.1583 32.124 78.8623 31.948 77.4863 31.948C77.3263 31.948 77.1663 31.948 77.0063 31.948C76.8783 31.948 76.7343 31.964 76.5743 31.996C75.4223 34.236 74.3663 36.7 73.4062 39.388C72.4783 42.076 71.5983 44.844 70.7663 47.692ZM101.121 69.676C98.8494 69.676 97.0094 69.1 95.6014 67.948C94.2254 66.828 93.2174 65.372 92.5774 63.58C91.9694 61.788 91.6654 59.916 91.6654 57.964C91.6654 55.436 92.0494 52.892 92.8174 50.332C93.5854 47.772 94.6254 45.34 95.9374 43.036C97.2814 40.7 98.8014 38.636 100.497 36.844C102.193 35.02 103.969 33.596 105.825 32.572C107.713 31.516 109.569 30.988 111.393 30.988C112.705 30.988 113.761 31.308 114.561 31.948C115.393 32.556 115.809 33.612 115.809 35.116C115.809 36.044 115.649 37.1 115.329 38.284C115.009 39.436 114.577 40.556 114.033 41.644C113.489 42.7 112.881 43.58 112.209 44.284C111.569 44.988 110.913 45.34 110.241 45.34C109.985 45.34 109.713 45.26 109.425 45.1C109.169 44.94 108.945 44.652 108.753 44.236C109.233 43.692 109.761 43.02 110.337 42.22C110.945 41.388 111.521 40.524 112.065 39.628C112.609 38.7 113.041 37.804 113.361 36.94C113.713 36.044 113.889 35.26 113.889 34.588C113.889 33.948 113.697 33.436 113.313 33.052C112.961 32.636 112.369 32.428 111.537 32.428C110.161 32.428 108.721 32.988 107.217 34.108C105.745 35.228 104.305 36.732 102.897 38.62C101.521 40.476 100.273 42.556 99.1534 44.86C98.0334 47.164 97.1374 49.516 96.4654 51.916C95.8254 54.316 95.5054 56.604 95.5054 58.78C95.5054 60.348 95.7294 61.852 96.1774 63.292C96.6254 64.7 97.3454 65.836 98.3374 66.7C99.3614 67.596 100.673 68.044 102.273 68.044C103.969 68.044 105.649 67.564 107.313 66.604C109.009 65.644 110.561 64.38 111.969 62.812C113.377 61.244 114.497 59.548 115.329 57.724L116.001 58.204C114.945 60.284 113.665 62.204 112.161 63.964C110.657 65.692 108.977 67.068 107.121 68.092C105.265 69.148 103.265 69.676 101.121 69.676Z" fill="#B0E8E6"/>
<path d="M51.0195 115.94C50.4755 115.94 49.9155 115.796 49.3395 115.508C48.7955 115.252 48.3475 114.82 47.9955 114.212C47.6115 113.604 47.4195 112.836 47.4195 111.908C47.4195 110.852 47.6755 109.668 48.1875 108.356C48.6995 107.044 49.3875 105.748 50.2515 104.468C51.1155 103.156 52.1075 101.956 53.2275 100.868C54.3475 99.748 55.5155 98.868 56.7315 98.228C57.9475 97.556 59.1475 97.22 60.3315 97.22C61.0035 97.22 61.5155 97.348 61.8675 97.604C62.2515 97.828 62.4435 98.196 62.4435 98.708C62.4435 98.836 62.4275 98.948 62.3955 99.044C62.3955 99.14 62.3795 99.252 62.3475 99.38C62.1875 99.124 61.9475 98.948 61.6275 98.852C61.3395 98.724 60.9715 98.66 60.5235 98.66C59.4995 98.66 58.4915 98.98 57.4995 99.62C56.5395 100.228 55.6435 101.044 54.8115 102.068C54.0115 103.06 53.3075 104.132 52.6995 105.284C52.0915 106.436 51.6115 107.556 51.2595 108.644C50.9395 109.7 50.7795 110.596 50.7795 111.332C50.7795 112.036 50.9395 112.596 51.2595 113.012C51.5795 113.428 51.9955 113.636 52.5075 113.636C53.3715 113.636 54.4115 113.092 55.6275 112.004C56.8755 110.916 58.1395 109.38 59.4195 107.396C60.6995 105.412 61.8515 103.092 62.8755 100.436C63.5795 98.58 64.2995 96.692 65.0355 94.772C65.8035 92.852 66.5715 91.012 67.3395 89.252C68.1075 87.46 68.8435 85.876 69.5475 84.5C70.2835 83.092 70.9715 81.988 71.6115 81.188C72.2835 80.356 72.8755 79.94 73.3875 79.94C73.6435 79.94 73.8675 80.052 74.0595 80.276C74.2515 80.468 74.3475 80.724 74.3475 81.044C74.3475 81.556 74.0755 82.436 73.5315 83.684C73.0195 84.9 72.3315 86.372 71.4675 88.1C70.6355 89.796 69.7555 91.652 68.8275 93.668C67.8995 95.684 67.0035 97.732 66.1395 99.812C65.3075 101.892 64.6195 103.908 64.0755 105.86C63.5635 107.78 63.3075 109.54 63.3075 111.14C63.3075 112.036 63.3555 112.708 63.4515 113.156C63.5475 113.604 63.8675 113.828 64.4115 113.828C65.0835 113.828 65.8675 113.54 66.7635 112.964C67.6595 112.388 68.5555 111.572 69.4515 110.516C70.3475 109.46 71.1315 108.196 71.8035 106.724L72.3795 107.156C71.7715 108.788 70.9395 110.26 69.8835 111.572C68.8275 112.852 67.6915 113.86 66.4755 114.596C65.2915 115.364 64.1555 115.748 63.0675 115.748C61.8835 115.748 61.0515 115.348 60.5715 114.548C60.1235 113.78 59.8995 112.98 59.8995 112.148C59.8995 111.604 59.9795 110.884 60.1395 109.988C60.2995 109.092 60.5235 108.1 60.8115 107.012C59.7875 108.708 58.6995 110.244 57.5475 111.62C56.3955 112.964 55.2595 114.02 54.1395 114.788C53.0515 115.556 52.0115 115.94 51.0195 115.94ZM76.059 116.612C74.107 116.612 72.635 116.068 71.643 114.98C70.683 113.924 70.203 112.612 70.203 111.044C70.203 109.604 70.555 108.084 71.259 106.484C71.995 104.884 72.955 103.38 74.139 101.972C75.355 100.564 76.683 99.428 78.123 98.564C79.563 97.668 80.987 97.22 82.395 97.22C83.131 97.22 83.803 97.412 84.411 97.796C85.051 98.18 85.371 98.964 85.371 100.148C85.371 101.364 85.003 102.516 84.267 103.604C83.563 104.66 82.619 105.604 81.435 106.436C80.283 107.268 79.003 107.956 77.595 108.5C76.219 109.012 74.843 109.332 73.467 109.46C73.403 109.78 73.355 110.084 73.323 110.372C73.291 110.66 73.275 110.932 73.275 111.188C73.275 111.668 73.323 112.148 73.419 112.628C73.547 113.108 73.755 113.556 74.043 113.972C74.331 114.356 74.715 114.66 75.195 114.884C75.707 115.108 76.331 115.22 77.067 115.22C78.443 115.22 79.803 114.836 81.147 114.068C82.491 113.268 83.739 112.228 84.891 110.948C86.043 109.668 87.019 108.26 87.819 106.724L88.395 107.156C87.531 109.076 86.427 110.74 85.083 112.148C83.771 113.556 82.331 114.644 80.763 115.412C79.227 116.212 77.659 116.612 76.059 116.612ZM73.707 108.548C74.571 108.26 75.547 107.844 76.635 107.3C77.723 106.724 78.763 106.052 79.755 105.284C80.779 104.516 81.611 103.668 82.251 102.74C82.923 101.812 83.259 100.836 83.259 99.812C83.259 99.46 83.195 99.188 83.067 98.996C82.939 98.804 82.667 98.708 82.251 98.708C81.483 98.708 80.667 99.012 79.803 99.62C78.939 100.196 78.107 100.964 77.307 101.924C76.507 102.884 75.787 103.94 75.147 105.092C74.507 106.244 74.027 107.396 73.707 108.548ZM86.2354 127.94C85.9154 127.94 85.5474 127.828 85.1314 127.604C84.7154 127.412 84.3634 127.012 84.0754 126.404C83.7554 125.796 83.5954 124.9 83.5954 123.716C83.5954 122.308 83.8354 120.468 84.3154 118.196C84.7954 115.956 85.4514 113.476 86.2834 110.756C87.1154 108.036 88.0754 105.252 89.1634 102.404C90.2514 99.524 91.4194 96.756 92.6674 94.1C93.9474 91.412 95.2434 89.012 96.5554 86.9C97.8994 84.756 99.2114 83.06 100.491 81.812C101.771 80.564 102.987 79.94 104.139 79.94C104.811 79.94 105.243 80.148 105.435 80.564C105.659 80.98 105.771 81.476 105.771 82.052C105.771 83.428 105.387 84.932 104.619 86.564C103.883 88.196 102.891 89.844 101.643 91.508C100.395 93.14 99.0194 94.708 97.5154 96.212C96.0114 97.684 94.4914 98.948 92.9554 100.004C92.7954 100.388 92.6354 100.788 92.4754 101.204C92.3474 101.588 92.2034 101.988 92.0434 102.404C92.3954 102.468 92.6674 102.66 92.8594 102.98C93.0834 103.268 93.2114 103.588 93.2434 103.94C93.4674 105.38 93.7074 106.676 93.9634 107.828C94.2194 108.948 94.6034 109.828 95.1154 110.468C95.6594 111.108 96.4274 111.428 97.4194 111.428C98.5394 111.428 99.4834 111.028 100.251 110.228C101.019 109.396 101.851 108.228 102.747 106.724L103.467 107.204C102.667 109.124 101.643 110.516 100.395 111.38C99.1794 112.244 98.1074 112.676 97.1794 112.676C96.6034 112.676 95.9954 112.532 95.3554 112.244C94.7474 111.956 94.1714 111.572 93.6274 111.092C93.6274 113.108 93.4034 115.108 92.9554 117.092C92.5394 119.076 91.9794 120.884 91.2754 122.516C90.5714 124.148 89.7874 125.46 88.9234 126.452C88.0594 127.444 87.1634 127.94 86.2354 127.94ZM87.4834 125.636C87.8354 125.636 88.2354 125.316 88.6834 124.676C89.1314 124.036 89.5634 123.188 89.9794 122.132C90.4274 121.108 90.8274 119.972 91.1794 118.724C91.5314 117.476 91.8194 116.228 92.0434 114.98C92.2674 113.732 92.3794 112.612 92.3794 111.62C92.3794 110.628 92.2514 109.732 91.9954 108.932C91.7394 108.1 91.3234 107.124 90.7474 106.004C89.9474 108.404 89.2274 110.724 88.5874 112.964C87.9474 115.204 87.4514 117.22 87.0994 119.012C86.7474 120.804 86.5714 122.244 86.5714 123.332C86.5714 124.868 86.8754 125.636 87.4834 125.636ZM93.7234 98.036C95.8034 96.116 97.5954 94.196 99.0994 92.276C100.635 90.324 101.819 88.596 102.651 87.092C103.483 85.556 103.899 84.468 103.899 83.828C103.899 83.38 103.675 83.156 103.227 83.156C102.395 83.156 101.451 83.844 100.395 85.22C99.3394 86.564 98.2354 88.356 97.0834 90.596C95.9314 92.836 94.8114 95.316 93.7234 98.036Z" fill="#B0E8E6"/>
</svg>
