<svg width="150" height="150" viewBox="0 0 150 150" fill="none" xmlns="http://www.w3.org/2000/svg">
<path d="M55.416 66.5L52.92 58.196H40.392L37.896 66.5H33.288L43.896 33.428H49.656L60.216 66.5H55.416ZM41.496 54.5H51.816L46.68 37.22L41.496 54.5ZM79.9076 49.028C82.1796 49.412 84.0196 50.212 85.4276 51.428C86.8356 52.644 87.5396 54.532 87.5396 57.092C87.5396 63.364 83.1716 66.5 74.4356 66.5H65.3156V33.428H73.1396C77.3316 33.428 80.5316 34.116 82.7396 35.492C84.9796 36.868 86.0996 38.964 86.0996 41.78C86.0996 43.7 85.4916 45.3 84.2756 46.58C83.0916 47.86 81.6356 48.676 79.9076 49.028ZM69.8756 37.028V47.444H74.8676C76.7876 47.444 78.3556 46.98 79.5716 46.052C80.8196 45.124 81.4436 43.812 81.4436 42.116C81.4436 40.196 80.7876 38.868 79.4756 38.132C78.1956 37.396 76.2436 37.028 73.6196 37.028H69.8756ZM74.4356 62.852C77.1236 62.852 79.1716 62.452 80.5796 61.652C82.0196 60.852 82.7396 59.332 82.7396 57.092C82.7396 54.916 82.0516 53.348 80.6756 52.388C79.2996 51.428 77.5076 50.948 75.2996 50.948H69.8756V62.852H74.4356ZM106.087 32.852C108.071 32.852 109.735 33.108 111.079 33.62C112.455 34.132 113.847 34.964 115.255 36.116L112.759 39.044C110.743 37.412 108.615 36.596 106.375 36.596C103.623 36.596 101.399 37.652 99.7028 39.764C98.0388 41.876 97.2068 45.268 97.2068 49.94C97.2068 54.484 98.0388 57.844 99.7028 60.02C101.367 62.164 103.575 63.236 106.327 63.236C107.735 63.236 108.967 62.996 110.023 62.516C111.079 62.036 112.199 61.364 113.383 60.5L115.639 63.38C114.615 64.436 113.303 65.316 111.703 66.02C110.103 66.724 108.263 67.076 106.183 67.076C103.495 67.076 101.095 66.42 98.9828 65.108C96.9028 63.764 95.2708 61.812 94.0868 59.252C92.9348 56.66 92.3588 53.556 92.3588 49.94C92.3588 46.324 92.9668 43.236 94.1828 40.676C95.3988 38.084 97.0468 36.132 99.1268 34.82C101.207 33.508 103.527 32.852 106.087 32.852Z" fill="#B0E8E6"/>
<path d="M63.6831 80.028V115.5H59.7951L59.3631 111.996C58.5311 113.276 57.4911 114.284 56.2431 115.02C54.9951 115.724 53.6031 116.076 52.0671 116.076C49.0591 116.076 46.7071 114.892 45.0111 112.524C43.3471 110.156 42.5151 106.972 42.5151 102.972C42.5151 100.38 42.9151 98.076 43.7151 96.06C44.5151 94.044 45.6671 92.476 47.1711 91.356C48.6751 90.204 50.4351 89.628 52.4511 89.628C55.0431 89.628 57.3151 90.668 59.2671 92.748V79.5L63.6831 80.028ZM53.0271 112.572C54.3711 112.572 55.5231 112.268 56.4831 111.66C57.4431 111.02 58.3711 110.076 59.2671 108.828V96.444C58.4351 95.356 57.5391 94.54 56.5791 93.996C55.6511 93.42 54.5951 93.132 53.4111 93.132C51.4591 93.132 49.9391 93.948 48.8511 95.58C47.7951 97.212 47.2671 99.644 47.2671 102.876C47.2671 106.14 47.7631 108.572 48.7551 110.172C49.7471 111.772 51.1711 112.572 53.0271 112.572ZM91.8906 102.108C91.8906 102.844 91.8586 103.596 91.7946 104.364H75.6666C75.8586 107.148 76.5626 109.196 77.7786 110.508C78.9946 111.82 80.5626 112.476 82.4826 112.476C83.6986 112.476 84.8186 112.3 85.8426 111.948C86.8666 111.596 87.9386 111.036 89.0586 110.268L90.9786 112.908C88.2906 115.02 85.3466 116.076 82.1466 116.076C78.6266 116.076 75.8746 114.924 73.8906 112.62C71.9386 110.316 70.9626 107.148 70.9626 103.116C70.9626 100.492 71.3786 98.172 72.2106 96.156C73.0746 94.108 74.2906 92.508 75.8586 91.356C77.4586 90.204 79.3306 89.628 81.4746 89.628C84.8346 89.628 87.4106 90.732 89.2026 92.94C90.9946 95.148 91.8906 98.204 91.8906 102.108ZM87.5226 100.812C87.5226 98.316 87.0266 96.412 86.0346 95.1C85.0426 93.788 83.5546 93.132 81.5706 93.132C77.9546 93.132 75.9866 95.788 75.6666 101.1H87.5226V100.812ZM107.535 83.052C106.191 83.052 105.231 83.356 104.655 83.964C104.079 84.54 103.791 85.452 103.791 86.7V90.204H109.935L109.455 93.612H103.791V115.5H99.3748V93.612H94.8628V90.204H99.3748V86.748C99.3748 84.572 100.063 82.828 101.439 81.516C102.847 80.172 104.799 79.5 107.295 79.5C108.447 79.5 109.471 79.612 110.367 79.836C111.295 80.028 112.287 80.348 113.343 80.796L111.951 84.012C110.511 83.372 109.039 83.052 107.535 83.052Z" fill="#B0E8E6"/>
</svg>
