<svg width="150" height="150" viewBox="0 0 150 150" fill="none" xmlns="http://www.w3.org/2000/svg">
<path d="M41.16 68.072C39.752 68.072 38.76 67.512 38.184 66.392C37.608 65.304 37.32 64.024 37.32 62.552C37.32 61.24 37.496 59.944 37.848 58.664C38.232 57.384 38.68 56.408 39.192 55.736C38.328 56.76 37.256 57.928 35.976 59.24C34.696 60.552 33.288 61.816 31.752 63.032C30.216 64.248 28.632 65.256 27 66.056C25.368 66.856 23.752 67.256 22.152 67.256C21.672 67.256 21.192 67.208 20.712 67.112C20.264 67.048 19.816 66.92 19.368 66.728C18.184 66.248 17.304 65.4 16.728 64.184C16.152 62.936 15.864 61.448 15.864 59.72C15.864 57.896 16.168 55.944 16.776 53.864C17.416 51.752 18.344 49.608 19.56 47.432C20.136 46.376 20.776 45.336 21.48 44.312C22.216 43.256 23 42.264 23.832 41.336C22.84 40.888 21.928 40.392 21.096 39.848C20.264 39.272 19.56 38.648 18.984 37.976C18.6 37.528 18.312 37 18.12 36.392C17.928 35.784 17.832 35.192 17.832 34.616C17.832 33.592 18.072 32.92 18.552 32.6C18.712 32.344 18.904 32.216 19.128 32.216C19.416 32.216 19.56 32.392 19.56 32.744C19.56 32.968 19.496 33.208 19.368 33.464C19.208 33.88 19.128 34.264 19.128 34.616C19.128 35.128 19.256 35.608 19.512 36.056C19.768 36.472 20.072 36.872 20.424 37.256C21.448 38.472 22.856 39.48 24.648 40.28C26.696 38.04 28.936 35.976 31.368 34.088C33.832 32.168 36.472 30.632 39.288 29.48C42.104 28.328 45.064 27.752 48.168 27.752C50.76 27.752 52.792 28.328 54.264 29.48C55.736 30.6 56.472 32.056 56.472 33.848C56.472 34.712 56.216 35.656 55.704 36.68C55.192 37.672 54.36 38.648 53.208 39.608C52.056 40.536 50.52 41.352 48.6 42.056C46.712 42.728 44.36 43.192 41.544 43.448C40.552 43.544 39.656 43.624 38.856 43.688C38.088 43.72 37.256 43.736 36.36 43.736C34.696 43.736 33.08 43.624 31.512 43.4C29.976 43.176 28.44 42.824 26.904 42.344C26.328 43.144 25.592 44.232 24.696 45.608C23.832 46.984 22.968 48.456 22.104 50.024C21.24 51.592 20.52 53.08 19.944 54.488C19.432 55.832 19.048 57.064 18.792 58.184C18.536 59.272 18.408 60.248 18.408 61.112C18.408 62.68 18.776 63.864 19.512 64.664C20.248 65.432 21.24 65.816 22.488 65.816C23.704 65.816 25.08 65.464 26.616 64.76C28.184 64.056 29.816 63 31.512 61.592C33.208 60.184 34.856 58.6 36.456 56.84C38.088 55.08 39.576 53.288 40.92 51.464C42.264 49.64 43.352 47.96 44.184 46.424C44.728 45.4 45.256 44.68 45.768 44.264C46.28 43.816 46.712 43.592 47.064 43.592C47.416 43.592 47.688 43.736 47.88 44.024C48.072 44.28 48.168 44.632 48.168 45.08C48.168 45.976 47.768 46.872 46.968 47.768C46.072 48.76 45.192 49.976 44.328 51.416C43.464 52.856 42.696 54.376 42.024 55.976C41.352 57.576 40.872 59.144 40.584 60.68C40.488 61.192 40.424 61.672 40.392 62.12C40.36 62.568 40.344 62.968 40.344 63.32C40.344 64.504 40.52 65.352 40.872 65.864C41.256 66.376 41.752 66.632 42.36 66.632C43.096 66.632 43.944 66.296 44.904 65.624C45.864 64.952 46.792 64.056 47.688 62.936C48.456 61.912 49.192 60.824 49.896 59.672C50.632 58.52 51.304 57.32 51.912 56.072C52.008 55.848 52.136 55.688 52.296 55.592C52.488 55.464 52.616 55.4 52.68 55.4C52.84 55.4 52.92 55.496 52.92 55.688C52.92 55.816 52.872 56.008 52.776 56.264C52.488 56.904 52.104 57.672 51.624 58.568C51.144 59.464 50.616 60.392 50.04 61.352C49.464 62.28 48.872 63.144 48.264 63.944C47.432 65.032 46.376 65.992 45.096 66.824C43.848 67.656 42.536 68.072 41.16 68.072ZM35.928 42.584C37.592 42.584 39.448 42.488 41.496 42.296C44.152 42.072 46.456 41.544 48.408 40.712C50.36 39.88 51.864 38.824 52.92 37.544C53.976 36.264 54.504 34.84 54.504 33.272C54.504 31.864 53.912 30.792 52.728 30.056C51.576 29.32 50.104 28.952 48.312 28.952C45.336 28.952 42.616 29.544 40.152 30.728C37.72 31.88 35.48 33.4 33.432 35.288C31.416 37.176 29.496 39.208 27.672 41.384C30.104 42.184 32.856 42.584 35.928 42.584ZM57.9034 66.872C57.1994 66.872 56.4794 66.824 55.7434 66.728C53.7274 66.472 52.2394 65.88 51.2794 64.952C50.3514 64.024 49.8874 63.016 49.8874 61.928C49.8874 60.744 50.4154 59.672 51.4714 58.712C52.5274 57.72 54.0154 57.224 55.9354 57.224C57.2154 57.224 58.6074 57.48 60.1114 57.992C60.9434 58.28 61.9354 58.76 63.0874 59.432C64.2394 60.104 65.5674 60.808 67.0714 61.544C68.6714 60.008 70.1274 58.104 71.4394 55.832C72.7834 53.56 74.1114 51.128 75.4234 48.536C76.7674 45.912 78.2074 43.288 79.7434 40.664C81.3114 38.04 83.1194 35.576 85.1674 33.272L87.9514 30.152C86.7674 29.96 85.5354 29.816 84.2554 29.72C82.9754 29.592 81.6474 29.528 80.2714 29.528C78.5434 29.528 76.7674 29.624 74.9434 29.816C73.1194 29.976 71.2954 30.248 69.4714 30.632C66.4634 31.272 63.9194 32.296 61.8394 33.704C59.7594 35.112 58.1754 36.648 57.0874 38.312C56.0314 39.944 55.5034 41.48 55.5034 42.92C55.5034 43.912 55.7754 44.808 56.3194 45.608C56.8954 46.376 57.7434 46.936 58.8634 47.288C59.5674 47.512 60.2874 47.624 61.0234 47.624C62.1114 47.624 63.0714 47.4 63.9034 46.952C64.7354 46.504 65.4394 45.96 66.0154 45.32C66.5914 44.648 67.0074 44.008 67.2634 43.4C67.5514 42.792 67.6794 42.344 67.6474 42.056C67.6474 41.832 67.8074 41.72 68.1274 41.72C68.4474 41.72 68.6074 41.96 68.6074 42.44V42.488C68.6074 43.8 68.2074 44.936 67.4074 45.896C66.6074 46.856 65.5994 47.592 64.3834 48.104C63.1994 48.616 61.9994 48.872 60.7834 48.872C60.0154 48.872 59.2154 48.744 58.3834 48.488C56.6554 47.88 55.3754 47 54.5434 45.848C53.7114 44.664 53.2954 43.368 53.2954 41.96C53.2954 40.648 53.6474 39.304 54.3514 37.928C55.0874 36.52 56.1594 35.192 57.5674 33.944C58.9754 32.664 60.7194 31.56 62.7994 30.632C64.9114 29.704 67.3434 29.048 70.0954 28.664C71.5674 28.44 73.0234 28.28 74.4634 28.184C75.9034 28.088 77.2954 28.04 78.6394 28.04C80.4954 28.04 82.3034 28.136 84.0634 28.328C85.8554 28.488 87.5354 28.744 89.1034 29.096C89.5514 28.712 89.9994 28.376 90.4474 28.088C90.9274 27.8 91.3594 27.576 91.7434 27.416C91.9674 27.32 92.1594 27.256 92.3194 27.224C92.4794 27.192 92.6074 27.176 92.7034 27.176C92.8954 27.176 92.9914 27.24 92.9914 27.368C92.9914 27.528 92.7514 27.784 92.2714 28.136C91.9514 28.36 91.6474 28.616 91.3594 28.904C91.0714 29.16 90.8954 29.352 90.8314 29.48C94.0954 30.312 96.7354 31.464 98.7514 32.936C100.799 34.376 101.823 36.088 101.823 38.072C101.823 39.096 101.487 40.216 100.815 41.432C100.111 42.616 99.1354 43.576 97.8874 44.312C96.6394 45.016 95.3114 45.544 93.9034 45.896C92.4954 46.216 91.1834 46.408 89.9674 46.472C91.0234 46.792 92.1754 47.272 93.4234 47.912C94.7034 48.52 95.8714 49.272 96.9274 50.168C98.0154 51.064 98.7354 52.12 99.0874 53.336C99.3114 54.104 99.4234 54.888 99.4234 55.688C99.4234 57.384 98.9274 58.92 97.9354 60.296C96.9754 61.672 95.6794 62.856 94.0474 63.848C92.4474 64.808 90.6874 65.544 88.7674 66.056C86.8474 66.6 84.9434 66.872 83.0554 66.872C82.3514 66.872 81.6314 66.824 80.8954 66.728C77.8234 66.344 75.2794 65.864 73.2634 65.288C71.2794 64.712 69.5354 64.072 68.0314 63.368C64.9274 65.704 61.5514 66.872 57.9034 66.872ZM82.3834 65.48C84.3674 65.48 86.1754 65.176 87.8074 64.568C89.4394 63.96 90.8474 63.16 92.0314 62.168C93.2474 61.176 94.1754 60.072 94.8154 58.856C95.4874 57.64 95.8234 56.44 95.8234 55.256C95.8234 54.136 95.4874 53.048 94.8154 51.992C94.1434 50.936 93.0874 50.056 91.6474 49.352C90.3994 48.744 89.1034 48.248 87.7594 47.864C86.4474 47.448 85.3114 47.096 84.3514 46.808C83.3914 46.488 82.8314 46.168 82.6714 45.848C82.6714 45.464 82.8314 45.208 83.1514 45.08C83.5034 44.92 83.9514 44.84 84.4954 44.84C85.1354 44.84 85.9034 44.888 86.7994 44.984C87.6954 45.08 88.6394 45.128 89.6314 45.128C90.6554 45.128 91.6954 44.904 92.7514 44.456C93.8394 43.976 94.8314 43.352 95.7274 42.584C96.6234 41.784 97.3434 40.92 97.8874 39.992C98.4634 39.032 98.7514 38.056 98.7514 37.064C98.7514 36.168 98.4474 35.288 97.8394 34.424C97.2314 33.56 96.2234 32.808 94.8154 32.168C93.4074 31.528 91.8874 31.016 90.2554 30.632C88.6554 32.84 87.0554 35.32 85.4554 38.072C83.8554 40.792 82.2554 43.56 80.6554 46.376C79.0554 49.16 77.4394 51.8 75.8074 54.296C74.1754 56.792 72.5434 58.936 70.9114 60.728C70.5274 61.144 70.2234 61.464 69.9994 61.688C69.7754 61.88 69.4714 62.152 69.0874 62.504C70.5914 63.112 72.3034 63.688 74.2234 64.232C76.1434 64.776 78.3354 65.16 80.7994 65.384C81.0554 65.416 81.3114 65.432 81.5674 65.432C81.8554 65.464 82.1274 65.48 82.3834 65.48ZM56.9434 65.384C58.7354 65.48 60.3674 65.272 61.8394 64.76C63.3434 64.216 64.7354 63.464 66.0154 62.504C64.8954 61.96 63.7434 61.4 62.5594 60.824C61.4074 60.216 60.1754 59.672 58.8634 59.192C57.9354 58.872 57.0874 58.712 56.3194 58.712C55.1354 58.712 54.2394 59.032 53.6314 59.672C53.0234 60.28 52.7194 60.984 52.7194 61.784C52.7194 62.616 53.0714 63.416 53.7754 64.184C54.4794 64.92 55.5354 65.32 56.9434 65.384ZM118.041 69.944C116.857 69.944 115.641 69.816 114.393 69.56C113.177 69.304 111.961 68.92 110.745 68.408C108.761 67.544 107.161 66.408 105.945 65C104.729 63.624 103.849 62.056 103.305 60.296C102.761 58.536 102.489 56.696 102.489 54.776C102.489 52.76 102.729 50.744 103.209 48.728C103.721 46.712 104.425 44.792 105.321 42.968C106.217 41.112 107.225 39.464 108.345 38.024C108.121 37.192 107.929 36.232 107.769 35.144C107.641 34.056 107.577 32.952 107.577 31.832C107.577 30.136 107.769 28.52 108.153 26.984C108.281 26.536 108.505 26.312 108.825 26.312C109.049 26.312 109.161 26.472 109.161 26.792C109.161 26.984 109.145 27.128 109.113 27.224C109.049 27.704 108.985 28.2 108.921 28.712C108.889 29.224 108.873 29.752 108.873 30.296C108.873 31.384 108.937 32.456 109.065 33.512C109.193 34.568 109.337 35.544 109.497 36.44C111.833 33.4 114.505 31.144 117.513 29.672C120.553 28.168 123.737 27.416 127.065 27.416C127.929 27.416 128.761 27.464 129.561 27.56C132.121 27.848 134.217 28.488 135.849 29.48C137.481 30.44 138.681 31.624 139.449 33.032C140.249 34.44 140.649 35.928 140.649 37.496C140.649 39.032 140.297 40.552 139.593 42.056C138.889 43.56 137.865 44.936 136.521 46.184C135.177 47.4 133.529 48.392 131.577 49.16C129.657 49.896 127.481 50.264 125.049 50.264C124.505 50.264 123.961 50.248 123.417 50.216C122.873 50.184 122.281 50.12 121.641 50.024C119.113 49.64 116.809 48.824 114.729 47.576C112.649 46.328 110.969 44.408 109.689 41.816C109.433 42.136 109.081 42.792 108.633 43.784C108.185 44.744 107.737 45.912 107.289 47.288C106.841 48.664 106.457 50.168 106.137 51.8C105.817 53.4 105.657 55.016 105.657 56.648C105.657 58.216 105.865 59.736 106.281 61.208C106.697 62.648 107.417 63.912 108.441 65C109.465 66.12 110.857 66.952 112.617 67.496C113.481 67.752 114.377 67.944 115.305 68.072C116.233 68.2 117.177 68.264 118.137 68.264C119.993 68.264 121.833 68.024 123.657 67.544C125.481 67.064 127.177 66.36 128.745 65.432C130.825 64.216 132.425 62.808 133.545 61.208C134.665 59.576 135.705 57.752 136.665 55.736C136.793 55.416 136.969 55.256 137.193 55.256C137.353 55.256 137.433 55.368 137.433 55.592C137.433 55.752 137.369 55.944 137.241 56.168C136.569 57.576 135.897 58.872 135.225 60.056C134.553 61.208 133.769 62.28 132.873 63.272C131.977 64.264 130.841 65.24 129.465 66.2C127.897 67.288 126.137 68.184 124.185 68.888C122.233 69.592 120.185 69.944 118.041 69.944ZM124.761 49.016C126.969 49.016 128.921 48.696 130.617 48.056C132.313 47.384 133.737 46.52 134.889 45.464C136.073 44.376 136.953 43.176 137.529 41.864C138.137 40.552 138.441 39.224 138.441 37.88C138.441 36.568 138.137 35.32 137.529 34.136C136.921 32.952 135.993 31.944 134.745 31.112C133.529 30.248 131.961 29.688 130.041 29.432C129.337 29.336 128.633 29.288 127.929 29.288C125.753 29.288 123.609 29.752 121.497 30.68C119.417 31.576 117.449 32.856 115.593 34.52C113.737 36.152 112.089 38.072 110.649 40.28C111.769 43.064 113.337 45.112 115.353 46.424C117.401 47.736 119.737 48.552 122.361 48.872C123.193 48.968 123.993 49.016 124.761 49.016Z" fill="#B0E8E6"/>
<path d="M68.7726 107C67.9086 107 67.1886 106.568 66.6126 105.704C66.4526 105.448 66.3086 105.112 66.1806 104.696C66.0526 104.28 65.9886 103.816 65.9886 103.304C65.9886 103.016 66.0046 102.728 66.0366 102.44C66.0686 102.12 66.1326 101.8 66.2286 101.48C65.7806 102.184 65.2526 102.968 64.6446 103.832C64.0686 104.664 63.3966 105.4 62.6286 106.04C61.8926 106.648 61.0606 106.952 60.1326 106.952C59.8126 106.952 59.4766 106.904 59.1246 106.808C58.2606 106.552 57.6366 106.104 57.2526 105.464C56.9006 104.824 56.7246 104.056 56.7246 103.16C56.7246 102.168 56.9166 101.08 57.3006 99.896C57.7166 98.712 58.2286 97.56 58.8366 96.44C59.4766 95.32 60.1326 94.36 60.8046 93.56C61.7646 92.44 62.8686 91.544 64.1166 90.872C65.3646 90.2 66.6286 89.864 67.9086 89.864C69.0606 89.864 70.1486 90.168 71.1726 90.776C71.6526 89.88 72.1646 88.888 72.7086 87.8C73.2526 86.68 73.7966 85.576 74.3406 84.488C74.8846 83.4 75.3646 82.408 75.7806 81.512C76.1966 80.584 76.5166 79.88 76.7406 79.4C77.2206 78.28 77.6686 77.576 78.0846 77.288C78.5326 76.968 79.0606 76.808 79.6686 76.808C80.0206 76.808 80.4046 76.856 80.8206 76.952C81.2686 77.016 81.7006 77.032 82.1166 77C81.9246 77.192 81.5246 77.752 80.9166 78.68C80.3406 79.576 79.6526 80.728 78.8526 82.136C78.0526 83.544 77.1886 85.096 76.2606 86.792C75.3646 88.456 74.4686 90.152 73.5726 91.88C72.7086 93.576 71.8926 95.192 71.1246 96.728C70.3886 98.232 69.7966 99.528 69.3486 100.616C69.2206 100.872 69.0286 101.4 68.7726 102.2C68.5486 102.968 68.4366 103.64 68.4366 104.216C68.4366 104.632 68.5326 105 68.7246 105.32C68.9166 105.608 69.2366 105.752 69.6846 105.752C70.2926 105.752 70.9006 105.448 71.5086 104.84C72.1486 104.2 72.7566 103.432 73.3326 102.536C73.9086 101.608 74.4206 100.712 74.8686 99.848C75.3166 98.952 75.6526 98.248 75.8766 97.736C76.0366 97.384 76.2286 97.208 76.4526 97.208C76.6446 97.208 76.7406 97.352 76.7406 97.64C76.7406 97.672 76.7406 97.736 76.7406 97.832C76.7406 97.896 76.7086 97.976 76.6446 98.072C76.3566 98.744 75.9566 99.576 75.4446 100.568C74.9646 101.56 74.3886 102.552 73.7166 103.544C73.0446 104.536 72.2926 105.368 71.4606 106.04C70.6286 106.68 69.7326 107 68.7726 107ZM60.4686 105.56C60.9166 105.56 61.4766 105.32 62.1486 104.84C62.8206 104.328 63.5406 103.528 64.3086 102.44C65.2046 101.16 66.2286 99.56 67.3806 97.64C68.5326 95.72 69.6686 93.688 70.7886 91.544C70.3726 91.16 69.8926 90.968 69.3486 90.968C68.4526 90.968 67.4446 91.384 66.3246 92.216C65.2366 93.048 64.1646 94.104 63.1086 95.384C62.0846 96.664 61.2206 97.96 60.5166 99.272C60.0366 100.168 59.6846 100.984 59.4606 101.72C59.2686 102.456 59.1726 103.096 59.1726 103.64C59.1726 104.92 59.6046 105.56 60.4686 105.56ZM79.2913 107.192C78.1073 107.192 77.0353 106.808 76.0753 106.04C75.1473 105.272 74.6833 104.104 74.6833 102.536C74.6833 101.096 75.0353 99.56 75.7393 97.928C76.4433 96.264 77.3393 94.808 78.4273 93.56C79.3553 92.472 80.3953 91.576 81.5473 90.872C82.6993 90.168 83.7873 89.816 84.8113 89.816C85.5153 89.816 86.1233 90.008 86.6353 90.392C87.1793 90.808 87.4513 91.4 87.4513 92.168C87.4513 92.968 87.1473 93.848 86.5393 94.808C85.9313 95.768 85.0673 96.664 83.9473 97.496C83.4673 97.848 82.8593 98.184 82.1233 98.504C81.3873 98.824 80.6513 99.096 79.9153 99.32C79.1793 99.512 78.5713 99.608 78.0913 99.608C77.9313 99.992 77.7713 100.504 77.6113 101.144C77.4833 101.784 77.4193 102.44 77.4193 103.112C77.4193 103.912 77.5793 104.632 77.8993 105.272C78.2193 105.912 78.8113 106.232 79.6753 106.232C80.7313 106.232 81.6913 105.928 82.5553 105.32C83.4193 104.712 84.1873 103.96 84.8593 103.064C85.5313 102.136 86.0913 101.208 86.5393 100.28C87.0193 99.352 87.4033 98.568 87.6913 97.928C87.8833 97.48 88.1393 97.256 88.4593 97.256C88.6193 97.256 88.6993 97.336 88.6993 97.496C88.6993 97.624 88.6513 97.784 88.5553 97.976C88.1073 98.936 87.6273 99.96 87.1153 101.048C86.6033 102.104 85.9953 103.112 85.2913 104.072C84.5873 105 83.7393 105.752 82.7473 106.328C81.7873 106.904 80.6353 107.192 79.2913 107.192ZM78.4273 98.744C78.8753 98.744 79.6273 98.584 80.6833 98.264C81.7393 97.912 82.6993 97.368 83.5633 96.632C84.3953 95.896 85.0353 95.096 85.4833 94.232C85.9313 93.336 86.1553 92.584 86.1553 91.976C86.1553 91.272 85.8993 90.92 85.3873 90.92C85.0033 90.92 84.4753 91.176 83.8033 91.688C83.1313 92.2 82.2993 93.064 81.3073 94.28C80.6993 95.048 80.1233 95.88 79.5793 96.776C79.0353 97.672 78.6513 98.328 78.4273 98.744ZM82.0776 123.848C81.3736 123.848 80.7656 123.672 80.2536 123.32C79.7096 122.968 79.4376 122.28 79.4376 121.256C79.4376 119.656 79.9176 117.48 80.8776 114.728C81.8376 111.976 83.0056 108.952 84.3816 105.656C83.9976 105.016 83.8056 104.344 83.8056 103.64C83.8056 102.52 84.1256 101.752 84.7656 101.336C85.3096 100.888 85.8856 100.712 86.4936 100.808C87.6456 98.216 88.8136 95.672 89.9976 93.176C91.1816 90.648 92.3176 88.264 93.4056 86.024C94.5256 83.784 95.5336 81.816 96.4296 80.12C96.9736 79.064 97.5336 78.248 98.1096 77.672C98.7176 77.096 99.5016 76.808 100.462 76.808C100.75 76.808 101.086 76.872 101.47 77C101.886 77.096 102.254 77.128 102.574 77.096C101.838 77.8 100.91 78.984 99.7896 80.648C98.7016 82.28 97.5176 84.232 96.2376 86.504C94.9576 88.776 93.6456 91.24 92.3016 93.896C90.9896 96.52 89.7256 99.192 88.5096 101.912C88.7976 102.296 89.0856 102.808 89.3736 103.448C89.6936 104.088 89.9176 104.776 90.0456 105.512C90.0456 105.608 90.0616 105.72 90.0936 105.848C90.1256 105.944 90.1576 106.04 90.1896 106.136C90.9256 106.168 91.6296 105.912 92.3016 105.368C93.0056 104.824 93.6616 104.104 94.2696 103.208C94.9096 102.312 95.4856 101.368 95.9976 100.376C96.5416 99.384 97.0056 98.456 97.3896 97.592C97.4536 97.464 97.5336 97.384 97.6296 97.352C97.7576 97.288 97.8536 97.256 97.9176 97.256C98.0456 97.256 98.1416 97.32 98.2056 97.448C98.2696 97.544 98.2536 97.704 98.1576 97.928C97.7096 98.92 97.2136 99.96 96.6696 101.048C96.1256 102.104 95.5176 103.096 94.8456 104.024C94.1736 104.92 93.4536 105.656 92.6856 106.232C91.9176 106.776 91.1016 107.048 90.2376 107.048C90.2696 107.272 90.2856 107.496 90.2856 107.72C90.2856 107.976 90.2856 108.232 90.2856 108.488C90.2856 110.152 90.0776 111.88 89.6616 113.672C89.2776 115.464 88.7176 117.128 87.9816 118.664C87.2456 120.2 86.3816 121.448 85.3896 122.408C84.3976 123.368 83.2936 123.848 82.0776 123.848ZM88.8936 106.328H89.1336C89.1016 105.496 88.9576 104.776 88.7016 104.168C88.5096 103.72 88.2696 103.336 87.9816 103.016C87.7896 103.464 87.6136 103.88 87.4536 104.264C87.3256 104.616 87.1656 105.016 86.9736 105.464C87.2616 106.04 87.9016 106.328 88.8936 106.328ZM82.7976 122.552C83.1176 122.552 83.5016 122.36 83.9496 121.976C84.3976 121.624 84.8296 121.16 85.2456 120.584C86.0456 119.528 86.7496 118.232 87.3576 116.696C87.9656 115.16 88.4456 113.56 88.7976 111.896C89.1496 110.232 89.3096 108.68 89.2776 107.24C89.2136 107.24 89.1336 107.24 89.0376 107.24C88.9736 107.272 88.9096 107.288 88.8456 107.288C88.4296 107.288 87.9976 107.208 87.5496 107.048C87.1016 106.888 86.7336 106.696 86.4456 106.472C85.6136 108.616 84.8456 110.728 84.1416 112.808C83.4056 114.92 82.8456 116.776 82.4616 118.376C82.3336 118.984 82.2376 119.512 82.1736 119.96C82.1096 120.408 82.0776 120.792 82.0776 121.112C82.0776 122.072 82.3176 122.552 82.7976 122.552Z" fill="#B0E8E6"/>
</svg>
