<svg width="150" height="150" viewBox="0 0 150 150" fill="none" xmlns="http://www.w3.org/2000/svg">
<path d="M54.088 69.5L51.256 59.948H39.496L36.664 69.5H32.488L42.76 35.996H48.088L58.36 69.5H54.088ZM45.592 40.268H45.16L40.456 56.444H50.296L45.592 40.268ZM64.0053 35.996H75.3813C78.2613 35.996 80.5173 36.78 82.1493 38.348C83.7813 39.916 84.5973 42.012 84.5973 44.636C84.5973 46.652 84.1013 48.236 83.1093 49.388C82.1493 50.54 80.9013 51.356 79.3653 51.836V51.98C81.2533 52.428 82.8053 53.276 84.0212 54.524C85.2373 55.74 85.8453 57.516 85.8453 59.852C85.8453 61.196 85.6213 62.46 85.1733 63.644C84.7253 64.828 84.0853 65.852 83.2533 66.716C82.4533 67.58 81.4933 68.268 80.3733 68.78C79.2853 69.26 78.1013 69.5 76.8213 69.5H64.0053V35.996ZM75.6213 65.996C77.4773 65.996 78.9333 65.58 79.9893 64.748C81.0453 63.916 81.5733 62.636 81.5733 60.908V58.94C81.5733 57.244 81.0453 55.98 79.9893 55.148C78.9333 54.284 77.4773 53.852 75.6213 53.852H68.0373V65.996H75.6213ZM74.9493 50.54C76.6453 50.54 77.9733 50.172 78.9333 49.436C79.8933 48.668 80.3733 47.516 80.3733 45.98V44.108C80.3733 42.572 79.8933 41.42 78.9333 40.652C77.9733 39.884 76.6453 39.5 74.9493 39.5H68.0373V50.54H74.9493ZM104.067 70.076C99.9705 70.076 96.9145 68.588 94.8985 65.612C92.9145 62.636 91.9225 58.348 91.9225 52.748C91.9225 47.148 92.9145 42.86 94.8985 39.884C96.9145 36.908 99.9705 35.42 104.067 35.42C105.603 35.42 106.931 35.628 108.051 36.044C109.171 36.46 110.131 37.02 110.931 37.724C111.731 38.428 112.403 39.228 112.947 40.124C113.491 40.988 113.971 41.868 114.387 42.764L110.931 44.348C110.643 43.612 110.307 42.924 109.923 42.284C109.539 41.612 109.075 41.036 108.531 40.556C108.019 40.044 107.395 39.644 106.659 39.356C105.955 39.068 105.091 38.924 104.067 38.924C101.411 38.924 99.4265 39.932 98.1145 41.948C96.8345 43.964 96.1945 46.652 96.1945 50.012V55.484C96.1945 58.844 96.8345 61.532 98.1145 63.548C99.4265 65.564 101.411 66.572 104.067 66.572C105.091 66.572 105.955 66.428 106.659 66.14C107.395 65.852 108.019 65.468 108.531 64.988C109.075 64.476 109.539 63.9 109.923 63.26C110.307 62.588 110.643 61.884 110.931 61.148L114.387 62.732C113.971 63.66 113.491 64.556 112.947 65.42C112.403 66.284 111.731 67.068 110.931 67.772C110.131 68.476 109.171 69.036 108.051 69.452C106.931 69.868 105.603 70.076 104.067 70.076Z" fill="#B0E8E6"/>
<path d="M52.2281 112.468H52.0361C50.4361 115.54 47.8921 117.076 44.4041 117.076C41.3641 117.076 38.9801 115.94 37.2521 113.668C35.5561 111.396 34.7081 108.212 34.7081 104.116C34.7081 100.02 35.5561 96.836 37.2521 94.564C38.9801 92.292 41.3641 91.156 44.4041 91.156C47.8921 91.156 50.4361 92.692 52.0361 95.764H52.2281V80.98H56.0681V116.5H52.2281V112.468ZM45.8921 113.668C46.7561 113.668 47.5721 113.556 48.3401 113.332C49.1081 113.108 49.7801 112.788 50.3561 112.372C50.9321 111.924 51.3801 111.396 51.7001 110.788C52.0521 110.148 52.2281 109.412 52.2281 108.58V99.652C52.2281 98.82 52.0521 98.1 51.7001 97.492C51.3801 96.852 50.9321 96.324 50.3561 95.908C49.7801 95.46 49.1081 95.124 48.3401 94.9C47.5721 94.676 46.7561 94.564 45.8921 94.564C43.6521 94.564 41.9081 95.252 40.6601 96.628C39.4441 97.972 38.8361 99.764 38.8361 102.004V106.228C38.8361 108.468 39.4441 110.276 40.6601 111.652C41.9081 112.996 43.6521 113.668 45.8921 113.668ZM75.4414 117.076C73.6494 117.076 72.0334 116.772 70.5934 116.164C69.1854 115.556 67.9694 114.692 66.9454 113.572C65.9534 112.42 65.1854 111.06 64.6414 109.492C64.0974 107.892 63.8254 106.116 63.8254 104.164C63.8254 102.18 64.0974 100.388 64.6414 98.788C65.2174 97.188 66.0014 95.828 66.9934 94.708C67.9854 93.556 69.1694 92.676 70.5454 92.068C71.9534 91.46 73.5054 91.156 75.2014 91.156C76.8654 91.156 78.3694 91.46 79.7134 92.068C81.0894 92.676 82.2574 93.524 83.2174 94.612C84.1774 95.668 84.9134 96.932 85.4254 98.404C85.9374 99.876 86.1934 101.492 86.1934 103.252V105.076H67.8574V106.228C67.8574 107.316 68.0334 108.324 68.3854 109.252C68.7374 110.18 69.2334 110.98 69.8734 111.652C70.5454 112.324 71.3454 112.852 72.2734 113.236C73.2334 113.588 74.2894 113.764 75.4414 113.764C77.1054 113.764 78.5454 113.38 79.7614 112.612C80.9774 111.844 81.9054 110.788 82.5454 109.444L85.3774 111.364C84.6414 113.028 83.4094 114.404 81.6814 115.492C79.9854 116.548 77.9054 117.076 75.4414 117.076ZM75.2014 94.324C74.1454 94.324 73.1694 94.516 72.2734 94.9C71.3774 95.284 70.5934 95.812 69.9214 96.484C69.2814 97.156 68.7694 97.956 68.3854 98.884C68.0334 99.78 67.8574 100.772 67.8574 101.86V102.196H82.0654V101.668C82.0654 100.58 81.8894 99.588 81.5374 98.692C81.2174 97.796 80.7534 97.028 80.1454 96.388C79.5694 95.716 78.8494 95.204 77.9854 94.852C77.1534 94.5 76.2254 94.324 75.2014 94.324ZM93.3746 113.236H101.727V94.996H92.8946V91.732H101.727V86.644C101.727 84.98 102.159 83.62 103.023 82.564C103.919 81.508 105.311 80.98 107.199 80.98H115.503V84.244H105.567V91.732H115.503V94.996H105.567V113.236H114.399V116.5H93.3746V113.236Z" fill="#B0E8E6"/>
</svg>
