<svg width="150" height="150" viewBox="0 0 150 150" fill="none" xmlns="http://www.w3.org/2000/svg">
<path d="M56.136 61.764H45.288L45.96 59.172H55.368L56.136 61.764ZM50.952 47.748L43.08 70.5H39.768L50.808 40.068H51.192L62.232 70.5H58.776L50.952 47.748ZM65.304 70.5V40.596H73.8C75.528 40.596 77.016 40.772 78.264 41.124C79.512 41.476 80.536 41.972 81.336 42.612C82.168 43.252 82.776 44.02 83.16 44.916C83.544 45.812 83.736 46.788 83.736 47.844C83.736 48.772 83.56 49.684 83.208 50.58C82.888 51.476 82.392 52.26 81.72 52.932C81.08 53.604 80.28 54.116 79.32 54.468C80.152 54.756 80.904 55.156 81.576 55.668C82.28 56.18 82.872 56.788 83.352 57.492C83.864 58.164 84.248 58.9 84.504 59.7C84.792 60.468 84.936 61.268 84.936 62.1C84.936 63.348 84.712 64.5 84.264 65.556C83.816 66.58 83.128 67.46 82.2 68.196C81.304 68.932 80.152 69.508 78.744 69.924C77.336 70.308 75.672 70.5 73.752 70.5H65.304ZM68.616 67.572H74.328C75.736 67.572 76.968 67.396 78.024 67.044C79.08 66.66 79.896 66.052 80.472 65.22C81.08 64.388 81.384 63.284 81.384 61.908C81.384 60.724 81.128 59.684 80.616 58.788C80.104 57.86 79.272 57.14 78.12 56.628C77 56.084 75.464 55.812 73.512 55.812H68.616V67.572ZM68.616 52.98H73.32C75.08 52.98 76.472 52.772 77.496 52.356C78.52 51.94 79.256 51.38 79.704 50.676C80.152 49.94 80.376 49.124 80.376 48.228C80.376 47.556 80.248 46.932 79.992 46.356C79.768 45.78 79.4 45.284 78.888 44.868C78.376 44.42 77.704 44.068 76.872 43.812C76.04 43.556 75.032 43.428 73.848 43.428H68.616V52.98ZM100.68 70.98C99.048 70.98 97.528 70.692 96.12 70.116C94.712 69.508 93.464 68.58 92.376 67.332C91.32 66.084 90.488 64.5 89.88 62.58C89.272 60.66 88.968 58.372 88.968 55.716C88.968 53.38 89.192 51.348 89.64 49.62C90.088 47.86 90.696 46.388 91.464 45.204C92.232 44.02 93.112 43.076 94.104 42.372C95.096 41.668 96.136 41.156 97.224 40.836C98.312 40.516 99.4 40.356 100.488 40.356C102.664 40.356 104.52 40.9 106.056 41.988C107.592 43.044 108.744 44.468 109.512 46.26L106.632 47.604L106.2 47.796L106.056 47.46C106.152 47.204 106.152 46.98 106.056 46.788C105.96 46.564 105.784 46.228 105.528 45.78C104.728 44.692 103.896 43.972 103.032 43.62C102.2 43.236 101.32 43.044 100.392 43.044C99.144 43.044 98.008 43.332 96.984 43.908C95.992 44.452 95.128 45.268 94.392 46.356C93.688 47.412 93.144 48.708 92.76 50.244C92.408 51.78 92.232 53.524 92.232 55.476C92.232 57.364 92.44 59.076 92.856 60.612C93.304 62.148 93.896 63.476 94.632 64.596C95.4 65.716 96.28 66.58 97.272 67.188C98.296 67.796 99.384 68.1 100.536 68.1C101.336 68.1 102.104 67.956 102.84 67.668C103.608 67.38 104.312 66.964 104.952 66.42C105.592 65.844 106.136 65.188 106.584 64.452L109.08 66.084C108.12 67.684 106.968 68.9 105.624 69.732C104.28 70.564 102.632 70.98 100.68 70.98Z" fill="#B0E8E6"/>
<path d="M50.232 111.98C49.112 111.98 48.008 111.74 46.92 111.26C45.864 110.78 44.888 110.06 43.992 109.1C43.128 108.14 42.44 106.924 41.928 105.452C41.416 103.98 41.16 102.268 41.16 100.316C41.16 98.3 41.432 96.588 41.976 95.18C42.52 93.74 43.24 92.572 44.136 91.676C45.032 90.748 46.024 90.076 47.112 89.66C48.2 89.212 49.304 88.988 50.424 88.988C51.448 88.988 52.36 89.148 53.16 89.468C53.992 89.788 54.712 90.236 55.32 90.812C55.96 91.356 56.456 92.012 56.808 92.78V79.58H59.976H60.456V79.916C60.264 80.108 60.136 80.316 60.072 80.54C60.04 80.764 60.024 81.148 60.024 81.692L60.072 108.092C60.072 108.668 60.088 109.244 60.12 109.82C60.184 110.364 60.328 110.924 60.552 111.5H57.144C56.984 111.116 56.872 110.732 56.808 110.348C56.744 109.964 56.696 109.596 56.664 109.244C56.664 108.86 56.664 108.476 56.664 108.092C56.216 108.86 55.672 109.548 55.032 110.156C54.392 110.732 53.672 111.18 52.872 111.5C52.072 111.82 51.192 111.98 50.232 111.98ZM50.76 108.956C51.816 108.956 52.712 108.748 53.448 108.332C54.184 107.884 54.776 107.276 55.224 106.508C55.672 105.708 55.992 104.796 56.184 103.772C56.408 102.716 56.52 101.596 56.52 100.412C56.52 98.78 56.312 97.324 55.896 96.044C55.48 94.732 54.824 93.708 53.928 92.972C53.032 92.204 51.88 91.82 50.472 91.82C49.512 91.82 48.648 92.012 47.88 92.396C47.144 92.748 46.52 93.276 46.008 93.98C45.528 94.684 45.16 95.532 44.904 96.524C44.648 97.484 44.52 98.572 44.52 99.788C44.52 101.612 44.76 103.212 45.24 104.588C45.72 105.964 46.424 107.036 47.352 107.804C48.28 108.572 49.416 108.956 50.76 108.956ZM76.056 111.98C74.456 111.98 73 111.74 71.688 111.26C70.376 110.748 69.24 110.012 68.28 109.052C67.352 108.092 66.632 106.908 66.12 105.5C65.608 104.06 65.352 102.428 65.352 100.604C65.352 98.748 65.608 97.1 66.12 95.66C66.664 94.22 67.384 93.02 68.28 92.06C69.208 91.068 70.28 90.316 71.496 89.804C72.744 89.292 74.056 89.036 75.432 89.036C76.68 89.036 77.848 89.244 78.936 89.66C80.024 90.076 80.968 90.716 81.768 91.58C82.568 92.412 83.192 93.484 83.64 94.796C84.12 96.108 84.36 97.66 84.36 99.452C84.36 99.708 84.344 99.98 84.312 100.268C84.312 100.524 84.296 100.78 84.264 101.036H68.664C68.728 102.444 68.968 103.676 69.384 104.732C69.8 105.756 70.344 106.604 71.016 107.276C71.688 107.916 72.456 108.396 73.32 108.716C74.216 109.036 75.16 109.196 76.152 109.196C76.92 109.196 77.64 109.116 78.312 108.956C78.984 108.764 79.608 108.492 80.184 108.14C80.792 107.756 81.336 107.292 81.816 106.748L83.736 108.62C83.128 109.356 82.424 109.98 81.624 110.492C80.856 111.004 80.008 111.372 79.08 111.596C78.152 111.852 77.144 111.98 76.056 111.98ZM68.808 98.348H80.856C80.856 97.324 80.712 96.412 80.424 95.612C80.168 94.78 79.784 94.076 79.272 93.5C78.792 92.892 78.2 92.444 77.496 92.156C76.824 91.836 76.056 91.676 75.192 91.676C74.424 91.676 73.688 91.804 72.984 92.06C72.312 92.316 71.688 92.732 71.112 93.308C70.536 93.852 70.04 94.54 69.624 95.372C69.24 96.204 68.968 97.196 68.808 98.348ZM94.776 92.3H90.024V89.564H94.776V87.74C94.776 85.788 95.112 84.188 95.784 82.94C96.488 81.692 97.448 80.78 98.664 80.204C99.88 79.596 101.272 79.292 102.84 79.292C104.216 79.292 105.496 79.548 106.68 80.06C107.896 80.54 108.904 81.292 109.704 82.316L107.88 84.86L107.592 85.244L107.304 85.052C107.272 84.796 107.208 84.54 107.112 84.284C107.016 84.028 106.792 83.708 106.44 83.324C105.928 82.876 105.416 82.556 104.904 82.364C104.392 82.172 103.736 82.076 102.936 82.076C102.008 82.076 101.176 82.268 100.44 82.652C99.704 83.004 99.128 83.596 98.712 84.428C98.296 85.228 98.088 86.332 98.088 87.74V89.564H105.288V92.3H98.088V111.5H94.776V92.3Z" fill="#B0E8E6"/>
</svg>
