<svg width="150" height="150" viewBox="0 0 150 150" fill="none" xmlns="http://www.w3.org/2000/svg">
<path d="M49.656 57.232L44.256 43.24C44.096 42.824 43.928 42.344 43.752 41.8C43.576 41.24 43.408 40.648 43.248 40.024C42.912 41.32 42.568 42.4 42.216 43.264L36.816 57.232H49.656ZM59.352 70H55.752C55.336 70 55 69.896 54.744 69.688C54.488 69.48 54.296 69.216 54.168 68.896L50.952 60.592H35.52L32.304 68.896C32.208 69.184 32.024 69.44 31.752 69.664C31.48 69.888 31.144 70 30.744 70H27.144L40.896 35.608H45.6L59.352 70ZM75.9484 66.304C77.2764 66.304 78.4204 66.152 79.3804 65.848C80.3404 65.544 81.1244 65.12 81.7324 64.576C82.3564 64.016 82.8124 63.36 83.1004 62.608C83.3884 61.84 83.5324 61 83.5324 60.088C83.5324 58.312 82.9004 56.912 81.6364 55.888C80.3724 54.848 78.4764 54.328 75.9484 54.328H68.5084V66.304H75.9484ZM68.5084 39.28V51.016H74.6524C75.9644 51.016 77.1004 50.872 78.0604 50.584C79.0364 50.296 79.8364 49.896 80.4604 49.384C81.1004 48.872 81.5724 48.256 81.8764 47.536C82.1804 46.8 82.3324 46 82.3324 45.136C82.3324 43.104 81.7244 41.624 80.5084 40.696C79.2924 39.752 77.4044 39.28 74.8444 39.28H68.5084ZM74.8444 35.608C76.9564 35.608 78.7724 35.816 80.2924 36.232C81.8284 36.648 83.0844 37.24 84.0604 38.008C85.0524 38.776 85.7804 39.72 86.2444 40.84C86.7084 41.944 86.9404 43.192 86.9404 44.584C86.9404 45.432 86.8044 46.248 86.5324 47.032C86.2764 47.8 85.8844 48.52 85.3564 49.192C84.8284 49.864 84.1564 50.472 83.3404 51.016C82.5404 51.544 81.5964 51.976 80.5084 52.312C83.0364 52.792 84.9324 53.696 86.1964 55.024C87.4764 56.336 88.1164 58.064 88.1164 60.208C88.1164 61.664 87.8444 62.992 87.3004 64.192C86.7724 65.392 85.9884 66.424 84.9484 67.288C83.9244 68.152 82.6604 68.824 81.1564 69.304C79.6524 69.768 77.9404 70 76.0204 70H63.8764V35.608H74.8444ZM119.052 62.896C119.308 62.896 119.532 63 119.724 63.208L121.572 65.2C120.164 66.832 118.452 68.104 116.436 69.016C114.436 69.928 112.012 70.384 109.164 70.384C106.7 70.384 104.46 69.96 102.444 69.112C100.428 68.248 98.7076 67.048 97.2836 65.512C95.8596 63.96 94.7556 62.104 93.9716 59.944C93.1876 57.784 92.7956 55.408 92.7956 52.816C92.7956 50.224 93.2036 47.848 94.0196 45.688C94.8356 43.528 95.9796 41.672 97.4516 40.12C98.9396 38.568 100.716 37.368 102.78 36.52C104.844 35.656 107.124 35.224 109.62 35.224C112.068 35.224 114.228 35.616 116.1 36.4C117.972 37.184 119.62 38.248 121.044 39.592L119.508 41.728C119.412 41.888 119.284 42.024 119.124 42.136C118.98 42.232 118.78 42.28 118.524 42.28C118.236 42.28 117.884 42.128 117.468 41.824C117.052 41.504 116.508 41.152 115.836 40.768C115.164 40.384 114.324 40.04 113.316 39.736C112.308 39.416 111.068 39.256 109.596 39.256C107.82 39.256 106.196 39.568 104.724 40.192C103.252 40.8 101.98 41.688 100.908 42.856C99.8516 44.024 99.0276 45.448 98.4356 47.128C97.8436 48.808 97.5476 50.704 97.5476 52.816C97.5476 54.96 97.8516 56.872 98.4596 58.552C99.0836 60.232 99.9236 61.656 100.98 62.824C102.052 63.976 103.308 64.856 104.748 65.464C106.204 66.072 107.772 66.376 109.452 66.376C110.476 66.376 111.396 66.32 112.212 66.208C113.044 66.08 113.804 65.888 114.492 65.632C115.196 65.376 115.844 65.056 116.436 64.672C117.044 64.272 117.644 63.8 118.236 63.256C118.508 63.016 118.78 62.896 119.052 62.896Z" fill="#B0E8E6"/>
<path d="M59.8178 99.472C59.0178 98.4 58.1538 97.656 57.2258 97.24C56.2978 96.808 55.2578 96.592 54.1058 96.592C51.8498 96.592 50.1138 97.4 48.8978 99.016C47.6818 100.632 47.0738 102.936 47.0738 105.928C47.0738 107.512 47.2098 108.872 47.4818 110.008C47.7538 111.128 48.1538 112.056 48.6818 112.792C49.2098 113.512 49.8578 114.04 50.6258 114.376C51.3938 114.712 52.2658 114.88 53.2418 114.88C54.6498 114.88 55.8738 114.56 56.9138 113.92C57.9698 113.28 58.9378 112.376 59.8178 111.208V99.472ZM64.0898 82.648V118H61.5458C60.9378 118 60.5538 117.704 60.3938 117.112L60.0098 114.16C58.9698 115.408 57.7858 116.416 56.4578 117.184C55.1298 117.952 53.5938 118.336 51.8498 118.336C50.4578 118.336 49.1938 118.072 48.0578 117.544C46.9218 117 45.9538 116.208 45.1538 115.168C44.3538 114.128 43.7378 112.832 43.3058 111.28C42.8738 109.728 42.6578 107.944 42.6578 105.928C42.6578 104.136 42.8978 102.472 43.3778 100.936C43.8578 99.384 44.5458 98.04 45.4418 96.904C46.3378 95.768 47.4338 94.88 48.7298 94.24C50.0418 93.584 51.5138 93.256 53.1458 93.256C54.6338 93.256 55.9058 93.512 56.9618 94.024C58.0338 94.52 58.9858 95.216 59.8178 96.112V82.648H64.0898ZM87.1091 103.192C87.1091 102.2 86.9651 101.296 86.6771 100.48C86.4051 99.648 85.9971 98.936 85.4531 98.344C84.9251 97.736 84.2771 97.272 83.5091 96.952C82.7411 96.616 81.8691 96.448 80.8931 96.448C78.8451 96.448 77.2211 97.048 76.0211 98.248C74.8371 99.432 74.1011 101.08 73.8131 103.192H87.1091ZM90.5651 114.592C90.0371 115.232 89.4051 115.792 88.6691 116.272C87.9331 116.736 87.1411 117.12 86.2931 117.424C85.4611 117.728 84.5971 117.952 83.7011 118.096C82.8051 118.256 81.9171 118.336 81.0371 118.336C79.3571 118.336 77.8051 118.056 76.3811 117.496C74.9731 116.92 73.7491 116.088 72.7091 115C71.6851 113.896 70.8851 112.536 70.3091 110.92C69.7331 109.304 69.4451 107.448 69.4451 105.352C69.4451 103.656 69.7011 102.072 70.2131 100.6C70.7411 99.128 71.4931 97.856 72.4691 96.784C73.4451 95.696 74.6371 94.848 76.0451 94.24C77.4531 93.616 79.0371 93.304 80.7971 93.304C82.2531 93.304 83.5971 93.552 84.8291 94.048C86.0771 94.528 87.1491 95.232 88.0451 96.16C88.9571 97.072 89.6691 98.208 90.1811 99.568C90.6931 100.912 90.9491 102.448 90.9491 104.176C90.9491 104.848 90.8771 105.296 90.7331 105.52C90.5891 105.744 90.3171 105.856 89.9171 105.856H73.6691C73.7171 107.392 73.9251 108.728 74.2931 109.864C74.6771 111 75.2051 111.952 75.8771 112.72C76.5491 113.472 77.3491 114.04 78.2771 114.424C79.2051 114.792 80.2451 114.976 81.3971 114.976C82.4691 114.976 83.3891 114.856 84.1571 114.616C84.9411 114.36 85.6131 114.088 86.1731 113.8C86.7331 113.512 87.1971 113.248 87.5651 113.008C87.9491 112.752 88.2771 112.624 88.5491 112.624C88.9011 112.624 89.1731 112.76 89.3651 113.032L90.5651 114.592ZM97.5461 118V97.336L94.8581 97.024C94.5221 96.944 94.2421 96.824 94.0181 96.664C93.8101 96.488 93.7061 96.24 93.7061 95.92V94.168H97.5461V91.816C97.5461 90.424 97.7381 89.192 98.1221 88.12C98.5221 87.032 99.0821 86.12 99.8021 85.384C100.538 84.632 101.418 84.064 102.442 83.68C103.466 83.296 104.618 83.104 105.898 83.104C106.986 83.104 107.986 83.264 108.898 83.584L108.802 85.72C108.77 86.104 108.554 86.312 108.154 86.344C107.77 86.376 107.25 86.392 106.594 86.392C105.858 86.392 105.186 86.488 104.578 86.68C103.986 86.872 103.474 87.184 103.042 87.616C102.61 88.048 102.274 88.616 102.034 89.32C101.81 90.024 101.698 90.896 101.698 91.936V94.168H108.706V97.264H101.842V118H97.5461Z" fill="#B0E8E6"/>
</svg>
