<svg width="150" height="150" viewBox="0 0 150 150" fill="none" xmlns="http://www.w3.org/2000/svg">
<path d="M41.464 74.972C40.28 74.972 39.24 74.876 38.344 74.684C37.448 74.492 36.664 74.028 35.992 73.292C35.352 72.556 35.032 71.42 35.032 69.884C35.032 67.74 35.672 64.86 36.952 61.244C38.264 57.628 39.976 53.996 42.088 50.348C40.488 50.444 39.224 50.684 38.296 51.068C37.368 51.452 36.76 52.044 36.472 52.844C36.6 52.844 36.728 53.004 36.856 53.324C37.016 53.644 37.096 53.98 37.096 54.332C37.096 54.908 36.84 55.372 36.328 55.724C35.816 56.044 35.176 56.204 34.408 56.204C33.512 56.204 32.792 55.964 32.248 55.484C31.704 55.004 31.432 54.316 31.432 53.42C31.432 52.332 31.848 51.34 32.68 50.444C33.544 49.548 34.728 48.844 36.232 48.332C37.736 47.788 39.4 47.516 41.224 47.516C41.896 47.516 42.728 47.564 43.72 47.66C46.344 43.5 49.112 40.108 52.024 37.484C54.968 34.828 57.768 33.5 60.424 33.5C61.96 33.5 63.224 33.724 64.216 34.172L56.68 69.5H49.768L53.464 52.076C52.28 51.532 51.192 51.132 50.2 50.876C49.208 50.62 48.152 50.444 47.032 50.348C45.208 54.284 43.704 58.316 42.52 62.444C41.368 66.54 40.792 69.82 40.792 72.284C40.792 73.5 41.016 74.396 41.464 74.972ZM56.68 36.908C55.304 37.644 53.864 39.02 52.36 41.036C50.888 43.02 49.448 45.436 48.04 48.284C50.344 48.732 52.296 49.292 53.896 49.964L56.68 36.908ZM81.6385 70.316C80.3585 70.316 79.2385 70.044 78.2785 69.5C77.3505 68.988 76.8865 68.076 76.8865 66.764C76.8865 65.932 77.0945 65.004 77.5105 63.98C78.0865 64.62 78.6145 65.068 79.0945 65.324C79.6065 65.58 80.1505 65.708 80.7265 65.708C82.3265 65.708 83.5105 64.812 84.2785 63.02C85.0785 61.228 85.4785 59.244 85.4785 57.068C85.4785 53.004 83.9585 50.972 80.9185 50.972C80.0545 50.972 79.3185 51.02 78.7105 51.116L74.7745 69.5H67.8625L74.3905 38.972L81.4945 38.012L79.2385 48.668H79.5265C80.7425 48.668 81.8785 48.284 82.9345 47.516C83.9905 46.716 84.8385 45.724 85.4785 44.54C86.1185 43.324 86.4385 42.108 86.4385 40.892C86.4385 39.42 85.9105 38.188 84.8545 37.196C83.8305 36.204 82.2465 35.708 80.1025 35.708C78.1505 35.708 76.2465 36.156 74.3905 37.052C72.5345 37.916 71.0145 39.228 69.8305 40.988C68.6785 42.748 68.1025 44.876 68.1025 47.372C68.1025 48.556 68.2145 49.388 68.4385 49.868C68.6625 50.316 68.7745 50.572 68.7745 50.636C67.0785 50.636 65.7985 50.3 64.9345 49.628C64.0705 48.924 63.6385 47.788 63.6385 46.22C63.6385 44.044 64.4545 41.98 66.0865 40.028C67.7185 38.076 69.8785 36.508 72.5665 35.324C75.2545 34.108 78.0865 33.5 81.0625 33.5C83.3025 33.5 85.1905 33.852 86.7265 34.556C88.2625 35.26 89.3985 36.188 90.1345 37.34C90.9025 38.492 91.2865 39.756 91.2865 41.132C91.2865 42.604 90.8705 44.028 90.0385 45.404C89.2065 46.78 88.0225 47.9 86.4865 48.764C88.4065 49.116 89.8305 50.012 90.7585 51.452C91.6865 52.86 92.1505 54.54 92.1505 56.492C92.1505 58.316 91.7985 60.3 91.0945 62.444C90.4225 64.588 89.2865 66.444 87.6865 68.012C86.1185 69.548 84.1025 70.316 81.6385 70.316ZM105.237 70.268C101.621 70.268 98.9645 69.356 97.2685 67.532C95.5725 65.708 94.7245 62.684 94.7245 58.46C94.7245 55.1 95.2845 51.484 96.4045 47.612C97.5565 43.74 99.3805 40.428 101.877 37.676C104.405 34.892 107.605 33.5 111.477 33.5C113.877 33.5 115.813 34.028 117.285 35.084C118.757 36.14 119.493 37.756 119.493 39.932C119.493 41.308 119.221 42.396 118.677 43.196C118.133 43.964 117.285 44.348 116.133 44.348C114.981 44.348 114.069 43.932 113.397 43.1C113.973 42.812 114.485 42.236 114.933 41.372C115.381 40.508 115.605 39.612 115.605 38.684C115.605 37.82 115.365 37.116 114.885 36.572C114.437 36.028 113.701 35.756 112.677 35.756C110.981 35.756 109.365 36.924 107.829 39.26C106.293 41.564 105.045 44.476 104.085 47.996C103.157 51.516 102.693 54.908 102.693 58.172C102.693 60.604 103.109 62.46 103.941 63.74C104.773 65.02 106.277 65.66 108.453 65.66C110.341 65.66 112.085 65.244 113.685 64.412C115.285 63.58 116.661 62.396 117.812 60.86L118.917 61.34C118.117 63.356 116.933 65.036 115.365 66.38C113.797 67.724 112.117 68.716 110.325 69.356C108.533 69.964 106.837 70.268 105.237 70.268Z" fill="#B0E8E6"/>
<path d="M52.5413 116.788C50.7173 116.788 49.1973 116.164 47.9813 114.916C46.7652 113.668 46.1572 111.716 46.1572 109.06C46.1572 106.692 46.6213 104.212 47.5493 101.62C48.5093 98.996 49.9173 96.788 51.7733 94.996C53.6613 93.172 55.9013 92.26 58.4933 92.26C59.8053 92.26 60.7813 92.484 61.4213 92.932C62.0613 93.38 62.3813 93.972 62.3813 94.708V94.9L64.7333 83.86L71.8373 82.9L66.3173 108.82C66.1893 109.3 66.1253 109.812 66.1253 110.356C66.1253 110.996 66.2693 111.46 66.5573 111.748C66.8773 112.004 67.3893 112.132 68.0933 112.132C68.9893 112.132 69.7573 111.748 70.3973 110.98C71.0693 110.212 71.5973 109.188 71.9813 107.908H73.9973C72.0453 113.636 68.8293 116.5 64.3493 116.5C63.0373 116.5 61.9653 116.148 61.1333 115.444C60.3333 114.74 59.8373 113.716 59.6453 112.372C58.8133 113.652 57.8053 114.708 56.6213 115.54C55.4693 116.372 54.1093 116.788 52.5413 116.788ZM55.6613 112.132C56.4293 112.132 57.1973 111.78 57.9653 111.076C58.7653 110.372 59.3093 109.396 59.5973 108.148V107.908L61.9493 96.916C61.6613 95.796 61.0053 95.236 59.9813 95.236C58.7013 95.236 57.5493 95.988 56.5253 97.492C55.5013 98.964 54.7013 100.756 54.1253 102.868C53.5493 104.948 53.2613 106.788 53.2613 108.388C53.2613 109.988 53.4853 111.012 53.9333 111.46C54.4133 111.908 54.9893 112.132 55.6613 112.132ZM78.864 116.788C76.496 116.788 74.656 116.18 73.344 114.964C72.032 113.716 71.376 111.78 71.376 109.156C71.376 106.948 71.808 104.516 72.672 101.86C73.536 99.204 74.944 96.916 76.896 94.996C78.848 93.044 81.328 92.068 84.336 92.068C87.856 92.068 89.616 93.604 89.616 96.676C89.616 98.468 89.104 100.116 88.08 101.62C87.056 103.124 85.696 104.34 84 105.268C82.304 106.164 80.496 106.676 78.576 106.804C78.512 107.764 78.48 108.404 78.48 108.724C78.48 110.292 78.752 111.364 79.296 111.94C79.84 112.484 80.72 112.756 81.936 112.756C83.664 112.756 85.136 112.356 86.352 111.556C87.6 110.756 88.96 109.54 90.432 107.908H92.064C88.512 113.828 84.112 116.788 78.864 116.788ZM78.96 104.5C80.144 104.436 81.264 104.02 82.32 103.252C83.408 102.484 84.272 101.508 84.912 100.324C85.584 99.14 85.92 97.892 85.92 96.58C85.92 95.268 85.52 94.612 84.72 94.612C83.568 94.612 82.432 95.62 81.312 97.636C80.224 99.652 79.44 101.94 78.96 104.5ZM86.1019 128.5C84.5979 128.5 83.2859 128.004 82.1659 127.012C81.0139 126.052 80.4379 124.82 80.4379 123.316C80.4379 121.94 80.7899 120.804 81.4939 119.908C82.1979 119.012 83.1099 118.292 84.2299 117.748C85.3499 117.236 86.8379 116.692 88.6939 116.116L94.5019 88.708C95.1419 85.636 96.2619 83.508 97.8619 82.324C99.4939 81.14 101.286 80.548 103.238 80.548C104.742 80.548 106.054 81.044 107.174 82.036C108.326 82.996 108.902 84.228 108.902 85.732C108.902 86.468 108.854 87.124 108.758 87.7H106.502C106.566 86.996 106.598 86.564 106.598 86.404C106.598 85.892 106.422 85.492 106.07 85.204C105.718 84.916 105.286 84.772 104.774 84.772C104.102 84.772 103.446 85.076 102.806 85.684C102.166 86.26 101.702 87.268 101.414 88.708L100.598 92.5H104.102L103.766 94.42H100.214L94.6939 120.34C94.0539 123.444 92.9499 125.572 91.3819 126.724C89.8139 127.908 88.0539 128.5 86.1019 128.5ZM84.9979 124.228C86.2779 124.228 87.1899 122.98 87.7339 120.484L88.3579 117.7C86.6619 118.276 85.3659 118.932 84.4699 119.668C83.5419 120.436 83.0779 121.428 83.0779 122.644C83.0779 123.028 83.2699 123.38 83.6539 123.7C84.0379 124.052 84.4859 124.228 84.9979 124.228Z" fill="#B0E8E6"/>
</svg>
