<svg width="150" height="150" viewBox="0 0 150 150" fill="none" xmlns="http://www.w3.org/2000/svg">
<path d="M27.712 68V66.416C28.672 66.416 29.408 66.16 29.92 65.648C30.432 65.136 30.848 64.432 31.168 63.536C31.52 62.64 31.92 61.6 32.368 60.416L42.256 33.488H43.408L54.112 60.8C54.368 61.472 54.656 62.336 54.976 63.392C55.296 64.448 55.424 65.344 55.36 66.08C55.904 66.048 56.448 66.016 56.992 65.984C57.536 65.952 58.08 65.92 58.624 65.888V68H47.632V66.416C48.848 66.384 49.648 66.112 50.032 65.6C50.416 65.088 50.56 64.48 50.464 63.776C50.368 63.072 50.208 62.432 49.984 61.856L48.304 57.344L35.824 57.632L34.144 62.768C33.92 63.536 33.712 64.144 33.52 64.592C33.36 65.04 33.168 65.536 32.944 66.08C33.584 66.048 34.208 66.016 34.816 65.984C35.456 65.952 36.08 65.92 36.688 65.888V68H27.712ZM36.544 55.568H47.632L44.224 46.4C43.872 45.408 43.504 44.432 43.12 43.472C42.768 42.48 42.416 41.488 42.064 40.496H41.968C41.648 41.392 41.312 42.288 40.96 43.184C40.64 44.08 40.304 44.992 39.952 45.92L36.544 55.568ZM60.6869 68V66.416C61.9029 66.384 62.7349 66.112 63.1829 65.6C63.6309 65.056 63.8709 64.336 63.9029 63.44C63.9669 62.512 63.9989 61.456 63.9989 60.272V40.112C63.9989 39.248 64.0149 38.512 64.0469 37.904C64.0789 37.264 64.1109 36.736 64.1429 36.32C63.5669 36.352 62.9909 36.384 62.4149 36.416C61.8389 36.448 61.2629 36.48 60.6869 36.512V34.4C62.4469 34.368 64.2069 34.352 65.9669 34.352C67.7589 34.32 69.6149 34.304 71.5349 34.304C75.2469 34.304 78.1429 34.96 80.2229 36.272C82.3349 37.584 83.3589 39.664 83.2949 42.512C83.2949 43.536 82.9909 44.56 82.3829 45.584C81.8069 46.608 80.9269 47.52 79.7429 48.32C78.5909 49.088 77.1349 49.632 75.3749 49.952V50.048C78.8949 50.048 81.5509 50.864 83.3429 52.496C85.1349 54.096 86.0309 56.128 86.0309 58.592C86.0309 60.544 85.5349 62.224 84.5429 63.632C83.5509 65.04 82.2069 66.128 80.5109 66.896C78.8149 67.632 76.8789 68 74.7029 68H60.6869ZM68.0309 66.08C68.5429 66.112 69.1509 66.144 69.8549 66.176C70.5909 66.176 71.2629 66.176 71.8709 66.176C72.5109 66.176 72.9269 66.176 73.1189 66.176C75.5829 66.176 77.5669 65.568 79.0709 64.352C80.6069 63.104 81.3749 61.28 81.3749 58.88C81.3749 56.928 80.9909 55.408 80.2229 54.32C79.4549 53.232 78.4469 52.464 77.1989 52.016C75.9509 51.568 74.5909 51.344 73.1189 51.344C72.1589 51.344 71.2789 51.36 70.4789 51.392C69.7109 51.392 68.9429 51.424 68.1749 51.488V62.336C68.1749 63.2 68.1589 63.936 68.1269 64.544C68.1269 65.152 68.0949 65.664 68.0309 66.08ZM68.1749 49.616L71.6789 49.52C73.5029 49.488 74.9429 49.12 75.9989 48.416C77.0549 47.68 77.8069 46.768 78.2549 45.68C78.7349 44.592 78.9589 43.456 78.9269 42.272C78.8949 40.544 78.4949 39.232 77.7269 38.336C76.9909 37.44 76.0789 36.832 74.9909 36.512C73.9029 36.192 72.8309 36.032 71.7749 36.032C70.7189 36.032 69.9349 36.176 69.4229 36.464C68.9109 36.752 68.5749 37.232 68.4149 37.904C68.2549 38.576 68.1749 39.504 68.1749 40.688V49.616ZM117.09 45.104C116.77 42.096 115.714 39.76 113.922 38.096C112.162 36.432 109.89 35.6 107.106 35.6C105.41 35.6 103.81 35.968 102.306 36.704C100.834 37.408 99.5383 38.432 98.4183 39.776C97.2983 41.12 96.4183 42.736 95.7783 44.624C95.1383 46.512 94.8183 48.64 94.8183 51.008C94.8183 54.016 95.3943 56.672 96.5463 58.976C97.6983 61.28 99.2503 63.072 101.202 64.352C103.154 65.632 105.314 66.272 107.682 66.272C109.762 66.272 111.81 65.808 113.826 64.88C115.842 63.92 117.49 62.544 118.77 60.752L120.018 61.76C118.642 63.648 117.154 65.104 115.554 66.128C113.954 67.152 112.354 67.84 110.754 68.192C109.186 68.576 107.746 68.768 106.434 68.768C104.034 68.768 101.826 68.336 99.8103 67.472C97.8263 66.608 96.0983 65.408 94.6263 63.872C93.1863 62.304 92.0663 60.496 91.2663 58.448C90.4983 56.368 90.1143 54.128 90.1143 51.728C90.1143 49.456 90.4503 47.248 91.1223 45.104C91.8263 42.96 92.8663 41.024 94.2422 39.296C95.6183 37.568 97.3463 36.192 99.4263 35.168C101.538 34.144 103.986 33.632 106.77 33.632C108.562 33.632 110.258 33.872 111.858 34.352C113.458 34.832 114.994 35.568 116.466 36.56L116.226 33.968H118.818V45.104H117.09Z" fill="#B0E8E6"/>
<path d="M51.9231 117.768C49.9711 117.768 48.2111 117.288 46.6431 116.328C45.0751 115.336 43.8271 113.928 42.8991 112.104C42.0031 110.28 41.5551 108.136 41.5551 105.672C41.5551 103.048 42.0831 100.728 43.1391 98.712C44.1951 96.696 45.6511 95.112 47.5071 93.96C49.3951 92.808 51.5231 92.232 53.8911 92.232C54.9471 92.232 55.9871 92.376 57.0111 92.664C58.0671 92.92 58.8991 93.224 59.5071 93.576V87C59.5071 86.488 59.5071 86.008 59.5071 85.56C59.5391 85.08 59.5871 84.52 59.6511 83.88C59.0751 83.912 58.4991 83.944 57.9231 83.976C57.3791 84.008 56.8191 84.04 56.2431 84.072V82.056C57.6511 82.056 58.7391 81.992 59.5071 81.864C60.2751 81.736 60.8511 81.576 61.2351 81.384C61.6511 81.192 61.9711 80.984 62.1951 80.76H63.5871V111.912C63.5871 112.424 63.5711 112.936 63.5391 113.448C63.5071 113.96 63.4591 114.536 63.3951 115.176C63.9711 115.144 64.5311 115.112 65.0751 115.08C65.6511 115.048 66.2271 115.016 66.8031 114.984V117H59.9391C59.8431 116.52 59.7631 116.088 59.6991 115.704C59.6671 115.288 59.6351 114.888 59.6031 114.504C58.7071 115.496 57.6031 116.296 56.2911 116.904C54.9791 117.48 53.5231 117.768 51.9231 117.768ZM53.6511 115.416C54.7071 115.416 55.7631 115.112 56.8191 114.504C57.9071 113.896 58.8031 113.144 59.5071 112.248C59.4751 111.864 59.4591 111.464 59.4591 111.048C59.4591 110.6 59.4591 110.12 59.4591 109.608L59.5071 95.784C58.7391 95.208 57.8911 94.792 56.9631 94.536C56.0671 94.248 55.1391 94.104 54.1791 94.104C52.5791 94.104 51.1871 94.568 50.0031 95.496C48.8191 96.424 47.9231 97.72 47.3151 99.384C46.7071 101.048 46.4351 103 46.4991 105.24C46.5631 107.192 46.8671 108.936 47.4111 110.472C47.9871 112.008 48.7871 113.224 49.8111 114.12C50.8671 114.984 52.1471 115.416 53.6511 115.416ZM81.9546 117.768C79.7466 117.768 77.7466 117.256 75.9546 116.232C74.1946 115.176 72.8026 113.704 71.7786 111.816C70.7546 109.896 70.2426 107.64 70.2426 105.048C70.2426 102.808 70.7386 100.712 71.7306 98.76C72.7546 96.808 74.1786 95.24 76.0026 94.056C77.8266 92.84 79.9386 92.232 82.3386 92.232C83.6826 92.232 84.9306 92.456 86.0826 92.904C87.2666 93.32 88.3066 93.976 89.2026 94.872C90.0986 95.736 90.8026 96.84 91.3146 98.184C91.8266 99.496 92.0826 101.048 92.0826 102.84L75.1866 103.128C75.1866 105.56 75.4426 107.704 75.9546 109.56C76.4986 111.384 77.3626 112.808 78.5466 113.832C79.7306 114.824 81.2506 115.32 83.1066 115.32C84.0986 115.32 85.1066 115.144 86.1306 114.792C87.1866 114.44 88.1626 113.96 89.0586 113.352C89.9546 112.744 90.6746 112.072 91.2186 111.336L92.3706 112.296C91.5066 113.64 90.4666 114.712 89.2506 115.512C88.0346 116.312 86.7866 116.888 85.5066 117.24C84.2266 117.592 83.0426 117.768 81.9546 117.768ZM75.3306 101.112H87.5706C87.5706 99.96 87.3946 98.856 87.0426 97.8C86.7226 96.712 86.1786 95.832 85.4106 95.16C84.6426 94.456 83.6346 94.104 82.3866 94.104C80.5306 94.104 78.9786 94.664 77.7306 95.784C76.5146 96.872 75.7146 98.648 75.3306 101.112ZM99.3782 91.992C99.3782 88.44 100.018 85.64 101.298 83.592C102.61 81.544 104.85 80.52 108.018 80.52C108.722 80.52 109.458 80.648 110.226 80.904C111.026 81.128 111.714 81.512 112.29 82.056C112.866 82.568 113.154 83.24 113.154 84.072C113.154 84.68 112.978 85.192 112.626 85.608C112.306 86.024 111.826 86.232 111.186 86.232C110.418 86.264 109.874 86.04 109.554 85.56C109.266 85.048 109.122 84.616 109.122 84.264C109.122 84.072 109.138 83.88 109.17 83.688C109.202 83.496 109.266 83.288 109.362 83.064C109.138 82.776 108.818 82.568 108.402 82.44C108.018 82.312 107.65 82.248 107.298 82.248C106.306 82.248 105.538 82.536 104.994 83.112C104.45 83.688 104.066 84.408 103.842 85.272C103.618 86.136 103.506 87.032 103.506 87.96V93H109.986V94.872L103.506 95.016L103.554 111.912C103.554 112.552 103.538 113.128 103.506 113.64C103.506 114.12 103.458 114.632 103.362 115.176C103.874 115.144 104.37 115.128 104.85 115.128C105.362 115.096 105.874 115.064 106.386 115.032V117H96.5942V115.56C97.5862 115.56 98.2742 115.32 98.6582 114.84C99.0422 114.328 99.2662 113.64 99.3302 112.776C99.3942 111.88 99.4262 110.856 99.4262 109.704L99.3782 95.064L95.4422 95.16V93H99.3782V91.992Z" fill="#B0E8E6"/>
</svg>
