<svg width="150" height="150" viewBox="0 0 150 150" fill="none" xmlns="http://www.w3.org/2000/svg">
<path d="M39.92 30.048H45.2L56.864 63.168L59.84 63.648V66H47.168V63.648L51.152 63.168L48.896 56.064H34.88L32.624 63.168L36.752 63.648V66H25.376V63.648L28.352 63.168L39.92 30.048ZM42.944 37.728L41.744 33.504L40.592 37.824L35.744 53.232H47.984L42.944 37.728ZM65.4264 33.312L61.4904 32.736V30.336H67.9704C69.0584 30.336 70.4344 30.272 72.0984 30.144C73.6344 30.016 74.7704 29.952 75.5064 29.952C79.9224 29.952 83.0744 30.64 84.9624 32.016C86.8824 33.392 87.8424 35.408 87.8424 38.064C87.8424 40.336 87.1864 42.288 85.8744 43.92C84.5624 45.552 82.7704 46.576 80.4984 46.992C83.5704 46.928 85.9864 47.648 87.7464 49.152C89.5064 50.656 90.3864 52.704 90.3864 55.296C90.3864 58.528 89.2344 61.168 86.9304 63.216C84.6584 65.264 80.8824 66.288 75.6024 66.288C74.4504 66.288 73.3464 66.24 72.2904 66.144C69.7944 66.048 68.3064 66 67.8264 66H61.4424V63.648L65.4264 63.168V33.312ZM70.5144 46.08C70.9624 46.112 71.8744 46.128 73.2504 46.128H75.8904C78.1304 46.128 79.8264 45.504 80.9784 44.256C82.1304 43.008 82.7064 41.232 82.7064 38.928C82.7064 36.688 82.1304 35.056 80.9784 34.032C79.8264 32.976 77.8584 32.448 75.0744 32.448C73.9224 32.448 72.7384 32.512 71.5224 32.64L70.5144 32.736V46.08ZM70.5144 63.312C71.2504 63.568 72.9144 63.696 75.5064 63.696C78.7384 63.696 81.0744 63.04 82.5144 61.728C83.9864 60.384 84.7224 58.464 84.7224 55.968C84.7224 53.504 84.0824 51.712 82.8024 50.592C81.5544 49.472 79.5224 48.912 76.7064 48.912C73.4424 48.912 71.3784 48.944 70.5144 49.008V63.312ZM110.238 66.528C106.718 66.528 103.71 65.776 101.214 64.272C98.7498 62.736 96.8778 60.592 95.5978 57.84C94.3178 55.088 93.6777 51.856 93.6777 48.144C93.6777 44.56 94.4298 41.392 95.9338 38.64C97.4378 35.888 99.5018 33.76 102.126 32.256C104.75 30.72 107.694 29.952 110.958 29.952C113.422 29.952 116.382 30.336 119.838 31.104L121.422 31.392L120.942 40.032H117.726L116.526 33.936C116.078 33.552 115.294 33.232 114.174 32.976C113.086 32.688 111.742 32.544 110.142 32.544C108.094 32.544 106.27 33.136 104.67 34.32C103.07 35.472 101.806 37.184 100.878 39.456C99.9818 41.728 99.5338 44.448 99.5338 47.616C99.5338 50.624 99.9338 53.36 100.734 55.824C101.534 58.288 102.75 60.256 104.382 61.728C106.014 63.168 108.03 63.888 110.43 63.888C112.126 63.888 113.422 63.744 114.318 63.456C115.246 63.168 116.03 62.752 116.67 62.208L118.686 57.504L121.71 57.888L120.558 64.704C119.886 64.736 118.894 64.96 117.582 65.376C116.43 65.728 115.31 66 114.222 66.192C113.166 66.416 111.838 66.528 110.238 66.528Z" fill="#B0E8E6"/>
<path d="M49.9577 118.528C48.0377 118.528 46.2777 118.048 44.6777 117.088C43.0777 116.128 41.7977 114.656 40.8377 112.672C39.9097 110.688 39.4457 108.24 39.4457 105.328C39.4457 102.608 40.0057 100.128 41.1257 97.888C42.2457 95.648 43.8457 93.888 45.9257 92.608C48.0377 91.296 50.5177 90.64 53.3657 90.64C54.9977 90.64 56.4857 90.816 57.8297 91.168V82.192L52.9337 81.616V79.552L61.5737 78.688H61.7177L62.7737 79.456V115.552H65.5577V117.76C64.5337 117.984 63.6377 118.16 62.8697 118.288C62.1337 118.416 61.3497 118.48 60.5177 118.48C59.6857 118.48 59.0937 118.336 58.7417 118.048C58.3897 117.76 58.2137 117.152 58.2137 116.224V114.688C57.3177 115.776 56.1337 116.688 54.6617 117.424C53.2217 118.16 51.6537 118.528 49.9577 118.528ZM51.8777 115.12C53.1257 115.12 54.2937 114.848 55.3817 114.304C56.4697 113.728 57.2857 113.072 57.8297 112.336V94.768C57.5737 94.384 56.9657 94.048 56.0057 93.76C55.0777 93.44 54.0857 93.28 53.0297 93.28C50.5337 93.28 48.5337 94.24 47.0297 96.16C45.5577 98.048 44.8217 100.976 44.8217 104.944C44.8217 108.4 45.4777 110.96 46.7897 112.624C48.1017 114.288 49.7977 115.12 51.8777 115.12ZM81.2102 118.528C77.3382 118.528 74.3782 117.264 72.3302 114.736C70.3142 112.208 69.3062 108.832 69.3062 104.608C69.3062 101.824 69.8342 99.376 70.8902 97.264C71.9462 95.152 73.4182 93.52 75.3062 92.368C77.2262 91.216 79.4022 90.64 81.8342 90.64C84.8102 90.64 87.1142 91.472 88.7462 93.136C90.4102 94.768 91.2902 97.12 91.3862 100.192C91.3862 102.144 91.2742 103.632 91.0502 104.656H74.5382C74.6022 107.824 75.3382 110.384 76.7462 112.336C78.1542 114.256 80.1542 115.216 82.7462 115.216C84.0262 115.216 85.3542 114.992 86.7302 114.544C88.1382 114.064 89.2262 113.504 89.9942 112.864L90.9062 114.976C89.9782 115.936 88.6022 116.768 86.7782 117.472C84.9542 118.176 83.0982 118.528 81.2102 118.528ZM86.1062 102.112C86.2022 101.44 86.2502 100.752 86.2502 100.048C86.2182 97.968 85.7702 96.336 84.9062 95.152C84.0742 93.936 82.7462 93.328 80.9222 93.328C79.0662 93.328 77.5782 94 76.4582 95.344C75.3702 96.688 74.7462 98.944 74.5862 102.112H86.1062ZM99.3516 94.528H94.8396V92.32L99.3516 91.408V89.152C99.3516 87.168 99.8636 85.344 100.888 83.68C101.944 82.016 103.304 80.704 104.968 79.744C106.664 78.752 108.456 78.256 110.344 78.256C111.432 78.256 112.376 78.4 113.176 78.688V83.488C112.888 83.232 112.312 82.992 111.448 82.768C110.616 82.512 109.688 82.384 108.664 82.384C107.16 82.384 106.056 82.784 105.352 83.584C104.68 84.352 104.344 85.696 104.344 87.616V91.408H110.968V94.528H104.344V115.264L109.672 115.648V118H95.2716V115.648L99.3516 115.216V94.528Z" fill="#B0E8E6"/>
</svg>
