<svg width="150" height="150" viewBox="0 0 150 150" fill="none" xmlns="http://www.w3.org/2000/svg">
<path d="M22.096 68L37.456 34.4H40.96L56.32 68H52.576L38.464 36.464H39.904L25.792 68H22.096ZM28.144 59.024L29.2 56.144H48.736L49.792 59.024H28.144ZM61.8783 68V34.4H76.3743C80.1183 34.4 83.0143 35.152 85.0623 36.656C87.1423 38.16 88.1823 40.288 88.1823 43.04C88.1823 44.864 87.7503 46.4 86.8863 47.648C86.0543 48.896 84.9023 49.84 83.4303 50.48C81.9903 51.12 80.4063 51.44 78.6783 51.44L79.4943 50.288C81.6383 50.288 83.4783 50.624 85.0143 51.296C86.5823 51.936 87.7983 52.912 88.6623 54.224C89.5263 55.504 89.9583 57.104 89.9583 59.024C89.9583 61.872 88.9023 64.08 86.7903 65.648C84.7103 67.216 81.5583 68 77.3343 68H61.8783ZM65.4303 65.072H77.2863C80.2303 65.072 82.4863 64.576 84.0543 63.584C85.6223 62.56 86.4062 60.944 86.4062 58.736C86.4062 56.56 85.6223 54.976 84.0543 53.984C82.4863 52.96 80.2303 52.448 77.2863 52.448H65.0463V49.52H76.1343C78.8223 49.52 80.9023 49.008 82.3743 47.984C83.8783 46.96 84.6302 45.44 84.6302 43.424C84.6302 41.376 83.8783 39.856 82.3743 38.864C80.9023 37.84 78.8223 37.328 76.1343 37.328H65.4303V65.072ZM112.658 68.288C110.13 68.288 107.794 67.872 105.65 67.04C103.506 66.176 101.65 64.976 100.082 63.44C98.5138 61.904 97.2818 60.096 96.3858 58.016C95.5218 55.936 95.0898 53.664 95.0898 51.2C95.0898 48.736 95.5218 46.464 96.3858 44.384C97.2818 42.304 98.5138 40.496 100.082 38.96C101.682 37.424 103.554 36.24 105.698 35.408C107.842 34.544 110.178 34.112 112.706 34.112C115.138 34.112 117.426 34.528 119.57 35.36C121.714 36.16 123.522 37.376 124.994 39.008L122.738 41.264C121.362 39.856 119.842 38.848 118.178 38.24C116.514 37.6 114.722 37.28 112.802 37.28C110.786 37.28 108.914 37.632 107.186 38.336C105.458 39.008 103.954 39.984 102.674 41.264C101.394 42.512 100.386 43.984 99.6497 45.68C98.9457 47.344 98.5938 49.184 98.5938 51.2C98.5938 53.216 98.9457 55.072 99.6497 56.768C100.386 58.432 101.394 59.904 102.674 61.184C103.954 62.432 105.458 63.408 107.186 64.112C108.914 64.784 110.786 65.12 112.802 65.12C114.722 65.12 116.514 64.8 118.178 64.16C119.842 63.52 121.362 62.496 122.738 61.088L124.994 63.344C123.522 64.976 121.714 66.208 119.57 67.04C117.426 67.872 115.122 68.288 112.658 68.288Z" fill="#B0E8E6"/>
<path d="M50.9012 117.24C48.5012 117.24 46.3412 116.696 44.4212 115.608C42.5332 114.52 41.0452 113.016 39.9572 111.096C38.8692 109.144 38.3252 106.904 38.3252 104.376C38.3252 101.816 38.8692 99.576 39.9572 97.656C41.0452 95.736 42.5332 94.248 44.4212 93.192C46.3412 92.104 48.5012 91.56 50.9012 91.56C53.1092 91.56 55.0772 92.056 56.8052 93.048C58.5652 94.04 59.9572 95.496 60.9812 97.416C62.0372 99.304 62.5652 101.624 62.5652 104.376C62.5652 107.096 62.0532 109.416 61.0292 111.336C60.0052 113.256 58.6132 114.728 56.8532 115.752C55.1252 116.744 53.1412 117.24 50.9012 117.24ZM51.1412 114.216C52.9332 114.216 54.5332 113.816 55.9412 113.016C57.3812 112.184 58.5012 111.032 59.3012 109.56C60.1332 108.056 60.5492 106.328 60.5492 104.376C60.5492 102.392 60.1332 100.664 59.3012 99.192C58.5012 97.72 57.3812 96.584 55.9412 95.784C54.5332 94.952 52.9332 94.536 51.1412 94.536C49.3812 94.536 47.7972 94.952 46.3892 95.784C44.9812 96.584 43.8612 97.72 43.0292 99.192C42.1972 100.664 41.7812 102.392 41.7812 104.376C41.7812 106.328 42.1972 108.056 43.0292 109.56C43.8612 111.032 44.9812 112.184 46.3892 113.016C47.7972 113.816 49.3812 114.216 51.1412 114.216ZM60.6452 117V109.416L60.9812 104.328L60.5012 99.24V81.384H63.9092V117H60.6452ZM84.1044 117.24C81.4804 117.24 79.1764 116.696 77.1924 115.608C75.2084 114.488 73.6564 112.968 72.5364 111.048C71.4164 109.096 70.8564 106.872 70.8564 104.376C70.8564 101.88 71.3844 99.672 72.4404 97.752C73.5284 95.832 75.0004 94.328 76.8564 93.24C78.7444 92.12 80.8564 91.56 83.1924 91.56C85.5604 91.56 87.6564 92.104 89.4804 93.192C91.3364 94.248 92.7924 95.752 93.8484 97.704C94.9044 99.624 95.4324 101.848 95.4324 104.376C95.4324 104.536 95.4164 104.712 95.3844 104.904C95.3844 105.064 95.3844 105.24 95.3844 105.432H73.4484V102.888H93.5604L92.2164 103.896C92.2164 102.072 91.8164 100.456 91.0164 99.048C90.2484 97.608 89.1924 96.488 87.8484 95.688C86.5044 94.888 84.9524 94.488 83.1924 94.488C81.4644 94.488 79.9124 94.888 78.5364 95.688C77.1604 96.488 76.0884 97.608 75.3204 99.048C74.5524 100.488 74.1684 102.136 74.1684 103.992V104.52C74.1684 106.44 74.5844 108.136 75.4164 109.608C76.2804 111.048 77.4644 112.184 78.9684 113.016C80.5044 113.816 82.2484 114.216 84.2004 114.216C85.7364 114.216 87.1604 113.944 88.4724 113.4C89.8164 112.856 90.9684 112.024 91.9284 110.904L93.8484 113.112C92.7284 114.456 91.3204 115.48 89.6244 116.184C87.9604 116.888 86.1204 117.24 84.1044 117.24ZM102.945 117V88.632C102.945 86.392 103.601 84.584 104.913 83.208C106.225 81.832 108.113 81.144 110.577 81.144C111.537 81.144 112.465 81.272 113.361 81.528C114.257 81.784 115.009 82.184 115.617 82.728L114.465 85.272C113.985 84.856 113.425 84.552 112.785 84.36C112.145 84.136 111.457 84.024 110.721 84.024C109.281 84.024 108.177 84.424 107.409 85.224C106.641 86.024 106.257 87.208 106.257 88.776V92.616L106.353 94.2V117H102.945ZM98.4332 94.632V91.8H114.033V94.632H98.4332Z" fill="#B0E8E6"/>
</svg>
