<svg width="150" height="150" viewBox="0 0 150 150" fill="none" xmlns="http://www.w3.org/2000/svg">
<path d="M27 67V64.984H27.912C28.552 64.984 29.064 64.888 29.448 64.696C29.832 64.504 30.184 64.136 30.504 63.592C30.824 63.048 31.176 62.264 31.56 61.24L42.216 32.728H45.96L56.808 62.44C57.064 63.112 57.336 63.64 57.624 64.024C57.912 64.376 58.264 64.632 58.68 64.792C59.096 64.92 59.608 64.984 60.216 64.984H60.84V67H47.64V64.984H48.744C49.704 64.984 50.424 64.808 50.904 64.456C51.384 64.072 51.624 63.48 51.624 62.68C51.624 62.488 51.608 62.312 51.576 62.152C51.544 61.96 51.496 61.768 51.432 61.576C51.4 61.352 51.336 61.128 51.24 60.904L49.32 55.528H36.696L34.872 60.568C34.776 60.824 34.696 61.08 34.632 61.336C34.568 61.592 34.52 61.832 34.488 62.056C34.456 62.248 34.44 62.44 34.44 62.632C34.44 63.432 34.696 64.024 35.208 64.408C35.752 64.792 36.552 64.984 37.608 64.984H38.712V67H27ZM37.608 53.128H48.456L45.48 44.728C45.16 43.768 44.84 42.856 44.52 41.992C44.232 41.128 43.96 40.296 43.704 39.496C43.48 38.696 43.272 37.912 43.08 37.144C42.952 37.72 42.808 38.28 42.648 38.824C42.52 39.368 42.36 39.928 42.168 40.504C42.008 41.048 41.816 41.64 41.592 42.28C41.4 42.888 41.16 43.56 40.872 44.296L37.608 53.128ZM62.6678 67V64.984H63.2918C64.0278 64.984 64.6838 64.904 65.2598 64.744C65.8678 64.584 66.3478 64.264 66.6998 63.784C67.0518 63.272 67.2278 62.52 67.2278 61.528V38.008C67.2278 37.048 67.0358 36.344 66.6518 35.896C66.2998 35.416 65.8198 35.112 65.2118 34.984C64.6358 34.824 63.9958 34.744 63.2918 34.744H62.6678V32.728H75.5318C79.6918 32.728 82.7798 33.432 84.7958 34.84C86.8438 36.216 87.8678 38.376 87.8678 41.32C87.8678 42.728 87.6118 43.928 87.0998 44.92C86.5878 45.912 85.8838 46.728 84.9878 47.368C84.0918 47.976 83.0678 48.472 81.9158 48.856V49.048C83.3878 49.304 84.6678 49.8 85.7558 50.536C86.8758 51.24 87.7398 52.2 88.3478 53.416C88.9878 54.6 89.3078 56.04 89.3078 57.736C89.3078 60.84 88.2838 63.16 86.2358 64.696C84.2198 66.232 81.1318 67 76.9718 67H62.6678ZM76.7318 64.6C79.4518 64.6 81.3718 64.072 82.4918 63.016C83.6118 61.96 84.1718 60.152 84.1718 57.592C84.1718 55.928 83.9478 54.552 83.4998 53.464C83.0518 52.376 82.2998 51.576 81.2438 51.064C80.1878 50.52 78.7158 50.248 76.8278 50.248H72.0758V64.6H76.7318ZM75.3878 47.848C77.2758 47.848 78.7478 47.624 79.8038 47.176C80.8598 46.728 81.6118 46.024 82.0598 45.064C82.5078 44.104 82.7318 42.856 82.7318 41.32C82.7318 38.952 82.1718 37.336 81.0518 36.472C79.9318 35.576 78.0118 35.128 75.2918 35.128H72.0758V47.848H75.3878ZM109.578 67.48C106.41 67.48 103.738 66.744 101.562 65.272C99.386 63.8 97.738 61.752 96.618 59.128C95.53 56.472 94.986 53.368 94.986 49.816C94.986 46.36 95.562 43.32 96.714 40.696C97.898 38.04 99.626 35.976 101.898 34.504C104.202 33 107.034 32.248 110.394 32.248C112.57 32.248 114.378 32.488 115.818 32.968C117.258 33.416 118.33 34.056 119.034 34.888C119.738 35.688 120.09 36.6 120.09 37.624C120.09 38.648 119.69 39.464 118.89 40.072C118.09 40.68 117.098 40.984 115.914 40.984C115.914 39.992 115.738 39.032 115.386 38.104C115.034 37.144 114.442 36.36 113.61 35.752C112.81 35.112 111.706 34.792 110.298 34.792C107.898 34.792 105.962 35.384 104.49 36.568C103.018 37.72 101.946 39.416 101.274 41.656C100.634 43.896 100.314 46.616 100.314 49.816C100.314 52.664 100.65 55.192 101.322 57.4C102.026 59.576 103.114 61.272 104.586 62.488C106.058 63.704 107.962 64.312 110.298 64.312C111.866 64.312 113.194 64.12 114.282 63.736C115.37 63.352 116.282 62.856 117.018 62.248C117.786 61.608 118.442 60.936 118.986 60.232C119.242 60.392 119.45 60.632 119.61 60.952C119.802 61.24 119.898 61.624 119.898 62.104C119.898 62.712 119.69 63.336 119.274 63.976C118.858 64.584 118.234 65.16 117.402 65.704C116.57 66.216 115.498 66.648 114.186 67C112.906 67.32 111.37 67.48 109.578 67.48Z" fill="#B0E8E6"/>
<path d="M50.9867 120.48C48.8747 120.48 47.0827 120.016 45.6107 119.088C44.1707 118.16 43.0667 116.72 42.2987 114.768C41.5627 112.784 41.1947 110.256 41.1947 107.184C41.1947 104.08 41.5627 101.552 42.2987 99.6C43.0667 97.616 44.1707 96.16 45.6107 95.232C47.0827 94.272 48.8747 93.792 50.9867 93.792C52.8427 93.792 54.3467 94.192 55.4987 94.992C56.6827 95.76 57.6267 96.768 58.3307 98.016H58.6187C58.5547 97.472 58.4907 96.896 58.4267 96.288C58.3947 95.68 58.3627 95.072 58.3307 94.464C58.3307 93.824 58.3307 93.248 58.3307 92.736V88.8C58.3307 87.84 58.1387 87.136 57.7547 86.688C57.4027 86.208 56.9227 85.904 56.3147 85.776C55.7387 85.616 55.0987 85.536 54.3947 85.536H54.0107V83.52H62.8427V114.72C62.8427 115.648 63.0187 116.352 63.3707 116.832C63.7547 117.312 64.2347 117.632 64.8107 117.792C65.4187 117.92 66.0747 117.984 66.7787 117.984H67.1627V120H59.0507L58.5227 115.68H58.3307C57.6267 117.152 56.6987 118.32 55.5467 119.184C54.3947 120.048 52.8747 120.48 50.9867 120.48ZM51.8027 117.408C54.2987 117.408 56.0107 116.576 56.9387 114.912C57.8667 113.216 58.3307 110.64 58.3307 107.184C58.3307 104.944 58.1227 103.072 57.7067 101.568C57.3227 100.032 56.6507 98.864 55.6907 98.064C54.7627 97.264 53.4507 96.864 51.7547 96.864C50.3467 96.864 49.2107 97.264 48.3467 98.064C47.4827 98.864 46.8427 100.032 46.4267 101.568C46.0427 103.104 45.8507 104.992 45.8507 107.232C45.8507 109.504 46.0427 111.392 46.4267 112.896C46.8427 114.4 47.4827 115.536 48.3467 116.304C49.2427 117.04 50.3947 117.408 51.8027 117.408ZM81.8151 120.48C78.3271 120.48 75.5911 119.328 73.6071 117.024C71.6551 114.72 70.6791 111.488 70.6791 107.328C70.6791 102.848 71.6071 99.472 73.4631 97.2C75.3191 94.928 77.9431 93.792 81.3351 93.792C84.4391 93.792 86.8711 94.752 88.6311 96.672C90.4231 98.592 91.3191 101.456 91.3191 105.264V107.472H75.3351C75.3991 109.808 75.7031 111.712 76.2471 113.184C76.7911 114.656 77.5751 115.744 78.5991 116.448C79.6551 117.12 80.9511 117.456 82.4871 117.456C83.6071 117.456 84.5991 117.296 85.4631 116.976C86.3591 116.656 87.1271 116.24 87.7671 115.728C88.4391 115.216 88.9671 114.672 89.3511 114.096C89.5751 114.192 89.7831 114.384 89.9751 114.672C90.1671 114.96 90.2631 115.312 90.2631 115.728C90.2631 116.368 89.9591 117.056 89.3511 117.792C88.7431 118.528 87.8151 119.168 86.5671 119.712C85.3191 120.224 83.7351 120.48 81.8151 120.48ZM86.4711 104.88C86.4711 103.184 86.2951 101.696 85.9431 100.416C85.6231 99.136 85.0791 98.144 84.3111 97.44C83.5431 96.736 82.5191 96.384 81.2391 96.384C80.0551 96.384 79.0471 96.72 78.2151 97.392C77.4151 98.032 76.7751 98.976 76.2951 100.224C75.8471 101.472 75.5591 103.024 75.4311 104.88H86.4711ZM95.0226 120V117.984H95.6466C96.3826 117.984 97.0386 117.904 97.6146 117.744C98.2226 117.584 98.7026 117.264 99.0546 116.784C99.4066 116.272 99.5826 115.52 99.5826 114.528V96.528H95.2146V94.272H99.5826V91.872C99.5826 89.024 100.335 86.848 101.839 85.344C103.375 83.808 105.455 83.04 108.079 83.04C109.743 83.04 111.055 83.184 112.015 83.472C113.007 83.76 113.711 84.16 114.127 84.672C114.575 85.152 114.799 85.728 114.799 86.4C114.799 86.976 114.623 87.472 114.271 87.888C113.951 88.272 113.487 88.576 112.879 88.8C112.303 88.992 111.631 89.088 110.863 89.088C110.863 88.448 110.767 87.84 110.575 87.264C110.383 86.656 110.063 86.176 109.615 85.824C109.167 85.44 108.527 85.248 107.695 85.248C106.319 85.248 105.375 85.776 104.863 86.832C104.351 87.888 104.095 89.424 104.095 91.44V94.272H110.863V96.528H104.095V114.528C104.095 115.52 104.271 116.272 104.623 116.784C104.975 117.264 105.455 117.584 106.063 117.744C106.671 117.904 107.327 117.984 108.031 117.984H109.855V120H95.0226Z" fill="#B0E8E6"/>
</svg>
