<svg width="150" height="150" viewBox="0 0 150 150" fill="none" xmlns="http://www.w3.org/2000/svg">
<path d="M28.456 66.336C27.944 66.336 27.528 66.224 27.208 66C26.92 65.744 26.744 65.424 26.68 65.04C26.648 64.624 26.744 64.16 26.968 63.648L40.168 33.6C40.456 32.96 40.792 32.512 41.176 32.256C41.592 31.968 42.04 31.824 42.52 31.824C43 31.824 43.432 31.968 43.816 32.256C44.232 32.512 44.568 32.96 44.824 33.6L58.072 63.648C58.328 64.16 58.424 64.624 58.36 65.04C58.328 65.456 58.168 65.776 57.88 66C57.592 66.224 57.192 66.336 56.68 66.336C56.104 66.336 55.64 66.192 55.288 65.904C54.936 65.584 54.648 65.136 54.424 64.56L50.872 56.352L52.792 57.36H32.152L34.12 56.352L30.616 64.56C30.328 65.168 30.024 65.616 29.704 65.904C29.384 66.192 28.968 66.336 28.456 66.336ZM42.472 36.768L34.744 54.96L33.592 54.048H51.352L50.296 54.96L42.568 36.768H42.472ZM66.3047 66C65.6008 66 65.0568 65.824 64.6728 65.472C64.3208 65.088 64.1448 64.544 64.1448 63.84V34.32C64.1448 33.616 64.3208 33.088 64.6728 32.736C65.0568 32.352 65.6008 32.16 66.3047 32.16H77.6808C80.0168 32.16 81.9848 32.512 83.5848 33.216C85.2168 33.888 86.4648 34.88 87.3288 36.192C88.1928 37.504 88.6248 39.104 88.6248 40.992C88.6248 43.104 88.0008 44.864 86.7528 46.272C85.5368 47.68 83.8728 48.608 81.7608 49.056V48.384C84.1608 48.672 86.0328 49.536 87.3768 50.976C88.7528 52.416 89.4408 54.32 89.4408 56.688C89.4408 59.696 88.4648 62 86.5128 63.6C84.5608 65.2 81.8088 66 78.2568 66H66.3047ZM67.9848 62.832H77.8728C80.4328 62.832 82.3528 62.32 83.6328 61.296C84.9128 60.272 85.5528 58.72 85.5528 56.64C85.5528 54.528 84.9128 52.976 83.6328 51.984C82.3528 50.96 80.4328 50.448 77.8728 50.448H67.9848V62.832ZM67.9848 47.28H77.1048C79.6008 47.28 81.4888 46.768 82.7688 45.744C84.0808 44.72 84.7368 43.248 84.7368 41.328C84.7368 39.344 84.0808 37.856 82.7688 36.864C81.4888 35.84 79.6008 35.328 77.1048 35.328H67.9848V47.28ZM111.222 66.432C107.894 66.432 105.046 65.728 102.678 64.32C100.31 62.912 98.4863 60.912 97.2063 58.32C95.9583 55.728 95.3343 52.64 95.3343 49.056C95.3343 46.368 95.6863 43.968 96.3903 41.856C97.1263 39.712 98.1663 37.904 99.5103 36.432C100.886 34.928 102.566 33.776 104.55 32.976C106.534 32.144 108.758 31.728 111.222 31.728C113.206 31.728 115.094 32.016 116.886 32.592C118.678 33.136 120.23 33.952 121.542 35.04C121.958 35.36 122.23 35.728 122.358 36.144C122.518 36.528 122.534 36.912 122.406 37.296C122.31 37.648 122.118 37.952 121.83 38.208C121.574 38.432 121.254 38.544 120.87 38.544C120.486 38.544 120.054 38.384 119.574 38.064C118.422 37.136 117.158 36.448 115.782 36C114.406 35.552 112.918 35.328 111.318 35.328C108.79 35.328 106.646 35.872 104.886 36.96C103.126 38.016 101.798 39.568 100.902 41.616C100.006 43.664 99.5583 46.144 99.5583 49.056C99.5583 51.968 100.006 54.464 100.902 56.544C101.798 58.592 103.126 60.16 104.886 61.248C106.646 62.304 108.79 62.832 111.318 62.832C112.886 62.832 114.374 62.608 115.782 62.16C117.19 61.68 118.486 60.976 119.67 60.048C120.15 59.728 120.582 59.584 120.966 59.616C121.35 59.616 121.67 59.728 121.926 59.952C122.182 60.176 122.358 60.464 122.454 60.816C122.582 61.168 122.582 61.536 122.454 61.92C122.358 62.304 122.118 62.64 121.734 62.928C120.39 64.08 118.806 64.96 116.982 65.568C115.19 66.144 113.27 66.432 111.222 66.432Z" fill="#B0E8E6"/>
<path d="M52.7702 115.432C50.6902 115.432 48.8662 114.936 47.2982 113.944C45.7622 112.952 44.5622 111.56 43.6982 109.768C42.8662 107.944 42.4502 105.8 42.4502 103.336C42.4502 100.84 42.8662 98.696 43.6982 96.904C44.5622 95.08 45.7622 93.688 47.2982 92.728C48.8662 91.736 50.6902 91.24 52.7702 91.24C54.8822 91.24 56.6902 91.768 58.1942 92.824C59.6982 93.88 60.7062 95.304 61.2182 97.096H60.6902V82.792C60.6902 82.152 60.8502 81.672 61.1702 81.352C61.5222 81 62.0182 80.824 62.6582 80.824C63.2662 80.824 63.7302 81 64.0502 81.352C64.4022 81.672 64.5782 82.152 64.5782 82.792V113.32C64.5782 113.96 64.4182 114.456 64.0982 114.808C63.7782 115.16 63.2982 115.336 62.6582 115.336C62.0502 115.336 61.5702 115.16 61.2182 114.808C60.8982 114.456 60.7382 113.96 60.7382 113.32V108.76L61.2662 109.432C60.7542 111.256 59.7302 112.712 58.1942 113.8C56.6902 114.888 54.8822 115.432 52.7702 115.432ZM53.5862 112.312C55.0262 112.312 56.2902 111.96 57.3782 111.256C58.4662 110.552 59.2982 109.528 59.8742 108.184C60.4822 106.84 60.7862 105.224 60.7862 103.336C60.7862 100.424 60.1302 98.2 58.8182 96.664C57.5382 95.128 55.7942 94.36 53.5862 94.36C52.1142 94.36 50.8342 94.712 49.7462 95.416C48.6902 96.088 47.8582 97.096 47.2502 98.44C46.6742 99.752 46.3862 101.384 46.3862 103.336C46.3862 106.216 47.0422 108.44 48.3542 110.008C49.6662 111.544 51.4102 112.312 53.5862 112.312ZM82.3866 115.432C79.9226 115.432 77.7946 114.952 76.0026 113.992C74.2426 113 72.8666 111.608 71.8746 109.816C70.9146 108.024 70.4346 105.88 70.4346 103.384C70.4346 100.952 70.9146 98.84 71.8746 97.048C72.8346 95.224 74.1466 93.8 75.8106 92.776C77.5066 91.752 79.4586 91.24 81.6666 91.24C83.2346 91.24 84.6426 91.512 85.8906 92.056C87.1386 92.568 88.1946 93.32 89.0586 94.312C89.9546 95.304 90.6266 96.504 91.0746 97.912C91.5546 99.32 91.7946 100.904 91.7946 102.664C91.7946 103.176 91.6506 103.56 91.3626 103.816C91.0746 104.04 90.6586 104.152 90.1146 104.152H73.4106V101.608H89.2026L88.4346 102.232C88.4346 100.504 88.1786 99.048 87.6666 97.864C87.1546 96.648 86.4026 95.72 85.4106 95.08C84.4506 94.44 83.2346 94.12 81.7626 94.12C80.1306 94.12 78.7386 94.504 77.5866 95.272C76.4666 96.008 75.6186 97.048 75.0426 98.392C74.4666 99.704 74.1786 101.24 74.1786 103V103.288C74.1786 106.232 74.8826 108.472 76.2906 110.008C77.7306 111.544 79.7626 112.312 82.3866 112.312C83.4746 112.312 84.5466 112.168 85.6026 111.88C86.6906 111.592 87.7466 111.112 88.7706 110.44C89.2186 110.152 89.6186 110.024 89.9706 110.056C90.3546 110.056 90.6586 110.168 90.8826 110.392C91.1066 110.584 91.2506 110.84 91.3146 111.16C91.4106 111.448 91.3786 111.768 91.2186 112.12C91.0906 112.472 90.8186 112.776 90.4026 113.032C89.3466 113.8 88.0986 114.392 86.6586 114.808C85.2186 115.224 83.7946 115.432 82.3866 115.432ZM100.589 115.336C99.9814 115.336 99.5014 115.16 99.1494 114.808C98.8294 114.456 98.6694 113.96 98.6694 113.32V94.696H95.5974C95.0854 94.696 94.6694 94.568 94.3494 94.312C94.0614 94.024 93.9174 93.64 93.9174 93.16C93.9174 92.68 94.0614 92.312 94.3494 92.056C94.6694 91.8 95.0854 91.672 95.5974 91.672H99.7254L98.6694 92.68V90.856C98.6694 87.816 99.4054 85.496 100.877 83.896C102.381 82.296 104.573 81.368 107.453 81.112L108.845 80.968C109.293 80.936 109.645 81.016 109.901 81.208C110.189 81.4 110.365 81.64 110.429 81.928C110.525 82.216 110.541 82.52 110.477 82.84C110.413 83.128 110.269 83.384 110.045 83.608C109.821 83.832 109.549 83.96 109.229 83.992L108.125 84.088C106.173 84.248 104.749 84.84 103.853 85.864C102.989 86.888 102.557 88.392 102.557 90.376V92.392L101.981 91.672H107.741C108.285 91.672 108.701 91.8 108.989 92.056C109.277 92.312 109.421 92.68 109.421 93.16C109.421 93.64 109.277 94.024 108.989 94.312C108.701 94.568 108.285 94.696 107.741 94.696H102.557V113.32C102.557 114.664 101.901 115.336 100.589 115.336Z" fill="#B0E8E6"/>
</svg>
