<svg width="150" height="150" viewBox="0 0 150 150" fill="none" xmlns="http://www.w3.org/2000/svg">
<path d="M55.1797 71.5L50.9609 60.625H37.2266L33.0312 71.5H29L42.4062 37.0938H45.9922L59.3047 71.5H55.1797ZM49.7656 57.0859L45.7578 46.2812C45.6641 46 45.5078 45.5391 45.2891 44.8984C45.0859 44.2578 44.875 43.5938 44.6562 42.9062C44.4375 42.2188 44.2578 41.6641 44.1172 41.2422C43.9609 41.8828 43.7891 42.5234 43.6016 43.1641C43.4297 43.7891 43.2578 44.375 43.0859 44.9219C42.9141 45.4531 42.7656 45.9062 42.6406 46.2812L38.5625 57.0859H49.7656ZM64.0625 37.2344H73.7656C78.0469 37.2344 81.2656 37.875 83.4219 39.1562C85.5781 40.4375 86.6562 42.6172 86.6562 45.6953C86.6562 47.0234 86.3984 48.2188 85.8828 49.2812C85.3828 50.3281 84.6484 51.1953 83.6797 51.8828C82.7109 52.5703 81.5156 53.0469 80.0938 53.3125V53.5469C81.5938 53.7812 82.9219 54.2109 84.0781 54.8359C85.2344 55.4609 86.1406 56.3359 86.7969 57.4609C87.4531 58.5859 87.7812 60.0156 87.7812 61.75C87.7812 63.8594 87.2891 65.6406 86.3047 67.0938C85.3359 68.5469 83.9609 69.6484 82.1797 70.3984C80.3984 71.1328 78.2891 71.5 75.8516 71.5H64.0625V37.2344ZM68.0469 51.9297H74.6094C77.5938 51.9297 79.6562 51.4375 80.7969 50.4531C81.9531 49.4688 82.5312 48.0312 82.5312 46.1406C82.5312 44.1875 81.8438 42.7812 80.4688 41.9219C79.1094 41.0625 76.9375 40.6328 73.9531 40.6328H68.0469V51.9297ZM68.0469 55.2812V68.1016H75.1719C78.2188 68.1016 80.375 67.5078 81.6406 66.3203C82.9062 65.1172 83.5391 63.5 83.5391 61.4688C83.5391 60.1719 83.25 59.0625 82.6719 58.1406C82.1094 57.2188 81.1875 56.5156 79.9062 56.0312C78.6406 55.5312 76.9453 55.2812 74.8203 55.2812H68.0469ZM109.742 40.2578C107.852 40.2578 106.148 40.5859 104.633 41.2422C103.133 41.8828 101.852 42.8203 100.789 44.0547C99.7422 45.2734 98.9375 46.75 98.375 48.4844C97.8125 50.2188 97.5312 52.1719 97.5312 54.3438C97.5312 57.2188 97.9766 59.7188 98.8672 61.8438C99.7734 63.9531 101.117 65.5859 102.898 66.7422C104.695 67.8984 106.938 68.4766 109.625 68.4766C111.156 68.4766 112.594 68.3516 113.938 68.1016C115.297 67.8359 116.617 67.5078 117.898 67.1172V70.5859C116.648 71.0547 115.336 71.3984 113.961 71.6172C112.586 71.8516 110.953 71.9688 109.062 71.9688C105.578 71.9688 102.664 71.25 100.32 69.8125C97.9922 68.3594 96.2422 66.3125 95.0703 63.6719C93.9141 61.0312 93.3359 57.9141 93.3359 54.3203C93.3359 51.7266 93.6953 49.3594 94.4141 47.2188C95.1484 45.0625 96.2109 43.2031 97.6016 41.6406C99.0078 40.0781 100.727 38.875 102.758 38.0312C104.805 37.1719 107.148 36.7422 109.789 36.7422C111.523 36.7422 113.195 36.9141 114.805 37.2578C116.414 37.6016 117.867 38.0938 119.164 38.7344L117.57 42.1094C116.477 41.6094 115.273 41.1797 113.961 40.8203C112.664 40.4453 111.258 40.2578 109.742 40.2578Z" fill="#B0E8E6"/>
<path d="M59.8178 100.972C59.0178 99.9 58.1538 99.156 57.2258 98.74C56.2978 98.308 55.2578 98.092 54.1058 98.092C51.8498 98.092 50.1138 98.9 48.8978 100.516C47.6818 102.132 47.0738 104.436 47.0738 107.428C47.0738 109.012 47.2098 110.372 47.4818 111.508C47.7538 112.628 48.1538 113.556 48.6818 114.292C49.2098 115.012 49.8578 115.54 50.6258 115.876C51.3938 116.212 52.2658 116.38 53.2418 116.38C54.6498 116.38 55.8738 116.06 56.9138 115.42C57.9698 114.78 58.9378 113.876 59.8178 112.708V100.972ZM64.0898 84.148V119.5H61.5458C60.9378 119.5 60.5538 119.204 60.3938 118.612L60.0098 115.66C58.9698 116.908 57.7858 117.916 56.4578 118.684C55.1298 119.452 53.5938 119.836 51.8498 119.836C50.4578 119.836 49.1938 119.572 48.0578 119.044C46.9218 118.5 45.9538 117.708 45.1538 116.668C44.3538 115.628 43.7378 114.332 43.3058 112.78C42.8738 111.228 42.6578 109.444 42.6578 107.428C42.6578 105.636 42.8978 103.972 43.3778 102.436C43.8578 100.884 44.5458 99.54 45.4418 98.404C46.3378 97.268 47.4338 96.38 48.7298 95.74C50.0418 95.084 51.5138 94.756 53.1458 94.756C54.6338 94.756 55.9058 95.012 56.9618 95.524C58.0338 96.02 58.9858 96.716 59.8178 97.612V84.148H64.0898ZM87.1091 104.692C87.1091 103.7 86.9651 102.796 86.6771 101.98C86.4051 101.148 85.9971 100.436 85.4531 99.844C84.9251 99.236 84.2771 98.772 83.5091 98.452C82.7411 98.116 81.8691 97.948 80.8931 97.948C78.8451 97.948 77.2211 98.548 76.0211 99.748C74.8371 100.932 74.1011 102.58 73.8131 104.692H87.1091ZM90.5651 116.092C90.0371 116.732 89.4051 117.292 88.6691 117.772C87.9331 118.236 87.1411 118.62 86.2931 118.924C85.4611 119.228 84.5971 119.452 83.7011 119.596C82.8051 119.756 81.9171 119.836 81.0371 119.836C79.3571 119.836 77.8051 119.556 76.3811 118.996C74.9731 118.42 73.7491 117.588 72.7091 116.5C71.6851 115.396 70.8851 114.036 70.3091 112.42C69.7331 110.804 69.4451 108.948 69.4451 106.852C69.4451 105.156 69.7011 103.572 70.2131 102.1C70.7411 100.628 71.4931 99.356 72.4691 98.284C73.4451 97.196 74.6371 96.348 76.0451 95.74C77.4531 95.116 79.0371 94.804 80.7971 94.804C82.2531 94.804 83.5971 95.052 84.8291 95.548C86.0771 96.028 87.1491 96.732 88.0451 97.66C88.9571 98.572 89.6691 99.708 90.1811 101.068C90.6931 102.412 90.9491 103.948 90.9491 105.676C90.9491 106.348 90.8771 106.796 90.7331 107.02C90.5891 107.244 90.3171 107.356 89.9171 107.356H73.6691C73.7171 108.892 73.9251 110.228 74.2931 111.364C74.6771 112.5 75.2051 113.452 75.8771 114.22C76.5491 114.972 77.3491 115.54 78.2771 115.924C79.2051 116.292 80.2451 116.476 81.3971 116.476C82.4691 116.476 83.3891 116.356 84.1571 116.116C84.9411 115.86 85.6131 115.588 86.1731 115.3C86.7331 115.012 87.1971 114.748 87.5651 114.508C87.9491 114.252 88.2771 114.124 88.5491 114.124C88.9011 114.124 89.1731 114.26 89.3651 114.532L90.5651 116.092ZM97.5461 119.5V98.836L94.8581 98.524C94.5221 98.444 94.2421 98.324 94.0181 98.164C93.8101 97.988 93.7061 97.74 93.7061 97.42V95.668H97.5461V93.316C97.5461 91.924 97.7381 90.692 98.1221 89.62C98.5221 88.532 99.0821 87.62 99.8021 86.884C100.538 86.132 101.418 85.564 102.442 85.18C103.466 84.796 104.618 84.604 105.898 84.604C106.986 84.604 107.986 84.764 108.898 85.084L108.802 87.22C108.77 87.604 108.554 87.812 108.154 87.844C107.77 87.876 107.25 87.892 106.594 87.892C105.858 87.892 105.186 87.988 104.578 88.18C103.986 88.372 103.474 88.684 103.042 89.116C102.61 89.548 102.274 90.116 102.034 90.82C101.81 91.524 101.698 92.396 101.698 93.436V95.668H108.706V98.764H101.842V119.5H97.5461Z" fill="#B0E8E6"/>
</svg>
