<svg width="150" height="150" viewBox="0 0 150 150" fill="none" xmlns="http://www.w3.org/2000/svg">
<path d="M38.912 69.5L47.168 30.62H52.4L60.704 69.5H55.568L53.792 59.708H45.872L44 69.5H38.912ZM46.592 55.82H53.072L49.808 38.3L46.592 55.82ZM64.649 69.5V30.62H73.577C75.337 30.62 76.857 30.812 78.137 31.196C79.449 31.58 80.537 32.172 81.401 32.972C82.265 33.772 82.905 34.796 83.321 36.044C83.737 37.26 83.945 38.7 83.945 40.364C83.945 41.964 83.737 43.356 83.321 44.54C82.937 45.692 82.329 46.604 81.497 47.276C80.697 47.948 79.657 48.38 78.377 48.572C79.945 48.924 81.209 49.532 82.169 50.396C83.129 51.228 83.833 52.316 84.281 53.66C84.761 54.972 85.001 56.556 85.001 58.412C85.001 60.076 84.809 61.596 84.425 62.972C84.041 64.348 83.433 65.516 82.601 66.476C81.801 67.436 80.761 68.188 79.481 68.732C78.233 69.244 76.745 69.5 75.017 69.5H64.649ZM70.073 65.612H73.721C76.153 65.612 77.769 65.052 78.569 63.932C79.401 62.78 79.817 60.94 79.817 58.412C79.817 56.78 79.593 55.42 79.145 54.332C78.729 53.212 78.041 52.38 77.081 51.836C76.153 51.26 74.889 50.972 73.289 50.972H70.073V65.612ZM70.073 46.844H73.289C74.825 46.844 76.025 46.636 76.889 46.22C77.753 45.772 78.361 45.068 78.713 44.108C79.065 43.148 79.241 41.9 79.241 40.364C79.241 38.572 78.969 37.276 78.425 36.476C77.881 35.676 77.033 35.18 75.881 34.988C74.729 34.764 73.225 34.652 71.369 34.652H70.073V46.844ZM99.5649 69.932C96.8129 69.932 94.6689 69.356 93.1329 68.204C91.6289 67.052 90.5729 65.5 89.9649 63.548C89.3889 61.596 89.1009 59.42 89.1009 57.02V43.292C89.1009 40.668 89.3889 38.38 89.9649 36.428C90.5729 34.476 91.6289 32.972 93.1329 31.916C94.6689 30.828 96.8129 30.284 99.5649 30.284C101.997 30.284 103.917 30.732 105.325 31.628C106.765 32.524 107.789 33.804 108.397 35.468C109.037 37.132 109.357 39.132 109.357 41.468V44.54H104.221V41.804C104.221 40.364 104.141 39.1 103.981 38.012C103.853 36.892 103.469 36.028 102.829 35.42C102.189 34.812 101.117 34.508 99.6129 34.508C98.0769 34.508 96.9569 34.844 96.2529 35.516C95.5489 36.156 95.0849 37.084 94.8609 38.3C94.6689 39.484 94.5729 40.876 94.5729 42.476V57.884C94.5729 59.836 94.7329 61.388 95.0529 62.54C95.3729 63.66 95.9009 64.46 96.6369 64.94C97.3729 65.42 98.3649 65.66 99.6129 65.66C101.085 65.66 102.141 65.34 102.781 64.7C103.421 64.028 103.821 63.116 103.981 61.964C104.141 60.812 104.221 59.468 104.221 57.932V55.052H109.357V57.932C109.357 60.3 109.069 62.396 108.493 64.22C107.917 66.012 106.925 67.42 105.517 68.444C104.109 69.436 102.125 69.932 99.5649 69.932Z" fill="#B0E8E6"/>
<path d="M56.4146 123.884C54.0786 123.884 52.3346 123.036 51.1826 121.34C50.0306 119.612 49.4546 116.7 49.4546 112.604V107.228C49.4546 105.116 49.6306 103.164 49.9826 101.372C50.3346 99.548 50.9906 98.092 51.9506 97.004C52.9426 95.916 54.3826 95.372 56.2706 95.372C57.1986 95.372 58.0466 95.58 58.8146 95.996C59.5826 96.412 60.2706 96.924 60.8786 97.532V84.62H66.0146V123.5H60.8786V121.724C60.2706 122.364 59.5986 122.892 58.8626 123.308C58.1586 123.692 57.3426 123.884 56.4146 123.884ZM57.7106 119.852C58.1906 119.852 58.7026 119.772 59.2466 119.612C59.7906 119.42 60.3346 119.148 60.8786 118.796V100.604C60.4306 100.284 59.9346 100.012 59.3906 99.788C58.8466 99.532 58.2546 99.404 57.6146 99.404C56.4306 99.404 55.6306 99.98 55.2146 101.132C54.7986 102.252 54.5906 103.612 54.5906 105.212V113.036C54.5906 114.316 54.6546 115.484 54.7826 116.54C54.9426 117.564 55.2466 118.38 55.6946 118.988C56.1426 119.564 56.8146 119.852 57.7106 119.852ZM78.897 123.884C76.721 123.884 75.041 123.468 73.857 122.636C72.673 121.772 71.841 120.524 71.361 118.892C70.913 117.228 70.689 115.196 70.689 112.796V106.46C70.689 103.996 70.929 101.948 71.409 100.316C71.889 98.684 72.721 97.452 73.905 96.62C75.121 95.788 76.785 95.372 78.897 95.372C81.233 95.372 82.945 95.852 84.033 96.812C85.153 97.772 85.889 99.164 86.241 100.988C86.593 102.78 86.769 104.94 86.769 107.468V109.724H75.825V115.292C75.825 116.412 75.921 117.324 76.113 118.028C76.337 118.732 76.673 119.26 77.121 119.612C77.601 119.932 78.209 120.092 78.945 120.092C79.713 120.092 80.289 119.916 80.673 119.564C81.089 119.18 81.361 118.652 81.489 117.98C81.649 117.276 81.729 116.46 81.729 115.532V113.852H86.721V114.908C86.721 117.692 86.129 119.884 84.945 121.484C83.761 123.084 81.745 123.884 78.897 123.884ZM75.825 106.94H81.729V104.444C81.729 103.292 81.665 102.332 81.537 101.564C81.409 100.764 81.137 100.172 80.721 99.788C80.337 99.372 79.713 99.164 78.849 99.164C78.017 99.164 77.377 99.356 76.929 99.74C76.513 100.124 76.225 100.78 76.065 101.708C75.905 102.604 75.825 103.852 75.825 105.452V106.94ZM93.0521 123.5V99.548H89.7401V95.756H93.0521V94.316C93.0521 92.588 93.1801 91.116 93.4361 89.9C93.7241 88.652 94.3001 87.692 95.1641 87.02C96.0281 86.348 97.3241 86.012 99.0521 86.012C99.6921 86.012 100.252 86.044 100.732 86.108C101.244 86.14 101.804 86.22 102.412 86.348V90.092C102.124 90.028 101.804 89.98 101.452 89.948C101.1 89.884 100.78 89.852 100.492 89.852C99.5001 89.852 98.8601 90.188 98.5721 90.86C98.3161 91.5 98.1881 92.364 98.1881 93.452V95.756H102.412V99.548H98.1881V123.5H93.0521Z" fill="#B0E8E6"/>
</svg>
