<svg width="150" height="150" viewBox="0 0 150 150" fill="none" xmlns="http://www.w3.org/2000/svg">
<path d="M33.4 66.24C31.192 66.24 29.192 65.696 27.4 64.608C25.64 63.52 24.248 61.952 23.224 59.904C22.2 57.824 21.688 55.376 21.688 52.56C21.688 47.696 22.728 43.2 24.808 39.072C26.888 34.912 29.96 31.584 34.024 29.088C38.088 26.56 42.968 25.296 48.664 25.296C50.136 25.296 51.704 25.408 53.368 25.632C55.064 25.856 56.6 26.192 57.976 26.64C58.872 26.896 59.32 27.536 59.32 28.56C59.32 29.392 59 30.176 58.36 30.912C57.752 31.648 57.032 32.016 56.2 32.016C55.944 32.016 55.752 32 55.624 31.968C53.96 31.584 52.536 31.312 51.352 31.152C50.168 30.96 48.92 30.864 47.608 30.864C43.544 30.864 40.088 31.856 37.24 33.84C34.392 35.792 32.264 38.384 30.856 41.616C29.448 44.848 28.744 48.336 28.744 52.08C28.744 54.8 29.272 56.912 30.328 58.416C31.416 59.888 32.824 60.624 34.552 60.624C36.504 60.624 38.216 59.824 39.688 58.224C41.16 56.624 42.504 54.032 43.72 50.448C44.936 46.864 46.136 42 47.32 35.856C47.512 34.96 47.896 34.352 48.472 34.032C49.048 33.712 49.816 33.552 50.776 33.552C53.048 33.552 54.184 34.288 54.184 35.76C54.184 36.016 54.136 36.336 54.04 36.72C53.208 39.824 52.44 43.264 51.736 47.04C51.064 50.784 50.728 53.632 50.728 55.584C50.728 57.312 50.984 58.576 51.496 59.376C52.008 60.144 52.792 60.528 53.848 60.528C54.872 60.528 55.848 60.192 56.776 59.52C57.704 58.816 58.872 57.632 60.28 55.968C60.664 55.52 61.096 55.296 61.576 55.296C61.992 55.296 62.312 55.488 62.536 55.872C62.792 56.256 62.92 56.784 62.92 57.456C62.92 58.704 62.616 59.696 62.008 60.432C60.44 62.32 58.904 63.76 57.4 64.752C55.896 65.744 54.056 66.24 51.88 66.24C49.64 66.24 47.832 65.6 46.456 64.32C45.08 63.008 44.216 61.168 43.864 58.8C41.496 63.76 38.008 66.24 33.4 66.24ZM99.3359 35.28C99.3359 38 98.3759 40.352 96.4559 42.336C94.5359 44.288 91.7359 45.696 88.0559 46.56C90.0399 47.104 91.5439 48 92.5679 49.248C93.5919 50.464 94.1039 51.872 94.1039 53.472C94.1039 56 93.3039 58.192 91.7039 60.048C90.1359 61.904 87.8319 63.344 84.7919 64.368C81.7519 65.36 78.0879 65.856 73.7999 65.856C72.1999 65.856 70.9199 65.808 69.9599 65.712C69.9279 66.608 69.5439 67.28 68.8079 67.728C68.0719 68.176 67.1279 68.4 65.9759 68.4C64.8239 68.4 64.0239 68.144 63.5759 67.632C63.1599 67.12 62.9839 66.368 63.0479 65.376C63.3359 60.896 63.8959 56.208 64.7279 51.312C65.5599 46.384 66.6159 41.632 67.8959 37.056C68.1199 36.256 68.5679 35.696 69.2399 35.376C69.9119 35.056 70.7919 34.896 71.8799 34.896C73.8319 34.896 74.8079 35.44 74.8079 36.528C74.8079 36.976 74.7119 37.488 74.5199 38.064C73.6879 40.56 72.8559 43.952 72.0239 48.24C71.1919 52.496 70.5999 56.56 70.2479 60.432C71.7839 60.56 73.0319 60.624 73.9919 60.624C78.4719 60.624 81.7519 59.984 83.8319 58.704C85.9439 57.392 86.9999 55.728 86.9999 53.712C86.9999 52.304 86.3919 51.12 85.1759 50.16C83.9919 49.2 81.9919 48.672 79.1759 48.576C78.5359 48.544 78.0879 48.384 77.8319 48.096C77.5759 47.808 77.4479 47.344 77.4479 46.704C77.4479 45.776 77.6399 45.024 78.0239 44.448C78.4079 43.872 79.1119 43.568 80.1359 43.536C82.4079 43.472 84.4559 43.136 86.2799 42.528C88.1359 41.92 89.5919 41.072 90.6479 39.984C91.7039 38.864 92.2319 37.568 92.2319 36.096C92.2319 34.24 91.3199 32.784 89.4959 31.728C87.6719 30.64 84.8719 30.096 81.0959 30.096C77.6719 30.096 74.3599 30.544 71.1599 31.44C67.9599 32.304 65.2399 33.408 62.9999 34.752C61.9759 35.36 61.1119 35.664 60.4079 35.664C59.8319 35.664 59.3839 35.472 59.0639 35.088C58.7759 34.672 58.6319 34.16 58.6319 33.552C58.6319 32.752 58.7919 32.064 59.1119 31.488C59.4639 30.912 60.2799 30.256 61.5599 29.52C64.2479 27.984 67.3999 26.784 71.0159 25.92C74.6319 25.056 78.3279 24.624 82.1039 24.624C87.8959 24.624 92.2159 25.6 95.0639 27.552C97.9119 29.504 99.3359 32.08 99.3359 35.28ZM119.119 66.24C115.311 66.24 111.999 65.552 109.183 64.176C106.367 62.768 104.207 60.784 102.703 58.224C101.199 55.664 100.447 52.688 100.447 49.296C100.447 44.592 101.327 40.416 103.087 36.768C104.879 33.12 107.295 30.304 110.335 28.32C113.375 26.304 116.751 25.296 120.463 25.296C123.919 25.296 126.543 26.192 128.335 27.984C130.127 29.744 131.023 32.08 131.023 34.992C131.023 36.944 130.671 38.512 129.967 39.696C129.295 40.88 128.319 41.472 127.039 41.472C126.143 41.472 125.439 41.264 124.927 40.848C124.415 40.432 124.159 39.824 124.159 39.024C124.159 38.736 124.223 38.208 124.351 37.44C124.543 36.48 124.639 35.712 124.639 35.136C124.639 32.224 123.087 30.768 119.983 30.768C117.871 30.768 115.855 31.456 113.935 32.832C112.015 34.208 110.463 36.24 109.279 38.928C108.095 41.584 107.503 44.752 107.503 48.432C107.503 52.272 108.575 55.248 110.719 57.36C112.863 59.44 116.031 60.48 120.223 60.48C122.303 60.48 124.399 60.224 126.511 59.712C128.655 59.168 131.023 58.352 133.615 57.264C134.095 57.072 134.495 56.976 134.815 56.976C135.327 56.976 135.711 57.168 135.967 57.552C136.223 57.936 136.351 58.432 136.351 59.04C136.351 60.992 135.295 62.432 133.183 63.36C130.911 64.352 128.543 65.088 126.079 65.568C123.647 66.016 121.327 66.24 119.119 66.24Z" fill="#B0E8E6"/>
<path d="M74.1227 113.296C74.5387 113.296 74.8587 113.488 75.0827 113.872C75.3387 114.256 75.4667 114.784 75.4667 115.456C75.4667 116.736 75.1627 117.728 74.5547 118.432C73.2427 120.032 71.8027 121.408 70.2347 122.56C68.6667 123.68 67.1147 124.24 65.5787 124.24C63.1467 124.24 61.2907 122.816 60.0107 119.968C58.6667 121.664 57.4827 122.8 56.4587 123.376C55.4667 123.952 54.2987 124.24 52.9547 124.24C51.0027 124.24 49.3867 123.52 48.1067 122.08C46.8587 120.608 46.2347 118.704 46.2347 116.368C46.2347 113.808 46.7787 111.44 47.8667 109.264C48.9547 107.056 50.4427 105.264 52.3307 103.888C54.2507 102.48 56.3947 101.648 58.7627 101.392C59.3707 95.184 60.5227 89.888 62.2187 85.504C63.9467 81.088 66.2027 78.88 68.9867 78.88C70.3627 78.88 71.4987 79.504 72.3947 80.752C73.3227 82 73.7867 83.888 73.7867 86.416C73.7867 90 72.9067 94.192 71.1467 98.992C69.3867 103.792 67.0347 108.72 64.0907 113.776C64.2187 115.632 64.4907 116.96 64.9067 117.76C65.3547 118.56 65.9147 118.96 66.5867 118.96C67.4507 118.96 68.3307 118.576 69.2267 117.808C70.1227 117.04 71.3227 115.76 72.8267 113.968C73.2107 113.52 73.6427 113.296 74.1227 113.296ZM68.4587 83.584C67.8507 83.584 67.2427 84.672 66.6347 86.848C66.0267 88.992 65.4987 91.808 65.0507 95.296C64.6347 98.784 64.3307 102.432 64.1387 106.24C67.7227 98.432 69.5147 92.16 69.5147 87.424C69.5147 86.208 69.4027 85.264 69.1787 84.592C68.9867 83.92 68.7467 83.584 68.4587 83.584ZM54.6347 119.392C55.2427 119.392 55.8507 119.152 56.4587 118.672C57.0667 118.16 57.8347 117.232 58.7627 115.888C58.4427 114.16 58.2827 112.224 58.2827 110.08C58.2827 109.312 58.3147 108.064 58.3787 106.336C56.6187 106.88 55.1467 108.064 53.9627 109.888C52.8107 111.68 52.2347 113.68 52.2347 115.888C52.2347 118.224 53.0347 119.392 54.6347 119.392ZM92.9698 113.296C93.3858 113.296 93.7058 113.488 93.9298 113.872C94.1858 114.256 94.3138 114.784 94.3138 115.456C94.3138 116.736 94.0098 117.728 93.4018 118.432C92.2178 119.872 90.5378 121.2 88.3618 122.416C86.2178 123.632 83.9138 124.24 81.4498 124.24C78.0898 124.24 75.4818 123.328 73.6258 121.504C71.7698 119.68 70.8418 117.184 70.8418 114.016C70.8418 111.808 71.3058 109.76 72.2338 107.872C73.1618 105.952 74.4418 104.432 76.0738 103.312C77.7378 102.192 79.6098 101.632 81.6898 101.632C83.5458 101.632 85.0338 102.192 86.1538 103.312C87.2738 104.4 87.8338 105.888 87.8338 107.776C87.8338 109.984 87.0338 111.888 85.4338 113.488C83.8658 115.056 81.1938 116.304 77.4178 117.232C78.2178 118.704 79.7378 119.44 81.9778 119.44C83.4178 119.44 85.0498 118.944 86.8738 117.952C88.7298 116.928 90.3298 115.6 91.6738 113.968C92.0578 113.52 92.4898 113.296 92.9698 113.296ZM80.8738 106.336C79.6898 106.336 78.6818 107.024 77.8498 108.4C77.0498 109.776 76.6498 111.44 76.6498 113.392V113.488C78.5378 113.04 80.0258 112.368 81.1138 111.472C82.2018 110.576 82.7458 109.536 82.7458 108.352C82.7458 107.744 82.5698 107.264 82.2178 106.912C81.8978 106.528 81.4498 106.336 80.8738 106.336ZM109.089 110.56C109.985 110.56 110.433 111.232 110.433 112.576C110.433 115.104 108.449 116.368 104.481 116.368C103.713 116.368 102.609 116.224 101.169 115.936C101.585 117.92 101.921 120.128 102.177 122.56C102.465 124.96 102.609 126.944 102.609 128.512C102.609 131.968 102.049 134.608 100.929 136.432C99.8088 138.256 98.3368 139.168 96.5128 139.168C94.2088 139.168 92.5608 137.536 91.5688 134.272C90.6088 131.008 90.1288 126.08 90.1288 119.488C90.1288 113.344 90.7848 107.12 92.0968 100.816C93.4408 94.48 95.2648 89.248 97.5688 85.12C99.9048 80.96 102.465 78.88 105.249 78.88C106.753 78.88 107.921 79.552 108.753 80.896C109.617 82.24 110.049 84.048 110.049 86.32C110.049 93.84 105.553 102.032 96.5608 110.896C96.2408 114.032 96.0808 116.784 96.0808 119.152C96.0808 122.448 96.1928 125.824 96.4168 129.28C96.6408 132.768 97.0088 134.512 97.5208 134.512C98.4808 134.512 98.9608 132.848 98.9608 129.52C98.9608 127.024 98.7848 124.608 98.4328 122.272C98.1128 119.936 97.6648 117.472 97.0888 114.88C97.0568 114.464 97.1848 113.936 97.4728 113.296C97.7928 112.656 98.1768 112.096 98.6248 111.616C99.0728 111.136 99.4728 110.896 99.8248 110.896C100.465 110.896 101.233 110.928 102.129 110.992C102.417 111.024 102.753 111.04 103.137 111.04C104.417 111.04 105.841 110.928 107.409 110.704C107.665 110.672 107.937 110.64 108.225 110.608C108.513 110.576 108.801 110.56 109.089 110.56ZM104.241 83.632C103.665 83.632 102.945 84.608 102.081 86.56C101.249 88.512 100.417 91.104 99.5848 94.336C98.7528 97.536 98.0328 100.928 97.4248 104.512C99.9848 101.6 101.953 98.576 103.329 95.44C104.705 92.272 105.409 89.312 105.441 86.56C105.441 84.608 105.041 83.632 104.241 83.632Z" fill="#B0E8E6"/>
</svg>
