<svg width="150" height="150" viewBox="0 0 150 150" fill="none" xmlns="http://www.w3.org/2000/svg">
<path d="M43.504 33.276L55.216 63.468C55.696 64.684 56.24 65.5 56.848 65.916C57.456 66.3 58.016 66.508 58.528 66.54V67.5C57.888 67.436 57.104 67.404 56.176 67.404C55.248 67.372 54.32 67.356 53.392 67.356C52.144 67.356 50.976 67.372 49.888 67.404C48.8 67.404 47.92 67.436 47.248 67.5V66.54C48.88 66.476 49.92 66.204 50.368 65.724C50.816 65.212 50.72 64.14 50.08 62.508L41.152 38.652L41.92 38.028L33.568 59.724C33.056 61.004 32.752 62.092 32.656 62.988C32.56 63.852 32.64 64.54 32.896 65.052C33.184 65.564 33.648 65.932 34.288 66.156C34.96 66.38 35.792 66.508 36.784 66.54V67.5C35.888 67.436 34.944 67.404 33.952 67.404C32.992 67.372 32.096 67.356 31.264 67.356C30.464 67.356 29.776 67.372 29.2 67.404C28.656 67.404 28.144 67.436 27.664 67.5V66.54C28.304 66.38 28.96 66.012 29.632 65.436C30.304 64.828 30.912 63.804 31.456 62.364L42.736 33.276C42.864 33.276 42.992 33.276 43.12 33.276C43.248 33.276 43.376 33.276 43.504 33.276ZM49.36 53.676V54.636H35.056L35.536 53.676H49.36ZM59.3129 33.516C59.9849 33.548 60.8649 33.58 61.9529 33.612C63.0409 33.644 64.1129 33.66 65.1689 33.66C66.6729 33.66 68.1129 33.644 69.4889 33.612C70.8649 33.58 71.8409 33.564 72.4169 33.564C75.7769 33.564 78.3049 34.268 80.0009 35.676C81.6969 37.084 82.5449 38.892 82.5449 41.1C82.5449 42.22 82.3049 43.324 81.8249 44.412C81.3769 45.468 80.6089 46.444 79.5209 47.34C78.4649 48.204 77.0409 48.908 75.2489 49.452V49.548C77.7769 49.868 79.7449 50.476 81.1529 51.372C82.5929 52.236 83.6009 53.26 84.1769 54.444C84.7529 55.628 85.0409 56.876 85.0409 58.188C85.0409 60.012 84.5769 61.628 83.6489 63.036C82.7529 64.412 81.4409 65.5 79.7129 66.3C77.9849 67.1 75.9209 67.5 73.5209 67.5C72.8169 67.5 71.7609 67.484 70.3529 67.452C68.9449 67.388 67.2489 67.356 65.2649 67.356C64.1449 67.356 63.0409 67.372 61.9529 67.404C60.8649 67.404 59.9849 67.436 59.3129 67.5V66.54C60.4009 66.476 61.2169 66.348 61.7609 66.156C62.3369 65.964 62.7209 65.58 62.9129 65.004C63.1049 64.428 63.2009 63.564 63.2009 62.412V38.604C63.2009 37.42 63.1049 36.556 62.9129 36.012C62.7209 35.436 62.3369 35.052 61.7609 34.86C61.2169 34.636 60.4009 34.508 59.3129 34.476V33.516ZM71.2169 34.476C69.7449 34.476 68.7849 34.748 68.3369 35.292C67.8889 35.836 67.6649 36.94 67.6649 38.604V62.412C67.6649 63.532 67.7609 64.38 67.9529 64.956C68.1449 65.532 68.4969 65.916 69.0089 66.108C69.5209 66.3 70.2729 66.396 71.2649 66.396C74.4009 66.396 76.6729 65.676 78.0809 64.236C79.5209 62.764 80.2409 60.684 80.2409 57.996C80.2409 55.532 79.5689 53.628 78.2249 52.284C76.9129 50.94 74.7369 50.268 71.6969 50.268H66.7529C66.7529 50.268 66.7529 50.14 66.7529 49.884C66.7529 49.596 66.7529 49.452 66.7529 49.452H70.8809C72.7689 49.452 74.2249 49.1 75.2489 48.396C76.2729 47.66 76.9769 46.7 77.3609 45.516C77.7449 44.3 77.9369 43.004 77.9369 41.628C77.9369 39.26 77.4089 37.484 76.3529 36.3C75.3289 35.084 73.6169 34.476 71.2169 34.476ZM105.011 32.844C107.123 32.844 108.851 33.164 110.195 33.804C111.571 34.412 112.787 35.132 113.843 35.964C114.483 36.444 114.963 36.508 115.283 36.156C115.635 35.772 115.875 34.892 116.003 33.516H117.107C117.043 34.7 116.995 36.14 116.963 37.836C116.931 39.532 116.915 41.772 116.915 44.556H115.811C115.587 43.18 115.379 42.092 115.187 41.292C114.995 40.46 114.755 39.756 114.467 39.18C114.211 38.604 113.859 38.028 113.411 37.452C112.419 36.14 111.171 35.196 109.667 34.62C108.163 34.012 106.579 33.708 104.915 33.708C103.347 33.708 101.923 34.108 100.643 34.908C99.3951 35.676 98.3071 36.796 97.3791 38.268C96.4831 39.74 95.7791 41.516 95.2671 43.596C94.7871 45.676 94.5471 48.012 94.5471 50.604C94.5471 53.292 94.8191 55.676 95.3631 57.756C95.9071 59.804 96.6591 61.532 97.6191 62.94C98.6111 64.348 99.7631 65.42 101.075 66.156C102.419 66.86 103.859 67.212 105.395 67.212C106.835 67.212 108.339 66.924 109.907 66.348C111.475 65.772 112.707 64.844 113.603 63.564C114.307 62.636 114.787 61.628 115.043 60.54C115.331 59.452 115.587 57.932 115.811 55.98H116.915C116.915 58.892 116.931 61.244 116.963 63.036C116.995 64.796 117.043 66.284 117.107 67.5H116.003C115.875 66.124 115.651 65.26 115.331 64.908C115.043 64.556 114.547 64.604 113.843 65.052C112.659 65.884 111.395 66.62 110.051 67.26C108.739 67.868 107.043 68.172 104.963 68.172C101.923 68.172 99.2511 67.484 96.9471 66.108C94.6751 64.732 92.8991 62.748 91.6191 60.156C90.3711 57.564 89.7471 54.444 89.7471 50.796C89.7471 47.212 90.4031 44.076 91.7151 41.388C93.0271 38.7 94.8191 36.604 97.0911 35.1C99.3951 33.596 102.035 32.844 105.011 32.844Z" fill="#B0E8E6"/>
<path d="M64.1773 84.868V117.268C64.1773 118.708 64.4333 119.78 64.9453 120.484C65.4893 121.156 66.4493 121.492 67.8253 121.492V122.5C66.8333 122.404 65.8413 122.356 64.8493 122.356C63.9213 122.356 63.0253 122.404 62.1613 122.5C61.3293 122.596 60.5613 122.772 59.8573 123.028V90.628C59.8573 89.188 59.6013 88.132 59.0893 87.46C58.5773 86.756 57.6173 86.404 56.2093 86.404V85.396C57.2333 85.492 58.2253 85.54 59.1853 85.54C60.1133 85.54 60.9933 85.492 61.8253 85.396C62.6893 85.268 63.4733 85.092 64.1773 84.868ZM54.0973 97.108C55.5053 97.108 56.8173 97.444 58.0333 98.116C59.2813 98.788 60.1133 99.94 60.5293 101.572L59.9053 102.052C59.4573 100.708 58.7533 99.732 57.7933 99.124C56.8653 98.516 55.7613 98.212 54.4813 98.212C52.5933 98.212 51.0093 99.188 49.7293 101.14C48.4813 103.092 47.8733 106.1 47.9053 110.164C47.9053 112.756 48.1453 114.916 48.6253 116.644C49.1373 118.34 49.8733 119.62 50.8333 120.484C51.8253 121.316 53.0253 121.732 54.4333 121.732C55.7773 121.732 56.9933 121.156 58.0813 120.004C59.1693 118.852 59.8253 117.156 60.0493 114.916L60.6253 115.588C60.3693 118.02 59.5853 119.892 58.2733 121.204C56.9933 122.516 55.2493 123.172 53.0413 123.172C51.0573 123.172 49.3133 122.692 47.8093 121.732C46.3373 120.772 45.2013 119.332 44.4013 117.412C43.6333 115.492 43.2493 113.076 43.2493 110.164C43.2493 107.252 43.7453 104.836 44.7373 102.916C45.7613 100.964 47.0893 99.508 48.7213 98.548C50.3853 97.588 52.1773 97.108 54.0973 97.108ZM81.8919 97.108C84.7079 97.108 86.8999 97.972 88.4679 99.7C90.0679 101.396 90.8679 104.052 90.8679 107.668H73.9239L73.8759 106.756H86.2599C86.3239 105.188 86.1959 103.748 85.8759 102.436C85.5559 101.092 85.0439 100.02 84.3399 99.22C83.6679 98.42 82.7879 98.02 81.6999 98.02C80.2279 98.02 78.9159 98.756 77.7639 100.228C76.6439 101.7 75.9719 104.036 75.7479 107.236L75.8919 107.428C75.8279 107.908 75.7799 108.436 75.7479 109.012C75.7159 109.588 75.6999 110.164 75.6999 110.74C75.6999 112.916 76.0519 114.788 76.7559 116.356C77.4599 117.924 78.3719 119.124 79.4919 119.956C80.6439 120.756 81.8279 121.156 83.0439 121.156C84.0039 121.156 84.9159 121.012 85.7799 120.724C86.6439 120.404 87.4439 119.892 88.1799 119.188C88.9159 118.484 89.5559 117.54 90.0999 116.356L91.0599 116.74C90.7079 117.796 90.1319 118.82 89.3319 119.812C88.5319 120.804 87.5239 121.62 86.3079 122.26C85.0919 122.868 83.6839 123.172 82.0839 123.172C79.7799 123.172 77.7959 122.644 76.1319 121.588C74.4999 120.532 73.2359 119.076 72.3399 117.22C71.4759 115.332 71.0439 113.172 71.0439 110.74C71.0439 107.924 71.4919 105.508 72.3879 103.492C73.2839 101.444 74.5479 99.876 76.1799 98.788C77.8119 97.668 79.7159 97.108 81.8919 97.108ZM106.365 84.964C107.261 84.964 108.045 85.092 108.717 85.348C109.421 85.572 110.029 85.876 110.541 86.26C111.021 86.644 111.389 87.092 111.645 87.604C111.901 88.116 112.029 88.66 112.029 89.236C112.029 89.972 111.789 90.58 111.309 91.06C110.829 91.54 110.221 91.78 109.485 91.78C108.781 91.78 108.157 91.556 107.613 91.108C107.101 90.628 106.845 89.988 106.845 89.188C106.845 88.516 107.021 87.972 107.373 87.556C107.757 87.14 108.253 86.868 108.861 86.74C108.765 86.452 108.509 86.212 108.093 86.02C107.709 85.796 107.181 85.684 106.509 85.684C105.773 85.684 105.133 85.844 104.589 86.164C104.077 86.484 103.677 86.916 103.389 87.46C103.005 88.132 102.765 89.14 102.669 90.484C102.573 91.796 102.525 93.828 102.525 96.58V97.828H107.661V98.788H102.525V117.556C102.525 119.124 102.973 120.18 103.869 120.724C104.797 121.236 106.045 121.492 107.613 121.492V122.5C106.877 122.468 105.837 122.436 104.493 122.404C103.149 122.34 101.725 122.308 100.221 122.308C99.1332 122.308 98.0452 122.34 96.9572 122.404C95.9012 122.436 95.1012 122.468 94.5572 122.5V121.492C95.8692 121.492 96.7972 121.252 97.3412 120.772C97.9172 120.292 98.2052 119.38 98.2052 118.036V98.788H94.3652V97.828H98.2052C98.2052 95.94 98.2852 94.356 98.4452 93.076C98.6052 91.796 98.8612 90.708 99.2132 89.812C99.5652 88.884 100.045 88.068 100.653 87.364C101.293 86.628 102.109 86.052 103.101 85.636C104.093 85.188 105.181 84.964 106.365 84.964Z" fill="#B0E8E6"/>
</svg>
