<svg width="150" height="150" viewBox="0 0 150 150" fill="none" xmlns="http://www.w3.org/2000/svg">
<path d="M53.064 59.688H40.68L37.32 69H33.384L46.104 34.872H47.928L60.696 69H56.52L53.064 59.688ZM41.976 56.232H51.864L48.12 46.008L46.92 40.92H46.872L45.672 46.104L41.976 56.232ZM85.4141 43.08C85.4141 43.88 85.2861 44.696 85.0301 45.528C84.7741 46.36 84.3901 47.144 83.8781 47.88C83.3661 48.584 82.7101 49.208 81.9101 49.752C81.1101 50.296 80.1661 50.712 79.0781 51V51.192C80.0381 51.352 80.9501 51.624 81.8141 52.008C82.7101 52.392 83.4941 52.92 84.1661 53.592C84.8381 54.264 85.3821 55.08 85.7981 56.04C86.2141 57 86.4221 58.136 86.4221 59.448C86.4221 61.176 86.0541 62.68 85.3181 63.96C84.6141 65.208 83.6701 66.232 82.4861 67.032C81.3341 67.832 80.0061 68.424 78.5021 68.808C76.9981 69.192 75.4621 69.384 73.8941 69.384C73.3501 69.384 72.7101 69.384 71.9741 69.384C71.2381 69.384 70.4701 69.352 69.6701 69.288C68.8701 69.256 68.0701 69.192 67.2701 69.096C66.4701 69.032 65.7661 68.92 65.1581 68.76V35.688C66.3421 35.496 67.7181 35.336 69.2861 35.208C70.8541 35.08 72.5661 35.016 74.4221 35.016C75.6701 35.016 76.9341 35.128 78.2141 35.352C79.5261 35.544 80.7101 35.944 81.7661 36.552C82.8221 37.128 83.6861 37.944 84.3581 39C85.0621 40.056 85.4141 41.416 85.4141 43.08ZM74.2781 65.928C75.3021 65.928 76.2941 65.816 77.2541 65.592C78.2141 65.336 79.0621 64.952 79.7981 64.44C80.5341 63.896 81.1101 63.24 81.5261 62.472C81.9741 61.704 82.1981 60.792 82.1981 59.736C82.1981 58.424 81.9261 57.368 81.3821 56.568C80.8701 55.768 80.1821 55.144 79.3181 54.696C78.4861 54.248 77.5421 53.944 76.4861 53.784C75.4301 53.624 74.3741 53.544 73.3181 53.544H69.1421V65.592C69.3661 65.656 69.6861 65.704 70.1021 65.736C70.5181 65.768 70.9661 65.8 71.4461 65.832C71.9261 65.864 72.4221 65.896 72.9341 65.928C73.4461 65.928 73.8941 65.928 74.2781 65.928ZM71.6381 50.184C72.1821 50.184 72.8381 50.168 73.6061 50.136C74.3741 50.104 75.0141 50.056 75.5261 49.992C76.2941 49.736 77.0141 49.432 77.6861 49.08C78.3581 48.696 78.9501 48.264 79.4621 47.784C80.0061 47.272 80.4221 46.696 80.7101 46.056C81.0301 45.384 81.1901 44.664 81.1901 43.896C81.1901 42.84 80.9821 41.976 80.5661 41.304C80.1821 40.6 79.6541 40.04 78.9821 39.624C78.3101 39.208 77.5421 38.92 76.6781 38.76C75.8141 38.568 74.9341 38.472 74.0381 38.472C72.9821 38.472 72.0061 38.504 71.1101 38.568C70.2461 38.6 69.5901 38.664 69.1421 38.76V50.184H71.6381ZM114.693 67.608C113.733 68.344 112.517 68.856 111.045 69.144C109.573 69.432 108.005 69.576 106.341 69.576C104.325 69.576 102.437 69.24 100.677 68.568C98.9174 67.864 97.3814 66.808 96.0694 65.4C94.7574 63.992 93.7174 62.2 92.9494 60.024C92.1814 57.816 91.7974 55.208 91.7974 52.2C91.7974 49.064 92.2134 46.408 93.0454 44.232C93.9094 42.024 95.0294 40.232 96.4054 38.856C97.8134 37.448 99.3814 36.424 101.109 35.784C102.837 35.144 104.597 34.824 106.389 34.824C108.309 34.824 109.877 34.936 111.093 35.16C112.309 35.352 113.349 35.624 114.213 35.976L113.253 39.48C111.717 38.744 109.525 38.376 106.677 38.376C105.365 38.376 104.069 38.616 102.789 39.096C101.509 39.576 100.357 40.36 99.3334 41.448C98.3414 42.536 97.5414 43.96 96.9334 45.72C96.3254 47.48 96.0214 49.64 96.0214 52.2C96.0214 54.504 96.3094 56.52 96.8854 58.248C97.4614 59.976 98.2454 61.416 99.2374 62.568C100.261 63.72 101.445 64.584 102.789 65.16C104.165 65.736 105.653 66.024 107.253 66.024C108.693 66.024 109.941 65.88 110.997 65.592C112.085 65.304 112.997 64.936 113.733 64.488L114.693 67.608Z" fill="#B0E8E6"/>
<path d="M64.3624 108.744C64.3624 110.376 64.3784 111.864 64.4104 113.208C64.4424 114.52 64.5864 115.816 64.8424 117.096H62.2504L61.2904 113.688H61.0984C60.4584 114.808 59.5304 115.736 58.3144 116.472C57.0984 117.208 55.6744 117.576 54.0424 117.576C50.8424 117.576 48.4584 116.568 46.8904 114.552C45.3544 112.536 44.5864 109.384 44.5864 105.096C44.5864 101 45.5464 97.896 47.4664 95.784C49.4184 93.64 52.0904 92.568 55.4824 92.568C56.6664 92.568 57.5944 92.632 58.2664 92.76C58.9704 92.888 59.7224 93.096 60.5224 93.384V83.4H64.3624V108.744ZM54.6664 114.216C56.2984 114.216 57.5944 113.8 58.5544 112.968C59.5144 112.104 60.1704 110.808 60.5224 109.08V97.176C59.9464 96.728 59.2904 96.408 58.5544 96.216C57.8184 96.024 56.8424 95.928 55.6264 95.928C53.4184 95.928 51.6904 96.664 50.4424 98.136C49.1944 99.576 48.5704 101.896 48.5704 105.096C48.5704 106.408 48.6664 107.624 48.8584 108.744C49.0824 109.864 49.4344 110.824 49.9144 111.624C50.3944 112.424 51.0184 113.064 51.7864 113.544C52.5864 113.992 53.5464 114.216 54.6664 114.216ZM89.2785 115.08C88.3185 115.848 87.1025 116.456 85.6305 116.904C84.1905 117.352 82.6545 117.576 81.0225 117.576C79.1985 117.576 77.6145 117.288 76.2705 116.712C74.9265 116.104 73.8225 115.256 72.9585 114.168C72.0945 113.048 71.4545 111.72 71.0385 110.184C70.6225 108.648 70.4145 106.92 70.4145 105C70.4145 100.904 71.3265 97.784 73.1505 95.64C74.9745 93.496 77.5825 92.424 80.9745 92.424C82.0625 92.424 83.1505 92.552 84.2385 92.808C85.3265 93.032 86.3025 93.48 87.1665 94.152C88.0305 94.824 88.7345 95.784 89.2785 97.032C89.8225 98.248 90.0945 99.864 90.0945 101.88C90.0945 102.936 89.9985 104.104 89.8065 105.384H74.3985C74.3985 106.792 74.5425 108.04 74.8305 109.128C75.1185 110.216 75.5665 111.144 76.1745 111.912C76.7825 112.648 77.5665 113.224 78.5265 113.64C79.5185 114.024 80.7185 114.216 82.1265 114.216C83.2145 114.216 84.3025 114.024 85.3905 113.64C86.4785 113.256 87.2945 112.808 87.8385 112.296L89.2785 115.08ZM81.0225 95.784C79.1345 95.784 77.6145 96.28 76.4625 97.272C75.3425 98.264 74.6705 99.96 74.4465 102.36H86.3505C86.3505 99.928 85.8865 98.232 84.9585 97.272C84.0305 96.28 82.7185 95.784 81.0225 95.784ZM93.4935 93H97.2375V91.656C97.2375 90.184 97.3495 88.904 97.5735 87.816C97.8295 86.728 98.2295 85.848 98.7735 85.176C99.3175 84.472 100.022 83.96 100.886 83.64C101.75 83.288 102.822 83.112 104.102 83.112C105.126 83.112 106.022 83.176 106.79 83.304C107.59 83.432 108.422 83.672 109.286 84.024L108.422 87.24C107.686 86.92 106.982 86.712 106.31 86.616C105.67 86.52 105.062 86.472 104.486 86.472C103.654 86.472 102.998 86.6 102.518 86.856C102.07 87.112 101.734 87.496 101.51 88.008C101.318 88.488 101.19 89.096 101.126 89.832C101.094 90.536 101.078 91.368 101.078 92.328V93H107.462V96.36H101.078V117H97.2375V96.36H93.4935V93Z" fill="#B0E8E6"/>
</svg>
