<svg width="150" height="150" viewBox="0 0 150 150" fill="none" xmlns="http://www.w3.org/2000/svg">
<path d="M40.832 34.42H43.664L57.824 68.5H54.272L49.856 57.844H34.544L30.176 68.5H26.576L40.832 34.42ZM49.088 55.204L42.224 38.356L35.264 55.204H49.088ZM88.3415 59.716C88.3415 61.412 87.9095 62.932 87.0455 64.276C86.1815 65.588 85.0135 66.628 83.5415 67.396C82.1015 68.132 80.5175 68.5 78.7895 68.5H62.7095V34.42H79.1255C80.7255 34.42 82.1015 34.852 83.2535 35.716C84.4375 36.548 85.3335 37.636 85.9415 38.98C86.5815 40.292 86.9015 41.668 86.9015 43.108C86.9015 44.804 86.4695 46.372 85.6055 47.812C84.7415 49.252 83.5415 50.324 82.0055 51.028C83.9575 51.604 85.4935 52.676 86.6135 54.244C87.7655 55.812 88.3415 57.636 88.3415 59.716ZM84.9815 59.14C84.9815 57.988 84.7255 56.932 84.2135 55.972C83.7015 54.98 82.9975 54.18 82.1015 53.572C81.2375 52.964 80.2455 52.66 79.1255 52.66H66.0695V65.572H78.7895C79.9415 65.572 80.9815 65.268 81.9095 64.66C82.8375 64.052 83.5735 63.268 84.1175 62.308C84.6935 61.316 84.9815 60.26 84.9815 59.14ZM66.0695 37.348V49.924H77.7815C78.9015 49.924 79.8935 49.636 80.7575 49.06C81.6215 48.452 82.3095 47.668 82.8215 46.708C83.3335 45.748 83.5895 44.724 83.5895 43.636C83.5895 42.484 83.3495 41.444 82.8695 40.516C82.3895 39.556 81.7335 38.788 80.9015 38.212C80.0695 37.636 79.1255 37.348 78.0695 37.348H66.0695ZM92.4223 51.22C92.4223 49.14 92.7743 47.108 93.4783 45.124C94.2143 43.108 95.2703 41.284 96.6463 39.652C98.0223 37.988 99.7183 36.676 101.734 35.716C103.75 34.724 106.038 34.228 108.598 34.228C111.638 34.228 114.23 34.932 116.374 36.34C118.55 37.716 120.15 39.492 121.174 41.668L118.534 43.3C117.798 41.796 116.87 40.612 115.75 39.748C114.63 38.852 113.43 38.212 112.15 37.828C110.902 37.444 109.654 37.252 108.406 37.252C106.358 37.252 104.55 37.668 102.982 38.5C101.414 39.3 100.086 40.388 98.9983 41.764C97.9423 43.108 97.1423 44.628 96.5983 46.324C96.0543 47.988 95.7823 49.684 95.7823 51.412C95.7823 53.3 96.1023 55.108 96.7422 56.836C97.3823 58.564 98.2783 60.1 99.4303 61.444C100.582 62.756 101.926 63.812 103.462 64.612C105.03 65.38 106.726 65.764 108.55 65.764C109.83 65.764 111.142 65.54 112.486 65.092C113.83 64.644 115.078 63.956 116.23 63.028C117.414 62.1 118.358 60.9 119.062 59.428L121.846 60.868C121.142 62.564 120.054 64.004 118.582 65.188C117.11 66.372 115.462 67.268 113.638 67.876C111.846 68.484 110.086 68.788 108.358 68.788C106.022 68.788 103.878 68.292 101.926 67.3C99.9743 66.276 98.2783 64.932 96.8383 63.268C95.4303 61.572 94.3423 59.684 93.5742 57.604C92.8063 55.492 92.4223 53.364 92.4223 51.22Z" fill="#B0E8E6"/>
<path d="M40.1231 103.068C40.1231 100.7 40.6031 98.54 41.5631 96.588C42.5551 94.604 43.9151 93.02 45.6431 91.836C47.3711 90.652 49.3391 90.06 51.5471 90.06C53.6271 90.06 55.4831 90.62 57.1151 91.74C58.7791 92.828 60.0751 94.156 61.0031 95.724V80.46H64.2671V111.564C64.2671 112.012 64.3631 112.348 64.5551 112.572C64.7471 112.764 65.0351 112.876 65.4191 112.908V115.5C64.7791 115.596 64.2831 115.628 63.9311 115.596C63.2591 115.564 62.6671 115.292 62.1551 114.78C61.6431 114.268 61.3871 113.708 61.3871 113.1V110.652C60.3951 112.284 59.0511 113.58 57.3551 114.54C55.6591 115.5 53.8991 115.98 52.0751 115.98C50.3471 115.98 48.7471 115.628 47.2751 114.924C45.8351 114.22 44.5711 113.26 43.4831 112.044C42.4271 110.828 41.5951 109.452 40.9871 107.916C40.4111 106.348 40.1231 104.732 40.1231 103.068ZM61.0031 106.908V99.18C60.5871 98.028 59.9151 96.988 58.9871 96.06C58.0591 95.1 57.0031 94.348 55.8191 93.804C54.6671 93.228 53.5151 92.94 52.3631 92.94C51.0191 92.94 49.8031 93.228 48.7151 93.804C47.6271 94.348 46.6831 95.1 45.8831 96.06C45.1151 97.02 44.5231 98.108 44.1071 99.324C43.6911 100.54 43.4831 101.788 43.4831 103.068C43.4831 104.412 43.7071 105.692 44.1551 106.908C44.6351 108.124 45.3071 109.212 46.1711 110.172C47.0351 111.1 48.0271 111.82 49.1471 112.332C50.2671 112.844 51.4831 113.1 52.7951 113.1C53.6271 113.1 54.4911 112.94 55.3871 112.62C56.2831 112.3 57.1311 111.868 57.9311 111.324C58.7631 110.748 59.4511 110.076 59.9951 109.308C60.5391 108.54 60.8751 107.74 61.0031 106.908ZM82.4625 115.98C80.6705 115.98 79.0065 115.644 77.4705 114.972C75.9345 114.268 74.6065 113.324 73.4865 112.14C72.3665 110.924 71.4865 109.532 70.8465 107.964C70.2385 106.396 69.9345 104.716 69.9345 102.924C69.9345 100.588 70.4625 98.444 71.5185 96.492C72.6065 94.54 74.0945 92.988 75.9825 91.836C77.8705 90.652 80.0145 90.06 82.4145 90.06C84.8785 90.06 87.0225 90.652 88.8465 91.836C90.7025 93.02 92.1585 94.588 93.2145 96.54C94.2705 98.46 94.7985 100.572 94.7985 102.876C94.7985 103.132 94.7985 103.388 94.7985 103.644C94.7985 103.868 94.7825 104.044 94.7505 104.172H73.3425C73.5025 105.964 73.9985 107.564 74.8305 108.972C75.6945 110.348 76.7985 111.452 78.1425 112.284C79.5185 113.084 81.0065 113.484 82.6065 113.484C84.2385 113.484 85.7745 113.068 87.2145 112.236C88.6865 111.404 89.7105 110.316 90.2865 108.972L93.1185 109.74C92.6065 110.924 91.8225 111.996 90.7665 112.956C89.7105 113.916 88.4625 114.668 87.0225 115.212C85.6145 115.724 84.0945 115.98 82.4625 115.98ZM73.2465 101.82H91.7265C91.5985 99.996 91.1025 98.396 90.2385 97.02C89.4065 95.644 88.3025 94.572 86.9265 93.804C85.5825 93.004 84.0945 92.604 82.4625 92.604C80.8305 92.604 79.3425 93.004 77.9985 93.804C76.6545 94.572 75.5505 95.66 74.6865 97.068C73.8545 98.444 73.3745 100.028 73.2465 101.82ZM100.753 115.5V93.084H97.2971V90.492H100.753V89.82C100.753 87.772 101.041 86.012 101.617 84.54C102.225 83.068 103.073 81.948 104.161 81.18C105.281 80.38 106.593 79.98 108.097 79.98C109.089 79.98 110.049 80.124 110.977 80.412C111.905 80.7 112.705 81.084 113.377 81.564L112.369 83.916C111.953 83.564 111.409 83.292 110.737 83.1C110.065 82.908 109.393 82.812 108.721 82.812C107.217 82.812 106.049 83.404 105.217 84.588C104.417 85.772 104.017 87.484 104.017 89.724V90.492H110.929V93.084H104.017V115.5H100.753Z" fill="#B0E8E6"/>
</svg>
