<svg width="150" height="150" viewBox="0 0 150 150" fill="none" xmlns="http://www.w3.org/2000/svg">
<path d="M44.5938 35.8984L33.2969 67H28.6797L41.6875 32.875H44.6641L44.5938 35.8984ZM54.0625 67L42.7422 35.8984L42.6719 32.875H45.6484L58.7031 67H54.0625ZM53.4766 54.3672V58.0703H34.3047V54.3672H53.4766ZM75.4375 51.0391H66.7891L66.7422 47.4062H74.5938C75.8906 47.4062 77.0234 47.1875 77.9922 46.75C78.9609 46.3125 79.7109 45.6875 80.2422 44.875C80.7891 44.0469 81.0625 43.0625 81.0625 41.9219C81.0625 40.6719 80.8203 39.6562 80.3359 38.875C79.8672 38.0781 79.1406 37.5 78.1562 37.1406C77.1875 36.7656 75.9531 36.5781 74.4531 36.5781H67.7969V67H63.2734V32.875H74.4531C76.2031 32.875 77.7656 33.0547 79.1406 33.4141C80.5156 33.7578 81.6797 34.3047 82.6328 35.0547C83.6016 35.7891 84.3359 36.7266 84.8359 37.8672C85.3359 39.0078 85.5859 40.375 85.5859 41.9688C85.5859 43.375 85.2266 44.6484 84.5078 45.7891C83.7891 46.9141 82.7891 47.8359 81.5078 48.5547C80.2422 49.2734 78.7578 49.7344 77.0547 49.9375L75.4375 51.0391ZM75.2266 67H65.0078L67.5625 63.3203H75.2266C76.6641 63.3203 77.8828 63.0703 78.8828 62.5703C79.8984 62.0703 80.6719 61.3672 81.2031 60.4609C81.7344 59.5391 82 58.4531 82 57.2031C82 55.9375 81.7734 54.8438 81.3203 53.9219C80.8672 53 80.1562 52.2891 79.1875 51.7891C78.2188 51.2891 76.9688 51.0391 75.4375 51.0391H68.9922L69.0391 47.4062H77.8516L78.8125 48.7188C80.4531 48.8594 81.8438 49.3281 82.9844 50.125C84.125 50.9062 84.9922 51.9062 85.5859 53.125C86.1953 54.3438 86.5 55.6875 86.5 57.1562C86.5 59.2812 86.0312 61.0781 85.0938 62.5469C84.1719 64 82.8672 65.1094 81.1797 65.875C79.4922 66.625 77.5078 67 75.2266 67ZM113.781 56.1484H118.281C118.047 58.3047 117.43 60.2344 116.43 61.9375C115.43 63.6406 114.016 64.9922 112.188 65.9922C110.359 66.9766 108.078 67.4688 105.344 67.4688C103.344 67.4688 101.523 67.0938 99.8828 66.3438C98.2578 65.5938 96.8594 64.5312 95.6875 63.1562C94.5156 61.7656 93.6094 60.1016 92.9688 58.1641C92.3438 56.2109 92.0312 54.0391 92.0312 51.6484V48.25C92.0312 45.8594 92.3438 43.6953 92.9688 41.7578C93.6094 39.8047 94.5234 38.1328 95.7109 36.7422C96.9141 35.3516 98.3594 34.2812 100.047 33.5312C101.734 32.7812 103.633 32.4062 105.742 32.4062C108.32 32.4062 110.5 32.8906 112.281 33.8594C114.062 34.8281 115.445 36.1719 116.43 37.8906C117.43 39.5938 118.047 41.5703 118.281 43.8203H113.781C113.562 42.2266 113.156 40.8594 112.562 39.7188C111.969 38.5625 111.125 37.6719 110.031 37.0469C108.938 36.4219 107.508 36.1094 105.742 36.1094C104.227 36.1094 102.891 36.3984 101.734 36.9766C100.594 37.5547 99.6328 38.375 98.8516 39.4375C98.0859 40.5 97.5078 41.7734 97.1172 43.2578C96.7266 44.7422 96.5312 46.3906 96.5312 48.2031V51.6484C96.5312 53.3203 96.7031 54.8906 97.0469 56.3594C97.4062 57.8281 97.9453 59.1172 98.6641 60.2266C99.3828 61.3359 100.297 62.2109 101.406 62.8516C102.516 63.4766 103.828 63.7891 105.344 63.7891C107.266 63.7891 108.797 63.4844 109.938 62.875C111.078 62.2656 111.938 61.3906 112.516 60.25C113.109 59.1094 113.531 57.7422 113.781 56.1484Z" fill="#B0E8E6"/>
<path d="M59.8178 98.472C59.0178 97.4 58.1538 96.656 57.2258 96.24C56.2978 95.808 55.2578 95.592 54.1058 95.592C51.8498 95.592 50.1138 96.4 48.8978 98.016C47.6818 99.632 47.0738 101.936 47.0738 104.928C47.0738 106.512 47.2098 107.872 47.4818 109.008C47.7538 110.128 48.1538 111.056 48.6818 111.792C49.2098 112.512 49.8578 113.04 50.6258 113.376C51.3938 113.712 52.2658 113.88 53.2418 113.88C54.6498 113.88 55.8738 113.56 56.9138 112.92C57.9698 112.28 58.9378 111.376 59.8178 110.208V98.472ZM64.0898 81.648V117H61.5458C60.9378 117 60.5538 116.704 60.3938 116.112L60.0098 113.16C58.9698 114.408 57.7858 115.416 56.4578 116.184C55.1298 116.952 53.5938 117.336 51.8498 117.336C50.4578 117.336 49.1938 117.072 48.0578 116.544C46.9218 116 45.9538 115.208 45.1538 114.168C44.3538 113.128 43.7378 111.832 43.3058 110.28C42.8738 108.728 42.6578 106.944 42.6578 104.928C42.6578 103.136 42.8978 101.472 43.3778 99.936C43.8578 98.384 44.5458 97.04 45.4418 95.904C46.3378 94.768 47.4338 93.88 48.7298 93.24C50.0418 92.584 51.5138 92.256 53.1458 92.256C54.6338 92.256 55.9058 92.512 56.9618 93.024C58.0338 93.52 58.9858 94.216 59.8178 95.112V81.648H64.0898ZM87.1091 102.192C87.1091 101.2 86.9651 100.296 86.6771 99.48C86.4051 98.648 85.9971 97.936 85.4531 97.344C84.9251 96.736 84.2771 96.272 83.5091 95.952C82.7411 95.616 81.8691 95.448 80.8931 95.448C78.8451 95.448 77.2211 96.048 76.0211 97.248C74.8371 98.432 74.1011 100.08 73.8131 102.192H87.1091ZM90.5651 113.592C90.0371 114.232 89.4051 114.792 88.6691 115.272C87.9331 115.736 87.1411 116.12 86.2931 116.424C85.4611 116.728 84.5971 116.952 83.7011 117.096C82.8051 117.256 81.9171 117.336 81.0371 117.336C79.3571 117.336 77.8051 117.056 76.3811 116.496C74.9731 115.92 73.7491 115.088 72.7091 114C71.6851 112.896 70.8851 111.536 70.3091 109.92C69.7331 108.304 69.4451 106.448 69.4451 104.352C69.4451 102.656 69.7011 101.072 70.2131 99.6C70.7411 98.128 71.4931 96.856 72.4691 95.784C73.4451 94.696 74.6371 93.848 76.0451 93.24C77.4531 92.616 79.0371 92.304 80.7971 92.304C82.2531 92.304 83.5971 92.552 84.8291 93.048C86.0771 93.528 87.1491 94.232 88.0451 95.16C88.9571 96.072 89.6691 97.208 90.1811 98.568C90.6931 99.912 90.9491 101.448 90.9491 103.176C90.9491 103.848 90.8771 104.296 90.7331 104.52C90.5891 104.744 90.3171 104.856 89.9171 104.856H73.6691C73.7171 106.392 73.9251 107.728 74.2931 108.864C74.6771 110 75.2051 110.952 75.8771 111.72C76.5491 112.472 77.3491 113.04 78.2771 113.424C79.2051 113.792 80.2451 113.976 81.3971 113.976C82.4691 113.976 83.3891 113.856 84.1571 113.616C84.9411 113.36 85.6131 113.088 86.1731 112.8C86.7331 112.512 87.1971 112.248 87.5651 112.008C87.9491 111.752 88.2771 111.624 88.5491 111.624C88.9011 111.624 89.1731 111.76 89.3651 112.032L90.5651 113.592ZM97.5461 117V96.336L94.8581 96.024C94.5221 95.944 94.2421 95.824 94.0181 95.664C93.8101 95.488 93.7061 95.24 93.7061 94.92V93.168H97.5461V90.816C97.5461 89.424 97.7381 88.192 98.1221 87.12C98.5221 86.032 99.0821 85.12 99.8021 84.384C100.538 83.632 101.418 83.064 102.442 82.68C103.466 82.296 104.618 82.104 105.898 82.104C106.986 82.104 107.986 82.264 108.898 82.584L108.802 84.72C108.77 85.104 108.554 85.312 108.154 85.344C107.77 85.376 107.25 85.392 106.594 85.392C105.858 85.392 105.186 85.488 104.578 85.68C103.986 85.872 103.474 86.184 103.042 86.616C102.61 87.048 102.274 87.616 102.034 88.32C101.81 89.024 101.698 89.896 101.698 90.936V93.168H108.706V96.264H101.842V117H97.5461Z" fill="#B0E8E6"/>
</svg>
