<svg width="150" height="150" viewBox="0 0 150 150" fill="none" xmlns="http://www.w3.org/2000/svg">
<path d="M43.744 48.884L42.256 53.684H51.712L50.224 48.884C49.648 47.124 49.104 45.38 48.592 43.652C48.08 41.892 47.568 40.1 47.056 38.276H46.864C46.384 40.1 45.888 41.892 45.376 43.652C44.864 45.38 44.32 47.124 43.744 48.884ZM34.144 66.5L44.8 35.012H49.312L59.968 66.5H55.696L52.72 56.9H41.248L38.224 66.5H34.144ZM64.4294 66.5V35.012H73.7894C75.9334 35.012 77.8054 35.268 79.4054 35.78C81.0374 36.292 82.3014 37.108 83.1974 38.228C84.1254 39.348 84.5894 40.836 84.5894 42.692C84.5894 44.26 84.1894 45.684 83.3894 46.964C82.6214 48.212 81.4854 49.076 79.9814 49.556V49.748C81.8694 50.1 83.4054 50.9 84.5894 52.148C85.8054 53.396 86.4134 55.108 86.4134 57.284C86.4134 59.332 85.9014 61.044 84.8774 62.42C83.8854 63.796 82.4934 64.82 80.7014 65.492C78.9094 66.164 76.8294 66.5 74.4614 66.5H64.4294ZM68.4134 48.404H73.0694C75.7574 48.404 77.6934 47.94 78.8774 47.012C80.0614 46.084 80.6534 44.82 80.6534 43.22C80.6534 41.396 80.0294 40.1 78.7814 39.332C77.5654 38.564 75.7254 38.18 73.2614 38.18H68.4134V48.404ZM68.4134 63.332H73.8854C76.6054 63.332 78.7174 62.836 80.2214 61.844C81.7254 60.82 82.4774 59.252 82.4774 57.14C82.4774 55.188 81.7254 53.764 80.2214 52.868C78.7494 51.94 76.6374 51.476 73.8854 51.476H68.4134V63.332ZM104.552 67.076C101.928 67.076 99.5761 66.436 97.4961 65.156C95.4481 63.844 93.8161 61.972 92.6001 59.54C91.4161 57.108 90.8241 54.18 90.8241 50.756C90.8241 47.364 91.4321 44.452 92.6481 42.02C93.8641 39.588 95.5281 37.716 97.6401 36.404C99.7521 35.092 102.136 34.436 104.792 34.436C106.712 34.436 108.408 34.836 109.88 35.636C111.352 36.404 112.536 37.3 113.432 38.324L111.272 40.916C110.44 40.02 109.496 39.3 108.44 38.756C107.384 38.212 106.184 37.94 104.84 37.94C102.856 37.94 101.112 38.468 99.6081 39.524C98.1361 40.548 96.9841 42.004 96.1521 43.892C95.3521 45.78 94.9521 48.036 94.9521 50.66C94.9521 53.284 95.3521 55.572 96.1521 57.524C96.9521 59.444 98.0721 60.932 99.5121 61.988C100.984 63.044 102.712 63.572 104.696 63.572C106.2 63.572 107.544 63.252 108.728 62.612C109.912 61.972 111 61.108 111.992 60.02L114.2 62.516C112.952 63.956 111.544 65.076 109.976 65.876C108.408 66.676 106.6 67.076 104.552 67.076Z" fill="#B0E8E6"/>
<path d="M54.6774 118.076C51.7654 118.076 49.4294 117.02 47.6694 114.908C45.9094 112.764 45.0294 109.756 45.0294 105.884C45.0294 103.356 45.4934 101.18 46.4214 99.356C47.3814 97.5 48.6294 96.076 50.1654 95.084C51.7334 94.092 53.3974 93.596 55.1574 93.596C56.5014 93.596 57.6694 93.836 58.6614 94.316C59.6534 94.796 60.6614 95.452 61.6854 96.284L61.4934 92.3V83.324H65.4774V117.5H62.2134L61.8774 114.764H61.7334C60.8374 115.66 59.7814 116.444 58.5654 117.116C57.3494 117.756 56.0534 118.076 54.6774 118.076ZM55.5414 114.764C57.5894 114.764 59.5734 113.692 61.4934 111.548V99.356C60.5014 98.46 59.5414 97.836 58.6134 97.484C57.7174 97.1 56.7894 96.908 55.8294 96.908C54.5814 96.908 53.4454 97.292 52.4214 98.06C51.4294 98.796 50.6294 99.836 50.0214 101.18C49.4134 102.492 49.1094 104.044 49.1094 105.836C49.1094 108.62 49.6694 110.812 50.7894 112.412C51.9094 113.98 53.4934 114.764 55.5414 114.764ZM82.7904 118.076C80.7104 118.076 78.8224 117.596 77.1264 116.636C75.4304 115.644 74.0864 114.236 73.0944 112.412C72.1024 110.588 71.6064 108.412 71.6064 105.884C71.6064 103.324 72.1024 101.132 73.0944 99.308C74.1184 97.484 75.4304 96.076 77.0304 95.084C78.6304 94.092 80.3104 93.596 82.0704 93.596C85.0464 93.596 87.3344 94.588 88.9344 96.572C90.5664 98.556 91.3824 101.212 91.3824 104.54C91.3824 104.956 91.3664 105.372 91.3344 105.788C91.3344 106.172 91.3024 106.508 91.2384 106.796H75.4944C75.6544 109.26 76.4224 111.228 77.7984 112.7C79.2064 114.172 81.0304 114.908 83.2704 114.908C84.3904 114.908 85.4144 114.748 86.3424 114.428C87.3024 114.076 88.2144 113.628 89.0784 113.084L90.4704 115.676C89.4784 116.316 88.3424 116.876 87.0624 117.356C85.8144 117.836 84.3904 118.076 82.7904 118.076ZM75.4464 103.964H87.9264C87.9264 101.596 87.4144 99.804 86.3904 98.588C85.3984 97.34 83.9904 96.716 82.1664 96.716C80.5344 96.716 79.0624 97.356 77.7504 98.636C76.4704 99.884 75.7024 101.66 75.4464 103.964ZM97.8189 117.5V97.388H94.6509V94.412L97.8189 94.172V90.476C97.8189 88.108 98.3629 86.236 99.4509 84.86C100.571 83.452 102.299 82.748 104.635 82.748C105.371 82.748 106.075 82.828 106.747 82.988C107.419 83.116 108.011 83.292 108.523 83.516L107.659 86.54C106.795 86.156 105.915 85.964 105.019 85.964C102.843 85.964 101.755 87.468 101.755 90.476V94.172H106.699V97.388H101.755V117.5H97.8189Z" fill="#B0E8E6"/>
</svg>
