<svg width="150" height="150" viewBox="0 0 150 150" fill="none" xmlns="http://www.w3.org/2000/svg">
<path d="M54.352 69.5C53.808 68.06 53.296 66.652 52.816 65.276C52.336 63.868 51.84 62.444 51.328 61.004H36.256L33.232 69.5H28.384C29.664 65.98 30.864 62.732 31.984 59.756C33.104 56.748 34.192 53.9 35.248 51.212C36.336 48.524 37.408 45.964 38.464 43.532C39.52 41.068 40.624 38.636 41.776 36.236H46.048C47.2 38.636 48.304 41.068 49.36 43.532C50.416 45.964 51.472 48.524 52.528 51.212C53.616 53.9 54.72 56.748 55.84 59.756C56.96 62.732 58.16 65.98 59.44 69.5H54.352ZM49.984 57.164C48.96 54.38 47.936 51.692 46.912 49.1C45.92 46.476 44.88 43.964 43.792 41.564C42.672 43.964 41.6 46.476 40.576 49.1C39.584 51.692 38.592 54.38 37.6 57.164H49.984ZM72.9321 69.788C72.2601 69.788 71.5241 69.772 70.7241 69.74C69.9561 69.708 69.1721 69.66 68.3721 69.596C67.6041 69.532 66.8361 69.452 66.0681 69.356C65.3001 69.26 64.5961 69.132 63.9561 68.972V36.716C64.5961 36.556 65.3001 36.428 66.0681 36.332C66.8361 36.236 67.6041 36.156 68.3721 36.092C69.1721 36.028 69.9561 35.98 70.7241 35.948C71.4921 35.916 72.2121 35.9 72.8841 35.9C74.8041 35.9 76.5961 36.044 78.2601 36.332C79.9561 36.62 81.4121 37.116 82.6281 37.82C83.8761 38.492 84.8521 39.388 85.5561 40.508C86.2601 41.628 86.6121 43.004 86.6121 44.636C86.6121 46.46 86.1801 47.964 85.3161 49.148C84.4521 50.3 83.3001 51.164 81.8601 51.74C83.8121 52.316 85.3641 53.228 86.5161 54.476C87.6681 55.724 88.2441 57.484 88.2441 59.756C88.2441 63.084 87.0121 65.596 84.5481 67.292C82.1161 68.956 78.2441 69.788 72.9321 69.788ZM68.5641 53.996V65.708C68.9161 65.74 69.3321 65.772 69.8121 65.804C70.2281 65.836 70.7081 65.868 71.2521 65.9C71.8281 65.9 72.4841 65.9 73.2201 65.9C74.5961 65.9 75.8921 65.82 77.1081 65.66C78.3561 65.468 79.4441 65.148 80.3721 64.7C81.3001 64.252 82.0361 63.628 82.5801 62.828C83.1561 62.028 83.4441 61.02 83.4441 59.804C83.4441 58.716 83.2361 57.804 82.8201 57.068C82.4041 56.3 81.7961 55.692 80.9961 55.244C80.2281 54.796 79.3001 54.476 78.2121 54.284C77.1241 54.092 75.9081 53.996 74.5641 53.996H68.5641ZM68.5641 50.252H73.4601C74.6121 50.252 75.7001 50.172 76.7241 50.012C77.7481 49.852 78.6281 49.564 79.3641 49.148C80.1321 48.732 80.7241 48.188 81.1401 47.516C81.5881 46.844 81.8121 45.996 81.8121 44.972C81.8121 44.012 81.5881 43.212 81.1401 42.572C80.6921 41.9 80.0681 41.372 79.2681 40.988C78.5001 40.572 77.5881 40.268 76.5321 40.076C75.4761 39.884 74.3561 39.788 73.1721 39.788C71.9881 39.788 71.0601 39.804 70.3881 39.836C69.7161 39.868 69.1081 39.916 68.5641 39.98V50.252ZM109.104 70.22C106.768 70.22 104.64 69.836 102.72 69.068C100.8 68.3 99.1519 67.18 97.7759 65.708C96.3999 64.236 95.3279 62.428 94.5599 60.284C93.8239 58.108 93.4559 55.628 93.4559 52.844C93.4559 50.06 93.8719 47.596 94.7039 45.452C95.5679 43.276 96.7199 41.452 98.1599 39.98C99.5999 38.508 101.28 37.388 103.2 36.62C105.12 35.852 107.168 35.468 109.344 35.468C110.72 35.468 111.952 35.564 113.04 35.756C114.16 35.948 115.12 36.172 115.92 36.428C116.752 36.684 117.424 36.94 117.936 37.196C118.448 37.452 118.8 37.644 118.992 37.772L117.648 41.612C117.36 41.42 116.944 41.212 116.4 40.988C115.856 40.764 115.232 40.54 114.528 40.316C113.856 40.092 113.104 39.916 112.272 39.788C111.472 39.628 110.656 39.548 109.824 39.548C108.064 39.548 106.48 39.852 105.072 40.46C103.664 41.068 102.464 41.948 101.472 43.1C100.48 44.252 99.7119 45.66 99.1679 47.324C98.6559 48.956 98.3999 50.796 98.3999 52.844C98.3999 54.828 98.6239 56.636 99.0719 58.268C99.5519 59.9 100.256 61.308 101.184 62.492C102.112 63.644 103.264 64.54 104.64 65.18C106.048 65.82 107.68 66.14 109.536 66.14C111.68 66.14 113.456 65.916 114.864 65.468C116.272 65.02 117.328 64.62 118.032 64.268L119.232 68.108C119.008 68.268 118.608 68.476 118.032 68.732C117.456 68.956 116.736 69.18 115.872 69.404C115.008 69.628 114 69.82 112.848 69.98C111.696 70.14 110.448 70.22 109.104 70.22Z" fill="#B0E8E6"/>
<path d="M58.1711 95.82C57.6271 95.372 56.8431 94.94 55.8191 94.524C54.7951 94.108 53.6751 93.9 52.4591 93.9C51.1791 93.9 50.0751 94.14 49.1471 94.62C48.2511 95.068 47.5151 95.708 46.9391 96.54C46.3631 97.34 45.9471 98.3 45.6911 99.42C45.4351 100.54 45.3071 101.74 45.3071 103.02C45.3071 105.932 46.0271 108.188 47.4671 109.788C48.9071 111.356 50.8271 112.14 53.2271 112.14C54.4431 112.14 55.4511 112.092 56.2511 111.996C57.0831 111.868 57.7231 111.74 58.1711 111.612V95.82ZM58.1711 79.02L62.6351 78.252V114.78C61.6111 115.068 60.2991 115.356 58.6991 115.644C57.0991 115.932 55.2591 116.076 53.1791 116.076C51.2591 116.076 49.5311 115.772 47.9951 115.164C46.4591 114.556 45.1471 113.692 44.0591 112.572C42.9711 111.452 42.1231 110.092 41.5151 108.492C40.9391 106.86 40.6511 105.036 40.6511 103.02C40.6511 101.1 40.8911 99.34 41.3711 97.74C41.8831 96.14 42.6191 94.764 43.5791 93.612C44.5391 92.46 45.7071 91.564 47.0831 90.924C48.4911 90.284 50.0911 89.964 51.8831 89.964C53.3231 89.964 54.5871 90.156 55.6751 90.54C56.7951 90.924 57.6271 91.292 58.1711 91.644V79.02ZM68.9168 103.068C68.9168 100.86 69.2368 98.94 69.8768 97.308C70.5168 95.644 71.3648 94.268 72.4208 93.18C73.4768 92.092 74.6928 91.276 76.0688 90.732C77.4448 90.188 78.8528 89.916 80.2928 89.916C83.6528 89.916 86.2288 90.972 88.0208 93.084C89.8128 95.164 90.7087 98.348 90.7087 102.636C90.7087 102.828 90.7087 103.084 90.7087 103.404C90.7087 103.692 90.6927 103.964 90.6608 104.22H73.5728C73.7648 106.812 74.5168 108.78 75.8288 110.124C77.1408 111.468 79.1888 112.14 81.9728 112.14C83.5408 112.14 84.8528 112.012 85.9088 111.756C86.9968 111.468 87.8128 111.196 88.3568 110.94L88.9808 114.684C88.4368 114.972 87.4768 115.276 86.1008 115.596C84.7568 115.916 83.2208 116.076 81.4928 116.076C79.3168 116.076 77.4288 115.756 75.8288 115.116C74.2608 114.444 72.9648 113.532 71.9408 112.38C70.9168 111.228 70.1488 109.868 69.6367 108.3C69.1568 106.7 68.9168 104.956 68.9168 103.068ZM86.0528 100.62C86.0848 98.604 85.5728 96.956 84.5168 95.676C83.4928 94.364 82.0688 93.708 80.2448 93.708C79.2208 93.708 78.3088 93.916 77.5088 94.332C76.7408 94.716 76.0848 95.228 75.5408 95.868C74.9968 96.508 74.5648 97.244 74.2448 98.076C73.9568 98.908 73.7648 99.756 73.6688 100.62H86.0528ZM106.865 78.252C108.177 78.252 109.297 78.348 110.225 78.54C111.185 78.732 111.857 78.908 112.241 79.068L111.425 82.908C111.041 82.716 110.497 82.54 109.793 82.38C109.089 82.188 108.225 82.092 107.201 82.092C105.121 82.092 103.665 82.668 102.833 83.82C102.001 84.94 101.585 86.46 101.585 88.38V90.54H111.185V94.284H101.585V115.5H97.1213V88.284C97.1213 85.084 97.9053 82.62 99.4733 80.892C101.041 79.132 103.505 78.252 106.865 78.252Z" fill="#B0E8E6"/>
</svg>
