<svg width="150" height="150" viewBox="0 0 150 150" fill="none" xmlns="http://www.w3.org/2000/svg">
<path d="M79.7445 4.39149C78.527 2.67278 76.4259 2.32504 74.8723 2.56405C73.3187 2.80306 71.4193 3.76628 70.7747 5.77145C70.4199 6.87528 70.6754 8.04892 70.8302 8.63544C70.9234 8.9886 71.0281 9.29512 71.1088 9.51283C71.1233 9.55198 71.1372 9.58867 71.1503 9.62267C71.4067 11.4689 71.3558 13.5072 71.1719 15.8682C70.949 18.7311 70.7679 21.6247 70.3743 24.4656C70.2911 25.0665 70.1785 26.2623 70.6633 27.3155C71.544 29.2288 73.5454 29.9569 75.1164 30.0076C76.6875 30.0582 78.7316 29.4606 79.7338 27.6081C80.2855 26.5884 80.2502 25.3878 80.2058 24.7828C80.0064 22.0617 80.4328 19.3182 80.644 16.6057C80.8449 14.0251 80.9649 11.1236 80.543 8.19082C80.5456 8.15075 80.5481 8.10711 80.5505 8.06027C80.562 7.82835 80.5697 7.50456 80.5525 7.1397C80.5238 6.53378 80.4147 5.33763 79.7445 4.39149Z" fill="#42535D"/>
<path d="M97.0165 7.95936C96.1613 6.03455 94.1698 5.27983 92.5996 5.20821C91.0294 5.13659 88.9774 5.70687 87.9506 7.54584C87.3854 8.55818 87.4047 9.75915 87.441 10.3647C87.4628 10.7293 87.505 11.0504 87.5413 11.2797C87.5478 11.321 87.5542 11.3597 87.5604 11.3956C87.4481 13.2562 86.9968 15.2446 86.3516 17.523C85.6621 19.9581 84.8691 22.3636 84.2771 24.8259C84.2601 24.8615 84.2418 24.9003 84.2225 24.942C84.1251 25.1528 83.9969 25.4502 83.8765 25.7951C83.6766 26.3678 83.3306 27.518 83.5986 28.6461C84.0852 30.6953 85.9041 31.8033 87.4343 32.1624C88.9646 32.5214 91.0865 32.3381 92.4338 30.7193C93.1755 29.8281 93.3774 28.644 93.453 28.0422C93.4986 27.6798 93.5161 27.3564 93.5226 27.1242C93.5238 27.0808 93.5247 27.04 93.5252 27.0023C94.0849 24.68 94.8424 22.4091 95.4929 20.1115C96.1982 17.621 96.8872 14.8 97.0512 11.8416C97.0616 11.8028 97.0726 11.7605 97.0841 11.715C97.1412 11.4899 97.2124 11.174 97.2674 10.8129C97.3586 10.2132 97.4872 9.01895 97.0165 7.95936Z" fill="#42535D"/>
<path fill-rule="evenodd" clip-rule="evenodd" d="M141.649 46.385C141.409 47.6913 139.717 48.4009 139.717 48.4009C137.732 50.4728 135.257 51.7984 132.861 52.8832C131.989 53.2777 131.149 53.6328 130.335 53.9767C128.81 54.6216 127.376 55.2275 125.998 55.982C125.998 55.982 124.729 57.1766 123.596 57.2963C122.675 57.3936 122.072 57.552 121.014 56.8688C118.666 55.3533 117.99 51.3348 118.924 49.4201C119.442 48.3579 121.326 48.1058 121.326 48.1058C122.843 47.2756 124.551 46.5517 126.175 45.8639C126.95 45.5355 127.706 45.2153 128.412 44.8957C130.706 43.8572 132.713 42.7384 134.242 41.1422C134.242 41.1422 135.044 39.2548 136.173 39.1263C137.521 38.9731 138.866 39.5661 140.168 41.2257C141.531 42.9619 141.948 44.7555 141.649 46.385Z" fill="#42535D"/>
<path d="M147.145 68.2446C148.635 66.7562 148.626 64.6265 148.13 63.135C147.633 61.6435 146.365 59.9325 144.28 59.6334C143.133 59.4688 142.018 59.9175 141.466 60.1684C141.134 60.3196 140.849 60.4742 140.648 60.5903C140.612 60.6111 140.578 60.631 140.547 60.6496C138.77 61.212 136.752 61.5037 134.393 61.7185C130.811 62.0447 127.065 61.8656 123.602 62.864C122.458 63.194 121.831 64.1533 121.534 64.7297C121.185 65.4064 120.964 66.1901 120.869 66.937C120.776 67.6676 120.78 68.5406 121.043 69.3529C121.312 70.184 121.978 71.2436 123.329 71.5495C123.443 71.5752 123.556 71.6011 123.667 71.6269C124.277 71.7674 124.862 71.9021 125.449 71.9601C126.214 72.0357 126.946 71.9858 127.912 71.8414C130.338 71.4785 132.812 71.4025 135.255 71.18C137.833 70.9453 140.713 70.5769 143.534 69.6691C143.574 69.6649 143.617 69.6601 143.664 69.6545C143.894 69.627 144.215 69.5803 144.571 69.5021C145.164 69.3722 146.325 69.064 147.145 68.2446Z" fill="#42535D"/>
<path d="M115.793 18.1353C115.795 16.0291 114.282 14.5299 112.876 13.8262C111.471 13.1224 109.364 12.8093 107.679 14.072C106.751 14.7671 106.28 15.8722 106.067 16.4402C105.939 16.7822 105.847 17.0928 105.787 17.3171C105.776 17.3574 105.766 17.3954 105.757 17.4307C103.644 21.4997 100.072 24.7516 97.2976 28.3664C97.2675 28.392 97.235 28.42 97.2005 28.4503C97.0258 28.6032 96.7878 28.8229 96.5376 29.089C96.1221 29.531 95.3385 30.4413 95.1246 31.5808C94.7362 33.6509 95.9476 35.4026 97.1997 36.3528C98.4519 37.3029 100.465 37.998 102.354 37.0667C103.884 36.3123 104.707 34.3113 105.788 32.9891C106.993 31.5153 108.243 30.0813 109.461 28.6187C111.118 26.6299 112.894 24.3326 114.247 21.6963C114.272 21.6651 114.299 21.631 114.328 21.5941C114.472 21.4116 114.666 21.152 114.863 20.8444C115.19 20.3336 115.793 19.2947 115.793 18.1353Z" fill="#42535D"/>
<path d="M131.002 29.7275C131.486 27.6777 130.357 25.8716 129.15 24.8643C127.944 23.8571 125.965 23.0693 124.035 23.9119C122.972 24.3758 122.261 25.3435 121.923 25.8475C121.72 26.151 121.559 26.4322 121.449 26.6368C121.429 26.6735 121.411 26.7082 121.394 26.7405C120.179 28.1538 118.616 29.4636 116.724 30.8871C116.122 31.34 115.476 31.811 114.798 32.3053L114.773 32.3235C113.093 33.5491 111.474 34.8308 109.747 35.9745C109.242 36.3094 108.27 37.0158 107.801 38.076C106.948 40.0019 107.726 41.9846 108.726 43.1966C109.727 44.4085 111.528 45.5467 113.58 45.0733C114.71 44.8127 115.587 43.9922 116.011 43.5589C117.921 41.6097 120.26 40.1152 122.435 38.4798C124.503 36.9239 126.759 35.0951 128.68 32.8391C128.712 32.8145 128.746 32.7875 128.783 32.7583C128.964 32.6136 129.212 32.4052 129.475 32.151C129.91 31.7288 130.735 30.8559 131.002 29.7275Z" fill="#42535D"/>
<path d="M54.111 7.95936C54.9661 6.03455 56.9576 5.27983 58.5278 5.20821C60.098 5.13659 62.15 5.70687 63.1768 7.54584C63.742 8.55818 63.7227 9.75915 63.6865 10.3647C63.6646 10.7293 63.6224 11.0504 63.5861 11.2797C63.5796 11.321 63.5732 11.3597 63.567 11.3956C63.6793 13.2562 64.1306 15.2446 64.7758 17.523C65.4653 19.9581 66.2583 22.3636 66.8503 24.8259C66.8674 24.8615 66.8857 24.9003 66.9049 24.942C67.0024 25.1528 67.1305 25.4502 67.2509 25.7951C67.4509 26.3678 67.7968 27.518 67.5289 28.6461C67.0422 30.6953 65.2234 31.8033 63.6931 32.1624C62.1628 32.5214 60.0409 32.3381 58.6936 30.7193C57.9519 29.8281 57.75 28.644 57.6744 28.0422C57.6288 27.6798 57.6113 27.3564 57.6048 27.1242C57.6036 27.0808 57.6027 27.04 57.6022 27.0023C57.0425 24.68 56.285 22.4091 55.6345 20.1115C54.9292 17.621 54.2402 14.8 54.0763 11.8416C54.0658 11.8028 54.0548 11.7605 54.0433 11.715C53.9863 11.4899 53.915 11.174 53.86 10.8129C53.7688 10.2132 53.6402 9.01895 54.111 7.95936Z" fill="#42535D"/>
<path fill-rule="evenodd" clip-rule="evenodd" d="M9.47853 46.385C9.71864 47.6913 11.41 48.4009 11.41 48.4009C13.3951 50.4728 15.87 51.7984 18.2668 52.8832C19.1386 53.2777 19.9785 53.6328 20.7921 53.9767C22.3177 54.6216 23.7511 55.2275 25.1299 55.982C25.1299 55.982 26.3984 57.1766 27.5317 57.2963C28.4526 57.3936 29.0556 57.552 30.1139 56.8688C32.4616 55.3533 33.1373 51.3348 32.2037 49.4201C31.6858 48.3579 29.8019 48.1058 29.8019 48.1058C28.2846 47.2756 26.5761 46.5517 24.9527 45.8639C24.1776 45.5355 23.4219 45.2153 22.7157 44.8957C20.4211 43.8572 18.4148 42.7384 16.8854 41.1422C16.8854 41.1422 16.0838 39.2548 14.954 39.1263C13.6069 38.9731 12.2618 39.5661 10.9592 41.2257C9.59645 42.9619 9.17901 44.7555 9.47853 46.385Z" fill="#42535D"/>
<path d="M3.98217 68.2446C2.492 66.7562 2.5016 64.6265 2.9978 63.135C3.494 61.6435 4.76217 59.9325 6.84703 59.6334C7.99473 59.4688 9.10891 59.9175 9.66115 60.1684C9.99368 60.3196 10.2783 60.4742 10.4794 60.5903C10.5155 60.6111 10.5494 60.631 10.5807 60.6496C12.3578 61.212 14.3758 61.5037 16.7341 61.7185C20.3159 62.0447 24.0621 61.8656 27.5252 62.864C28.6696 63.194 29.2968 64.1533 29.5936 64.7297C29.942 65.4064 30.163 66.1901 30.2583 66.937C30.3516 67.6676 30.3473 68.5406 30.0843 69.3529C29.8152 70.184 29.1499 71.2436 27.7981 71.5495C27.6844 71.5752 27.5718 71.6011 27.46 71.6269C26.8505 71.7674 26.2657 71.9021 25.6786 71.9601C24.9132 72.0357 24.181 71.9858 23.2157 71.8414C20.7894 71.4785 18.3154 71.4025 15.8725 71.18C13.2947 70.9453 10.4143 70.5769 7.59374 69.6691C7.55381 69.6649 7.51036 69.6601 7.46379 69.6545C7.23322 69.627 6.91273 69.5803 6.55594 69.5021C5.9634 69.3722 4.8025 69.064 3.98217 68.2446Z" fill="#42535D"/>
<path d="M35.334 18.1353C35.3328 16.0291 36.8455 14.5299 38.251 13.8262C39.6565 13.1224 41.7631 12.8093 43.4488 14.072C44.3768 14.7671 44.8474 15.8722 45.0604 16.4402C45.1886 16.7822 45.2806 17.0928 45.3407 17.3171C45.3515 17.3574 45.3614 17.3954 45.3704 17.4307C47.4831 21.4997 51.0556 24.7516 53.8298 28.3664C53.8599 28.392 53.8924 28.42 53.9269 28.4503C54.1016 28.6032 54.3396 28.8229 54.5898 29.089C55.0053 29.531 55.789 30.4413 56.0028 31.5808C56.3912 33.6509 55.1799 35.4026 53.9277 36.3528C52.6755 37.3029 50.6624 37.998 48.7733 37.0667C47.243 36.3123 46.4208 34.3113 45.3394 32.9891C44.134 31.5153 42.8846 30.0813 41.6661 28.6187C40.0093 26.6299 38.233 24.3326 36.8805 21.6963C36.8552 21.6651 36.8279 21.631 36.7989 21.5941C36.6553 21.4116 36.4618 21.152 36.2648 20.8444C35.9376 20.3336 35.3347 19.2947 35.334 18.1353Z" fill="#42535D"/>
<path d="M20.1257 29.7275C19.6416 27.6777 20.7704 25.8716 21.9771 24.8643C23.1838 23.8571 25.1624 23.0693 27.0928 23.9119C28.1554 24.3758 28.8668 25.3435 29.2044 25.8475C29.4076 26.151 29.5683 26.4322 29.6782 26.6368C29.698 26.6735 29.7163 26.7082 29.7332 26.7405C30.9485 28.1538 32.5111 29.4636 34.4036 30.8871C35.0058 31.34 35.6515 31.811 36.329 32.3053L36.3539 32.3235C38.0342 33.5491 39.6529 34.8308 41.38 35.9745C41.8858 36.3094 42.8573 37.0158 43.3267 38.076C44.1793 40.0019 43.4019 41.9846 42.4009 43.1966C41.4 44.4085 39.5999 45.5467 37.5475 45.0733C36.4178 44.8127 35.5405 43.9922 35.1161 43.5589C33.2069 41.6097 30.867 40.1152 28.6927 38.4798C26.6241 36.9239 24.3684 35.0951 22.4475 32.8391C22.4157 32.8145 22.3813 32.7875 22.3447 32.7583C22.163 32.6136 21.9151 32.4052 21.6528 32.151C21.2173 31.7288 20.3922 30.8559 20.1257 29.7275Z" fill="#42535D"/>
<path d="M79.7445 146.986C78.527 148.705 76.4259 149.053 74.8723 148.814C73.3187 148.575 71.4193 147.612 70.7747 145.606C70.4199 144.503 70.6754 143.329 70.8302 142.742C70.9234 142.389 71.0281 142.083 71.1088 141.865C71.1233 141.826 71.1372 141.789 71.1503 141.755C71.4067 139.909 71.3558 137.871 71.1719 135.51C70.949 132.647 70.7679 129.753 70.3743 126.912C70.2911 126.311 70.1785 125.116 70.6633 124.062C71.544 122.149 73.5454 121.421 75.1164 121.37C76.6875 121.32 78.7316 121.917 79.7338 123.77C80.2855 124.79 80.2502 125.99 80.2058 126.595C80.0064 129.316 80.4328 132.06 80.644 134.772C80.8449 137.353 80.9649 140.254 80.543 143.187C80.5456 143.227 80.5481 143.271 80.5505 143.318C80.562 143.55 80.5697 143.873 80.5525 144.238C80.5238 144.844 80.4147 146.04 79.7445 146.986Z" fill="#42535D"/>
<path d="M97.0165 143.419C96.1613 145.343 94.1698 146.098 92.5996 146.17C91.0294 146.241 88.9774 145.671 87.9506 143.832C87.3854 142.82 87.4047 141.619 87.441 141.013C87.4628 140.649 87.505 140.327 87.5413 140.098C87.5478 140.057 87.5542 140.018 87.5604 139.982C87.4481 138.122 86.9968 136.133 86.3516 133.855C85.6621 131.42 84.8691 129.014 84.2771 126.552C84.2601 126.516 84.2418 126.478 84.2225 126.436C84.1251 126.225 83.9969 125.928 83.8765 125.583C83.6766 125.01 83.3306 123.86 83.5986 122.732C84.0852 120.683 85.9041 119.575 87.4343 119.216C88.9646 118.856 91.0865 119.04 92.4338 120.659C93.1755 121.55 93.3774 122.734 93.453 123.336C93.4986 123.698 93.5161 124.022 93.5226 124.254C93.5238 124.297 93.5247 124.338 93.5252 124.376C94.0849 126.698 94.8424 128.969 95.4929 131.266C96.1982 133.757 96.8872 136.578 97.0512 139.536C97.0616 139.575 97.0726 139.617 97.0841 139.663C97.1412 139.888 97.2124 140.204 97.2674 140.565C97.3586 141.165 97.4872 142.359 97.0165 143.419Z" fill="#42535D"/>
<path fill-rule="evenodd" clip-rule="evenodd" d="M141.649 104.993C141.409 103.687 139.717 102.977 139.717 102.977C137.732 100.905 135.257 99.5795 132.861 98.4948C131.989 98.1002 131.149 97.7452 130.335 97.4012C128.81 96.7563 127.376 96.1504 125.998 95.3959C125.998 95.3959 124.729 94.2014 123.596 94.0817C122.675 93.9844 122.072 93.8259 121.014 94.5091C118.666 96.0246 117.99 100.043 118.924 101.958C119.442 103.02 121.326 103.272 121.326 103.272C122.843 104.102 124.551 104.826 126.175 105.514C126.95 105.842 127.706 106.163 128.412 106.482C130.706 107.521 132.713 108.64 134.242 110.236C134.242 110.236 135.044 112.123 136.173 112.252C137.521 112.405 138.866 111.812 140.168 110.152C141.531 108.416 141.948 106.622 141.649 104.993Z" fill="#42535D"/>
<path d="M147.145 83.1333C148.635 84.6217 148.626 86.7514 148.13 88.2429C147.633 89.7344 146.365 91.4454 144.28 91.7444C143.133 91.9091 142.018 91.4604 141.466 91.2094C141.134 91.0583 140.849 90.9037 140.648 90.7876C140.612 90.7667 140.578 90.7469 140.547 90.7283C138.77 90.1659 136.752 89.8742 134.393 89.6594C130.811 89.3332 127.065 89.5123 123.602 88.5139C122.458 88.1839 121.831 87.2246 121.534 86.6482C121.185 85.9715 120.964 85.1878 120.869 84.4409C120.776 83.7103 120.78 82.8373 121.043 82.025C121.312 81.1939 121.978 80.1342 123.329 79.8284C123.443 79.8027 123.556 79.7767 123.667 79.751C124.277 79.6105 124.862 79.4758 125.449 79.4178C126.214 79.3422 126.946 79.3921 127.912 79.5365C130.338 79.8994 132.812 79.9754 135.255 80.1978C137.833 80.4326 140.713 80.801 143.534 81.7088C143.574 81.713 143.617 81.7178 143.664 81.7233C143.894 81.7508 144.215 81.7976 144.571 81.8758C145.164 82.0056 146.325 82.3139 147.145 83.1333Z" fill="#42535D"/>
<path d="M115.793 133.243C115.795 135.349 114.282 136.848 112.876 137.552C111.471 138.256 109.364 138.569 107.679 137.306C106.751 136.611 106.28 135.506 106.067 134.938C105.939 134.596 105.847 134.285 105.787 134.061C105.776 134.021 105.766 133.983 105.757 133.947C103.644 129.878 100.072 126.626 97.2976 123.012C97.2675 122.986 97.235 122.958 97.2005 122.928C97.0258 122.775 96.7878 122.555 96.5376 122.289C96.1221 121.847 95.3385 120.937 95.1246 119.797C94.7362 117.727 95.9476 115.975 97.1997 115.025C98.4519 114.075 100.465 113.38 102.354 114.311C103.884 115.066 104.707 117.067 105.788 118.389C106.993 119.863 108.243 121.297 109.461 122.759C111.118 124.748 112.894 127.045 114.247 129.682C114.272 129.713 114.299 129.747 114.328 129.784C114.472 129.966 114.666 130.226 114.863 130.534C115.19 131.044 115.793 132.083 115.793 133.243Z" fill="#42535D"/>
<path d="M131.002 121.65C131.486 123.7 130.357 125.506 129.15 126.514C127.944 127.521 125.965 128.309 124.035 127.466C122.972 127.002 122.261 126.034 121.923 125.53C121.72 125.227 121.559 124.946 121.449 124.741C121.429 124.704 121.411 124.67 121.394 124.637C120.179 123.224 118.616 121.914 116.724 120.491C116.122 120.038 115.476 119.567 114.798 119.073L114.773 119.054C113.093 117.829 111.474 116.547 109.747 115.403C109.242 115.068 108.27 114.362 107.801 113.302C106.948 111.376 107.726 109.393 108.726 108.181C109.727 106.969 111.528 105.831 113.58 106.305C114.71 106.565 115.587 107.386 116.011 107.819C117.921 109.768 120.26 111.263 122.435 112.898C124.503 114.454 126.759 116.283 128.68 118.539C128.712 118.563 128.746 118.59 128.783 118.62C128.964 118.764 129.212 118.973 129.475 119.227C129.91 119.649 130.735 120.522 131.002 121.65Z" fill="#42535D"/>
<path d="M54.111 143.419C54.9661 145.343 56.9576 146.098 58.5278 146.17C60.098 146.241 62.15 145.671 63.1768 143.832C63.742 142.82 63.7227 141.619 63.6865 141.013C63.6646 140.649 63.6224 140.327 63.5861 140.098C63.5796 140.057 63.5732 140.018 63.567 139.982C63.6793 138.122 64.1306 136.133 64.7758 133.855C65.4653 131.42 66.2583 129.014 66.8503 126.552C66.8674 126.516 66.8857 126.478 66.9049 126.436C67.0024 126.225 67.1305 125.928 67.2509 125.583C67.4509 125.01 67.7968 123.86 67.5289 122.732C67.0422 120.683 65.2234 119.575 63.6931 119.216C62.1628 118.856 60.0409 119.04 58.6936 120.659C57.9519 121.55 57.75 122.734 57.6744 123.336C57.6288 123.698 57.6113 124.022 57.6048 124.254C57.6036 124.297 57.6027 124.338 57.6022 124.376C57.0425 126.698 56.285 128.969 55.6345 131.266C54.9292 133.757 54.2402 136.578 54.0763 139.536C54.0658 139.575 54.0548 139.617 54.0433 139.663C53.9863 139.888 53.915 140.204 53.86 140.565C53.7688 141.165 53.6402 142.359 54.111 143.419Z" fill="#42535D"/>
<path fill-rule="evenodd" clip-rule="evenodd" d="M9.47853 104.993C9.71864 103.687 11.41 102.977 11.41 102.977C13.3951 100.905 15.87 99.5795 18.2668 98.4948C19.1386 98.1002 19.9785 97.7452 20.7921 97.4012C22.3177 96.7563 23.7511 96.1504 25.1299 95.3959C25.1299 95.3959 26.3984 94.2014 27.5317 94.0817C28.4526 93.9844 29.0556 93.8259 30.1139 94.5091C32.4616 96.0246 33.1373 100.043 32.2037 101.958C31.6858 103.02 29.8019 103.272 29.8019 103.272C28.2846 104.102 26.5761 104.826 24.9527 105.514C24.1776 105.842 23.4219 106.163 22.7157 106.482C20.4211 107.521 18.4148 108.64 16.8854 110.236C16.8854 110.236 16.0838 112.123 14.954 112.252C13.6069 112.405 12.2618 111.812 10.9592 110.152C9.59645 108.416 9.17901 106.622 9.47853 104.993Z" fill="#42535D"/>
<path d="M3.98217 83.1333C2.492 84.6217 2.5016 86.7514 2.9978 88.2429C3.494 89.7344 4.76217 91.4454 6.84703 91.7444C7.99473 91.9091 9.10891 91.4604 9.66115 91.2094C9.99368 91.0583 10.2783 90.9037 10.4794 90.7876C10.5155 90.7667 10.5494 90.7469 10.5807 90.7283C12.3578 90.1659 14.3758 89.8742 16.7341 89.6594C20.3159 89.3332 24.0621 89.5123 27.5252 88.5139C28.6696 88.1839 29.2968 87.2246 29.5936 86.6482C29.942 85.9715 30.163 85.1878 30.2583 84.4409C30.3516 83.7103 30.3473 82.8373 30.0843 82.025C29.8152 81.1939 29.1499 80.1342 27.7981 79.8284C27.6844 79.8027 27.5718 79.7767 27.46 79.751C26.8505 79.6105 26.2657 79.4758 25.6786 79.4178C24.9132 79.3422 24.181 79.3921 23.2157 79.5365C20.7894 79.8994 18.3154 79.9754 15.8725 80.1978C13.2947 80.4326 10.4143 80.801 7.59374 81.7088C7.55381 81.713 7.51036 81.7178 7.46379 81.7233C7.23322 81.7508 6.91273 81.7976 6.55594 81.8758C5.9634 82.0056 4.8025 82.3139 3.98217 83.1333Z" fill="#42535D"/>
<path d="M35.334 133.243C35.3328 135.349 36.8455 136.848 38.251 137.552C39.6565 138.256 41.7631 138.569 43.4488 137.306C44.3768 136.611 44.8474 135.506 45.0604 134.938C45.1886 134.596 45.2806 134.285 45.3407 134.061C45.3515 134.021 45.3614 133.983 45.3704 133.947C47.4831 129.878 51.0556 126.626 53.8298 123.012C53.8599 122.986 53.8924 122.958 53.9269 122.928C54.1016 122.775 54.3396 122.555 54.5898 122.289C55.0053 121.847 55.789 120.937 56.0028 119.797C56.3912 117.727 55.1799 115.975 53.9277 115.025C52.6755 114.075 50.6624 113.38 48.7733 114.311C47.243 115.066 46.4208 117.067 45.3394 118.389C44.134 119.863 42.8846 121.297 41.6661 122.759C40.0093 124.748 38.233 127.045 36.8805 129.682C36.8552 129.713 36.8279 129.747 36.7989 129.784C36.6553 129.966 36.4618 130.226 36.2648 130.534C35.9376 131.044 35.3347 132.083 35.334 133.243Z" fill="#42535D"/>
<path d="M20.1257 121.65C19.6416 123.7 20.7704 125.506 21.9771 126.514C23.1838 127.521 25.1624 128.309 27.0928 127.466C28.1554 127.002 28.8668 126.034 29.2044 125.53C29.4076 125.227 29.5683 124.946 29.6782 124.741C29.698 124.704 29.7163 124.67 29.7332 124.637C30.9485 123.224 32.5111 121.914 34.4036 120.491C35.0058 120.038 35.6515 119.567 36.329 119.073L36.3539 119.054C38.0342 117.829 39.6529 116.547 41.38 115.403C41.8858 115.068 42.8573 114.362 43.3267 113.302C44.1793 111.376 43.4019 109.393 42.4009 108.181C41.4 106.969 39.5999 105.831 37.5475 106.305C36.4178 106.565 35.5405 107.386 35.1161 107.819C33.2069 109.768 30.867 111.263 28.6927 112.898C26.6241 114.454 24.3684 116.283 22.4475 118.539C22.4157 118.563 22.3813 118.59 22.3447 118.62C22.163 118.764 21.9151 118.973 21.6528 119.227C21.2173 119.649 20.3922 120.522 20.1257 121.65Z" fill="#42535D"/>
</svg>
