<svg width="150" height="150" viewBox="0 0 150 150" fill="none" xmlns="http://www.w3.org/2000/svg">
<path d="M7.92662 91.5794C8.60061 100.378 8.20497 113.025 11.3694 118.892C12.3774 120.76 28.0677 122.766 33.2593 123.261C45.1394 124.389 57.0435 125.283 68.9544 126.017C84.321 126.963 135.39 122.62 140.445 114.247C147.634 102.337 146.629 44.7372 141.313 34.2685C140.627 32.9188 139.822 31.5699 138.7 30.5516C129.041 21.7777 119.128 39.3718 115.22 45.2742L113.551 47.8845C112.46 49.6446 111.412 51.4318 110.366 53.2191C110.175 53.5463 106.684 62.0992 104.263 61.0655C101.788 60.0087 98.5717 55.4252 97.3299 53.6028C91.0935 44.4512 88.9165 39.1723 80.9724 31.3832C79.4806 29.9205 74.0689 27.4309 71.134 28.3721C56.7789 32.9727 47.4834 61.0775 44.1074 58.886C33.7594 52.1692 26.9081 40.85 17.0688 33.3333C15.5667 32.1857 11.8353 30.1645 9.67028 31.8594C7.04624 33.9139 6.09561 39.7641 5.93289 42.3744C4.86752 59.5471 6.57349 73.9314 7.92662 91.5794Z" fill="#DBC5B0"/>
</svg>
