<svg width="150" height="150" viewBox="0 0 150 150" fill="none" xmlns="http://www.w3.org/2000/svg">
<path fill-rule="evenodd" clip-rule="evenodd" d="M49.8778 137.626C50.7139 134.862 49.633 118.352 50.0276 111.266C51.2121 90.0108 53.4683 75.946 61.8702 73.1455C65.819 71.8294 79.7234 72.178 83.9165 73.1455C106.189 78.2852 104.415 99.934 104.415 117.662C104.415 123.641 102.254 137.867 108.679 140.62C114.329 143.041 138.696 144.468 143.608 140.784C146.006 138.986 146.644 124.435 146.888 121.27C148.352 102.24 150.563 65.6483 136.514 49.5938C127.888 39.7355 106.883 36.5533 94.3697 35.1629C77.9278 33.3361 63.704 28.3538 45.0714 33.2554C28.9785 37.4889 15.1356 37.2917 7.92172 54.1254C6.08583 58.4089 3.3457 74.8691 2.9178 79.575C1.29719 97.4012 1.35068 118.658 7.01748 135.658C7.86876 138.212 12.4179 137.626 14.397 137.626C16.1916 137.626 49.3413 139.4 49.8778 137.626Z" fill="#C9907C"/>
</svg>
