<svg width="150" height="150" viewBox="0 0 150 150" fill="none" xmlns="http://www.w3.org/2000/svg">
<path d="M66.1669 12.8547C73.481 7.82625 80.8501 11.9098 90.1801 12.8547C118.887 15.7621 121.317 -0.987106 134.455 2.14115C139.012 3.22604 143.288 3.80604 146.163 8.02366C148.264 11.1052 149.393 14.7157 147.982 18.3678C145.316 25.2693 142.87 32.0616 137.467 37.4646C129.328 45.6042 118.603 54.249 111.778 63.2681C108.765 67.2494 105.213 71.8632 103.48 76.5677C101.453 82.0682 100.643 86.9176 99.899 92.6807C99.2503 97.7085 96.9307 101.719 95.7784 106.52C94.5547 111.619 92.2642 116.675 90.1801 121.468C87.9434 126.612 83.998 130.978 80.4611 135.279C76.6161 139.956 72.3167 142.157 66.9058 144.6C60.5691 147.462 54.097 147.158 47.3258 147.158C41.0541 147.158 34.2615 146.021 28.3711 143.861C15.653 139.198 7.99849 128.504 5.26729 115.33C4.46042 111.438 4.75576 107.374 4.75576 103.423C4.75576 99.4731 4.47033 95.4066 5.26729 91.5156C6.63395 84.843 9.26346 78.9631 13.4232 73.5554C23.9475 59.8739 43.7596 57.979 52.8389 43.063C56.0322 37.8168 55.9953 33.12 57.0448 27.3479C58.0113 22.0321 61.7096 15.9191 66.1669 12.8547Z" fill="#665F4F"/>
</svg>
