<svg width="150" height="150" viewBox="0 0 150 150" fill="none" xmlns="http://www.w3.org/2000/svg">
<path fill-rule="evenodd" clip-rule="evenodd" d="M75.9817 44.5413C78.3382 50.1204 79.1215 56.777 78.3382 64.5832C77.4577 73.3554 77.2211 93.2229 77.0957 102.009C77.03 106.605 76.5827 111.127 75.9816 115.706C75.867 116.578 76.1507 118.84 75.2521 119.507C72.2703 121.722 46.7959 126.555 40.6087 127.727C21.4189 131.361 0.940744 139.962 15.6521 142.802C41.4213 147.777 76.1548 144.708 103.068 142.802C110.417 142.282 117.873 141.856 125.137 141.039C127.235 140.804 131.665 140.435 132.508 139.043C133.682 137.104 132.679 134.178 132.679 132.185C132.679 128.673 133.305 125.147 133.878 121.652C136.176 107.657 139.364 82.7133 139.364 68.6394C139.364 61.5725 139.364 47.2512 137.797 44.5413C135.177 40.0072 72.3375 35.9134 75.9817 44.5413Z" fill="#42535D"/>
</svg>
