<svg width="150" height="150" viewBox="0 0 150 150" fill="none" xmlns="http://www.w3.org/2000/svg">
<path fill-rule="evenodd" clip-rule="evenodd" d="M53.3376 4.43067C57.0945 2.37177 88.3723 2.15196 90.4398 4.00587C91.3046 4.78119 90.4398 9.98781 90.4398 11.1634C90.4398 17.4823 90.4398 27.1011 91.0241 30.7152C110.811 39.7503 117.198 53.7289 122.311 66.7503C127.823 80.7898 134.203 95.6215 136.392 113.287C137.294 120.56 141.035 140.811 131.135 144.361C118.705 148.819 97.5684 146.805 84.0143 146.805C78.1212 146.805 72.1592 146.604 66.2954 146.98C55.8809 147.647 17.0762 147.351 14.1464 140.547C11.5484 134.516 10.6686 119.159 16.7986 98.2752C21.3673 82.7102 21.6284 66.2928 29.6895 51.8384C33.0504 45.812 39.5807 38.5991 45.4612 34.3812C47.5621 32.8745 50.5303 31.9314 52.276 30.3663C55.4057 27.5604 49.0208 6.79669 53.3376 4.43067Z" fill="#9D6C4E"/>
</svg>
