<svg width="150" height="150" viewBox="0 0 150 150" fill="none" xmlns="http://www.w3.org/2000/svg">
<path fill-rule="evenodd" clip-rule="evenodd" d="M52.0261 11.2885C48.7427 18.1457 48.5095 23.9775 47.2487 31.3411L46.7104 34.4853C52.0306 34.4869 57.3549 34.4932 62.6825 34.5125C64.1339 28.7473 64.9437 21.9643 67.3197 16.5351L69.8254 10.8094L81.2768 15.8209L78.7711 21.5466C77.4383 24.5921 77.5339 27.1976 76.7016 30.2877C76.3151 31.7225 75.9361 33.1556 75.5645 34.5888C80.0333 34.627 84.5039 34.679 88.9761 34.7496C89.052 34.2001 89.1279 33.6503 89.2037 33.1002C89.8791 28.2016 89.5576 23.1775 91.5165 18.5085L93.9347 12.7452L105.461 17.5814L103.043 23.3447C101.654 26.6561 101.844 31.4112 101.366 34.9517C103.535 34.9596 105.763 34.945 108.035 34.9301H108.036C110.813 34.912 113.655 34.8934 116.534 34.9149C117.283 29.4983 116.962 23.5967 119.097 18.5085L121.515 12.7452L133.042 17.5814L130.624 23.3447C129.191 26.759 129.383 31.7209 128.891 35.3616C133.508 35.7027 138.116 36.2865 142.602 37.2725L148.706 38.6141L146.023 50.8227L139.919 49.4811C135.73 48.5605 131.507 48.0421 127.217 47.7553L126.728 51.3707C125.638 57.9584 124.584 64.5422 123.608 71.1262C125.762 71.239 127.919 71.31 130.079 71.31H136.329V83.81H130.079C127.338 83.81 124.602 83.697 121.87 83.5296C120.723 92.2773 119.76 101.03 119.076 109.796C124.884 110.081 130.723 110.685 136.368 111.926L142.473 113.267L139.789 125.476L133.685 124.134C128.628 123.023 123.52 122.498 118.304 122.259C118.081 127.186 117.961 132.119 117.961 137.059V143.309H105.461V137.059C105.461 132.052 105.58 127.058 105.8 122.08C104.899 122.084 103.994 122.089 103.085 122.095C99.1069 122.12 95.0422 122.145 90.8683 122.056C90.823 122.055 90.7776 122.054 90.7323 122.053C90.5037 127.048 90.3805 132.05 90.3805 137.059V143.309H77.8805V137.059C77.8805 131.971 78.0029 126.897 78.2296 121.839C71.4977 121.75 64.7651 121.7 58.0273 121.672C57.5569 124.125 56.9648 126.652 56.1398 129.146L54.1764 135.079L42.3092 131.153L44.2726 125.219C44.6517 124.073 44.9751 122.883 45.2623 121.642C40.8774 121.637 36.4891 121.638 32.0963 121.639C32.0082 122.031 31.9204 122.419 31.8335 122.804C31.8335 122.804 31.568 123.979 31.4405 124.551C30.6405 128.14 29.9701 131.437 29.6693 134.709L29.0972 140.932L16.6497 139.788L17.2218 133.564C17.601 129.439 18.4272 125.477 19.24 121.831C19.2843 121.632 19.3286 121.435 19.3727 121.238C19.2362 121.222 19.102 121.207 18.9701 121.192L18.7067 121.161C16.7758 120.939 15.3167 120.787 13.987 120.809L7.73786 120.914L7.52747 108.416L13.7766 108.311C16.0418 108.273 18.2888 108.531 20.0947 108.739L20.134 108.743C20.7235 108.811 21.2722 108.874 21.7899 108.929C23.0845 100.699 24.3958 92.4742 25.7259 84.2541C23.8014 84.2307 21.9108 84.2022 20.1375 84.1754H20.136L20.1353 84.1754C17.0576 84.129 14.3337 84.0879 12.3997 84.0879H6.14966V71.5879H12.3997C14.7843 71.5879 17.8744 71.635 21.21 71.6858H21.2109C21.2109 71.6858 23.8361 71.315 27.9201 70.8038C28.8474 65.166 29.7841 59.5299 30.7309 53.8953C31.1183 51.5901 31.5072 49.2876 31.8974 46.9868L31.2561 46.9868C29.0922 46.9868 26.9443 46.7391 25.204 46.5384L24.9406 46.5081C23.0096 46.2861 21.5506 46.1334 20.2209 46.1558L13.9717 46.261L13.7614 33.7628L20.0105 33.6576C22.2757 33.6194 24.5227 33.8777 26.3285 34.0853L26.3679 34.0898C28.327 34.315 29.8347 34.4868 31.2561 34.4868C32.1801 34.4868 33.1042 34.4867 34.0284 34.4865C35.2231 27.5039 35.0147 17.872 38.0527 11.5272L40.7519 5.89011L52.0261 11.2885ZM34.4108 109.138C38.734 109.138 43.0601 109.138 47.3886 109.144C47.5724 108.027 47.7683 106.911 47.9821 105.826C49.074 100.282 50.1438 94.7125 51.2162 89.1297L51.217 89.1257L51.2172 89.1244L51.2178 89.1218C51.5796 87.2379 51.9418 85.3525 52.3052 83.4659C49.1789 83.6546 46.0499 83.858 42.9178 84.0732C41.6371 84.1611 40.0965 84.2193 38.3887 84.2554C37.0442 92.544 35.719 100.838 34.4108 109.138ZM60.0673 109.181C66.372 109.211 72.681 109.262 78.9932 109.348C79.6913 100.25 80.6807 91.2052 81.8537 82.2186C76.2963 82.3336 70.7355 82.5267 65.1685 82.7805C64.6215 85.6095 64.0772 88.443 63.5319 91.2817L63.5309 91.2871L63.5298 91.2929C62.4487 96.9205 61.3638 102.568 60.2464 108.241C60.1846 108.556 60.125 108.869 60.0673 109.181ZM91.5134 109.566C94.796 109.629 98.2453 109.607 101.802 109.583C103.368 109.573 104.955 109.563 106.558 109.56C107.247 100.517 108.225 91.5264 109.386 82.5935C106.221 82.3655 103.054 82.1845 99.8789 82.1419C98.0787 82.1177 96.2785 82.1037 94.4782 82.0993C93.2588 91.2467 92.2334 100.399 91.5134 109.566ZM109.319 47.4417C111.132 47.4304 112.927 47.4193 114.706 47.4192C114.604 48.0578 114.501 48.6951 114.396 49.3307C113.251 56.2523 112.137 63.2143 111.106 70.2138C107.424 69.9316 103.74 69.6926 100.047 69.643C100.047 69.643 98.6407 69.5166 96.2952 69.3307C97.1956 63.3452 98.1568 57.3595 99.1476 51.3707L99.6781 47.444C102.954 47.4811 106.164 47.4612 109.319 47.4417H109.319ZM40.8314 69.332C45.5569 68.8506 50.5991 68.4074 55.3025 68.132C56.7107 61.0783 58.1721 54.0273 59.736 47.0032C54.6869 46.9891 49.6344 46.9854 44.5766 46.985C44.0682 49.9764 43.5618 52.9692 43.0581 55.9666C42.3097 60.4205 41.5676 64.8756 40.8314 69.332ZM68.1059 67.8597C73.2639 67.9363 78.7966 68.1843 83.7838 68.472C84.7413 62.0591 85.7651 55.6779 86.8152 49.3307C86.9311 48.6301 87.0448 47.9275 87.1566 47.2232C82.2829 47.1511 77.4092 47.1006 72.5337 47.0653C70.9653 53.9815 69.5078 60.9099 68.1059 67.8597Z" fill="#666B64"/>
</svg>
