<svg width="150" height="150" viewBox="0 0 150 150" fill="none" xmlns="http://www.w3.org/2000/svg">
<path fill-rule="evenodd" clip-rule="evenodd" d="M40.0126 17.1465C40.0008 16.2483 39.9757 22.0531 40.0102 22.8775C40.194 27.291 40.1704 31.7099 40.1704 36.1336C40.1704 50.3538 40.0102 64.5615 40.0102 78.7763C40.0102 95.8027 40.6643 112.749 41.6073 129.724C41.8397 133.901 40.68 145.343 46.5586 146.813C49.5618 147.564 48.739 141.091 50.7113 140.105C51.4164 139.753 52.8462 142.615 53.2663 143.14C54.3498 144.494 56.2594 144.812 57.898 144.577C60.4491 144.213 61.2798 140.536 63.3283 139.307C65.7097 137.878 66.8121 141.393 68.7585 140.744C71.0426 139.983 71.783 136.274 74.6677 135.793C78.5347 135.148 81.2168 141.177 85.2086 139.466C89.4415 137.652 92.2862 132.976 94.312 128.925C95.6256 126.297 96.6172 122.805 99.1031 120.94C101.675 119.012 105.956 128.461 109.324 125.093C113.946 120.471 113.337 110.949 113.797 104.969C115.116 87.8207 115.46 70.2289 114.276 53.0627C113.589 43.1082 112.92 33.1585 111.082 23.3565C110.433 19.897 109.988 14.1291 106.609 12.017C103.685 10.1891 100.33 10.957 98.1452 13.4546C97.3003 14.4204 96.7648 16.0614 95.5894 16.6487C95.1089 16.8898 92.6042 13.7852 92.0758 13.4546C89.5098 11.8513 85.7104 10.7089 82.653 11.2185C80.6052 11.56 77.4574 17.9639 75.1467 16.8089C70.8706 14.6701 69.1872 7.39548 63.8072 6.90632C61.1023 6.66056 55.4444 13.4319 52.8313 12.7511C50.2175 12.0704 50.4043 3.51987 48.1266 2.82028C41.2406 0.707386 40.2167 10.1161 40.0126 17.1465Z" fill="#42535D"/>
</svg>
