<svg width="150" height="150" viewBox="0 0 150 150" fill="none" xmlns="http://www.w3.org/2000/svg">
<path fill-rule="evenodd" clip-rule="evenodd" d="M110.005 2.79435C93.7574 -1.36113 89.8257 7.99076 87.5909 11.1195C80.9338 20.4394 83.8179 36.8283 76.7042 42.9259C62.0439 55.4917 27.8233 49.5233 24.6185 71.9573C23.7546 78.0047 26.0052 85.1001 30.5956 89.0347C32.9243 91.0308 34.7673 92.5814 37.6399 94.5848C53.9641 105.97 75.2043 93.8306 86.7371 108.247C94.4109 117.839 85.7113 138.153 101.893 146.243C104.377 147.486 107.147 148.573 110.005 148.165C122.548 146.373 122.87 134.224 125.374 122.976C128.597 108.501 121.311 98.6144 117.476 85.8327C114.242 75.05 112.394 62.5437 113.42 51.251C114.43 40.1494 126.947 28.3498 120.892 15.3887C118.14 9.49847 116.169 4.37085 110.005 2.79435Z" fill="#944D21"/>
</svg>
