<svg width="150" height="150" viewBox="0 0 150 150" fill="none" xmlns="http://www.w3.org/2000/svg">
<path fill-rule="evenodd" clip-rule="evenodd" d="M99.1094 141.084C83.1664 147.588 65.0354 152.196 55.0187 141.084C34.3201 118.123 19.0015 70.9172 19.0015 43.0442C19.0015 29.0751 14.0702 12.7258 25.9999 3.18223C37.3311 0.00228506 40.9114 12.8308 41.8663 18.5603C43.4783 28.2316 42.5483 38.6149 45.7108 48.1026C47.0003 51.9712 45.7108 58.8269 55.0187 58.8269C60.4819 56.1447 60.2586 46.7169 60.4819 44.2581C61.451 33.6001 61.4319 10.2097 70.8016 3.18223C75.8379 -0.594843 83.2709 7.45535 84.1565 11.8832C86.5322 23.762 84.2615 36.2827 86.9891 48.1026C87.8038 51.6331 88.9497 58.064 93.0596 59.4338C97.4153 60.886 100.394 49.4713 100.951 46.6863C103.67 33.0917 102.523 10.8196 118.15 5.61035C133.086 0.63172 132.882 28.9816 132.314 36.3668C131.729 43.9804 130.117 51.6384 128.267 59.0293C118.738 97.104 130.598 128.239 99.1094 141.084Z" fill="#CF6F49"/>
</svg>
