<svg width="150" height="150" viewBox="0 0 150 150" fill="none" xmlns="http://www.w3.org/2000/svg">
<path d="M24.145 16.8933C28.4456 13.4138 31.3547 8.66461 35.6983 5.24947C46.688 5.24947 97.5064 0.566914 119.671 5.24942C122.489 5.84473 136.578 27.4787 148.554 41.2398C150.945 43.9866 149.54 80.9865 149.54 95.2841C149.54 103.546 149.683 111.815 149.321 120.072C149.115 124.788 148.719 129.492 148.695 134.215C148.683 136.694 149.037 139.41 148.554 141.86C133.797 146.708 19.7551 142.826 5.56269 141.345C2.78825 141.056 3.05849 110.527 2.9953 107.56C2.79005 97.9226 2.29305 88.3433 2.46303 78.6856C2.57563 72.2878 2.46303 45.4739 4.65472 41.2398C5.56269 39.4856 19.1678 20.9204 24.145 16.8933Z" fill="#8B856B"/>
</svg>
