<svg width="150" height="150" viewBox="0 0 150 150" fill="none" xmlns="http://www.w3.org/2000/svg">
<path fill-rule="evenodd" clip-rule="evenodd" d="M43.7951 104.615C37.5671 102.954 32.1806 99.6169 26.7335 96.2618C20.6552 92.5181 14.3579 87.9827 10.6651 81.7079C8.79091 78.5237 7.68424 74.6642 6.96427 71.1573C5.21858 62.6539 5.57606 54.0078 8.2501 45.7879C10.5146 38.8266 12.8303 32.7716 17.9186 27.3362C21.5259 23.4826 25.6705 20.129 29.9792 17.1019C36.2659 12.6855 42.5624 8.66753 49.911 6.35014C59.383 3.36342 69.5458 3.02318 79.3879 2.65485C90.7945 2.22837 103.622 2.33214 114.277 6.96524C120.429 9.64038 124.722 13.2978 129.729 17.8266C132.151 20.0166 134.036 21.779 135.679 24.6388C141.737 35.1867 145.186 47.5767 143.804 59.7746C142.956 67.2648 140.381 74.4044 136.745 80.9774C130.659 91.9798 116.111 96.6349 112.752 109.414C111.512 114.133 113.034 118.874 112.752 123.765C112.179 133.73 111.388 134.845 110.069 145.015C109.753 147.454 104.9 149.117 103.892 145.015C101.608 135.716 102.205 134.4 98.8497 126.751C97.3016 123.221 94.6406 119.846 92.5572 116.638C87.8381 109.374 77.5729 110.245 70.0552 109.764C60.9785 109.183 52.2742 108.206 43.7951 104.615Z" fill="#B3BDB5"/>
</svg>
