<svg width="150" height="150" viewBox="0 0 150 150" fill="none" xmlns="http://www.w3.org/2000/svg">
<g clip-path="url(#clip0_4_103)">
<path fill-rule="evenodd" clip-rule="evenodd" d="M71.6605 70.2166C68.6605 66.7038 67.1362 65.033 60.041 63.0916C53.8924 61.4092 48.098 63.7166 48.098 70.2166C38.6634 70.2166 39.0995 73.7396 43.5952 76.3416C48.0909 78.9436 50.6605 80.7166 53.5198 84.9988C52.8472 88.1207 45.6726 90.4934 43.5952 91.6687C35.3492 96.3326 27.6326 103.44 20.5939 109.626C15.5256 114.078 14.1371 132.172 13.5541 139.001C13.3246 141.672 13.3638 141.836 12.8089 144.423C12.156 147.437 12.6804 150.975 15.4183 147.83C17.2521 145.724 17.6401 145.876 19.2931 144.423C23.4908 140.733 26.4674 134.425 30.921 130.512C39.1504 123.279 48.5748 116.87 60.041 113.54C67.5765 111.352 75.6126 110.715 82.9683 107.961C87.0207 106.445 90.9479 104.581 95.2446 103.741C95.8059 103.631 98.9384 102.515 99.4503 102.917C104.767 107.116 111.397 113.261 117.693 116.437C118.707 116.95 122.464 120.231 123.091 120.108C124.184 119.894 125.742 114.961 126.269 114.031C129.099 109.039 133.961 104.232 136.556 99.6553C136.998 98.8757 131.868 95.9531 131.39 95.5761C127.096 92.1847 117.959 87.6482 112.768 86.4932C111.8 86.2786 104.781 85.4998 105.105 83.9953C106.42 77.8789 110.36 72.9425 111.702 66.7038C114.423 54.0587 116.536 38.8933 118.996 27.4605C119.451 25.3474 122.399 22.8885 123.744 21.4411C127.222 17.6922 130.129 13.2517 133.173 9.05051C133.661 8.37442 137.378 3.78467 137.089 3.55662C131.597 -0.780832 99.3464 7.99522 94.496 12.2577C87.5699 18.3442 87.488 43.442 82.9683 54.6415C80.7089 60.2402 78.886 65.717 71.6605 70.2166Z" fill="#665F4F"/>
</g>
<defs>
<clipPath id="clip0_4_103">
<rect width="150" height="150" fill="white"/>
</clipPath>
</defs>
</svg>
