<svg width="150" height="150" viewBox="0 0 150 150" fill="none" xmlns="http://www.w3.org/2000/svg">
<path fill-rule="evenodd" clip-rule="evenodd" d="M33.8996 25.9884C39.4128 20.4752 51.8168 14.7577 54.4875 14.2232C55.6487 13.991 58.1071 13.4886 60.5985 12.9795C63.1176 12.4647 65.6705 11.943 66.9505 11.6868C74.7803 10.121 84.1895 9.47792 92.0569 11.0514C94.1144 11.463 96.1488 11.7973 98.1588 12.1276C105.245 13.292 112.025 14.4063 118.434 18.6785C126.515 24.0664 129.698 30.8987 133.336 38.7057C134.152 40.4572 134.99 42.2579 135.913 44.1023C148.425 69.1266 157.167 111.108 130.828 130.862C123.339 136.478 115.003 136.612 106.595 136.747C102.584 136.811 98.5581 136.876 94.5993 137.535C80.8228 139.832 62.956 140.73 48.8357 138.807C37.4186 137.252 21.9711 125.992 10.7002 113.065C6.78556 108.575 4.63478 99.9449 3.22635 94.2936C3.17425 94.0845 3.12316 93.8795 3.07304 93.6789C-2.87028 69.9065 17.7817 42.1055 33.8996 25.9884Z" fill="#E5D7CE"/>
</svg>
