<svg width="150" height="150" viewBox="0 0 150 150" fill="none" xmlns="http://www.w3.org/2000/svg">
<path fill-rule="evenodd" clip-rule="evenodd" d="M58.4892 142.697C58.5004 142.871 54.9623 142.045 54.7143 141.673C53.983 140.576 53.9319 139.326 53.4104 138.152C52.2089 135.449 46.4066 129.241 42.5331 129.241C32.5889 129.241 27.199 130.872 17.4169 131.762C15.7054 131.918 7.72191 134.418 8.5491 131.11C10.4349 123.567 23.8157 116.419 30.1973 114.026C33.3655 112.838 35.6441 110.368 38.9346 111.027C42.275 111.695 47.9372 117.614 51.4542 119.373C52.6264 119.959 54.6831 122.795 56.0184 121.459C56.5894 120.889 54.3854 117.148 54.1927 116.634C53.7052 115.334 53.277 114.019 52.7583 112.722C51.8464 110.443 50.9046 108.174 49.8891 105.941C48.3115 102.469 47.2816 98.8993 45.5857 95.5078C44.8225 93.9818 43.0055 91.7111 41.4126 91.0739C35.4423 88.6857 18.087 94.2147 12.3309 96.6814C10.511 97.4616 8.78036 97.2351 6.9842 97.5942C6.62483 97.6662 3.55502 98.6913 3.46314 98.5073C3.02027 97.6218 3.75726 95.5603 4.11519 94.7252C8.21563 85.1576 11.3526 88.4225 19.1123 83.2492C21.2707 81.8102 33.6639 73.8183 36.0656 73.3381C39.324 72.6865 44.3391 74.444 47.2811 75.4245C54.8587 77.9504 59.1722 84.0003 62.1477 90.9434C63.2378 93.4868 64.0434 96.3801 65.408 98.7681C65.549 99.0147 66.8335 101.125 66.9729 100.985C67.4069 100.551 65.9569 96.4518 65.7993 95.7686C64.8994 91.8687 64.2548 87.8613 62.6695 84.162C61.8135 82.1648 60.5379 80.3588 59.8005 78.2935C54.7862 64.2539 49.1065 50.2543 45.977 35.6494C45.2172 32.1048 43.992 28.775 43.108 25.2165C41.1273 17.2457 41.7386 6.07144 42.5331 5.27688C45.1125 2.69749 50.0897 16.8773 50.5411 17.5223C51.7541 19.2549 52.5892 21.2677 53.8014 22.9995C57.0651 27.6618 61.1504 31.9592 63.7126 37.084C65.1273 39.9132 64.7619 44.1497 65.5385 47.256C66.6029 51.5135 68.3878 55.524 69.4508 59.7753C70.5618 64.2198 72.8467 67.6142 74.4063 71.7732C74.8851 73.0494 75.5715 74.4687 75.8409 75.8158C75.963 76.4263 76.1679 76.9272 76.3625 77.5112C76.4059 77.6414 76.493 78.0399 76.493 77.9025C76.493 71.8451 75.9397 65.7837 76.2322 59.6448C76.8912 45.8026 80.5356 32.3618 80.5356 18.4351C80.5356 17.5604 82.34 2.41391 83.7966 1.95062C85.6846 1.35011 87.7725 6.30535 87.969 6.69831C88.9536 8.66744 88.57 16.5329 89.4962 18.6942C91.8175 24.1103 92.834 32.2229 92.4029 38.2577C92.0162 43.6742 92.448 49.1802 91.6206 54.5589C90.75 60.2175 90.529 65.9603 90.0557 71.6427C89.9614 72.7731 89.9252 73.8942 89.9252 75.0335C89.9252 75.7724 89.1863 77.2504 89.9252 77.2504C90.5396 77.2504 92.4862 72.8083 92.7942 72.2947C95.4761 67.8248 99.5163 63.907 102.445 59.5146C107.593 51.7913 113.358 44.2833 118.355 36.432C119.723 34.282 122.703 30.1093 124.534 28.2777C127.661 25.1505 133.001 20.1408 135.7 20.9572C137.679 21.556 134.34 29.5585 132.524 32.5863C131.427 34.4151 129.06 40.2131 127.785 41.9135C125.312 45.2113 124.901 47.1367 122.137 50.5163C118.761 54.6414 116.816 60.3744 114.442 65.1221C112.635 68.7374 110.381 72.0711 108.574 75.6855C106.227 80.3783 101.146 83.8931 98.0107 88.0744C97.7875 88.3721 94.901 91.7461 95.1416 91.9867C95.6702 92.5152 98.3417 89.6282 98.6627 89.3785C101.92 86.8454 105.999 84.8393 109.487 82.5971C112.683 80.5421 115.576 78.1152 119.007 76.4678C120.973 75.5236 127.565 72.7054 129.935 73.8721C132.912 75.3379 137.74 82.1265 139.005 84.6565C139.793 86.2329 142.675 92.1218 141.366 92.7765C140.543 93.1879 135.613 88.6096 134.566 88.9587C131.757 89.8948 130.028 90.9045 126.31 93.0301C123.681 94.5328 120.658 96.6382 117.963 97.9855C110.689 101.623 103.914 106.051 96.837 109.983C92.5116 112.386 88.7273 115.476 84.5784 118.069C84.3908 118.186 81.2714 120.784 81.8397 121.068C84.2975 122.297 93.5388 118.643 95.924 117.808C103.578 115.129 109.169 115.062 113.22 114.113C119.043 112.749 124.359 105.754 126.91 105.657C130.085 105.536 125.534 118.557 121.715 121.139C111.86 127.802 93.4717 138.309 82.1005 141.151C79.8204 141.721 77.6001 143.418 75.1889 144.02C71.4447 144.957 62.8494 142.697 58.4892 142.697Z" fill="#FFBA03"/>
</svg>
