<svg width="150" height="150" viewBox="0 0 150 150" fill="none" xmlns="http://www.w3.org/2000/svg">
<path d="M30.5174 45.9319C27.0032 46.7801 22.4483 46.911 17.9444 49.2587C10.6388 53.0667 6.57849 57.9063 3.94893 65.0437C1.12904 72.6977 3.21322 79.2758 8.23934 85.3945C11.2464 89.0553 16.4717 91.7509 20.6517 93.8836C25.5114 96.363 28.7244 97.7839 34.326 97.7839C39.183 97.7839 43.5691 97.6286 48.3444 96.7515C53.1069 95.8767 57.3454 93.8877 61.9957 92.8282C69.8881 91.0299 79.8491 91.8352 87.2334 95.1455C91.8998 97.2373 96.7878 99.6997 101.183 102.327C105.172 104.711 108.796 108.272 113.022 110.173C121.856 114.149 133.988 114.128 141.472 107.053C144.677 104.023 148.446 100.822 148.446 96.132C148.446 83.6141 140.027 70.0523 133.532 60.4511C129.326 54.2331 124.564 48.6077 120.96 42.0545C115.304 31.7704 109.479 25.5348 98.1545 23.0344C88.851 20.9802 81.2897 23.5743 74.1098 27.1642C64.4401 31.999 54.2292 35.61 44.3752 39.9896C39.7537 42.0435 35.4787 44.7343 30.5174 45.9319Z" fill="#C9907C"/>
</svg>
