<svg width="150" height="150" viewBox="0 0 150 150" fill="none" xmlns="http://www.w3.org/2000/svg">
<path d="M69.9429 30.2864C75.321 20.9837 84.4902 12.2532 93.8821 7.22774C103.809 1.91582 117.667 1.55033 127.778 4.35896C141.418 8.14779 147.72 18.5403 149.63 33.3407C150.711 41.7183 147.884 49.6212 143.246 56.3994C130.797 74.595 107.451 78.3786 92.6164 93.684C84.8567 101.69 82.4862 112.232 78.473 122.191C76.5787 126.892 74.5971 129.597 70.4382 132.702C66.3655 135.743 62.4299 138.577 57.8908 140.847C41.3504 149.117 3.73856 150.642 1.6474 125.025C0.733401 113.829 5.35298 101.354 13.5069 93.629C22.0339 85.5508 35.9586 86.5682 46.1688 81.907C54.9587 77.8942 58.5951 69.7071 60.5323 60.7745C62.7678 50.4666 64.5826 39.5583 69.9429 30.2864Z" fill="#A98E5F"/>
</svg>
