<svg width="150" height="150" viewBox="0 0 150 150" fill="none" xmlns="http://www.w3.org/2000/svg">
<path d="M22.9683 38.4141C18.9325 32.7527 11.2693 21.1914 8.94171 14.4833C7.948 11.6191 12.0689 12.6654 13.6016 12.7201C15.1342 12.7748 32.2183 12.7201 33.752 12.7201C40.1227 12.7201 52.2019 11.6903 58.5621 11.6191C79.6485 11.3833 93.0613 11.6191 114.147 11.6191C121.952 11.6191 130.932 10.3396 138.608 12.2875C140.86 12.859 144.328 14.0134 144.834 16.7837C144.834 18.3874 140.123 23.9098 135.259 29.722C124.76 42.2701 116.62 49.1167 99.2407 67.0002C98.018 67.8211 91.8953 75.2241 89.0396 79.7201C85.2356 85.709 86.6467 95.8155 86.6467 97.7295C86.6467 109.632 84.7576 134.756 82.4907 142.942C78.6979 144.55 59.8908 143.832 59.0659 141.305C55.9611 131.792 54.5652 114.442 54.5652 104.581C54.5652 95.0885 55.0937 85.6288 55.0937 76.1459C55.0937 74.4954 53.8071 73.8249 52.6858 72.8041C48.9066 69.3635 44.9988 65.8827 41.5564 62.08C34.878 54.7024 28.7644 46.5448 22.9683 38.4141Z" fill="#A98E5F"/>
</svg>
