<svg width="150" height="150" viewBox="0 0 150 150" fill="none" xmlns="http://www.w3.org/2000/svg">
<path fill-rule="evenodd" clip-rule="evenodd" d="M81.234 137.909C72.2441 138.046 57.6924 112.973 52.7394 106.048C45.5186 95.953 45.5725 95.9789 38.1346 85.9893C32.6275 78.5929 26.1642 70.9594 22.3076 62.5703C21.2429 60.2541 19.1641 54.2058 18.6425 52.7151C15.7286 44.3865 12.3469 34.6451 15.2186 25.8418C17.1598 19.8911 24.6419 18.7351 30.1984 18.8135C43.5544 19.0021 54.9218 27.2612 62.4406 37.4182C66.5593 42.9817 69.2182 49.1968 72.2844 55.3336C73.1165 56.9988 73.9996 58.6395 74.8526 60.2947C75.236 61.0394 75.5891 61.7991 75.9937 62.5331C76.256 63.0091 76.5073 63.4979 76.8514 63.9224C76.9923 64.096 77.2847 64.4689 77.4205 64.2915C78.0328 63.4895 78.2998 62.4863 78.6609 61.553C80.0117 58.0598 81.4243 52.9183 82.5563 49.6833C83.4564 47.1118 85.191 43.206 86.5627 40.8752C88.3659 37.8117 90.1914 34.7517 92.2585 31.848C94.3274 28.9412 96.6408 26.2011 98.9521 23.4699C100.043 22.1803 101.247 20.9816 102.457 19.7954C107.71 14.6479 115.467 8.74422 123.501 11.0962C132.834 13.8278 134.793 25.3453 134.45 33.4212C134.332 36.1838 134.16 38.9507 133.773 41.6903C130.088 67.7614 116.217 91.2125 101.673 112.939C99.6413 115.975 86.877 137.822 81.234 137.909Z" fill="#AF968F"/>
</svg>
