<svg width="150" height="150" viewBox="0 0 150 150" fill="none" xmlns="http://www.w3.org/2000/svg">
<path fill-rule="evenodd" clip-rule="evenodd" d="M1.20197 98.0296C-0.42087 97.7811 9.3196 77.8843 10.8436 74.4499C16.7929 61.0419 23.0922 47.8776 30.6258 35.3649C32.0705 32.9651 34.7926 29.1391 36.7968 27.0501C38.1174 25.674 39.7796 24.0987 41.8007 24.0066C46.0479 23.8131 50.892 27.0755 53.9288 29.8664C60.0072 35.4527 64.9693 41.8254 69.5835 48.7639C72.1406 52.6087 74.1743 56.829 76.8345 60.5958C77.2235 61.1467 78.8523 61.1488 79.3424 60.6956C80.5319 59.5957 88.9207 48.4935 92.4204 44.602C94.4604 42.3336 96.5334 40.093 98.7167 37.9774C103.4 33.4393 108.989 28.2669 115.345 26.4085C116.307 26.1272 118.309 25.5249 119.574 26.0073C120.955 26.5342 122.241 28.1536 122.996 29.1938C124.717 31.5662 126.892 35.878 127.966 38.4784C129.773 42.8526 131.513 47.2607 133.089 51.7323C136.425 61.1965 139.754 72.658 142.418 82.3529C143.227 85.2961 148.775 106.188 148.978 109.333C149.032 110.167 147.62 110.21 146.891 110.541C145.512 111.166 144.095 111.699 142.669 112.195C136.084 114.483 135.605 114.588 128.981 115.826C127.001 116.197 124.989 117.266 123.023 116.82C122.046 116.598 121.927 115.057 121.469 114.122C120.628 112.406 119.87 110.645 119.13 108.878C114.74 98.3854 111.821 90.6573 107.336 80.245C106.66 78.676 105.957 77.115 105.132 75.6272C104.761 74.9599 104.483 73.9784 103.766 73.8075C103.141 73.6584 102.645 74.4788 102.158 74.918C101.08 75.8904 100.081 76.9577 99.0895 78.0273C91.5212 86.1911 88.9823 89.4479 81.1463 97.4629C79.2478 99.4046 76.4267 102.692 73.3621 102.324C71.6871 102.124 70.2756 101.135 68.9769 100.048C67.7488 99.0201 65.4485 96.2407 64.4151 94.9469C60.9409 90.5968 47.4713 71.8551 46.5537 72.7801C43.2586 76.1009 34.2659 95.2698 29.0668 102.93C28.1297 104.311 27.1496 105.66 26.1137 106.96C24.5683 108.899 23.7876 111.363 21.2591 110.729C19.4345 110.272 16.4902 107.795 15.3486 107.062C12.961 105.527 10.5122 104.101 8.09407 102.621C5.69464 101.152 3.37137 99.8682 1.20197 98.0296Z" fill="#775B33"/>
</svg>
