<svg width="150" height="150" viewBox="0 0 150 150" fill="none" xmlns="http://www.w3.org/2000/svg">
<path fill-rule="evenodd" clip-rule="evenodd" d="M7.80743 124.704C7.56197 127.433 7.34419 140.395 8.15767 144.111C8.80367 147.059 28.388 147.03 31.3734 145.965C36.463 144.15 34.9992 108.407 35.5 102.395C38.0042 72.3199 42.0071 38.3978 75.9347 29.5834C102.888 22.5811 111.002 58.9004 113.472 77.6316C114.158 82.8368 114.602 88.0783 114.842 93.3233C115.23 101.777 115.123 110.246 115.354 118.705C115.622 128.596 116.113 143.585 120.555 146.267C122.157 147.234 136.263 148.385 141.284 145.965C143.925 144.693 141.715 122.568 140.205 109.279C137.077 81.7584 134.792 60.4387 126.493 34.2967C118.223 8.24336 91.5883 3.35099 76.9272 2.89817C37.0988 1.66821 17.9759 40.5272 12.5208 74.1446C8.44102 99.2871 10.0999 99.2578 7.80743 124.704Z" fill="#939878"/>
</svg>
