<svg width="150" height="150" viewBox="0 0 150 150" fill="none" xmlns="http://www.w3.org/2000/svg">
<g clip-path="url(#clip0_4_105)">
<path fill-rule="evenodd" clip-rule="evenodd" d="M18.5657 68.0641L18.6415 68.1218C19.2419 68.5571 21.597 69.7457 23.7765 71.8043C25.9741 73.8798 27.8978 76.7305 28.4487 77.3691C31.1417 79.2184 32.4043 79.4017 34.2221 80.6548C35.3707 81.4466 36.5932 83.0315 38.8095 85.4547C41.418 87.414 44.3947 85.0828 45.4528 80.2521C46.5107 75.4213 45.2519 69.9086 42.6434 67.9492C39.9147 66.7271 38.3044 66.4081 37.0317 65.6498C35.5321 64.7564 34.7137 63.5533 32.7384 61.2551C32.1464 60.8464 29.8328 59.6848 27.7029 57.6452C25.5501 55.5837 23.6812 52.7392 23.1492 52.0843C22.9655 51.8516 21.5891 50.1679 21.147 49.7655C19.7199 48.4665 18.5374 49.3867 17.9467 49.5697C17.0684 49.8414 16.4956 50.9239 15.9106 51.7102C14.8432 53.1453 13.1183 57.2884 15.303 64.383C16.123 66.4291 17.3061 67.6846 18.5657 68.0641Z" fill="#42535D"/>
<path fill-rule="evenodd" clip-rule="evenodd" d="M53.1252 39.2668C52.5551 37.7982 52.0941 36.1888 51.4577 34.7891C50.444 32.5597 49.0764 31.0004 48.0718 28.7612C46.8381 26.0112 45.933 22.9828 44.7476 20.2504C42.6773 16.7183 39.4481 16.9632 37.5408 20.7971C35.6335 24.6309 35.7658 30.6113 37.836 34.1433C39.1032 35.7318 40.4623 37.0889 41.5022 39.2445C42.5049 41.323 43.0132 44.0464 43.9575 46.2207C44.6275 47.7632 45.4447 49.0219 46.2067 50.3775C46.7952 51.3724 47.4479 52.2073 47.9498 53.3482C48.4353 54.4518 48.721 55.7661 49.1048 57.0139C49.2179 57.4563 50.0551 60.23 50.4393 61.2718C52.1139 65.8127 54.8146 64.2919 55.3915 64.1169C57.3676 63.5176 59.3295 61.0511 59.3295 54.8904C57.6523 46.2207 57.4283 50.969 53.1252 39.2668Z" fill="#42535D"/>
<path fill-rule="evenodd" clip-rule="evenodd" d="M78.6953 49.2178C78.5719 48.2753 78.4725 47.3205 78.4125 46.34C78.3087 44.6453 78.359 42.931 78.3313 41.2319C78.4196 38.0636 78.7196 34.9409 78.6724 31.7651C78.6238 28.4917 78.0309 25.3575 77.9941 22.0842C77.9433 17.5704 78.3802 13.1816 78.4698 8.67438C78.24 3.4789 75.7758 -0.393728 72.9703 0.0317096C70.1648 0.457314 68.0737 5.02105 68.3034 10.2165C68.7514 14.3035 69.3882 18.287 69.4482 22.46C69.4946 25.6872 68.9416 28.8122 68.9472 32.0412C68.9529 35.3403 69.3114 38.5651 69.5338 41.8336L69.268 55.1475C69.028 60.0254 71.4119 62.291 72.3032 63.4301C73.6372 65.1345 75.0953 64.2763 76.4289 63.548C77.5393 62.9416 79.4381 60.7323 79.5989 54.5766C79.5989 52.5863 79.2658 50.739 78.6953 49.2178Z" fill="#42535D"/>
<path fill-rule="evenodd" clip-rule="evenodd" d="M109.394 17.9787L106.001 23.8646C105.143 25.1324 104.239 26.3057 103.456 27.8071C101.93 30.7335 100.899 34.51 99.4639 37.6625C97.9943 40.8914 96.3363 43.6446 94.8866 46.7334C93.4276 50.6708 93.9213 56.1236 95.9885 58.9027C98.0557 61.6816 100.918 60.7413 102.378 56.8039C103.311 53.5467 104.123 50.0726 105.397 47.1122C106.536 44.4661 108.12 42.681 109.347 40.2194C110.179 38.5487 110.822 36.6363 111.586 34.9272C112.079 33.8957 112.533 32.8034 113.098 31.9277C116.043 27.3574 115.942 28.6727 117.517 25.9898C119.369 22.8336 118.482 4.37798 110.617 14.5524C110.051 15.5234 109.641 16.7035 109.394 17.9787Z" fill="#42535D"/>
<path fill-rule="evenodd" clip-rule="evenodd" d="M116.623 84.5556C117.383 83.2643 118.432 81.3001 119.999 80.3801C121.047 79.7645 122.228 80.1714 123.372 79.624C125.126 78.7851 126.653 76.6534 128.312 75.8386C129.842 75.0867 131.253 74.9977 132.517 74.511C135.101 72.4447 136.293 66.8815 135.178 62.0956C134.062 57.3096 131.058 55.1017 128.474 57.168C127.686 58.1962 126.927 59.6363 125.827 60.4074C124.367 61.4312 122.628 61.2025 121.031 62.0628C119.279 63.0073 117.769 64.9291 116.222 65.8204C114.103 67.0418 112.282 67.7498 110.953 68.8528C108.613 71.7506 107.984 77.6215 109.548 81.9547C111.113 86.288 114.283 87.4535 116.623 84.5556Z" fill="#42535D"/>
<path fill-rule="evenodd" clip-rule="evenodd" d="M51.2696 128.583C52.13 126.922 52.5026 124.646 53.3681 122.993C54.5727 120.694 56.0591 119.21 57.393 117.199C59.2361 113.259 59.0052 107.289 56.8777 103.876C54.7501 100.463 51.5264 100.89 49.6833 104.831C48.8877 107.288 48.3201 109.943 47.2399 112.019C46.399 113.634 45.1909 114.311 44.3268 115.885C43.4409 117.498 42.8634 119.515 42.1426 121.375L39.9835 124.763C39.9098 124.847 38.4403 127.234 37.9 128.242C36.3247 131.181 37.0333 134.678 37.1056 135.676C37.4417 140.318 39.1586 143.093 42.0993 143.093C47.9018 143.093 47.0487 136.733 51.2696 128.583Z" fill="#42535D"/>
<path fill-rule="evenodd" clip-rule="evenodd" d="M69.8762 140.555C69.8762 145.768 72.1616 150 74.9765 150C77.7914 150 80.0767 145.768 80.0767 140.555C79.3613 135.747 79.9366 132.851 79.7823 128.077C79.6302 123.379 79.3856 121.023 79.9384 116.08C79.9384 110.867 77.6531 106.634 74.8382 106.634C67.4916 106.634 71.341 130.714 69.8762 140.555Z" fill="#42535D"/>
<path fill-rule="evenodd" clip-rule="evenodd" d="M93.1687 110.795C94.2413 112.889 95.332 114.854 96.0598 117.404C96.4821 118.884 96.7152 120.433 97.0907 121.98C97.4354 123.19 97.7587 124.395 98.2246 125.432C99.2464 127.706 100.742 128.929 101.838 131.064C102.78 132.901 103.335 135.131 104.095 137.269C106.081 140.963 109.313 140.976 111.308 137.298C113.303 133.62 113.31 127.635 111.324 123.941C110.15 122.495 108.892 121.542 107.871 119.781C106.946 118.186 106.575 115.844 105.782 114.01C105.482 113.313 105.073 112.822 104.749 112.146C104.336 111.39 103.834 110.838 103.557 109.909C102.646 106.846 102.41 103.422 101.627 100.237C100.054 95.9141 96.8816 94.7701 94.5474 97.6837C92.2132 100.597 91.5954 106.472 93.1687 110.795Z" fill="#42535D"/>
</g>
<defs>
<clipPath id="clip0_4_105">
<rect width="150" height="150" fill="white"/>
</clipPath>
</defs>
</svg>
