<svg width="150" height="150" viewBox="0 0 150 150" fill="none" xmlns="http://www.w3.org/2000/svg">
<path d="M28.0965 134.815C36.2276 138.067 53.4985 141.519 77.6745 141.316C94.9963 141.171 132.628 134.815 135.597 125.466C137.324 118.558 129.847 110.178 128.216 109.585C121.552 107.162 117.387 106.887 110.676 105.855C108.292 105.487 105.9 105.567 103.502 105.567C102.44 105.567 100.346 106.429 100.346 106.429C100.346 106.429 102.2 104.235 103.215 103.559C105.148 102.271 106.923 100.478 108.811 98.9678C115.928 93.273 123.404 88.5786 130.189 81.1768C132.771 78.3598 135.42 71.8401 132.628 66.2548C130.321 61.6422 126.514 63.3631 123.589 64.533C116.781 67.2561 110.06 73.602 103.789 79.4549C100.346 82.6684 94.6064 90.3587 94.6064 90.3587C94.6064 90.3587 100.836 78.0354 101.206 77.1595C102.715 73.5924 104.695 70.9067 106.228 67.403C107.425 64.666 108.522 61.9542 109.815 59.3675C113.23 52.5385 125.025 28.2338 114.406 22.9241C111.221 21.3318 107.479 25.1587 104.65 27.5159C96.6611 34.1729 91.5482 49.2791 86.7152 62.8112C84.9903 67.6412 83.3728 73.3195 82.8413 79.1681C82.6349 81.4384 82.2672 83.7513 82.2672 86.0546V80.3154C82.2672 76.3746 82.096 72.4799 81.9804 68.5503C81.5006 52.2456 80.5541 37.0377 77.9631 21.49C77.1565 16.6504 76.7441 7.57193 73.2283 8.57669C69.8537 9.5406 67.9237 17.6647 66.9151 23.2118C65.0485 33.4768 63.5965 67.403 67.3457 95.2373C64.7349 88.5619 62.1693 82.3002 59.3107 76.0113C56.0852 68.9145 53.1048 61.0277 49.4108 54.7766C46.7547 50.2812 43.6582 47.2313 40.9456 43.0115C37.9852 38.4066 34.1139 32.6588 30.3282 36.9855C25.387 42.6325 31.0279 54.302 33.0544 59.3675C37.6384 70.8276 42.5622 83.0159 47.9758 92.9419C50.9341 98.3655 54.6285 102.517 57.4454 108.151C57.7366 108.732 56.7836 107.172 56.4411 106.716C55.6054 105.601 54.7971 104.509 54.0022 103.272C51.6155 99.5597 49.2883 95.9466 46.8281 92.3682C40.7478 83.5235 32.2999 76.4155 24.8759 73.7158C22.5874 72.8831 19.1724 71.0909 16.9847 73.7158C13.9317 77.3794 18.3945 85.1611 19.7109 86.9159C25.9797 95.2739 30.204 103.458 37.0965 109.585L49.2674 120.489C49.2674 120.489 39.8956 115.466 39.2237 115.063C32.2295 110.867 27.2283 109.585 19.9977 109.585C17.9521 109.585 13.2712 113.886 14.0965 120.489C15.1169 128.653 24.2922 133.294 28.0965 134.815Z" fill="#939878"/>
</svg>
