<svg width="150" height="150" viewBox="0 0 150 150" fill="none" xmlns="http://www.w3.org/2000/svg">
<path fill-rule="evenodd" clip-rule="evenodd" d="M35.627 54.1356C34.6437 54.7135 33.6917 55.343 32.7736 56.0215C27.6045 59.8412 23.521 65.2537 21.0384 71.9543C17.0032 73.0206 13.0523 74.541 9.93246 76.6376C5.29489 79.7541 2.33101 84.0569 2.0468 89.5408C1.79668 94.3642 2.56035 98.7445 4.0689 102.891C5.49878 106.821 7.6343 110.534 10.2749 114.209C14.7799 120.444 19.8966 125.683 25.8761 129.175C32.1927 132.863 39.4756 134.655 48.1095 133.624C49.6182 133.441 51.1171 133.142 52.5783 132.718C55.2468 135.322 58.4272 137.448 61.9584 138.945C70.33 142.467 79.9914 143.313 89.3725 141.852C98.5595 140.422 107.46 136.836 114.527 131.671C117.212 129.704 119.762 127.529 122.078 125.132C124.434 122.693 126.563 120.041 128.362 117.158C129.741 114.948 131.121 112.639 132.199 110.215C132.994 108.428 133.642 106.586 134.036 104.679C135.394 98.1157 134.303 92.7635 131.661 88.4462C134.684 86.0955 137.461 83.4759 139.918 80.7255C141.809 78.6113 143.862 75.9631 145.322 73.1349C146.407 71.0321 147.175 68.8328 147.396 66.665C148.148 59.361 145.069 54.0819 140.162 50.5035C133.594 45.7139 123.516 44.14 115.857 45.0339L115.609 45.066C117.491 40.952 118.725 36.5737 118.785 32.3963C118.878 26.0012 116.391 20.018 109.636 15.8458C100.726 10.3255 89.7234 10.4382 80.1251 14.4013C77.7303 15.39 75.4269 16.6186 73.2687 18.0561C70.0461 14.671 66.3549 11.9019 62.373 10.0619C54.3818 6.36943 45.2148 6.29875 36.0616 12.2987C34.7195 13.1784 33.4586 14.1636 32.282 15.2406C31.1064 16.3168 30.0189 17.4889 29.0222 18.7445C23.5664 25.6177 22.6004 31.5366 23.8126 36.8057C25.2764 43.1683 30.4769 48.6913 35.627 54.1356ZM68.38 21.9033C65.7953 19.3322 62.8842 17.2289 59.7493 15.8215C53.6245 13.0718 46.6374 13.1422 39.7066 17.7939C38.6702 18.4894 37.6983 19.2667 36.7923 20.1143C35.8853 20.963 35.0483 21.8863 34.2823 22.8733C30.5835 27.6383 29.6183 31.6151 30.4942 35.2268C31.9487 41.223 37.5645 46.0612 42.5348 51.0814C45.8918 50.0355 49.4787 49.5045 53.2156 49.5448C57.8812 49.6043 63.3066 50.8451 67.4687 53.5966C70.5726 55.6485 73.0258 58.4821 74.1738 62.2295C76.0201 68.2657 71.0988 72.1213 62.1574 70.3385C55.8447 69.0799 47.4292 65.3064 41.6931 60.3765C40.3464 61.0577 39.0722 61.8641 37.8788 62.7844C35.3603 64.7262 33.2174 67.1858 31.5452 70.0892C33.6683 69.8755 35.5874 69.7844 37.1495 69.7873C40.4741 69.7935 44.6738 70.2302 47.9791 71.8592C50.9069 73.3019 53.2437 75.5518 54.3651 78.8972C55.7174 82.9321 54.9752 86.8708 52.843 90.1909C50.1304 94.4151 45.0834 97.5549 40.3102 98.2095C33.8116 99.099 27.7108 95.993 23.851 90.913C22.0512 88.5443 20.7487 85.7774 20.109 82.8797C16.2103 84.3528 12.6442 86.2768 12.507 90.0047C12.3846 93.3291 12.9609 96.337 14.0427 99.1772C15.1937 102.199 16.9264 105.022 19.0104 107.833C22.6218 112.731 26.6225 116.93 31.3789 119.648C35.5374 122.024 40.2929 123.177 45.8549 122.625C44.7758 119.862 44.1312 116.89 43.9903 113.78C43.9304 112.459 43.8363 111.012 43.9579 109.633C44.036 108.744 44.1997 107.878 44.4535 107.051C45.8537 102.489 49.6204 99.474 53.7873 98.555C58.213 97.5792 63.0069 98.9612 66.0142 102.988C69.0374 107.045 69.7356 111.594 68.8385 115.963C68.0047 120.024 65.6763 123.926 62.6407 126.919C63.7573 127.726 64.9691 128.418 66.255 128.982C72.816 131.882 80.4444 132.562 87.8754 131.557C95.4714 130.53 102.887 127.785 108.807 123.658C111.086 122.072 113.26 120.315 115.241 118.363C117.181 116.451 118.95 114.367 120.451 112.087C121.464 110.549 122.488 108.961 123.356 107.297C124.118 105.836 124.778 104.324 125.149 102.728C126.014 99.0057 125.634 95.8875 124.322 93.3244C118.669 96.4731 112.481 98.5321 106.097 98.9034C102.181 99.1315 92.607 98.9003 87.4124 95.8261C83.7657 93.668 81.798 90.391 82.7652 85.7183C83.7536 80.9435 87.8896 77.7833 93.3046 76.2218C99.5409 74.4236 107.417 74.7698 111.345 75.6952C117.56 77.1593 123.317 79.762 127.532 83.5452C130.386 81.4365 133.011 79.056 135.336 76.5524C136.694 75.0886 138.165 73.3202 139.35 71.3987C140.411 69.6776 141.273 67.8449 141.494 66.0102C142.077 61.1087 140.044 57.5299 136.777 55.0814C131.337 51.0031 122.875 49.7678 116.461 50.4483C115.02 50.6011 113.617 50.8476 112.243 51.1829C110.842 53.3481 109.313 55.3431 107.76 57.0769C106.252 58.7685 104.631 60.3963 102.912 61.9108C101.175 63.4397 99.3368 64.8524 97.4105 66.1005C97.016 66.3561 94.6432 67.6959 93.202 67.8374C91.6399 67.9908 90.5405 67.3269 89.9303 66.2948C89.2908 65.2131 89.1176 63.991 89.3204 62.7309C89.6228 60.8538 90.927 58.8437 91.816 57.705C93.1613 55.9821 94.739 54.3574 96.4735 52.9221C98.2196 51.477 100.125 50.2253 102.111 49.2527C104.288 48.1799 106.492 47.2752 108.755 46.5631L109.002 46.4882C111.576 42.0752 113.447 37.0634 113.506 32.3251C113.564 27.6987 111.739 23.3824 106.846 20.3759C99.3924 15.8107 90.2098 16.0966 82.2249 19.4465C80.3498 20.2331 78.5381 21.19 76.83 22.2987C78.2662 24.2339 79.5619 26.2959 80.6962 28.4432C82.4319 31.7229 85.1963 40.0834 84.3097 45.9107C83.7436 49.6317 81.8752 52.4538 78.3144 53.5053C73.0542 55.0586 67.3631 53.5645 63.4699 50.2284C59.4057 46.7462 57.2473 41.3601 59.307 35.4519C61.0976 30.298 64.3004 25.6754 68.38 21.9033ZM55.8681 117.733C55.4297 116.334 55.1706 114.859 55.1159 113.329L55.1266 110.382C55.2433 110.014 55.548 109.783 55.8665 109.643C56.2391 109.48 56.7294 109.361 56.997 109.72C58.2187 111.353 58.1171 113.255 57.4606 114.961C57.0816 115.946 56.533 116.885 55.8681 117.733ZM119.751 88.2777C115.344 90.4001 110.616 91.7452 105.776 91.9085C103.469 91.9865 98.7426 91.9042 94.7287 90.865C93.4401 90.5313 92.2343 90.0938 91.2677 89.4894C90.4926 89.0048 89.9502 88.3509 90.1834 87.3483C90.8295 84.5702 94.26 83.866 97.6299 83.3433C102 82.6655 106.783 83.0303 109.355 83.7027C113.189 84.7055 116.84 86.1785 119.751 88.2777ZM28.7643 80.5489C32.0081 79.982 35.0333 79.7415 37.2057 79.7131C38.9317 79.6903 41.053 79.7513 42.9097 80.362C43.8616 80.675 44.8356 81.05 45.1877 82.0501C45.6976 83.4982 45.0337 84.8635 44.0803 85.9606C42.7547 87.4861 40.8252 88.6341 38.9485 88.928C35.8256 89.4169 32.9595 87.7429 31.0526 85.3312C29.9505 83.9372 29.1245 82.2808 28.7643 80.5489ZM65.9781 62.6442C64.7704 62.6821 63.127 62.9412 61.4902 62.5084C57.9732 61.5781 53.9531 59.9275 50.4228 57.78C51.3383 57.6719 52.2703 57.6144 53.2156 57.6042C55.9659 57.5691 59.1227 58.0403 61.8192 59.3105C63.4746 60.0905 64.9751 61.1605 65.9781 62.6442ZM102.331 55.2226C101.408 56.1715 100.446 57.0895 99.4461 57.9653C98.4985 58.7954 97.5173 59.5876 96.5045 60.3301C97.5008 59.1422 98.6305 58.0228 99.8532 57.0162C100.643 56.3661 101.472 55.763 102.331 55.2226ZM72.0055 26.0832C73.242 27.7291 74.362 29.4826 75.35 31.3048C76.3916 33.2278 77.9169 37.325 78.4092 41.2319C78.7762 44.1452 79.0777 47.1538 76.6331 47.8978C73.2982 48.913 69.6827 47.9491 67.1906 45.8495C64.8083 43.8423 63.4687 40.7348 64.639 37.2859C66.086 33.0362 68.6882 29.226 72.0055 26.0832Z" fill="#A85E2D"/>
</svg>
