<svg width="150" height="150" viewBox="0 0 150 150" fill="none" xmlns="http://www.w3.org/2000/svg">
<path fill-rule="evenodd" clip-rule="evenodd" d="M91.1488 18.1888C80.6582 -5.21905 49.6951 5.38275 45.6109 20.2045C39.2541 43.2718 39.3456 66.6833 31.1258 88.0545C28.838 94.0035 23.7977 101.858 18.6739 105.843C12.6727 110.511 5.64774 113.157 2.91862 121.344C0.0359935 129.992 3.4277 139.515 11.8126 143.707C20.3219 147.962 28.6215 145.627 35.5 139.895C42.3785 134.163 45.9341 124.648 51.9341 124.648C57.9341 124.648 60.4235 134.31 65.5 138.371C67.4064 139.895 81.3337 149.71 91.1488 139.895C95.0696 135.975 95.453 126.091 101.771 124.648C109.086 122.978 108.473 129.62 117 138.371C125.738 143.613 130.552 141.895 136.84 134.559C143.874 126.352 137.461 115.121 132.774 107.622C125.705 96.3116 114.118 88.0971 108.124 76.1109C99.0825 58.0269 99.2413 36.2454 91.1488 18.1888Z" fill="#DBB375"/>
</svg>
