<svg width="150" height="150" viewBox="0 0 150 150" fill="none" xmlns="http://www.w3.org/2000/svg">
<path d="M102 81.7264C104.383 86.0957 107 97.7346 117.736 97.7346C137.306 97.7346 117.085 50.3818 123.088 49.1343C127.119 44.5538 138.16 47.2652 141.141 50.2464C143.136 52.2411 144.797 57.4436 145.551 60.0832C148.658 70.9563 144.742 84.7289 141.141 98.4129C138.911 106.889 138.16 117.382 123.088 120.644C108.017 123.907 97.3885 104.17 92.5179 105.644C87.6473 107.119 74.4309 121.382 62.1073 125.21C36.881 133.045 13.3224 115.723 6.13912 94.1731C4.31281 88.6944 4.10376 83.2705 4.10376 77.5521C4.10376 60.9793 9.46404 52.0169 23.9471 43.6319C30.8037 39.6623 54.6267 33.2715 58.9999 37.6445C63.3732 42.0174 56.9999 49.1343 54.3056 53.1445C51.6113 57.1547 38.5651 56.4551 32.9999 60.0832C24.0304 65.9307 22.1981 74.7304 23.9471 81.7264C24.8286 85.2526 23.9856 85.5234 29.4928 94.1731C34.9999 102.823 52.4446 108.924 62.9553 98.4129L63.0373 98.3309C67.6685 93.7 72.138 89.2306 73.6403 82.4706C75.0641 76.063 72.8373 65.9124 76.296 60.0832C79.7547 54.254 88.13 54.8256 92.5179 58.2264C96.9058 61.6271 97.9509 74.3034 102 81.7264Z" fill="#775B33"/>
</svg>
