<svg width="150" height="150" viewBox="0 0 150 150" fill="none" xmlns="http://www.w3.org/2000/svg">
<g clip-path="url(#clip0_4_128)">
<path d="M33.2138 53.1401C38.6272 45.2521 45.5843 39.8949 53.6422 34.9706C77.9664 20.1058 89.7998 20.0611 108.838 31.484C121.922 39.3344 151.449 38.7837 164.869 34.0867C175.451 30.383 189.802 8.06018 200.962 8.06018C207.788 8.06018 212.238 9.7434 218.395 12.4798C226.862 16.243 227.114 25.8253 225.712 33.8903C223.546 46.3435 217.291 60.4789 221.931 73.4702C224.41 80.4128 233.033 81.1653 239.167 79.4612C247.219 77.2247 255.127 70.0365 261.658 65.073C268.775 59.6639 277.224 56.0593 286.211 59.3275C293.844 62.1029 301.041 65.1917 301.041 74.4033C301.041 83.2752 296.605 94.4604 291.318 101.559C285.301 109.64 279.902 118.795 271.43 124.688C263.5 130.205 254.954 132.551 243.587 134.362C224.656 137.379 213.827 131.039 194.971 127.586C164.482 122.002 143.809 107.943 118.07 107.943C109.156 107.943 100.762 108.495 91.9454 109.711C84.069 110.797 73.7576 114.447 66.9992 118.55C60.1484 122.71 52.4528 126.533 46.4235 131.809C37.1295 139.941 25.999 145.213 13.2765 142.22C-3.82117 138.197 1.57172 121.601 3.84806 107.943C5.43982 98.3925 10.4909 90.8556 15.0935 82.3585C20.4838 72.4072 26.8325 62.4386 33.2138 53.1401Z" fill="#B3BDB5"/>
</g>
<defs>
<clipPath id="clip0_4_128">
<rect width="150" height="150" fill="white"/>
</clipPath>
</defs>
</svg>
