<svg width="150" height="150" viewBox="0 0 150 150" fill="none" xmlns="http://www.w3.org/2000/svg">
<path d="M54.7346 130.684C56.2443 124.173 57.1222 119.229 58.882 112.767C54.7346 111.772 53.0897 110.115 51.2508 108.712C43.8253 103.045 38.4914 98.5241 34.6613 89.7999C33.2076 86.4888 32.7396 82.7238 31.7489 79.2564C28.8204 69.0067 29.6212 58.8999 29.6845 48.3999C29.7547 36.733 30.5821 24.8446 32.007 13.2671C32.1427 12.1644 31.8872 8.69676 33.1498 7.99531C35.2413 6.83339 38.6405 7.02494 40.9653 6.59442C42.938 6.22911 51.9881 3.46085 52.9097 6.59442C52.9097 9.42552 52.2086 12.2513 51.9881 15.0735C51.5826 20.2642 51.5826 25.4312 51.5826 30.6348V30.6492C51.5826 43.8958 53.0474 56.8255 54.7346 69.9478C55.0391 72.316 55.4205 74.6747 55.7115 77.0444C55.9832 79.2564 57.8866 77.9023 57.7023 74.2427C58.4326 70.0695 57.8866 65.3695 57.8866 61.1554C57.8866 53.9608 58.8226 47.2268 59.693 40.1052C60.4369 34.0185 61.2453 27.9451 62.3657 21.912C63.2511 17.145 63.7952 11.9763 65.5177 7.42389C66.2344 5.52999 66.4795 3.27652 68.8541 3.27652H74.1811C76.2795 3.27652 80.6248 2.43431 82.5312 3.46085C83.2017 3.82188 82.1775 7.38247 82.1257 7.79255C81.7921 10.4333 81.8253 13.0854 81.4437 15.7186C79.8714 26.5673 79.973 37.5892 79.4529 48.5105C79.1178 55.548 77.8499 62.5059 77.499 69.5239C77.3817 71.8699 77.4622 74.2351 77.4622 76.5836C77.4622 77.5177 77.1643 79.2894 77.794 80.1043C79.5441 82.3691 84.8585 70.6397 85.1671 69.6713C87.7221 61.654 91.5032 54.1788 93.6461 46.0037C94.7842 41.662 95.5891 37.2538 96.7797 32.9164C98.7984 25.5625 101.316 18.2371 104.263 11.2026C104.71 10.1365 105.131 7.78862 106.328 7.92158C106.977 7.99368 107.519 8.39071 108.134 8.58516C109.778 9.10436 111.541 9.2116 113.222 9.58053C116.544 10.3099 119.488 11.4045 120.669 14.8154C121.044 15.9012 120.9 16.9767 120.927 18.1333C120.962 19.6801 121.59 21.1645 121.59 22.7415C121.59 28.8217 121.158 34.7178 120.521 40.7688C120.082 44.9383 118.786 48.9384 117.867 53.0081C116.985 56.9137 115.897 60.9857 114.291 64.6576C112.28 69.2531 110.391 73.9317 108.485 78.5744C106.827 82.6107 106.273 86.9601 104.3 90.9059C101.059 97.3879 95.5702 102.096 90.273 106.758C87.9946 108.763 84.8936 110.674 82.0704 111.772C80.7852 112.272 79.3954 112.239 78.9921 113.763C78.7726 114.592 78.5474 115.578 78.476 116.435C77.8688 123.721 76.9759 130.988 76.3009 138.278C75.9966 141.565 76.6653 146.206 73.1305 147.753C71.3229 148.543 68.1021 148.002 66.1813 147.918C63.7327 147.812 61.3276 146.915 58.882 146.61C56.1512 146.268 52.6972 145.272 51.7485 142.425C50.5689 138.887 53.9203 134.196 54.7346 130.684Z" fill="#A85E2D"/>
</svg>
